<?xml version="1.0" encoding="utf-8"?>
<!-- Generator: Adobe Illustrator 16.0.0, SVG Export Plug-In . SVG Version: 6.00 Build 0)  -->
<!DOCTYPE svg PUBLIC "-//W3C//DTD SVG 1.1//EN" "http://www.w3.org/Graphics/SVG/1.1/DTD/svg11.dtd">
<svg version="1.1" id="Layer_1" xmlns="http://www.w3.org/2000/svg" xmlns:xlink="http://www.w3.org/1999/xlink" x="0px" y="0px"
	 width="50px" height="50px" viewBox="0 0 50 50" enable-background="new 0 0 50 50" xml:space="preserve">
<g>
	<path fill="#FFFFFF" d="M25,12.949c-6.385,0-11.563,4.959-11.563,11.077c0,7.265,5.045,9.117,5.045,13.344
		c0,1.045,0.799,2.017,1.999,2.731c-0.251,0.209-0.391,0.438-0.391,0.678c0,0.322,0.253,0.623,0.688,0.881
		c-0.408,0.253-0.645,0.544-0.645,0.855c0,0.313,0.242,0.607,0.659,0.862c-0.426,0.256-0.674,0.556-0.674,0.872
		c0,0.389,0.366,0.743,0.978,1.032c-0.237,0.215-0.373,0.452-0.373,0.702c0,0.74,1.153,1.369,2.774,1.621
		c0.285,0.526,0.863,0.894,1.537,0.894c0.673,0,1.25-0.363,1.534-0.89c1.637-0.248,2.803-0.881,2.803-1.623
		c0-0.246-0.13-0.481-0.362-0.693c0.624-0.291,0.998-0.65,0.998-1.042c0-0.313-0.241-0.608-0.659-0.862
		c0.424-0.258,0.674-0.555,0.674-0.871c0-0.322-0.254-0.623-0.688-0.883c0.41-0.252,0.646-0.544,0.646-0.855
		c0-0.248-0.151-0.483-0.422-0.697c1.182-0.713,1.967-1.675,1.967-2.711c0-4.229,5.039-6.08,5.039-13.344
		C36.562,17.908,31.387,12.949,25,12.949z M31.038,30.881c-1.153,1.692-2.456,3.604-2.536,6.232
		c-0.395,0.441-1.809,1.158-3.498,1.158c-1.691,0-3.105-0.717-3.5-1.16c-0.08-2.629-1.385-4.541-2.539-6.232
		c-1.287-1.886-2.502-3.667-2.502-6.854c0-4.439,3.83-8.051,8.537-8.051s8.537,3.612,8.537,8.051
		C33.537,27.213,32.323,28.995,31.038,30.881z"/>
	<path fill="#FFFFFF" d="M25,9.064c0.832,0,1.514-0.9,1.514-2V3.5c0-1.1-0.682-2-1.514-2s-1.513,0.9-1.513,2v3.564
		C23.487,8.165,24.168,9.064,25,9.064z"/>
	<path fill="#FFFFFF" d="M17.247,11.142c0.721-0.416,0.859-1.536,0.31-2.488l-1.781-3.087c-0.55-0.953-1.59-1.392-2.311-0.976
		c-0.721,0.416-0.86,1.536-0.311,2.488l1.783,3.087C15.487,11.119,16.526,11.558,17.247,11.142z"/>
	<path fill="#FFFFFF" d="M10.595,14.507L7.51,12.725c-0.953-0.55-2.073-0.411-2.489,0.31c-0.416,0.721,0.022,1.76,0.976,2.31
		l3.086,1.782c0.953,0.55,2.073,0.411,2.488-0.31C11.986,16.096,11.548,15.057,10.595,14.507z"/>
	<path fill="#FFFFFF" d="M44.004,33.795l-3.086-1.781c-0.953-0.551-2.072-0.412-2.488,0.311c-0.416,0.721,0.022,1.76,0.978,2.31
		l3.085,1.782c0.951,0.55,2.072,0.411,2.488-0.311S44.957,34.346,44.004,33.795z"/>
	<path fill="#FFFFFF" d="M9.494,24.57c0-0.833-0.9-1.513-2-1.513H3.93c-1.1,0-2,0.681-2,1.513s0.9,1.513,2,1.513h3.564
		C8.594,26.083,9.494,25.402,9.494,24.57z"/>
	<path fill="#FFFFFF" d="M46.07,23.057h-3.564c-1.1,0-2,0.681-2,1.513s0.9,1.513,2,1.513h3.564c1.1,0,2-0.681,2-1.513
		S47.17,23.057,46.07,23.057z"/>
	<path fill="#FFFFFF" d="M9.082,32.014l-3.086,1.781c-0.953,0.551-1.392,1.589-0.976,2.311s1.536,0.859,2.489,0.311l3.085-1.782
		c0.953-0.55,1.392-1.589,0.976-2.31C11.155,31.604,10.035,31.463,9.082,32.014z"/>
	<path fill="#FFFFFF" d="M40.918,17.127l3.086-1.782c0.953-0.55,1.393-1.589,0.977-2.31c-0.416-0.721-1.537-0.86-2.488-0.31
		l-3.085,1.782c-0.953,0.55-1.394,1.589-0.978,2.31C38.846,17.538,39.965,17.677,40.918,17.127z"/>
	<path fill="#FFFFFF" d="M36.535,4.59c-0.721-0.416-1.762,0.023-2.311,0.976l-1.781,3.087c-0.551,0.953-0.411,2.072,0.31,2.488
		c0.722,0.416,1.761-0.023,2.31-0.976l1.783-3.087C37.396,6.126,37.256,5.006,36.535,4.59z"/>
</g>
</svg>
