<?xml version="1.0" encoding="utf-8"?>
<!-- Generator: Adobe Illustrator 16.0.0, SVG Export Plug-In . SVG Version: 6.00 Build 0)  -->
<!DOCTYPE svg PUBLIC "-//W3C//DTD SVG 1.1//EN" "http://www.w3.org/Graphics/SVG/1.1/DTD/svg11.dtd">
<svg version="1.1" id="Layer_1" xmlns="http://www.w3.org/2000/svg" xmlns:xlink="http://www.w3.org/1999/xlink" x="0px" y="0px"
	 width="50px" height="100px" viewBox="0 0 50 100" enable-background="new 0 0 50 100" xml:space="preserve">
<g>
	<g>
		<path fill="#5F6570" d="M24.999,45.135c-43.895-23.944-12.149-53.714,0-33.665C37.149-8.579,68.898,21.19,24.999,45.135z"/>
	</g>
</g>
<g>
	<path fill="#5F6570" d="M45.866,60.768c-2.921-4.28-8.761-5.385-13.041-2.467L6.597,76.191c-4.281,2.92-5.385,8.76-2.465,13.041
		c2.919,4.28,8.755,5.385,13.039,2.467l26.227-17.89C47.685,70.889,48.788,65.049,45.866,60.768z M42.341,72.255L29.23,81.2
		l-8.457-12.396l13.111-8.948c3.418-2.33,8.096-1.444,10.426,1.97C46.645,65.246,45.76,69.923,42.341,72.255z"/>
</g>
</svg>
