<?xml version="1.0" encoding="utf-8"?>
<!-- Generator: Adobe Illustrator 16.0.0, SVG Export Plug-In . SVG Version: 6.00 Build 0)  -->
<!DOCTYPE svg PUBLIC "-//W3C//DTD SVG 1.1//EN" "http://www.w3.org/Graphics/SVG/1.1/DTD/svg11.dtd">
<svg version="1.1" id="Layer_1" xmlns="http://www.w3.org/2000/svg" xmlns:xlink="http://www.w3.org/1999/xlink" x="0px" y="0px"
	 width="50px" height="150px" viewBox="0 0 50 150" enable-background="new 0 0 50 150" xml:space="preserve">
<g>
	<path fill="#5E6570" d="M43.145,4.678H6.855C4.459,4.678,2.5,6.637,2.5,9.033c0,2.395,1.959,4.354,4.355,4.354h36.29
		c2.396,0,4.355-1.959,4.355-4.354C47.5,6.637,45.54,4.678,43.145,4.678z"/>
	<path fill="#5E6570" d="M43.145,20.645H6.855C4.459,20.645,2.5,22.604,2.5,25s1.959,4.355,4.355,4.355h36.29
		c2.396,0,4.355-1.961,4.355-4.355C47.5,22.604,45.54,20.645,43.145,20.645z"/>
	<path fill="#5E6570" d="M43.145,36.613H6.855c-2.396,0-4.355,1.96-4.355,4.354c0,2.396,1.959,4.355,4.355,4.355h36.29
		c2.396,0,4.355-1.961,4.355-4.355C47.5,38.573,45.54,36.613,43.145,36.613z"/>
</g>
<g>
	<g>
		<path fill="#5E6570" d="M43.9,88.6l-9.176-9.178c-1.367,2.125-3.18,3.936-5.307,5.303l9.18,9.178c1.465,1.467,3.842,1.467,5.303,0
			C45.366,92.439,45.366,90.062,43.9,88.6z"/>
		<path fill="#5E6570" d="M35,70c0-8.284-6.716-15-15-15S5,61.715,5,70c0,8.284,6.716,15,15,15S35,78.283,35,70z M20,81.248
			c-6.204,0-11.25-5.045-11.25-11.249s5.046-11.25,11.25-11.25c6.203,0,11.25,5.046,11.25,11.25S26.203,81.248,20,81.248z"/>
		<path fill="#5E6570" d="M11.25,70h2.5c0-3.445,2.805-6.25,6.25-6.25v-2.5C15.176,61.25,11.25,65.175,11.25,70z"/>
	</g>
</g>
<g>
	<g id="Right">
		<g>
			<path fill="#5E6570" d="M27.09,134.288l0.004-0.005c0.377,0.346,0.87,0.561,1.422,0.561c1.164,0,2.109-0.945,2.109-2.109
				c0-0.614-0.266-1.164-0.688-1.549l0.004-0.006L23.2,125l6.741-6.182l-0.004-0.006c0.42-0.383,0.688-0.932,0.688-1.547
				c0-1.164-0.945-2.109-2.109-2.109c-0.548,0-1.045,0.215-1.423,0.56l-0.004-0.006l-8.438,7.733
				c-0.434,0.399-0.683,0.963-0.683,1.557s0.25,1.152,0.683,1.557L27.09,134.288z M25,147.5c12.426,0,22.5-10.074,22.5-22.5
				S37.426,102.5,25,102.5S2.5,112.574,2.5,125S12.574,147.5,25,147.5z M25,106.719c10.08,0,18.281,8.201,18.281,18.281
				S35.08,143.281,25,143.281S6.719,135.08,6.719,125S14.92,106.719,25,106.719z"/>
		</g>
	</g>
</g>
</svg>
