<?xml version="1.0" encoding="utf-8"?>
<!-- Generator: Adobe Illustrator 16.0.0, SVG Export Plug-In . SVG Version: 6.00 Build 0)  -->
<!DOCTYPE svg PUBLIC "-//W3C//DTD SVG 1.1//EN" "http://www.w3.org/Graphics/SVG/1.1/DTD/svg11.dtd">
<svg version="1.1" id="Layer_1" xmlns="http://www.w3.org/2000/svg" xmlns:xlink="http://www.w3.org/1999/xlink" x="0px" y="0px"
	 width="50px" height="50px" viewBox="0 0 50 50" enable-background="new 0 0 50 50" xml:space="preserve">
<g>
	<g id="keyboard-control">
		<path fill="#5E6570" d="M8.125,19.375C5.031,19.375,2.5,21.906,2.5,25s2.531,5.625,5.625,5.625S13.75,28.094,13.75,25
			S11.219,19.375,8.125,19.375z M41.875,19.375c-3.094,0-5.625,2.531-5.625,5.625s2.531,5.625,5.625,5.625S47.5,28.094,47.5,25
			S44.969,19.375,41.875,19.375z M25,19.375c-3.094,0-5.625,2.531-5.625,5.625s2.531,5.625,5.625,5.625s5.625-2.531,5.625-5.625
			S28.094,19.375,25,19.375z"/>
	</g>
</g>
</svg>
