<?xml version="1.0" encoding="utf-8"?>
<!-- Generator: Adobe Illustrator 16.0.0, SVG Export Plug-In . SVG Version: 6.00 Build 0)  -->
<!DOCTYPE svg PUBLIC "-//W3C//DTD SVG 1.1//EN" "http://www.w3.org/Graphics/SVG/1.1/DTD/svg11.dtd">
<svg version="1.1" id="Layer_1" xmlns="http://www.w3.org/2000/svg" xmlns:xlink="http://www.w3.org/1999/xlink" x="0px" y="0px"
	 width="100px" height="750px" viewBox="0 0 100 750" enable-background="new 0 0 100 750" xml:space="preserve">
<path fill="#5F6671" d="M45,25c0,11.044-8.955,20-20,20C13.954,45,5,36.044,5,25C5,13.955,13.954,5,25,5C36.045,5,45,13.955,45,25z
	 M25,19.759c-2.895,0-5.242,2.347-5.242,5.241c0,2.895,2.347,5.242,5.242,5.242s5.242-2.347,5.242-5.242
	C30.242,22.106,27.895,19.759,25,19.759z"/>
<g>
	<g opacity="0.4">
		<path fill="#FFFFFF" stroke="#FFFFFF" stroke-miterlimit="10" d="M39.999,59.533v16.496c0,0.34-0.265,0.615-0.606,0.615h-28.78
			c-0.346,0-0.613-0.275-0.613-0.615V59.533H39.999z"/>
		<path fill="#FFFFFF" stroke="#FFFFFF" stroke-miterlimit="10" d="M10.613,57.269h28.779c0.34,0,0.604,0.265,0.604,0.61v1.654H10
			v-1.654C10,57.541,10.269,57.269,10.613,57.269z"/>
		<g>
			<path fill="#5F6671" d="M39.999,59.533v16.496c0,0.34-0.265,0.615-0.606,0.615h-28.78c-0.346,0-0.613-0.275-0.613-0.615V59.533
				v-1.654c0-0.338,0.268-0.61,0.613-0.61h28.779c0.34,0,0.604,0.269,0.604,0.61L39.999,59.533L39.999,59.533z"/>
			<line fill="none" stroke="#FFFFFF" stroke-miterlimit="10" x1="10" y1="59.533" x2="39.999" y2="59.533"/>
		</g>
		<circle fill="#FFFFFF" stroke="#FFFFFF" stroke-miterlimit="10" cx="38.64" cy="58.45" r="0.403"/>
		<circle fill="#FFFFFF" stroke="#FFFFFF" stroke-miterlimit="10" cx="37.277" cy="58.45" r="0.403"/>
		<circle fill="#FFFFFF" stroke="#FFFFFF" stroke-miterlimit="10" cx="35.922" cy="58.45" r="0.403"/>
		<g>
			<rect x="11.126" y="61.625" fill="#FFFFFF" stroke="#FFFFFF" stroke-miterlimit="10" width="10.406" height="0.256"/>
			<rect x="11.126" y="64.533" fill="#FFFFFF" stroke="#FFFFFF" stroke-miterlimit="10" width="23.93" height="0.256"/>
			<rect x="11.126" y="67.94" fill="#FFFFFF" stroke="#FFFFFF" stroke-miterlimit="10" width="23.93" height="0.255"/>
			<rect x="11.126" y="71.342" fill="#FFFFFF" stroke="#FFFFFF" stroke-miterlimit="10" width="23.93" height="0.256"/>
		</g>
	</g>
	<g opacity="0.6">
		<path fill="#FFFFFF" stroke="#FFFFFF" stroke-miterlimit="10" d="M41.605,63.022v18.263c0,0.377-0.293,0.672-0.67,0.672H9.071
			c-0.381,0-0.679-0.312-0.679-0.672V63.022H41.605z"/>
		<path fill="#FFFFFF" stroke="#FFFFFF" stroke-miterlimit="10" d="M9.071,60.517h31.864c0.383,0,0.67,0.291,0.67,0.674v1.829H8.394
			v-1.83C8.394,60.817,8.69,60.517,9.071,60.517z"/>
		<g>
			<path fill="#5F6671" stroke="#FFFFFF" stroke-miterlimit="10" d="M41.605,63.022v18.263c0,0.377-0.293,0.672-0.67,0.672H9.071
				c-0.381,0-0.679-0.312-0.679-0.672V63.022v-1.829c0-0.385,0.298-0.676,0.679-0.676h31.864c0.383,0,0.67,0.297,0.67,0.676V63.022
				L41.605,63.022z"/>
			<line fill="none" stroke="#FFFFFF" stroke-miterlimit="10" x1="8.394" y1="63.022" x2="41.605" y2="63.022"/>
		</g>
		<circle fill="#FFFFFF" stroke="#FFFFFF" stroke-miterlimit="10" cx="40.103" cy="61.825" r="0.446"/>
		<path fill="#FFFFFF" stroke="#FFFFFF" stroke-miterlimit="10" d="M38.597,61.379c0.246,0,0.447,0.201,0.447,0.447
			c0,0.245-0.201,0.444-0.447,0.444c-0.248,0-0.443-0.199-0.443-0.444C38.152,61.58,38.349,61.379,38.597,61.379z"/>
		<path fill="#FFFFFF" stroke="#FFFFFF" stroke-miterlimit="10" d="M37.095,61.379c0.246,0,0.446,0.201,0.446,0.447
			c0,0.245-0.2,0.444-0.446,0.444c-0.246,0-0.443-0.199-0.443-0.444C36.65,61.58,36.849,61.379,37.095,61.379z"/>
		<g>
			<rect x="9.639" y="65.34" fill="#FFFFFF" stroke="#FFFFFF" stroke-miterlimit="10" width="11.523" height="0.283"/>
			<rect x="9.639" y="68.561" fill="#FFFFFF" stroke="#FFFFFF" stroke-miterlimit="10" width="26.493" height="0.281"/>
			<rect x="9.639" y="72.33" fill="#FFFFFF" stroke="#FFFFFF" stroke-miterlimit="10" width="26.493" height="0.285"/>
			<rect x="9.639" y="76.102" fill="#FFFFFF" stroke="#FFFFFF" stroke-miterlimit="10" width="26.493" height="0.279"/>
		</g>
	</g>
	<g opacity="0.8">
		<path fill="#FFFFFF" stroke="#FFFFFF" stroke-miterlimit="10" d="M43.212,66.514v20.033c0,0.41-0.322,0.756-0.736,0.756H7.532
			c-0.419,0-0.745-0.336-0.745-0.756V66.514H43.212z"/>
		<path fill="#FFFFFF" stroke="#FFFFFF" stroke-miterlimit="10" d="M7.532,63.764h34.946c0.412,0,0.734,0.318,0.734,0.74v2.012
			H6.789v-2.012C6.787,64.094,7.112,63.764,7.532,63.764z"/>
		<g>
			<path fill="#5F6671" d="M43.212,66.514v20.033c0,0.41-0.322,0.756-0.736,0.756H7.532c-0.419,0-0.745-0.336-0.745-0.756V66.514
				v-2.01c0-0.41,0.326-0.75,0.745-0.75h34.946c0.412,0,0.734,0.32,0.734,0.75V66.514L43.212,66.514z"/>
			<line fill="none" stroke="#FFFFFF" stroke-miterlimit="10" x1="6.787" y1="66.514" x2="43.212" y2="66.514"/>
		</g>
		<circle fill="#FFFFFF" stroke="#FFFFFF" stroke-miterlimit="10" cx="41.564" cy="65.2" r="0.491"/>
		<circle fill="#FFFFFF" stroke="#FFFFFF" stroke-miterlimit="10" cx="39.913" cy="65.2" r="0.491"/>
		<circle fill="#FFFFFF" stroke="#FFFFFF" stroke-miterlimit="10" cx="38.261" cy="65.2" r="0.491"/>
		<g>
			<rect x="8.15" y="69.054" fill="#FFFFFF" stroke="#FFFFFF" stroke-miterlimit="10" width="12.637" height="0.313"/>
			<rect x="8.15" y="72.586" fill="#FFFFFF" stroke="#FFFFFF" stroke-miterlimit="10" width="29.061" height="0.31"/>
			<rect x="8.15" y="76.721" fill="#FFFFFF" stroke="#FFFFFF" stroke-miterlimit="10" width="29.061" height="0.313"/>
			<rect x="8.15" y="80.855" fill="#FFFFFF" stroke="#FFFFFF" stroke-miterlimit="10" width="29.061" height="0.311"/>
		</g>
	</g>
	<g>
		<path fill="#FFFFFF" stroke="#FFFFFF" stroke-miterlimit="10" d="M45,69.918v21.994c0,0.451-0.355,0.819-0.813,0.819H5.815
			C5.356,92.732,5,92.363,5,91.912V69.918H45z"/>
		<path fill="#FFFFFF" stroke="#FFFFFF" stroke-miterlimit="10" d="M5.815,66.898h38.372c0.457,0,0.813,0.35,0.813,0.813v2.203H5
			v-2.203C5,67.258,5.359,66.898,5.815,66.898z"/>
		<g>
			<path fill="#5F6671" d="M45,69.918v21.994c0,0.451-0.355,0.819-0.813,0.819H5.815C5.356,92.732,5,92.363,5,91.912V69.918v-2.205
				c0-0.455,0.357-0.815,0.816-0.815h38.372c0.457,0,0.813,0.354,0.813,0.815L45,69.918L45,69.918z"/>
			<line fill="none" stroke="#FFFFFF" stroke-miterlimit="10" x1="5" y1="69.918" x2="45" y2="69.918"/>
		</g>
		<circle fill="#FFFFFF" stroke="#FFFFFF" stroke-miterlimit="10" cx="43.187" cy="68.47" r="0.538"/>
		<circle fill="#FFFFFF" stroke="#FFFFFF" stroke-miterlimit="10" cx="41.375" cy="68.47" r="0.538"/>
		<circle fill="#FFFFFF" stroke="#FFFFFF" stroke-miterlimit="10" cx="39.562" cy="68.47" r="0.538"/>
		<g>
			<rect x="6.498" y="72.707" fill="#FFFFFF" stroke="#FFFFFF" stroke-miterlimit="10" width="13.878" height="0.338"/>
			<rect x="6.498" y="76.584" fill="#FFFFFF" stroke="#FFFFFF" stroke-miterlimit="10" width="31.91" height="0.338"/>
			<rect x="6.498" y="81.123" fill="#FFFFFF" stroke="#FFFFFF" stroke-miterlimit="10" width="31.91" height="0.34"/>
			<rect x="6.498" y="85.664" fill="#FFFFFF" stroke="#FFFFFF" stroke-miterlimit="10" width="31.91" height="0.338"/>
		</g>
	</g>
</g>
<g>
	<path fill="#5F6671" d="M37.603,117.061c0.855,2.535,1.336,5.369,1.336,8.358c0,10.815-6.27,19.581-14.003,19.581
		s-14.006-8.766-14.006-19.581c0-2.989,0.479-5.826,1.338-8.36"/>
	<path fill="#5F6671" d="M12.62,115.466C14.992,109.233,19.617,105,24.935,105c5.295,0,9.904,4.195,12.288,10.387"/>
	<g>
		<path fill="#5F6671" d="M8.652,114.519l4.237,6.883c0.341,0.555,0.167,1.279-0.388,1.621c-0.555,0.341-1.278,0.168-1.62-0.386
			c-0.036-0.062-0.069-0.129-0.094-0.193l-2.911-7.542c-0.087-0.225,0.025-0.476,0.249-0.563
			C8.327,114.264,8.543,114.343,8.652,114.519z"/>
	</g>
	<g>
		<path fill="#5F6671" d="M42.123,114.902l-2.911,7.542c-0.235,0.607-0.917,0.907-1.522,0.673c-0.604-0.233-0.907-0.916-0.674-1.523
			c0.025-0.067,0.062-0.134,0.096-0.193l4.24-6.883c0.125-0.204,0.393-0.27,0.598-0.144
			C42.125,114.487,42.199,114.711,42.123,114.902z"/>
	</g>
	<g>
		<path fill="#5F6671" d="M9.44,140.938l2.913-7.54c0.232-0.606,0.913-0.907,1.521-0.673c0.607,0.234,0.91,0.917,0.674,1.521
			c-0.027,0.067-0.06,0.136-0.096,0.193l-4.237,6.883c-0.127,0.204-0.395,0.269-0.598,0.143
			C9.438,141.354,9.367,141.129,9.44,140.938z"/>
	</g>
	<g>
		<path fill="#5F6671" d="M39.781,141.322l-4.237-6.883c-0.341-0.554-0.169-1.278,0.388-1.62c0.555-0.342,1.278-0.168,1.62,0.386
			c0.036,0.062,0.069,0.13,0.095,0.193l2.91,7.54c0.088,0.225-0.023,0.475-0.248,0.563
			C40.111,141.577,39.886,141.497,39.781,141.322z"/>
	</g>
</g>
<g>
	<g>
		<circle fill="#5F6671" cx="24.989" cy="159.017" r="4.017"/>
		<path fill="#5F6671" d="M31.745,170.333l-2.741,16.69h-8.033l-2.737-16.69c0-2.441,1.361-4.415,3.045-4.415h7.419
			C30.383,165.918,31.745,167.893,31.745,170.333z"/>
	</g>
	<g>
		<circle fill="#5F6671" cx="15.542" cy="166.994" r="4.017"/>
		<path fill="#5F6671" d="M22.296,178.311L19.559,195h-8.036l-2.74-16.689c0-2.441,1.362-4.417,3.048-4.417h7.418
			C20.934,173.894,22.296,175.871,22.296,178.311z"/>
	</g>
	<g>
		<circle fill="#5F6671" cx="34.457" cy="166.994" r="4.017"/>
		<path fill="#5F6671" d="M41.217,178.311L38.477,195H30.44l-2.734-16.689c0-2.441,1.361-4.417,3.045-4.417h7.419
			C39.852,173.894,41.217,175.871,41.217,178.311z"/>
	</g>
</g>
<path fill="#5F6671" d="M45,227.461v-4.925l-5.973-2.464l-0.565-1.518l2.366-5.876l-3.697-3.507l-5.684,2.371l-1.521-0.666
	L27.459,205h-4.928l-2.742,6.029l-1.621,0.383l-5.494-2.24l-3.508,3.697l2.276,5.592l-0.472,1.613L5,222.536v4.926l5.971,2.467
	l0.567,1.612l-2.371,5.781l3.699,3.507l5.687-2.371l1.517,0.571L22.532,245h4.928l2.562-5.972l1.521-0.571l5.59,2.371l3.697-3.697
	l-2.366-5.783l0.475-1.231L45,227.461z M24.822,232.403c-4.198,0-7.596-3.399-7.596-7.595c0-4.195,3.398-7.593,7.596-7.593
	c4.19,0,7.589,3.398,7.589,7.593C32.411,229.004,29.012,232.403,24.822,232.403z"/>
<g>
	<g>
		<path fill="#5F6671" d="M44.577,266.856c0.354,0.441,0.485,0.971,0.396,1.589l-1.676,9.621c-0.061,0.5-0.288,0.911-0.686,1.234
			c-0.397,0.324-0.846,0.487-1.346,0.487H16.82l-0.485,2.735h23.299c0.558,0,1.043,0.199,1.455,0.595
			c0.411,0.397,0.617,0.891,0.617,1.479c0,0.588-0.206,1.081-0.617,1.478c-0.412,0.397-0.897,0.595-1.455,0.595h-25.77
			c-0.618,0-1.147-0.25-1.588-0.75c-0.412-0.5-0.574-1.073-0.487-1.721l1.103-6.001l-1.676-16.857l-4.766-1.5
			c-0.558-0.175-0.963-0.514-1.213-1.016c-0.251-0.5-0.302-1.029-0.155-1.588c0.179-0.559,0.522-0.965,1.038-1.213
			c0.516-0.251,1.037-0.302,1.567-0.155l6.091,1.94c0.382,0.119,0.698,0.339,0.948,0.662c0.251,0.322,0.405,0.692,0.463,1.104
			l0.353,3.355l27.624,3.088C43.783,266.106,44.254,266.385,44.577,266.856z M16.998,287.816c0.883,0,1.631,0.31,2.25,0.928
			c0.618,0.618,0.927,1.368,0.927,2.251c0,0.881-0.309,1.64-0.927,2.271c-0.619,0.634-1.367,0.948-2.25,0.948
			s-1.633-0.314-2.251-0.948c-0.618-0.632-0.927-1.389-0.927-2.271s0.309-1.633,0.927-2.251
			C15.365,288.126,16.115,287.816,16.998,287.816z M35.839,287.816c0.882,0,1.634,0.31,2.25,0.928
			c0.618,0.618,0.929,1.368,0.929,2.251c0,0.881-0.311,1.64-0.929,2.271c-0.616,0.634-1.366,0.948-2.25,0.948
			c-0.884,0-1.634-0.314-2.25-0.948c-0.62-0.632-0.929-1.389-0.929-2.271s0.309-1.633,0.929-2.251
			C34.207,288.126,34.956,287.816,35.839,287.816z"/>
	</g>
</g>
<g>
	<rect x="11.849" y="324.94" fill="#5F6671" width="5.835" height="17.921"/>
	<rect x="21.596" y="313.353" fill="#5F6671" width="5.833" height="29.509"/>
	<rect x="30.846" y="319.004" fill="#5F6671" width="5.834" height="23.857"/>
	<g>
		<rect x="5" y="304.69" fill="#5F6671" width="3" height="40"/>
		<rect x="5" y="342.31" fill="#5F6671" width="40" height="3"/>
	</g>
</g>
<g>
	<g>
		<path fill="#5F6671" d="M17.162,406.715c0.632,0.986,0.428,1.799,0.428,1.799l-0.445,2.491c-0.747-0.653-1.971-1.374-3.425-1.678
			c-1.454-0.302-2.838-0.125-3.754,0.181l0.447-2.49c0,0,0.092-0.834,1.018-1.494c0.926-0.662,1.696-0.578,3.028-0.301
			C15.787,405.499,16.531,405.729,17.162,406.715z"/>
		<path fill="#5F6671" d="M17.056,412.566c-1.12,5.345-3.772,20.145-4.111,24.095l-0.402,0.521c0,0-0.333-0.764-0.608-0.817
			c-0.138-0.028-0.478,0.148-0.782,0.335c-0.305,0.188-0.574,0.382-0.574,0.382s-0.783-1.2-1.583-1.368
			c-0.799-0.168-1.944,0.633-1.944,0.633s-0.732-1.146-1.01-1.208c-0.274-0.058-0.847,0.521-0.847,0.521L5,435.009
			c1.05-3.804,3.701-18.604,4.506-24.013c0.375-0.273,2.488-0.773,3.998-0.457c0.599,0.124,1.242,0.406,1.812,0.725
			C16.187,411.744,16.897,412.318,17.056,412.566z"/>
		<path fill="#5F6671" d="M9.794,441.403L9.794,441.403c-1.256,1.771-2.412,3.305-2.412,3.305s-0.545-1.888-1.097-4.037
			c0.259-0.077,1.041-0.271,1.839-0.104C8.921,440.727,9.582,441.226,9.794,441.403z"/>
	</g>
	<path fill="#5F6671" d="M17.056,412.566c-1.12,5.345-3.772,20.145-4.111,24.095l-0.402,0.521c0,0-0.333-0.764-0.608-0.817
		c-0.138-0.028-0.478,0.148-0.782,0.335c-0.305,0.188-0.574,0.382-0.574,0.382s-0.783-1.2-1.583-1.368
		c-0.799-0.168-1.944,0.633-1.944,0.633s-0.732-1.146-1.01-1.208c-0.274-0.058-0.847,0.521-0.847,0.521L5,435.009
		c1.05-3.804,3.701-18.604,4.506-24.013"/>
	<path fill="#5F6671" d="M12.541,437.182c-0.556,1.058-1.685,2.726-2.746,4.226l0,0c-1.256,1.771-2.412,3.305-2.412,3.305
		s-0.545-1.888-1.097-4.037c-0.468-1.812-0.942-3.814-1.093-5.02"/>
	<path fill="#5F6671" d="M6.287,440.671c0.259-0.077,1.041-0.271,1.839-0.104c0.797,0.159,1.456,0.659,1.67,0.841"/>
	<path fill="#5F6671" d="M9.964,409.508c0.918-0.306,2.302-0.482,3.754-0.181c1.455,0.304,2.68,1.022,3.425,1.678
		c0.289,0.252,0.507,0.498,0.636,0.702c0.473,0.736-0.471,1.264-0.725,0.859h-0.001c-0.157-0.248-0.867-0.822-1.74-1.31
		c-0.571-0.315-1.212-0.601-1.811-0.725c-1.51-0.316-3.624,0.183-3.998,0.458c-0.377,0.271-1.067-0.6-0.379-1.096
		C9.321,409.768,9.608,409.625,9.964,409.508z"/>
	<path fill="#5F6671" d="M17.143,411.005l0.001-0.003l0.445-2.488c0,0,0.203-0.812-0.428-1.799
		c-0.633-0.986-1.375-1.216-2.706-1.496c-1.333-0.273-2.103-0.359-3.028,0.301c-0.925,0.66-1.018,1.494-1.018,1.494l-0.447,2.491
		l-0.001,0.003"/>
	<g id="XMLID_2_">
		<g>
			<path fill="#5F6671" d="M41.572,411.084c2.414-0.15,4.057,1.915,3.195,4.792c-0.678,2.269-3.476,4.192-5.149,6.038
				c-5.111,5.614-11.333,12.438-15.979,17.581c-1.269-0.334-2.067-1.133-2.666-2.134c4.213-5.42,9.244-12.906,13.673-19.178
				C36.335,415.793,38.265,411.284,41.572,411.084z"/>
		</g>
		<g>
			<path fill="#5F6671" d="M23.639,439.495c-1.269-0.334-2.067-1.133-2.666-2.134c4.213-5.42,9.244-12.906,13.673-19.178
				c1.688-2.396,3.619-6.901,6.927-7.104c2.415-0.146,4.057,1.914,3.196,4.794c-0.679,2.271-3.477,4.189-5.15,6.035
				C34.506,427.531,28.285,434.355,23.639,439.495z"/>
		</g>
	</g>
	<path fill="#5F6671" d="M38.73,413.745c0.623-0.031,0.584,0.601,1.063,0.709c0.329-1.271,1.521-1.677,2.31-2.485
		C40.388,411.973,39.224,412.521,38.73,413.745z"/>
	<path fill="#5F6671" d="M11.208,444.644c0.671-0.439,2.046-0.199,2.841-0.529c1.797-0.746,1.242-2.438,2.485-4.265
		c2.075-3.043,6.682-0.151,6.57,2.134C22.935,445.505,14.944,445.206,11.208,444.644z"/>
</g>
<g>
	<g>
		<polygon fill="#5F6671" points="10.339,492.9 10.339,472.889 11.451,469.701 21.679,469.701 23.087,472.814 42.359,472.814 
			42.359,492.9 		"/>
		<path fill="#5F6671" d="M10.228,492.9v-20.016l0.006-0.038l1.112-3.186c0.017-0.045,0.06-0.074,0.105-0.074h10.228
			c0.045,0,0.084,0.026,0.102,0.065l1.408,3.108l-0.102-0.062l19.272-0.219c0.18,0,0.328,0.144,0.328,0.316v0.009l-0.219,20.089
			c0,0.062-0.049,0.106-0.109,0.106h-32.02C10.278,493.01,10.228,492.962,10.228,492.9z M10.45,492.789h31.909l-0.111,0.111
			l-0.219-20.086l0.33,0.324l-19.273-0.217c-0.043,0-0.084-0.028-0.101-0.062l-1.409-3.113l0.101,0.062H11.451l0.104-0.071
			l-1.111,3.186l0.006-0.034V492.789z"/>
	</g>
	<g>
		<path fill="#5F6671" d="M15.601,461.361c2.177,3.907,4.354,7.82,6.53,11.729c-3.536,1.969-7.072,3.938-10.608,5.902
			c-2.176-3.911-4.351-7.823-6.527-11.734C8.529,465.293,12.067,463.326,15.601,461.361z"/>
		<path fill="#5F6671" d="M10.264,471.421c2.107-1.171,4.213-2.343,6.32-3.515c-0.797-1.434-1.591-2.858-2.387-4.288
			c-2.105,1.173-4.211,2.343-6.318,3.515C8.674,468.562,9.469,469.992,10.264,471.421z"/>
		<path fill="#5F6671" d="M8.106,469.668c-0.167-0.303-0.335-0.604-0.503-0.904c-0.299,0.169-0.602,0.335-0.902,0.503
			C6.959,470.142,7.426,470.271,8.106,469.668z"/>
		<path fill="#5F6671" d="M13.152,476.613c2.108-1.172,4.215-2.349,6.318-3.521c-0.796-1.428-1.588-2.855-2.385-4.288
			c-2.107,1.171-4.213,2.347-6.32,3.519C11.562,473.756,12.356,475.183,13.152,476.613z"/>
		<path fill="#5F6671" d="M7.879,467.133c2.107-1.172,4.213-2.342,6.32-3.515c0.797,1.43,1.59,2.854,2.386,4.288
			c-2.107,1.172-4.213,2.344-6.32,3.515C9.469,469.992,8.674,468.562,7.879,467.133z"/>
		<path fill="#5F6671" d="M10.765,472.323c2.107-1.172,4.213-2.348,6.32-3.519c0.797,1.433,1.589,2.86,2.385,4.288
			c-2.104,1.172-4.21,2.349-6.318,3.521C12.356,475.183,11.562,473.756,10.765,472.323z"/>
		<g>
			<g>
				
					<rect x="5.65" y="466.579" transform="matrix(-0.8741 0.4857 -0.4857 -0.8741 238.5187 872.4675)" fill="#5F6671" width="1.12" height="1.121"/>
				
					<rect x="14.234" y="461.812" transform="matrix(-0.8752 0.4838 -0.4838 -0.8752 251.4333 859.8741)" fill="#5F6671" width="1.12" height="1.12"/>
			</g>
			<g>
				
					<rect x="6.556" y="468.137" transform="matrix(-0.8736 0.4867 -0.4867 -0.8736 241.4546 874.6681)" fill="#5F6671" width="1.12" height="1.12"/>
				
					<rect x="15.101" y="463.35" transform="matrix(-0.8749 0.4843 -0.4843 -0.8749 254.0544 862.1882)" fill="#5F6671" width="1.119" height="1.118"/>
			</g>
			<g>
				
					<rect x="7.431" y="469.734" transform="matrix(-0.8738 0.4863 -0.4863 -0.8738 243.6655 877.3544)" fill="#5F6671" width="1.123" height="1.121"/>
				
					<rect x="16.005" y="464.996" transform="matrix(-0.8739 0.4862 -0.4862 -0.8739 257.3765 864.338)" fill="#5F6671" width="1.121" height="1.121"/>
			</g>
			<g>
				
					<rect x="8.294" y="471.281" transform="matrix(-0.8739 0.4862 -0.4862 -0.8739 245.9819 879.8646)" fill="#5F6671" width="1.121" height="1.121"/>
				
					<rect x="16.85" y="466.54" transform="matrix(-0.8737 0.4865 -0.4865 -0.8737 259.8792 866.7168)" fill="#5F6671" width="1.12" height="1.12"/>
			</g>
			<g>
				
					<rect x="9.15" y="472.813" transform="matrix(-0.8743 0.4853 -0.4853 -0.8743 247.9333 882.5505)" fill="#5F6671" width="1.121" height="1.121"/>
				
					<rect x="17.685" y="468.026" transform="matrix(-0.8747 0.4846 -0.4846 -0.8747 261.301 869.6174)" fill="#5F6671" width="1.12" height="1.117"/>
			</g>
			<g>
				
					<rect x="10.019" y="474.367" transform="matrix(-0.8737 0.4865 -0.4865 -0.8737 250.8874 884.7061)" fill="#5F6671" width="1.12" height="1.12"/>
				
					<rect x="18.56" y="469.616" transform="matrix(-0.8736 0.4866 -0.4866 -0.8736 264.6316 871.6184)" fill="#5F6671" width="1.122" height="1.12"/>
			</g>
			<g>
				
					<rect x="10.941" y="475.971" transform="matrix(-0.8742 0.4855 -0.4855 -0.8742 252.91 887.5498)" fill="#5F6671" width="1.12" height="1.121"/>
				
					<rect x="19.463" y="471.185" transform="matrix(-0.8737 0.4865 -0.4865 -0.8737 267.0015 874.1708)" fill="#5F6671" width="1.122" height="1.121"/>
			</g>
			<g>
				
					<rect x="11.752" y="477.514" transform="matrix(-0.8735 0.4868 -0.4868 -0.8735 255.8053 889.6759)" fill="#5F6671" width="1.121" height="1.119"/>
				
					<rect x="20.329" y="472.744" transform="matrix(-0.8746 0.4848 -0.4848 -0.8746 268.6312 877.1365)" fill="#5F6671" width="1.12" height="1.124"/>
			</g>
		</g>
	</g>
	<g>
		<path fill="#5F6671" d="M26.773,464.442c-2.242,0.521-4.417-0.647-6.734,1.849c-1.04-0.459-2.549-2.271-3.033-3.272
			c0.482-0.448,0.968-0.896,1.452-1.349c0.604-1.438,0.322-2.909,0.341-4.372C21.903,456.894,25.699,461.408,26.773,464.442z"/>
		<path fill="#5F6671" d="M23.965,457.032c1.897-0.494,5.596,3.385,4.887,5.271C28.325,459.922,26.214,457.855,23.965,457.032z"/>
		<path fill="#5F6671" d="M24.25,458.796c1.48-0.688,3.727,1.626,2.861,3.093C27.043,460.453,25.673,458.975,24.25,458.796z"/>
	</g>
	<g>
		
			<rect x="26.393" y="466.64" transform="matrix(-0.9467 -0.322 0.322 -0.9467 -83.3084 928.8268)" fill="#5F6671" width="17.561" height="9.329"/>
		
			<rect x="28.573" y="466.418" transform="matrix(-0.9466 -0.3223 0.3223 -0.9466 -92.4965 918.9988)" fill="#5F6671" width="2.536" height="1.479"/>
		
			<rect x="38.478" y="470.111" transform="matrix(-0.9468 -0.3219 0.3219 -0.9468 -72.3109 929.7472)" fill="#5F6671" width="4.445" height="1.481"/>
		<path fill="#5F6671" d="M37.867,472.896c-0.553,1.631-2.322,2.497-3.95,1.944c-1.629-0.553-2.496-2.324-1.946-3.95
			c0.553-1.628,2.324-2.499,3.95-1.942C37.549,469.5,38.42,471.269,37.867,472.896z M35.5,470.184
			c-0.941-0.319-1.97,0.187-2.29,1.128c-0.323,0.944,0.183,1.977,1.127,2.297c0.947,0.318,1.972-0.187,2.294-1.132
			C36.951,471.529,36.446,470.504,35.5,470.184z"/>
		
			<rect x="28.587" y="462.854" transform="matrix(-0.9467 -0.3222 0.3222 -0.9467 -88.566 913.1724)" fill="#5F6671" width="5.381" height="2.121"/>
	</g>
	<g>
		<polygon fill="#5F6671" points="10.339,492.9 7.301,475.929 8.409,472.668 20.345,472.668 21.826,475.557 43.395,475.557 
			42.359,492.9 		"/>
		<path fill="#5F6671" d="M10.23,492.92l-3.041-16.974c-0.003-0.021-0.003-0.039,0.003-0.06l1.112-3.26
			c0.018-0.047,0.06-0.077,0.104-0.077h11.936c0.042,0,0.078,0.025,0.097,0.063l1.482,2.892l-0.099-0.06l21.57-0.238
			c0.188-0.002,0.348,0.151,0.351,0.34l-0.003,0.031l-1.273,17.329c-0.002,0.058-0.054,0.104-0.109,0.104H10.339
			C10.284,493.01,10.24,492.972,10.23,492.92z M10.432,492.789h31.927l-0.109,0.104l0.798-17.354l0.351,0.37L21.83,475.67
			c-0.043,0-0.081-0.025-0.099-0.061l-1.481-2.894l0.097,0.062H8.409l0.105-0.075l-1.11,3.261l0.003-0.056L10.432,492.789z"/>
	</g>
</g>
<g>
	<path fill="#5F6671" d="M41.805,504.999H13.996c-1.437,0-2.604,1.167-2.604,2.603v6.388H8.194c-1.436,0-2.603,1.168-2.603,2.604
		V542.4c0,1.438,1.167,2.604,2.603,2.604h2.397h31.214c1.438,0,2.604-1.167,2.604-2.604v-34.796
		C44.406,506.166,43.24,504.999,41.805,504.999z M38.52,538.521H17.7c-0.499,0-0.901-0.404-0.901-0.899
		c0-0.498,0.403-0.902,0.901-0.902h20.82c0.496,0,0.9,0.404,0.9,0.902C39.42,538.117,39.016,538.521,38.52,538.521z M38.52,533.718
		H17.7c-0.499,0-0.901-0.4-0.901-0.897c0-0.498,0.403-0.9,0.901-0.9h20.82c0.496,0,0.9,0.402,0.9,0.9
		C39.42,533.312,39.016,533.718,38.52,533.718z M38.52,528.912H17.7c-0.499,0-0.901-0.404-0.901-0.899
		c0-0.498,0.403-0.898,0.901-0.898h20.82c0.496,0,0.9,0.4,0.9,0.898C39.42,528.508,39.016,528.912,38.52,528.912z M38.52,524.108
		H17.7c-0.499,0-0.901-0.404-0.901-0.901c0-0.496,0.403-0.9,0.901-0.9h20.82c0.496,0,0.9,0.404,0.9,0.9
		C39.42,523.704,39.016,524.108,38.52,524.108z M38.52,519.305H17.7c-0.499,0-0.901-0.4-0.901-0.897
		c0-0.498,0.403-0.902,0.901-0.902h20.82c0.496,0,0.9,0.406,0.9,0.902S39.016,519.305,38.52,519.305z M38.52,514.499H17.7
		c-0.499,0-0.901-0.404-0.901-0.901c0-0.498,0.403-0.898,0.901-0.898h20.82c0.496,0,0.9,0.402,0.9,0.898
		C39.42,514.095,39.016,514.499,38.52,514.499z"/>
</g>
<g>
	<polygon fill="#5F6671" points="8.879,635.986 14.49,630.374 20.208,629.496 22.628,624.104 27.469,623.663 28.791,621.793 
		31.318,619.815 33.191,616.185 37.262,614.535 40.781,609.57 45,611.572 40.531,617.808 36.564,619.396 35.282,622.597 
		32.21,624.748 30.521,627.242 26.154,627.854 23.646,633.184 17.485,634.246 11.398,640.552 	"/>
	<g>
		<rect x="5" y="604.398" fill="#5F6671" width="3" height="40"/>
		<rect x="5" y="642.602" fill="#5F6671" width="40" height="3"/>
	</g>
</g>
<g>
	<path fill="#5F6671" d="M35.002,672.5v-7.502c0-5.51-4.484-9.998-10.002-9.998c-5.514,0-10,4.488-10,9.998v7.502
		c-2.76,0-4.999,2.238-4.999,4.997v12.506c0,2.759,2.239,4.997,4.999,4.997h20.002c2.76,0,4.997-2.238,4.997-4.997v-12.506
		C39.999,674.738,37.762,672.5,35.002,672.5 M26.25,684.618v4.134c0,0.69-0.557,1.251-1.25,1.251c-0.689,0-1.249-0.561-1.249-1.251
		v-4.134c-0.735-0.438-1.252-1.203-1.252-2.117c0-1.382,1.12-2.5,2.5-2.5s2.5,1.118,2.5,2.5
		C27.5,683.415,26.984,684.183,26.25,684.618 M29.997,672.5h-9.996v-7.502c0-2.758,2.242-5,4.999-5c2.755,0,4.997,2.242,4.997,5
		V672.5z"/>
	<path fill="#5F6671" d="M35.002,672.5v-7.502c0-5.51-4.484-9.998-10.002-9.998c-5.514,0-10,4.488-10,9.998v7.502
		c-2.76,0-4.999,2.238-4.999,4.997v12.506c0,2.759,2.239,4.997,4.999,4.997h20.002c2.76,0,4.997-2.238,4.997-4.997v-12.506
		C39.999,674.738,37.762,672.5,35.002,672.5 M29.997,672.5h-9.996v-7.502c0-2.758,2.242-5,4.999-5c2.755,0,4.997,2.242,4.997,5
		V672.5z"/>
	<g>
		<circle fill="#5F6671" cx="25.194" cy="679.784" r="2.402"/>
		<path fill="#5F6671" d="M24.287,681.975c1.16,0.518,2.646-0.104,3.078-1.284c0.488-1.166-0.133-2.592-1.277-3.061
			c-1.138-0.54-2.616,0.085-3.067,1.253C22.493,680.028,23.094,681.526,24.287,681.975z M24.266,682.036
			c-1.206-0.474-1.852-1.987-1.335-3.188c0.469-1.229,1.999-1.852,3.209-1.35c1.256,0.452,1.879,2.042,1.322,3.221
			C26.979,681.94,25.452,682.562,24.266,682.036z"/>
	</g>
	<g>
		<path fill="#5F6671" d="M29.232,686.15l-1.633,8.57h-4.807l-1.637-8.57c0-1.262,0.815-2.271,1.821-2.271h4.437
			C28.421,683.881,29.232,684.893,29.232,686.15z"/>
		<path fill="#5F6671" d="M29.275,686.153l-1.652,8.571l-0.004,0.021h-0.021l0,0h-4.807h-0.017l-0.005-0.021v-0.004
			c-0.243-0.044-0.124-0.155-0.18-0.237c-0.019-0.092-0.04-0.184-0.048-0.271l-0.063-0.543c-0.044-0.36-0.125-0.714-0.19-1.074
			l-0.415-2.14l-0.788-4.294l-0.002-0.007v-0.01c0-0.908,0.481-1.903,1.388-2.229c0.921-0.167,1.816-0.034,2.727-0.068
			c0.903,0.044,1.817-0.071,2.712,0.105C28.781,684.285,29.271,685.243,29.275,686.153z M29.189,686.146
			c0.021-0.871-0.41-1.859-1.291-2.166c-0.877-0.162-1.807-0.037-2.707-0.067c-0.894,0.044-1.838-0.071-2.691,0.103
			c-0.844,0.318-1.289,1.271-1.272,2.141l-0.001-0.018l0.849,4.28l0.403,2.146c0.071,0.354,0.127,0.714,0.217,1.063l0.143,0.529
			c0.026,0.089,0.039,0.181,0.055,0.266c-0.025,0.103,0.132,0.163-0.078,0.295l0,0l-0.026-0.021h4.807H27.6l-0.022,0.021
			L29.189,686.146z"/>
	</g>
</g>
<g>
	<path fill="#5F6671" d="M35.32,725c0,5.664-4.588,10.256-10.254,10.256c-5.663,0-10.256-4.591-10.256-10.256
		s4.592-10.256,10.256-10.256S35.32,719.336,35.32,725z M25.066,717.806c-3.972,0-7.194,3.222-7.194,7.194s3.219,7.194,7.194,7.194
		s7.198-3.224,7.198-7.194S29.041,717.806,25.066,717.806z"/>
	<path fill="#5F6671" d="M28.678,723.648c-0.217,0.776-0.923,1.352-1.769,1.352c-1.019,0-1.844-0.825-1.844-1.844
		c0-0.848,0.574-1.553,1.352-1.77c-0.422-0.158-0.874-0.256-1.351-0.256c-2.136,0-3.868,1.731-3.868,3.868s1.731,3.868,3.868,3.868
		c2.137,0,3.868-1.731,3.868-3.868C28.934,724.521,28.836,724.07,28.678,723.648z"/>
	
		<path fill="none" stroke="#5F6671" stroke-width="1.2246" stroke-linecap="round" stroke-linejoin="round" stroke-miterlimit="10" d="
		M5,725c12.608-14.362,27.557-13.617,39.868,0"/>
	
		<path fill="none" stroke="#5F6671" stroke-width="1.2246" stroke-linecap="round" stroke-linejoin="round" stroke-miterlimit="10" d="
		M45,725c-12.607,14.362-27.557,13.617-39.87,0"/>
</g>
<g>
	<path fill="#5F6671" d="M45,559.483c0-1.694-1.373-3.067-3.066-3.067H8.067c-1.693,0-3.067,1.373-3.067,3.067
		c0,1.587,1.211,2.876,2.757,3.03v15.779c0,1.21,0.98,2.19,2.19,2.19H22.81v2.286l-6.201,6.195c-0.856,0.857-0.856,2.245,0,3.102
		c0.857,0.854,2.244,0.854,3.098,0l3.104-3.104v2.43c0,1.211,0.98,2.19,2.19,2.19s2.19-0.979,2.19-2.19v-2.43l3.104,3.104
		c0.428,0.427,0.988,0.641,1.551,0.641s1.119-0.214,1.549-0.641c0.856-0.856,0.856-2.242,0-3.102l-6.201-6.195v-2.286h12.861
		c1.211,0,2.19-0.98,2.19-2.19v-15.779C43.789,562.358,45,561.069,45,559.483z"/>
</g>
<g>
	<path fill="#5F6671" d="M34.575,389.959l-1.848-4.854H17.002l-1.847,4.959c-0.721,1.936-1.337,3.246-1.847,3.916
		C12.796,394.666,11.96,395,10.8,395c-0.984,0-1.855-0.359-2.611-1.082c-0.756-0.721-1.134-1.539-1.134-2.455
		c0-0.525,0.088-1.07,0.264-1.635c0.176-0.562,0.466-1.346,0.871-2.348l9.895-25.122c0.282-0.723,0.62-1.594,1.018-2.596
		c0.396-1.02,0.816-1.854,1.267-2.522c0.448-0.669,1.038-1.205,1.77-1.627c0.727-0.405,1.63-0.615,2.702-0.615
		c1.091,0,1.996,0.211,2.728,0.616c0.729,0.422,1.318,0.948,1.769,1.601c0.448,0.65,0.827,1.354,1.136,2.094
		c0.309,0.756,0.703,1.75,1.178,2.998l10.105,24.959c0.791,1.898,1.188,3.279,1.188,4.145c0,0.896-0.379,1.727-1.125,2.463
		C41.073,394.631,40.174,395,39.12,395c-0.616,0-1.145-0.104-1.583-0.334c-0.438-0.211-0.812-0.51-1.106-0.895
		c-0.301-0.371-0.625-0.951-0.969-1.742C35.11,391.252,34.821,390.559,34.575,389.959z M19.062,379.221h11.557l-5.831-15.962
		L19.062,379.221z"/>
</g>
<path fill="#FFFFFF" d="M95,25c0,11.044-8.955,20-20,20c-11.046,0-20-8.956-20-20c0-11.045,8.954-20,20-20C86.045,5,95,13.955,95,25
	z M75,19.759c-2.896,0-5.242,2.347-5.242,5.241c0,2.895,2.348,5.242,5.242,5.242s5.242-2.347,5.242-5.242
	C80.242,22.106,77.895,19.759,75,19.759z"/>
<g>
	<g opacity="0.4">
		<path fill="#FFFFFF" stroke="#606772" stroke-miterlimit="10" d="M89.998,59.533v16.496c0,0.34-0.264,0.615-0.605,0.615H60.613
			c-0.346,0-0.612-0.275-0.612-0.615V59.533H89.998z"/>
		<path fill="#FFFFFF" stroke="#606772" stroke-miterlimit="10" d="M60.613,57.269h28.779c0.34,0,0.604,0.265,0.604,0.61v1.654
			H60.001v-1.654C60.001,57.541,60.27,57.269,60.613,57.269z"/>
		<g>
			<path fill="#FFFFFF" d="M89.998,59.533v16.496c0,0.34-0.264,0.615-0.605,0.615H60.613c-0.346,0-0.612-0.275-0.612-0.615V59.533
				v-1.654c0-0.338,0.269-0.61,0.612-0.61h28.779c0.34,0,0.604,0.269,0.604,0.61L89.998,59.533L89.998,59.533z"/>
			<line fill="none" stroke="#606772" stroke-miterlimit="10" x1="60.001" y1="59.533" x2="89.998" y2="59.533"/>
		</g>
		<circle fill="#FFFFFF" stroke="#606772" stroke-miterlimit="10" cx="88.641" cy="58.45" r="0.403"/>
		<circle fill="#FFFFFF" stroke="#606772" stroke-miterlimit="10" cx="87.277" cy="58.45" r="0.403"/>
		<circle fill="#FFFFFF" stroke="#606772" stroke-miterlimit="10" cx="85.922" cy="58.45" r="0.403"/>
		<g>
			<rect x="61.126" y="61.625" fill="#FFFFFF" stroke="#606772" stroke-miterlimit="10" width="10.406" height="0.256"/>
			<rect x="61.126" y="64.533" fill="#FFFFFF" stroke="#606772" stroke-miterlimit="10" width="23.931" height="0.256"/>
			<rect x="61.126" y="67.94" fill="#FFFFFF" stroke="#606772" stroke-miterlimit="10" width="23.931" height="0.255"/>
			<rect x="61.126" y="71.342" fill="#FFFFFF" stroke="#606772" stroke-miterlimit="10" width="23.931" height="0.256"/>
		</g>
	</g>
	<g opacity="0.6">
		<path fill="#FFFFFF" stroke="#606772" stroke-miterlimit="10" d="M91.605,63.022v18.263c0,0.377-0.293,0.672-0.67,0.672H59.07
			c-0.381,0-0.678-0.312-0.678-0.672V63.022H91.605z"/>
		<path fill="#FFFFFF" stroke="#606772" stroke-miterlimit="10" d="M59.07,60.517h31.865c0.383,0,0.67,0.291,0.67,0.674v1.829
			H58.395v-1.83C58.395,60.817,58.689,60.517,59.07,60.517z"/>
		<g>
			<path fill="#FFFFFF" d="M91.605,63.022v18.263c0,0.377-0.293,0.672-0.67,0.672H59.07c-0.381,0-0.678-0.312-0.678-0.672V63.022
				v-1.829c0-0.385,0.297-0.676,0.678-0.676h31.865c0.383,0,0.67,0.297,0.67,0.676V63.022L91.605,63.022z"/>
			<line fill="none" stroke="#606772" stroke-miterlimit="10" x1="58.395" y1="63.022" x2="91.605" y2="63.022"/>
		</g>
		<circle fill="#FFFFFF" stroke="#606772" stroke-miterlimit="10" cx="90.104" cy="61.825" r="0.446"/>
		<path fill="#FFFFFF" stroke="#606772" stroke-miterlimit="10" d="M88.598,61.379c0.246,0,0.447,0.201,0.447,0.447
			c0,0.245-0.201,0.444-0.447,0.444c-0.248,0-0.443-0.199-0.443-0.444C88.152,61.58,88.35,61.379,88.598,61.379z"/>
		<path fill="#FFFFFF" stroke="#606772" stroke-miterlimit="10" d="M87.096,61.379c0.246,0,0.445,0.201,0.445,0.447
			c0,0.245-0.199,0.444-0.445,0.444s-0.443-0.199-0.443-0.444C86.65,61.58,86.85,61.379,87.096,61.379z"/>
		<g>
			<rect x="59.639" y="65.34" fill="#FFFFFF" stroke="#606772" stroke-miterlimit="10" width="11.522" height="0.283"/>
			<rect x="59.639" y="68.561" fill="#FFFFFF" stroke="#606772" stroke-miterlimit="10" width="26.492" height="0.281"/>
			<rect x="59.639" y="72.33" fill="#FFFFFF" stroke="#606772" stroke-miterlimit="10" width="26.492" height="0.285"/>
			<rect x="59.639" y="76.102" fill="#FFFFFF" stroke="#606772" stroke-miterlimit="10" width="26.492" height="0.279"/>
		</g>
	</g>
	<g opacity="0.8">
		<path fill="#FFFFFF" stroke="#606772" stroke-miterlimit="10" d="M93.213,66.514v20.033c0,0.41-0.322,0.756-0.736,0.756H57.532
			c-0.421,0-0.746-0.336-0.746-0.756V66.514H93.213z"/>
		<path fill="#FFFFFF" stroke="#606772" stroke-miterlimit="10" d="M57.532,63.764h34.946c0.412,0,0.732,0.318,0.732,0.74v2.012
			H56.788v-2.012C56.786,64.094,57.111,63.764,57.532,63.764z"/>
		<g>
			<path fill="#FFFFFF" d="M93.213,66.514v20.033c0,0.41-0.322,0.756-0.736,0.756H57.532c-0.421,0-0.746-0.336-0.746-0.756V66.514
				v-2.01c0-0.41,0.325-0.75,0.746-0.75h34.946c0.412,0,0.732,0.32,0.732,0.75L93.213,66.514L93.213,66.514z"/>
			<line fill="none" stroke="#606772" stroke-miterlimit="10" x1="56.786" y1="66.514" x2="93.213" y2="66.514"/>
		</g>
		<circle fill="#FFFFFF" stroke="#606772" stroke-miterlimit="10" cx="91.564" cy="65.2" r="0.491"/>
		<circle fill="#FFFFFF" stroke="#606772" stroke-miterlimit="10" cx="89.912" cy="65.2" r="0.491"/>
		<circle fill="#FFFFFF" stroke="#606772" stroke-miterlimit="10" cx="88.262" cy="65.2" r="0.491"/>
		<g>
			<rect x="58.15" y="69.054" fill="#FFFFFF" stroke="#606772" stroke-miterlimit="10" width="12.638" height="0.313"/>
			<rect x="58.15" y="72.586" fill="#FFFFFF" stroke="#606772" stroke-miterlimit="10" width="29.061" height="0.31"/>
			<rect x="58.15" y="76.721" fill="#FFFFFF" stroke="#606772" stroke-miterlimit="10" width="29.061" height="0.313"/>
			<rect x="58.15" y="80.855" fill="#FFFFFF" stroke="#606772" stroke-miterlimit="10" width="29.061" height="0.311"/>
		</g>
	</g>
	<g>
		<path fill="#FFFFFF" stroke="#606772" stroke-miterlimit="10" d="M95,69.918v21.994c0,0.451-0.355,0.819-0.812,0.819H55.814
			c-0.459,0.001-0.815-0.368-0.815-0.819V69.918H95z"/>
		<path fill="#FFFFFF" stroke="#606772" stroke-miterlimit="10" d="M55.814,66.898h38.373c0.457,0,0.812,0.35,0.812,0.813v2.203h-40
			v-2.203C54.999,67.258,55.359,66.898,55.814,66.898z"/>
		<g>
			<path fill="#FFFFFF" d="M95,69.918v21.994c0,0.451-0.355,0.819-0.812,0.819H55.814c-0.459,0.001-0.815-0.368-0.815-0.819V69.918
				v-2.205c0-0.455,0.356-0.815,0.815-0.815h38.373c0.457,0,0.812,0.354,0.812,0.815L95,69.918L95,69.918z"/>
			<line fill="none" x1="54.999" y1="69.918" x2="95" y2="69.918"/>
		</g>
		<circle fill="#FFFFFF" stroke="#606772" stroke-miterlimit="10" cx="93.188" cy="68.47" r="0.538"/>
		<circle fill="#FFFFFF" stroke="#606772" stroke-miterlimit="10" cx="91.375" cy="68.47" r="0.538"/>
		<circle fill="#FFFFFF" stroke="#606772" stroke-miterlimit="10" cx="89.562" cy="68.47" r="0.538"/>
		<g>
			<rect x="56.497" y="72.707" fill="#FFFFFF" stroke="#606772" stroke-miterlimit="10" width="13.879" height="0.338"/>
			<rect x="56.497" y="76.584" fill="#FFFFFF" stroke="#606772" stroke-miterlimit="10" width="31.911" height="0.338"/>
			<rect x="56.497" y="81.123" fill="#FFFFFF" stroke="#606772" stroke-miterlimit="10" width="31.911" height="0.34"/>
			<rect x="56.497" y="85.664" fill="#FFFFFF" stroke="#606772" stroke-miterlimit="10" width="31.911" height="0.338"/>
		</g>
	</g>
</g>
<g>
	<path fill="#FFFFFF" d="M87.604,117.061c0.855,2.535,1.336,5.369,1.336,8.358c0,10.815-6.27,19.581-14.004,19.581
		c-7.731,0-14.006-8.766-14.006-19.581c0-2.989,0.479-5.826,1.338-8.36"/>
	<path fill="#FFFFFF" d="M62.62,115.466C64.991,109.233,69.616,105,74.936,105c5.295,0,9.902,4.195,12.287,10.387"/>
	<g>
		<path fill="#FFFFFF" d="M58.652,114.519l4.236,6.883c0.342,0.555,0.168,1.279-0.39,1.621c-0.556,0.341-1.276,0.168-1.619-0.386
			c-0.034-0.062-0.067-0.129-0.094-0.193l-2.912-7.542c-0.086-0.225,0.024-0.476,0.25-0.563
			C58.327,114.264,58.544,114.343,58.652,114.519z"/>
	</g>
	<g>
		<path fill="#FFFFFF" d="M92.123,114.902l-2.912,7.542c-0.234,0.607-0.916,0.907-1.521,0.673c-0.604-0.233-0.906-0.916-0.674-1.523
			c0.025-0.067,0.062-0.134,0.096-0.193l4.24-6.883c0.125-0.204,0.395-0.27,0.6-0.144C92.125,114.487,92.199,114.711,92.123,114.902
			z"/>
	</g>
	<g>
		<path fill="#FFFFFF" d="M59.439,140.938l2.914-7.54c0.229-0.606,0.912-0.907,1.521-0.673s0.91,0.917,0.674,1.521
			c-0.026,0.067-0.06,0.136-0.096,0.193l-4.236,6.883c-0.127,0.204-0.396,0.269-0.598,0.143
			C59.438,141.354,59.366,141.129,59.439,140.938z"/>
	</g>
	<g>
		<path fill="#FFFFFF" d="M89.781,141.322l-4.238-6.883c-0.34-0.554-0.168-1.278,0.389-1.62c0.555-0.342,1.277-0.168,1.619,0.386
			c0.037,0.062,0.07,0.13,0.096,0.193l2.91,7.54c0.088,0.225-0.021,0.475-0.248,0.563C90.111,141.577,89.887,141.497,89.781,141.322
			z"/>
	</g>
</g>
<g>
	<g>
		<circle fill="#FFFFFF" cx="74.988" cy="159.017" r="4.017"/>
		<path fill="#FFFFFF" d="M81.745,170.333l-2.741,16.69h-8.031l-2.738-16.69c0-2.441,1.361-4.415,3.045-4.415H78.7
			C80.383,165.918,81.745,167.893,81.745,170.333z"/>
	</g>
	<g>
		<circle fill="#FFFFFF" cx="65.542" cy="166.994" r="4.017"/>
		<path fill="#FFFFFF" d="M72.296,178.311L69.561,195h-8.037l-2.738-16.689c0-2.441,1.361-4.417,3.048-4.417h7.418
			C70.936,173.894,72.296,175.871,72.296,178.311z"/>
	</g>
	<g>
		<circle fill="#FFFFFF" cx="84.457" cy="166.994" r="4.017"/>
		<path fill="#FFFFFF" d="M91.217,178.311L88.477,195h-8.037l-2.732-16.689c0-2.441,1.359-4.417,3.045-4.417h7.419
			C89.852,173.894,91.217,175.871,91.217,178.311z"/>
	</g>
</g>
<path fill="#FFFFFF" d="M95,227.461v-4.925l-5.973-2.464l-0.565-1.518l2.366-5.876l-3.697-3.507l-5.684,2.371l-1.521-0.666
	L77.459,205h-4.928l-2.742,6.029l-1.621,0.383l-5.494-2.24l-3.508,3.697l2.275,5.592l-0.474,1.613L55,222.536v4.926l5.973,2.467
	l0.565,1.612l-2.371,5.781l3.699,3.507l5.688-2.371l1.516,0.571L72.532,245h4.928l2.562-5.972l1.521-0.571l5.59,2.371l3.697-3.697
	l-2.366-5.783l0.476-1.231L95,227.461z M74.82,232.403c-4.196,0-7.596-3.399-7.596-7.595c0-4.195,3.397-7.593,7.596-7.593
	c4.191,0,7.591,3.398,7.591,7.593C82.411,229.004,79.012,232.403,74.82,232.403z"/>
<g>
	<g>
		<path fill="#FFFFFF" d="M94.577,266.856c0.354,0.441,0.485,0.971,0.396,1.589l-1.676,9.621c-0.061,0.5-0.288,0.911-0.686,1.234
			c-0.397,0.324-0.846,0.487-1.346,0.487H66.818l-0.483,2.735h23.299c0.558,0,1.043,0.199,1.455,0.595
			c0.411,0.397,0.617,0.891,0.617,1.479c0,0.588-0.206,1.081-0.617,1.478c-0.412,0.397-0.897,0.595-1.455,0.595H63.863
			c-0.617,0-1.146-0.25-1.588-0.75c-0.412-0.5-0.573-1.073-0.486-1.721l1.104-6.001l-1.677-16.857l-4.766-1.5
			c-0.56-0.175-0.964-0.514-1.214-1.016c-0.252-0.5-0.303-1.029-0.154-1.588c0.18-0.559,0.521-0.965,1.038-1.213
			c0.517-0.251,1.037-0.302,1.565-0.155l6.092,1.94c0.383,0.119,0.697,0.339,0.947,0.662c0.252,0.322,0.404,0.692,0.463,1.104
			l0.354,3.355l27.624,3.088C93.783,266.106,94.254,266.385,94.577,266.856z M66.998,287.816c0.883,0,1.631,0.31,2.25,0.928
			c0.618,0.618,0.927,1.368,0.927,2.251c0,0.881-0.309,1.64-0.927,2.271c-0.619,0.634-1.367,0.948-2.25,0.948
			s-1.633-0.314-2.251-0.948c-0.618-0.632-0.929-1.389-0.929-2.271s0.311-1.633,0.929-2.251
			C65.365,288.126,66.115,287.816,66.998,287.816z M85.839,287.816c0.882,0,1.634,0.31,2.25,0.928
			c0.618,0.618,0.929,1.368,0.929,2.251c0,0.881-0.311,1.64-0.929,2.271c-0.616,0.634-1.366,0.948-2.25,0.948
			s-1.634-0.314-2.25-0.948c-0.62-0.632-0.929-1.389-0.929-2.271s0.309-1.633,0.929-2.251
			C84.207,288.126,84.956,287.816,85.839,287.816z"/>
	</g>
</g>
<g>
	<rect x="61.85" y="324.94" fill="#FFFFFF" width="5.836" height="17.921"/>
	<rect x="71.598" y="313.353" fill="#FFFFFF" width="5.832" height="29.509"/>
	<rect x="80.846" y="319.004" fill="#FFFFFF" width="5.834" height="23.857"/>
	<g>
		<rect x="55" y="304.69" fill="#FFFFFF" width="3" height="40"/>
		<rect x="55" y="342.31" fill="#FFFFFF" width="40" height="3"/>
	</g>
</g>
<g>
	<g>
		<path fill="#FFFFFF" d="M67.161,406.715c0.633,0.986,0.428,1.799,0.428,1.799l-0.444,2.491c-0.746-0.653-1.972-1.374-3.424-1.678
			c-1.455-0.302-2.839-0.125-3.755,0.181l0.447-2.49c0,0,0.092-0.834,1.019-1.494c0.926-0.662,1.694-0.578,3.026-0.301
			C65.786,405.499,66.529,405.729,67.161,406.715z"/>
		<path fill="#FFFFFF" d="M67.057,412.566c-1.121,5.345-3.771,20.145-4.111,24.095l-0.401,0.521c0,0-0.332-0.764-0.606-0.817
			c-0.14-0.028-0.479,0.148-0.781,0.335c-0.305,0.188-0.573,0.382-0.573,0.382s-0.783-1.2-1.584-1.368
			c-0.799-0.168-1.942,0.633-1.942,0.633s-0.731-1.146-1.011-1.208c-0.274-0.058-0.849,0.521-0.849,0.521l-0.194-0.646
			c1.052-3.804,3.701-18.604,4.506-24.013c0.375-0.273,2.488-0.773,3.998-0.457c0.601,0.124,1.242,0.406,1.813,0.725
			C66.188,411.744,66.896,412.318,67.057,412.566z"/>
		<path fill="#FFFFFF" d="M59.794,441.403L59.794,441.403c-1.256,1.771-2.412,3.305-2.412,3.305s-0.545-1.888-1.096-4.037
			c0.258-0.077,1.041-0.271,1.838-0.104C58.921,440.727,59.581,441.226,59.794,441.403z"/>
	</g>
	<path fill="#FFFFFF" d="M67.057,412.566c-1.121,5.345-3.771,20.145-4.111,24.095l-0.401,0.521c0,0-0.332-0.764-0.606-0.817
		c-0.14-0.028-0.479,0.148-0.781,0.335c-0.305,0.188-0.573,0.382-0.573,0.382s-0.783-1.2-1.584-1.368
		c-0.799-0.168-1.942,0.633-1.942,0.633s-0.731-1.146-1.011-1.208c-0.274-0.058-0.849,0.521-0.849,0.521l-0.194-0.646
		c1.052-3.804,3.701-18.604,4.506-24.013"/>
	<path fill="#FFFFFF" d="M62.54,437.182c-0.556,1.058-1.685,2.726-2.746,4.226l0,0c-1.256,1.771-2.412,3.305-2.412,3.305
		s-0.545-1.888-1.096-4.037c-0.47-1.812-0.943-3.814-1.095-5.02"/>
	<path fill="#FFFFFF" d="M56.286,440.671c0.26-0.077,1.041-0.271,1.84-0.104c0.797,0.159,1.455,0.659,1.67,0.841"/>
	<path fill="#FFFFFF" d="M59.964,409.508c0.918-0.306,2.304-0.482,3.754-0.181c1.455,0.304,2.681,1.022,3.427,1.678
		c0.289,0.252,0.506,0.498,0.635,0.702c0.476,0.736-0.471,1.264-0.725,0.859l0,0c-0.158-0.248-0.867-0.822-1.74-1.31
		c-0.569-0.315-1.213-0.601-1.812-0.725c-1.51-0.316-3.625,0.183-3.998,0.458c-0.377,0.271-1.067-0.6-0.379-1.096
		C59.32,409.768,59.607,409.625,59.964,409.508z"/>
	<path fill="#FFFFFF" d="M67.143,411.005l0.002-0.003l0.444-2.488c0,0,0.203-0.812-0.428-1.799
		c-0.634-0.986-1.375-1.216-2.707-1.496c-1.332-0.273-2.103-0.359-3.027,0.301c-0.926,0.66-1.018,1.494-1.018,1.494l-0.447,2.491
		l-0.002,0.003"/>
	<g id="XMLID_1_">
		<g>
			<path fill="#FFFFFF" d="M91.572,411.084c2.414-0.15,4.057,1.915,3.195,4.792c-0.68,2.269-3.479,4.192-5.15,6.038
				c-5.111,5.614-11.332,12.438-15.979,17.581c-1.271-0.334-2.068-1.133-2.666-2.134c4.213-5.42,9.242-12.906,13.674-19.178
				C86.336,415.793,88.266,411.284,91.572,411.084z"/>
		</g>
		<g>
			<path fill="#FFFFFF" d="M73.639,439.495c-1.269-0.334-2.065-1.133-2.666-2.134c4.213-5.42,9.244-12.906,13.674-19.178
				c1.688-2.396,3.619-6.901,6.928-7.104c2.416-0.146,4.057,1.914,3.195,4.794c-0.68,2.271-3.477,4.189-5.148,6.035
				C84.506,427.531,78.285,434.355,73.639,439.495z"/>
		</g>
	</g>
	<path fill="#FFFFFF" d="M88.73,413.745c0.623-0.031,0.584,0.601,1.062,0.709c0.33-1.271,1.521-1.677,2.312-2.485
		C90.389,411.973,89.225,412.521,88.73,413.745z"/>
	<path fill="#FFFFFF" d="M61.208,444.644c0.67-0.439,2.045-0.199,2.84-0.529c1.798-0.746,1.242-2.438,2.486-4.265
		c2.073-3.043,6.682-0.151,6.569,2.134C72.936,445.505,64.943,445.206,61.208,444.644z"/>
</g>
<g>
	<g>
		<polygon fill="#FFFFFF" points="60.339,492.9 60.339,472.889 61.451,469.701 71.68,469.701 73.087,472.814 92.359,472.814 
			92.359,492.9 		"/>
		<path fill="#FFFFFF" d="M60.229,492.9v-20.016l0.006-0.038l1.113-3.186c0.016-0.045,0.061-0.074,0.104-0.074H71.68
			c0.045,0,0.084,0.026,0.104,0.065l1.406,3.108l-0.103-0.062l19.272-0.219c0.18,0,0.328,0.144,0.328,0.316v0.009l-0.221,20.089
			c0,0.062-0.049,0.106-0.107,0.106H60.339C60.277,493.01,60.229,492.962,60.229,492.9z M60.45,492.789h31.909l-0.111,0.111
			l-0.219-20.086l0.33,0.324l-19.273-0.217c-0.043,0-0.084-0.028-0.102-0.062l-1.408-3.113l0.101,0.062H61.451l0.104-0.071
			l-1.111,3.186l0.008-0.034L60.45,492.789L60.45,492.789z"/>
	</g>
	<g>
		<path fill="#FFFFFF" d="M65.602,461.361c2.178,3.907,4.354,7.82,6.529,11.729c-3.535,1.969-7.07,3.938-10.607,5.902
			c-2.176-3.911-4.352-7.823-6.525-11.734C58.529,465.293,62.066,463.326,65.602,461.361z"/>
		<path fill="#FFFFFF" d="M60.266,471.421c2.105-1.171,4.213-2.343,6.318-3.515c-0.797-1.434-1.591-2.858-2.387-4.288
			c-2.104,1.173-4.211,2.343-6.318,3.515C58.675,468.562,59.471,469.992,60.266,471.421z"/>
		<path fill="#FFFFFF" d="M58.105,469.668c-0.168-0.303-0.336-0.604-0.504-0.904c-0.3,0.169-0.603,0.335-0.9,0.503
			C56.959,470.142,57.427,470.271,58.105,469.668z"/>
		<path fill="#FFFFFF" d="M63.152,476.613c2.106-1.172,4.215-2.349,6.315-3.521c-0.795-1.428-1.588-2.855-2.385-4.288
			c-2.106,1.171-4.213,2.347-6.319,3.519C61.562,473.756,62.355,475.183,63.152,476.613z"/>
		<path fill="#FFFFFF" d="M57.879,467.133c2.107-1.172,4.214-2.342,6.32-3.515c0.797,1.43,1.59,2.854,2.386,4.288
			c-2.106,1.172-4.213,2.344-6.319,3.515C59.471,469.992,58.675,468.562,57.879,467.133z"/>
		<path fill="#FFFFFF" d="M60.766,472.323c2.106-1.172,4.213-2.348,6.319-3.519c0.797,1.433,1.59,2.86,2.386,4.288
			c-2.104,1.172-4.209,2.349-6.318,3.521C62.355,475.183,61.562,473.756,60.766,472.323z"/>
		<g>
			<g>
				
					<rect x="55.623" y="466.615" transform="matrix(-0.874 0.4859 -0.4859 -0.874 332.2726 848.2061)" fill="#FFFFFF" width="1.12" height="1.122"/>
				
					<rect x="64.256" y="461.811" transform="matrix(-0.875 0.4842 -0.4842 -0.875 345.3898 835.5559)" fill="#FFFFFF" width="1.119" height="1.12"/>
			</g>
			<g>
				
					<rect x="56.555" y="468.136" transform="matrix(-0.8729 0.4879 -0.4879 -0.8729 335.6317 849.9669)" fill="#FFFFFF" width="1.121" height="1.12"/>
				
					<rect x="65.115" y="463.334" transform="matrix(-0.8744 0.4852 -0.4852 -0.8744 348.1804 837.658)" fill="#FFFFFF" width="1.119" height="1.118"/>
			</g>
			<g>
				
					<rect x="57.416" y="469.752" transform="matrix(-0.8743 0.4854 -0.4854 -0.8743 336.9656 853.353)" fill="#FFFFFF" width="1.123" height="1.12"/>
				
					<rect x="66.005" y="464.995" transform="matrix(-0.8739 0.4862 -0.4862 -0.8739 351.0704 840.028)" fill="#FFFFFF" width="1.121" height="1.121"/>
			</g>
			<g>
				
					<rect x="58.278" y="471.281" transform="matrix(-0.8741 0.4858 -0.4858 -0.8741 339.4848 855.6836)" fill="#FFFFFF" width="1.122" height="1.122"/>
				
					<rect x="66.85" y="466.54" transform="matrix(-0.8737 0.4865 -0.4865 -0.8737 353.5624 842.3903)" fill="#FFFFFF" width="1.12" height="1.12"/>
			</g>
			<g>
				
					<rect x="59.149" y="472.812" transform="matrix(-0.8741 0.4858 -0.4858 -0.8741 341.861 858.1292)" fill="#FFFFFF" width="1.122" height="1.121"/>
				
					<rect x="67.725" y="468.036" transform="matrix(-0.875 0.4841 -0.4841 -0.875 354.8792 845.5653)" fill="#FFFFFF" width="1.122" height="1.116"/>
			</g>
			<g>
				
					<rect x="60.019" y="474.366" transform="matrix(-0.8737 0.4865 -0.4865 -0.8737 344.571 860.3774)" fill="#FFFFFF" width="1.12" height="1.12"/>
				
					<rect x="68.6" y="469.612" transform="matrix(-0.8737 0.4865 -0.4865 -0.8737 358.3048 847.3218)" fill="#FFFFFF" width="1.122" height="1.121"/>
			</g>
			<g>
				
					<rect x="60.923" y="475.937" transform="matrix(-0.8744 0.4851 -0.4851 -0.8744 346.4084 863.3421)" fill="#FFFFFF" width="1.121" height="1.123"/>
				
					<rect x="69.466" y="471.186" transform="matrix(-0.8735 0.4868 -0.4868 -0.8735 360.8528 849.7272)" fill="#FFFFFF" width="1.121" height="1.121"/>
			</g>
			<g>
				
					<rect x="61.759" y="477.515" transform="matrix(-0.8733 0.4872 -0.4872 -0.8733 349.6583 865.2111)" fill="#FFFFFF" width="1.12" height="1.119"/>
				
					<rect x="70.331" y="472.744" transform="matrix(-0.8744 0.4852 -0.4852 -0.8744 362.5241 852.7712)" fill="#FFFFFF" width="1.119" height="1.125"/>
			</g>
		</g>
	</g>
	<g>
		<path fill="#FFFFFF" d="M76.773,464.442c-2.242,0.521-4.418-0.647-6.734,1.849c-1.04-0.459-2.549-2.271-3.033-3.272
			c0.482-0.448,0.969-0.896,1.452-1.349c0.604-1.438,0.321-2.909,0.342-4.372C71.902,456.894,75.699,461.408,76.773,464.442z"/>
		<path fill="#FFFFFF" d="M73.965,457.032c1.896-0.494,5.596,3.385,4.887,5.271C78.325,459.922,76.214,457.855,73.965,457.032z"/>
		<path fill="#FFFFFF" d="M74.25,458.796c1.48-0.688,3.727,1.626,2.861,3.093C77.043,460.453,75.673,458.975,74.25,458.796z"/>
	</g>
	<g>
		
			<rect x="76.417" y="466.644" transform="matrix(-0.9467 -0.322 0.322 -0.9467 14.0742 944.9464)" fill="#FFFFFF" width="17.561" height="9.329"/>
		
			<rect x="78.602" y="466.426" transform="matrix(-0.9466 -0.3223 0.3223 -0.9466 4.8887 935.1406)" fill="#FFFFFF" width="2.536" height="1.479"/>
		
			<rect x="88.494" y="470.114" transform="matrix(-0.9467 -0.322 0.322 -0.9467 24.9774 945.8397)" fill="#FFFFFF" width="4.446" height="1.48"/>
		<path fill="#FFFFFF" d="M87.867,472.896c-0.553,1.631-2.322,2.497-3.95,1.944c-1.629-0.553-2.496-2.324-1.946-3.95
			c0.553-1.628,2.324-2.499,3.95-1.942C87.549,469.5,88.42,471.269,87.867,472.896z M85.5,470.184
			c-0.941-0.319-1.971,0.187-2.29,1.128c-0.323,0.944,0.183,1.977,1.127,2.297c0.947,0.318,1.972-0.187,2.294-1.132
			C86.951,471.529,86.445,470.504,85.5,470.184z"/>
		
			<rect x="78.587" y="462.854" transform="matrix(-0.9467 -0.3222 0.3222 -0.9467 8.7684 929.2802)" fill="#FFFFFF" width="5.381" height="2.121"/>
	</g>
	<g>
		<polygon fill="#FFFFFF" points="60.339,492.9 57.302,475.929 58.409,472.668 70.346,472.668 71.826,475.557 93.395,475.557 
			92.359,492.9 		"/>
		<path fill="#FFFFFF" d="M60.229,492.92l-3.041-16.974c-0.002-0.021-0.002-0.039,0.004-0.06l1.111-3.26
			c0.021-0.047,0.061-0.077,0.104-0.077h11.937c0.041,0,0.077,0.025,0.096,0.063l1.482,2.892l-0.099-0.06l21.569-0.238
			c0.188-0.002,0.349,0.151,0.352,0.34l-0.003,0.031l-1.273,17.329c-0.002,0.058-0.054,0.104-0.108,0.104H60.339
			C60.284,493.01,60.24,492.972,60.229,492.92z M60.434,492.789h31.926l-0.107,0.104l0.798-17.354l0.353,0.37l-21.57-0.239
			c-0.043,0-0.081-0.025-0.1-0.061l-1.48-2.894l0.098,0.062h-11.94l0.104-0.075l-1.109,3.261l0.003-0.056L60.434,492.789z"/>
	</g>
</g>
<g>
	<path fill="#FFFFFF" d="M91.805,504.999H63.996c-1.438,0-2.604,1.167-2.604,2.603v6.388h-3.197c-1.438,0-2.604,1.168-2.604,2.604
		V542.4c0,1.438,1.167,2.604,2.604,2.604h2.396h31.214c1.438,0,2.604-1.167,2.604-2.604v-34.796
		C94.406,506.166,93.24,504.999,91.805,504.999z M88.52,538.521H67.7c-0.499,0-0.901-0.404-0.901-0.899
		c0-0.498,0.403-0.902,0.901-0.902H88.52c0.496,0,0.9,0.404,0.9,0.902C89.42,538.117,89.016,538.521,88.52,538.521z M88.52,533.718
		H67.7c-0.499,0-0.901-0.4-0.901-0.897c0-0.498,0.403-0.9,0.901-0.9H88.52c0.496,0,0.9,0.402,0.9,0.9
		C89.42,533.312,89.016,533.718,88.52,533.718z M88.52,528.912H67.7c-0.499,0-0.901-0.404-0.901-0.899
		c0-0.498,0.403-0.898,0.901-0.898H88.52c0.496,0,0.9,0.4,0.9,0.898C89.42,528.508,89.016,528.912,88.52,528.912z M88.52,524.108
		H67.7c-0.499,0-0.901-0.404-0.901-0.901c0-0.496,0.403-0.9,0.901-0.9H88.52c0.496,0,0.9,0.404,0.9,0.9
		C89.42,523.704,89.016,524.108,88.52,524.108z M88.52,519.305H67.7c-0.499,0-0.901-0.4-0.901-0.897
		c0-0.498,0.403-0.902,0.901-0.902H88.52c0.496,0,0.9,0.406,0.9,0.902S89.016,519.305,88.52,519.305z M88.52,514.499H67.7
		c-0.499,0-0.901-0.404-0.901-0.901c0-0.498,0.403-0.898,0.901-0.898H88.52c0.496,0,0.9,0.402,0.9,0.898
		C89.42,514.095,89.016,514.499,88.52,514.499z"/>
</g>
<g>
	<polygon fill="#FFFFFF" points="58.879,635.986 64.49,630.374 70.208,629.496 72.628,624.104 77.469,623.663 78.791,621.793 
		81.318,619.815 83.191,616.185 87.262,614.535 90.781,609.57 95,611.572 90.531,617.808 86.564,619.396 85.282,622.597 
		82.21,624.748 80.521,627.242 76.154,627.854 73.646,633.184 67.484,634.246 61.396,640.552 	"/>
	<g>
		<rect x="55" y="604.398" fill="#FFFFFF" width="3" height="40"/>
		<rect x="55" y="642.602" fill="#FFFFFF" width="40" height="3"/>
	</g>
</g>
<g>
	<path fill="#FFFFFF" d="M85.002,672.5v-7.502c0-5.51-4.484-9.998-10.002-9.998c-5.516,0-10,4.488-10,9.998v7.502
		c-2.76,0-4.999,2.238-4.999,4.997v12.506c0,2.759,2.239,4.997,4.999,4.997h20.002c2.76,0,4.997-2.238,4.997-4.997v-12.506
		C89.999,674.738,87.762,672.5,85.002,672.5 M76.25,684.618v4.134c0,0.69-0.557,1.251-1.25,1.251c-0.688,0-1.249-0.561-1.249-1.251
		v-4.134c-0.733-0.438-1.252-1.203-1.252-2.117c0-1.382,1.12-2.5,2.5-2.5s2.5,1.118,2.5,2.5
		C77.5,683.415,76.984,684.183,76.25,684.618 M79.997,672.5h-9.996v-7.502c0-2.758,2.242-5,4.999-5c2.755,0,4.997,2.242,4.997,5
		V672.5z"/>
	<path fill="#FFFFFF" d="M85.002,672.5v-7.502c0-5.51-4.484-9.998-10.002-9.998c-5.516,0-10,4.488-10,9.998v7.502
		c-2.76,0-4.999,2.238-4.999,4.997v12.506c0,2.759,2.239,4.997,4.999,4.997h20.002c2.76,0,4.997-2.238,4.997-4.997v-12.506
		C89.999,674.738,87.762,672.5,85.002,672.5 M79.997,672.5h-9.996v-7.502c0-2.758,2.242-5,4.999-5c2.755,0,4.997,2.242,4.997,5
		V672.5z"/>
	<g>
		<circle fill="#FFFFFF" cx="75.193" cy="679.784" r="2.402"/>
		<path fill="#FFFFFF" d="M74.287,681.975c1.158,0.518,2.646-0.104,3.078-1.284c0.488-1.166-0.133-2.592-1.277-3.061
			c-1.138-0.54-2.615,0.085-3.066,1.253C72.493,680.028,73.094,681.526,74.287,681.975z M74.268,682.036
			c-1.207-0.474-1.854-1.987-1.336-3.188c0.469-1.229,2-1.852,3.209-1.35c1.256,0.452,1.879,2.042,1.322,3.221
			C76.979,681.94,75.452,682.562,74.268,682.036z"/>
	</g>
	<g>
		<path fill="#FFFFFF" d="M79.232,686.15l-1.633,8.57h-4.809l-1.639-8.57c0-1.262,0.816-2.271,1.822-2.271h4.438
			C78.421,683.881,79.232,684.893,79.232,686.15z"/>
		<path fill="#FFFFFF" d="M79.275,686.153l-1.652,8.571l-0.004,0.021h-0.021l0,0h-4.807h-0.018l-0.006-0.021v-0.004
			c-0.242-0.044-0.123-0.155-0.181-0.237c-0.021-0.092-0.04-0.184-0.048-0.271l-0.062-0.543c-0.043-0.36-0.125-0.714-0.188-1.074
			l-0.415-2.14l-0.788-4.294l-0.002-0.007v-0.01c0-0.908,0.479-1.903,1.39-2.229c0.92-0.167,1.814-0.034,2.728-0.068
			c0.901,0.044,1.815-0.071,2.712,0.105C78.781,684.285,79.271,685.243,79.275,686.153z M79.189,686.146
			c0.021-0.871-0.41-1.859-1.291-2.166c-0.877-0.162-1.809-0.037-2.707-0.067c-0.896,0.044-1.838-0.071-2.69,0.103
			c-0.844,0.318-1.289,1.271-1.271,2.141l-0.002-0.018l0.85,4.28l0.402,2.146c0.069,0.354,0.127,0.714,0.217,1.063l0.144,0.529
			c0.026,0.089,0.039,0.181,0.056,0.266c-0.023,0.103,0.131,0.163-0.078,0.295l0,0l-0.024-0.021H77.6l0,0l-0.021,0.021
			L79.189,686.146z"/>
	</g>
</g>
<g>
	<path fill="#FFFFFF" stroke="#FFFFFF" stroke-miterlimit="10" d="M85.32,725c0,5.664-4.588,10.256-10.256,10.256
		c-5.662,0-10.256-4.591-10.256-10.256s4.592-10.256,10.256-10.256C80.73,714.744,85.32,719.336,85.32,725z M75.064,717.806
		c-3.974,0-7.193,3.222-7.193,7.194s3.219,7.194,7.193,7.194c3.977,0,7.199-3.224,7.199-7.194S79.041,717.806,75.064,717.806z"/>
	<path fill="#FFFFFF" stroke="#FFFFFF" stroke-miterlimit="10" d="M78.678,723.648c-0.217,0.776-0.922,1.352-1.77,1.352
		c-1.018,0-1.844-0.825-1.844-1.844c0-0.848,0.574-1.553,1.352-1.77c-0.422-0.158-0.873-0.256-1.352-0.256
		c-2.138,0-3.867,1.731-3.867,3.868s1.729,3.868,3.867,3.868c2.137,0,3.869-1.731,3.869-3.868
		C78.934,724.521,78.836,724.07,78.678,723.648z"/>
	
		<path fill="none" stroke="#FFFFFF" stroke-width="1.2246" stroke-linecap="round" stroke-linejoin="round" stroke-miterlimit="10" d="
		M55,725c12.607-14.362,27.557-13.617,39.867,0"/>
	
		<path fill="none" stroke="#FFFFFF" stroke-width="1.2246" stroke-linecap="round" stroke-linejoin="round" stroke-miterlimit="10" d="
		M95,725c-12.607,14.362-27.559,13.617-39.871,0"/>
</g>
<g>
	<path fill="#FFFFFF" d="M95,559.483c0-1.694-1.373-3.067-3.066-3.067H58.066c-1.692,0-3.066,1.373-3.066,3.067
		c0,1.587,1.211,2.876,2.757,3.03v15.779c0,1.21,0.979,2.19,2.188,2.19h12.865v2.286l-6.201,6.195c-0.855,0.857-0.855,2.245,0,3.102
		c0.855,0.854,2.244,0.854,3.099,0l3.104-3.104v2.43c0,1.211,0.979,2.19,2.188,2.19s2.189-0.979,2.189-2.19v-2.43l3.104,3.104
		c0.429,0.427,0.988,0.641,1.552,0.641c0.562,0,1.118-0.214,1.549-0.641c0.855-0.856,0.855-2.242,0-3.102l-6.201-6.195v-2.286
		h12.861c1.211,0,2.189-0.98,2.189-2.19v-15.779C93.789,562.358,95,561.069,95,559.483z"/>
</g>
<g>
	<path fill="#FFFFFF" d="M84.575,389.959l-1.849-4.854H67.002l-1.848,4.959c-0.721,1.936-1.336,3.246-1.846,3.916
		C62.796,394.666,61.96,395,60.8,395c-0.983,0-1.854-0.359-2.61-1.082c-0.756-0.721-1.135-1.539-1.135-2.455
		c0-0.525,0.088-1.07,0.264-1.635c0.178-0.562,0.468-1.346,0.871-2.348l9.896-25.122c0.282-0.723,0.62-1.594,1.02-2.596
		c0.396-1.02,0.814-1.854,1.267-2.522c0.448-0.669,1.038-1.205,1.771-1.627C72.867,355.21,73.77,355,74.842,355
		c1.092,0,1.996,0.211,2.729,0.616c0.729,0.422,1.318,0.948,1.77,1.601c0.448,0.65,0.827,1.354,1.137,2.094
		c0.31,0.756,0.703,1.75,1.178,2.998l10.104,24.96c0.791,1.897,1.188,3.278,1.188,4.144c0,0.896-0.379,1.726-1.125,2.463
		c-0.747,0.755-1.646,1.124-2.7,1.124c-0.616,0-1.146-0.104-1.583-0.334c-0.438-0.211-0.812-0.51-1.105-0.895
		c-0.302-0.371-0.625-0.951-0.97-1.742C85.109,391.252,84.82,390.559,84.575,389.959z M69.062,379.221h11.557l-5.831-15.962
		L69.062,379.221z"/>
</g>
</svg>
