<?xml version="1.0" encoding="utf-8"?>
<!-- Generator: Adobe Illustrator 16.0.0, SVG Export Plug-In . SVG Version: 6.00 Build 0)  -->
<!DOCTYPE svg PUBLIC "-//W3C//DTD SVG 1.1//EN" "http://www.w3.org/Graphics/SVG/1.1/DTD/svg11.dtd">
<svg version="1.1" id="Layer_1" xmlns="http://www.w3.org/2000/svg" xmlns:xlink="http://www.w3.org/1999/xlink" x="0px" y="0px"
	 width="50px" height="50px" viewBox="0 0 50 50" enable-background="new 0 0 50 50" xml:space="preserve">
<g>
	<g>
		<path fill="#5E6570" d="M37.055,28.214h-1.609c-0.231,0-0.426,0.075-0.574,0.226c-0.15,0.15-0.229,0.345-0.229,0.578v8.035
			c0,1.105-0.394,2.053-1.18,2.838c-0.787,0.787-1.732,1.18-2.838,1.18H9.732c-1.105,0-2.051-0.393-2.838-1.18
			c-0.787-0.785-1.18-1.73-1.18-2.838V16.16c0-1.105,0.394-2.05,1.18-2.837c0.787-0.787,1.733-1.18,2.838-1.18H27.41
			c0.234,0,0.428-0.075,0.578-0.226s0.226-0.343,0.226-0.578V9.732c0-0.234-0.075-0.427-0.226-0.578
			c-0.151-0.151-0.344-0.226-0.578-0.226H9.732c-1.992,0-3.695,0.708-5.11,2.122C3.208,12.465,2.5,14.168,2.5,16.16v20.893
			c0,1.992,0.708,3.696,2.122,5.11c1.415,1.415,3.118,2.122,5.111,2.122h20.893c1.992,0,3.694-0.707,5.11-2.122
			c1.414-1.414,2.121-3.118,2.121-5.11v-8.035c0-0.232-0.075-0.428-0.228-0.578C37.48,28.29,37.287,28.214,37.055,28.214z"/>
		<path fill="#5E6570" d="M47.021,6.191c-0.316-0.318-0.693-0.477-1.129-0.477H33.035c-0.436,0-0.813,0.159-1.131,0.477
			c-0.316,0.318-0.479,0.695-0.479,1.13c0,0.436,0.16,0.813,0.479,1.13l4.42,4.419L19.952,29.244
			c-0.167,0.167-0.251,0.359-0.251,0.578c0,0.217,0.083,0.408,0.251,0.576l2.863,2.861c0.167,0.167,0.36,0.25,0.578,0.25
			c0.218,0,0.411-0.083,0.578-0.25l16.373-16.373l4.42,4.419c0.318,0.318,0.695,0.478,1.131,0.478c0.437,0,0.813-0.16,1.131-0.478
			c0.316-0.318,0.478-0.694,0.478-1.13V7.321C47.5,6.886,47.341,6.509,47.021,6.191z"/>
	</g>
</g>
<g>
	<g>
		<path fill="#5E6570" d="M37.055,28.214h-1.609c-0.231,0-0.426,0.075-0.574,0.226c-0.15,0.15-0.229,0.345-0.229,0.578v8.035
			c0,1.105-0.394,2.053-1.18,2.838c-0.787,0.787-1.732,1.18-2.838,1.18H9.732c-1.105,0-2.051-0.393-2.838-1.18
			c-0.787-0.785-1.18-1.73-1.18-2.838V16.16c0-1.105,0.394-2.05,1.18-2.837c0.787-0.787,1.733-1.18,2.838-1.18H27.41
			c0.234,0,0.428-0.075,0.578-0.226s0.226-0.343,0.226-0.578V9.732c0-0.234-0.075-0.427-0.226-0.578
			c-0.151-0.151-0.344-0.226-0.578-0.226H9.732c-1.992,0-3.695,0.708-5.11,2.122C3.208,12.465,2.5,14.168,2.5,16.16v20.893
			c0,1.992,0.708,3.696,2.122,5.11c1.415,1.415,3.118,2.122,5.111,2.122h20.893c1.992,0,3.694-0.707,5.11-2.122
			c1.414-1.414,2.121-3.118,2.121-5.11v-8.035c0-0.232-0.075-0.428-0.228-0.578C37.48,28.29,37.287,28.214,37.055,28.214z"/>
		<path fill="#5E6570" d="M47.021,6.191c-0.316-0.318-0.693-0.477-1.129-0.477H33.035c-0.436,0-0.813,0.159-1.131,0.477
			c-0.316,0.318-0.479,0.695-0.479,1.13c0,0.436,0.16,0.813,0.479,1.13l4.42,4.419L19.952,29.244
			c-0.167,0.167-0.251,0.359-0.251,0.578c0,0.217,0.083,0.408,0.251,0.576l2.863,2.861c0.167,0.167,0.36,0.25,0.578,0.25
			c0.218,0,0.411-0.083,0.578-0.25l16.373-16.373l4.42,4.419c0.318,0.318,0.695,0.478,1.131,0.478c0.437,0,0.813-0.16,1.131-0.478
			c0.316-0.318,0.478-0.694,0.478-1.13V7.321C47.5,6.886,47.341,6.509,47.021,6.191z"/>
	</g>
</g>
</svg>
