<?xml version="1.0" encoding="utf-8"?>
<!-- Generator: Adobe Illustrator 16.0.0, SVG Export Plug-In . SVG Version: 6.00 Build 0)  -->
<!DOCTYPE svg PUBLIC "-//W3C//DTD SVG 1.1//EN" "http://www.w3.org/Graphics/SVG/1.1/DTD/svg11.dtd">
<svg version="1.1" id="Layer_1" xmlns="http://www.w3.org/2000/svg" xmlns:xlink="http://www.w3.org/1999/xlink" x="0px" y="0px"
	 width="100px" height="100px" viewBox="0 0 100 100" enable-background="new 0 0 100 100" xml:space="preserve">
<g>
	<rect fill="none" width="100" height="100"/>
	<g>
		<g opacity="0.4">
			<path fill="#E7E7E7" d="M83.749,15.198v37.117c0,0.763-0.594,1.385-1.365,1.385H17.632c-0.776,0-1.38-0.622-1.38-1.385V15.198
				H83.749z"/>
			<path fill="#BDBEC0" d="M17.632,10.104h64.751c0.77,0,1.366,0.592,1.366,1.374v3.72H16.252v-3.72
				C16.252,10.716,16.856,10.104,17.632,10.104z"/>
			<g>
				<path fill="none" stroke="#6E6F72" stroke-width="0.3811" stroke-miterlimit="10" d="M83.749,15.198v37.117
					c0,0.763-0.594,1.385-1.365,1.385H17.632c-0.776,0-1.38-0.622-1.38-1.385V15.198v-3.72c0-0.763,0.604-1.374,1.38-1.374h64.751
					c0.77,0,1.366,0.603,1.366,1.374L83.749,15.198L83.749,15.198z"/>
				
					<line fill="none" stroke="#6E6F72" stroke-width="0.1524" stroke-miterlimit="10" x1="16.252" y1="15.198" x2="83.749" y2="15.198"/>
			</g>
			<path fill="#6E6F72" d="M80.692,11.856c0.499,0,0.91,0.405,0.91,0.903c0,0.503-0.411,0.91-0.91,0.91
				c-0.503,0-0.909-0.405-0.909-0.91C79.783,12.261,80.189,11.856,80.692,11.856z"/>
			<path fill="#6E6F72" d="M77.628,11.856c0.498,0,0.904,0.405,0.904,0.903c0,0.503-0.406,0.91-0.904,0.91
				c-0.505,0-0.909-0.405-0.909-0.91C76.719,12.261,77.126,11.856,77.628,11.856z"/>
			<path fill="#6E6F72" d="M74.577,11.856c0.501,0,0.908,0.405,0.908,0.903c0,0.503-0.407,0.91-0.908,0.91
				c-0.5,0-0.903-0.405-0.903-0.91C73.674,12.261,74.079,11.856,74.577,11.856z"/>
			<g>
				<rect x="18.786" y="19.908" fill="#A8AAAD" width="23.414" height="0.573"/>
				<rect x="18.786" y="26.452" fill="#A8AAAD" width="53.842" height="0.574"/>
				<rect x="18.786" y="34.116" fill="#A8AAAD" width="53.842" height="0.574"/>
				<rect x="18.786" y="41.771" fill="#A8AAAD" width="53.842" height="0.574"/>
			</g>
		</g>
		<g opacity="0.6">
			<path fill="#E7E7E7" d="M87.363,23.053v41.089c0,0.851-0.659,1.528-1.507,1.528H14.162c-0.858,0-1.525-0.696-1.525-1.528V23.053
				H87.363z"/>
			<path fill="#BDBEC0" d="M14.162,17.411h71.694c0.848,0,1.507,0.655,1.507,1.516v4.114H12.637v-4.114
				C12.637,18.09,13.304,17.411,14.162,17.411z"/>
			<g>
				<path fill="none" stroke="#6E6F72" stroke-width="0.3811" stroke-miterlimit="10" d="M87.363,23.053v41.089
					c0,0.851-0.659,1.528-1.507,1.528H14.162c-0.858,0-1.525-0.696-1.525-1.528V23.053v-4.116c0-0.853,0.667-1.521,1.525-1.521
					h71.694c0.848,0,1.507,0.668,1.507,1.521V23.053z"/>
				
					<line fill="none" stroke="#6E6F72" stroke-width="0.1524" stroke-miterlimit="10" x1="12.637" y1="23.053" x2="87.363" y2="23.053"/>
			</g>
			<path fill="#6E6F72" d="M83.983,19.351c0.558,0,1.005,0.454,1.005,1.009c0,0.551-0.45,0.998-1.005,0.998
				s-1.002-0.449-1.002-0.998C82.979,19.804,83.429,19.351,83.983,19.351z"/>
			<path fill="#6E6F72" d="M80.595,19.351c0.554,0,1.008,0.454,1.008,1.009c0,0.551-0.454,0.998-1.008,0.998
				c-0.559,0-0.998-0.449-0.998-0.998C79.597,19.804,80.036,19.351,80.595,19.351z"/>
			<path fill="#6E6F72" d="M77.214,19.351c0.557,0,1.008,0.454,1.008,1.009c0,0.551-0.453,0.998-1.008,0.998
				c-0.553,0-1-0.449-1-0.998C76.214,19.804,76.661,19.351,77.214,19.351z"/>
			<g>
				<rect x="15.439" y="28.263" fill="#A8AAAD" width="25.928" height="0.637"/>
				<rect x="15.439" y="35.508" fill="#A8AAAD" width="59.607" height="0.637"/>
				<rect x="15.439" y="43.994" fill="#A8AAAD" width="59.607" height="0.639"/>
				<rect x="15.439" y="52.476" fill="#A8AAAD" width="59.607" height="0.631"/>
			</g>
		</g>
		<g opacity="0.8">
			<path fill="#E7E7E7" d="M90.979,30.906v45.073c0,0.924-0.725,1.685-1.657,1.685H10.698c-0.942,0-1.678-0.751-1.678-1.685V30.906
				H90.979z"/>
			<path fill="#BDBEC0" d="M10.698,24.719h78.629c0.927,0,1.659,0.715,1.659,1.666v4.524H9.025v-4.524
				C9.021,25.463,9.756,24.719,10.698,24.719z"/>
			<g>
				<path fill="none" stroke="#6E6F72" stroke-width="0.3811" stroke-miterlimit="10" d="M90.979,30.906v45.073
					c0,0.924-0.725,1.685-1.657,1.685H10.698c-0.942,0-1.678-0.751-1.678-1.685V30.906v-4.521c0-0.923,0.736-1.676,1.678-1.676
					h78.629c0.927,0,1.659,0.735,1.659,1.676L90.979,30.906L90.979,30.906z"/>
				
					<line fill="none" stroke="#6E6F72" stroke-width="0.1524" stroke-miterlimit="10" x1="9.021" y1="30.906" x2="90.979" y2="30.906"/>
			</g>
			<path fill="#6E6F72" d="M87.271,26.847c0.607,0,1.1,0.489,1.1,1.102c0,0.611-0.493,1.101-1.1,1.101
				c-0.612,0-1.106-0.49-1.106-1.101C86.164,27.336,86.658,26.847,87.271,26.847z"/>
			<path fill="#6E6F72" d="M83.554,26.847c0.61,0,1.107,0.489,1.107,1.102c0,0.611-0.499,1.101-1.107,1.101
				c-0.606,0-1.104-0.49-1.104-1.101C82.449,27.336,82.947,26.847,83.554,26.847z"/>
			<path fill="#6E6F72" d="M79.84,26.847c0.61,0,1.103,0.489,1.103,1.102c0,0.611-0.494,1.101-1.103,1.101
				c-0.61,0-1.104-0.49-1.104-1.101C78.735,27.336,79.229,26.847,79.84,26.847z"/>
			<g>
				<rect x="12.091" y="36.619" fill="#A8AAAD" width="28.433" height="0.708"/>
				<rect x="12.091" y="44.567" fill="#A8AAAD" width="65.387" height="0.697"/>
				<rect x="12.091" y="53.868" fill="#A8AAAD" width="65.387" height="0.71"/>
				<rect x="12.091" y="63.172" fill="#A8AAAD" width="65.387" height="0.698"/>
			</g>
		</g>
		<g>
			<path fill="#E7E7E7" d="M95,38.564v49.487c0,1.015-0.801,1.846-1.825,1.846H6.837C5.806,89.897,5,89.066,5,88.052V38.564H95z"/>
			<path fill="#BDBEC0" d="M6.837,31.772h86.337c1.024,0,1.825,0.786,1.825,1.826v4.959H5V33.6C5,32.581,5.81,31.772,6.837,31.772z"
				/>
			<g>
				<path fill="none" stroke="#6E6F72" stroke-width="0.3811" stroke-miterlimit="10" d="M95,38.564v49.487
					c0,1.015-0.801,1.846-1.825,1.846H6.837C5.806,89.897,5,89.066,5,88.052V38.564v-4.958c0-1.026,0.806-1.836,1.837-1.836h86.337
					c1.024,0,1.825,0.795,1.825,1.836V38.564z"/>
				<line fill="none" stroke="#6E6F72" stroke-width="0.1524" stroke-miterlimit="10" x1="5" y1="38.564" x2="95" y2="38.564"/>
			</g>
			<circle fill="#6E6F72" cx="90.923" cy="35.308" r="1.21"/>
			<circle fill="#6E6F72" cx="86.847" cy="35.308" r="1.21"/>
			<circle fill="#6E6F72" cx="82.769" cy="35.308" r="1.21"/>
			<g>
				<rect x="8.371" y="44.841" fill="#A8AAAD" width="31.225" height="0.758"/>
				<rect x="8.371" y="53.568" fill="#A8AAAD" width="71.798" height="0.751"/>
				<rect x="8.371" y="63.774" fill="#A8AAAD" width="71.798" height="0.763"/>
				<rect x="8.371" y="73.991" fill="#A8AAAD" width="71.798" height="0.761"/>
			</g>
		</g>
	</g>
</g>
</svg>
