<?xml version="1.0" encoding="utf-8"?>
<!-- Generator: Adobe Illustrator 16.0.0, SVG Export Plug-In . SVG Version: 6.00 Build 0)  -->
<!DOCTYPE svg PUBLIC "-//W3C//DTD SVG 1.1//EN" "http://www.w3.org/Graphics/SVG/1.1/DTD/svg11.dtd">
<svg version="1.1" id="Layer_1" xmlns="http://www.w3.org/2000/svg" xmlns:xlink="http://www.w3.org/1999/xlink" x="0px" y="0px"
	 width="400px" height="1000px" viewBox="0 0 400 1000" enable-background="new 0 0 400 1000" xml:space="preserve">
<g opacity="0.05">
	<g>
		<path fill="#FFFFFF" d="M355.016,25H44.984C33.95,25,25,33.95,25,44.984v310.015C25,366.032,33.968,375,44.984,375h310.032
			c10.998,0,19.984-8.968,19.984-20.001V44.984C375,33.95,366.014,25,355.016,25z M353.516,353.516H46.484v-71.002h307.049
			L353.516,353.516L353.516,353.516z M353.516,270.879H46.484V132.37h307.049L353.516,270.879L353.516,270.879z M353.516,114.927
			H46.484v-68.46h307.049L353.516,114.927L353.516,114.927z"/>
		<rect x="67.951" y="161.109" fill="#FFFFFF" width="177.507" height="18.996"/>
		<rect x="286.273" y="160.421" fill="#FFFFFF" width="39.385" height="18.995"/>
		<rect x="286.273" y="208.35" fill="#FFFFFF" width="39.385" height="19.031"/>
		<rect x="67.951" y="209.039" fill="#FFFFFF" width="177.507" height="19.012"/>
		<rect x="263.005" y="298.612" fill="#FFFFFF" width="74.251" height="25.051"/>
	</g>
</g>
<g opacity="0.05">
	<path fill="#FFFFFF" d="M339.9,400H60.101C40.73,400,25,415.748,25,435.118v368.187c0,19.371,15.73,35.1,35.101,35.1h279.78
		c19.354,0,35.119-15.729,35.119-35.1V435.118C375.018,415.748,359.252,400,339.9,400z M351.164,803.305
		c0,6.242-5.077,11.281-11.283,11.281H60.101c-6.207,0-11.264-5.039-11.264-11.281V435.118c0-6.224,5.058-11.281,11.264-11.281
		h279.78c6.206,0,11.283,5.058,11.283,11.281V803.305z M87.542,456.067h224.897v32.768H87.542V456.067z M227.55,564.113H87.542
		v-20.393H227.55V564.113z M227.55,609.76H87.542v-20.412H227.55V609.76z M227.55,653.898H87.542v-20.393H227.55V653.898z
		 M227.55,698.344H87.542v-20.393H227.55V698.344z M87.542,718.037h224.897v20.395H87.542V718.037z M243.924,698.344h68.516V543.881
		h-68.516C243.943,543.881,243.943,698.344,243.924,698.344z M255.871,555.791h44.658v130.645h-44.658V555.791z"/>
</g>
</svg>
