<?xml version="1.0" encoding="utf-8"?>
<!-- Generator: Adobe Illustrator 16.0.0, SVG Export Plug-In . SVG Version: 6.00 Build 0)  -->
<!DOCTYPE svg PUBLIC "-//W3C//DTD SVG 1.1//EN" "http://www.w3.org/Graphics/SVG/1.1/DTD/svg11.dtd">
<svg version="1.1" id="Layer_1" xmlns="http://www.w3.org/2000/svg" xmlns:xlink="http://www.w3.org/1999/xlink" x="0px" y="0px"
	 width="50px" height="50px" viewBox="0 0 50 50" enable-background="new 0 0 50 50" xml:space="preserve">
<circle fill="#DDDDDD" cx="25" cy="25" r="25"/>
<g>
	<path id="Bebo_3_" fill="#3D3535" d="M26.497,40h-2.996c-6.619,0-12.005-5.389-12.005-12.004V13.001
		C11.498,11.344,12.84,10,14.499,10c1.655,0,3.001,1.344,3.001,3.001v14.996c0,3.308,2.694,6.001,6.002,6.001h2.995
		c3.312-0.001,6.003-2.354,6.003-5.248c0-2.959-1.611-5.248-2.996-5.248h-6c-1.665,0-3.001-1.346-3.001-3c0-1.658,1.337-3,3.001-3h6
		c4.96,0,8.999,5.042,8.999,11.25C38.503,34.958,33.115,40,26.497,40z"/>
</g>
</svg>
