<?xml version="1.0" encoding="utf-8"?>
<!-- Generator: Adobe Illustrator 16.0.0, SVG Export Plug-In . SVG Version: 6.00 Build 0)  -->
<!DOCTYPE svg PUBLIC "-//W3C//DTD SVG 1.1//EN" "http://www.w3.org/Graphics/SVG/1.1/DTD/svg11.dtd">
<svg version="1.1" id="Layer_1" xmlns="http://www.w3.org/2000/svg" xmlns:xlink="http://www.w3.org/1999/xlink" x="0px" y="0px"
	 width="50px" height="200px" viewBox="0 0 50 200" enable-background="new 0 0 50 200" xml:space="preserve">
<g>
	<path fill="#5F6570" d="M36.561,15.475L35.892,14.9c-1.112-0.955-2.781-0.848-3.763,0.239L20.931,27.556l-3.38-2.911
		c-1.11-0.957-2.78-0.852-3.762,0.235l-0.592,0.655c-0.48,0.531-0.729,1.231-0.693,1.946c0.037,0.715,0.355,1.386,0.887,1.866
		l6.196,5.674c0.536,0.503,1.255,0.767,1.99,0.728s1.422-0.377,1.902-0.935l13.368-15.532c0.467-0.542,0.7-1.249,0.646-1.962
		C37.438,16.605,37.103,15.941,36.561,15.475z"/>
</g>
<g>
	<path fill="#5F6570" d="M31.545,73.245h-0.364V68.68c0-3.408-2.772-6.18-6.181-6.18s-6.18,2.772-6.18,6.18v4.564h-0.364
		c-1.273,0-2.304,1.031-2.304,2.303v9.648c0,1.272,1.031,2.304,2.304,2.304h13.089c1.272,0,2.305-1.031,2.305-2.304v-9.648
		C33.85,74.276,32.817,73.245,31.545,73.245z M26.264,80.56v1.674c0,0.698-0.565,1.264-1.264,1.264s-1.264-0.565-1.264-1.264v-1.674
		c-0.551-0.395-0.913-1.038-0.913-1.767c0-1.202,0.974-2.177,2.178-2.177c1.202,0,2.176,0.975,2.176,2.177
		C27.177,79.522,26.815,80.164,26.264,80.56z M27.81,73.245h-5.619V68.68c0-1.549,1.26-2.809,2.809-2.809s2.81,1.26,2.81,2.809
		V73.245z"/>
</g>
<g>
	<path fill="#5F6570" d="M31.545,123.245h-0.364v-4.564c0-3.408-2.773-6.181-6.181-6.181s-6.18,2.772-6.18,6.181v0.349
		c0,0.931,0.755,1.687,1.686,1.687c0.931,0,1.686-0.756,1.686-1.687v-0.349c0-1.549,1.26-2.81,2.809-2.81s2.809,1.261,2.809,2.81
		v4.564h-9.353c-1.273,0-2.304,1.031-2.304,2.303v9.648c0,1.272,1.031,2.304,2.304,2.304h13.089c1.272,0,2.305-1.031,2.305-2.304
		v-9.648C33.85,124.276,32.817,123.245,31.545,123.245z M26.264,130.56v1.674c0,0.698-0.565,1.264-1.264,1.264
		s-1.264-0.565-1.264-1.264v-1.674c-0.551-0.396-0.913-1.038-0.913-1.768c0-1.202,0.974-2.177,2.178-2.177
		c1.202,0,2.176,0.975,2.176,2.177C27.177,129.522,26.815,130.164,26.264,130.56z"/>
</g>
</svg>
