<?xml version="1.0" encoding="utf-8"?>
<!-- Generator: Adobe Illustrator 16.0.0, SVG Export Plug-In . SVG Version: 6.00 Build 0)  -->
<!DOCTYPE svg PUBLIC "-//W3C//DTD SVG 1.1//EN" "http://www.w3.org/Graphics/SVG/1.1/DTD/svg11.dtd">
<svg version="1.1" id="Layer_1" xmlns="http://www.w3.org/2000/svg" xmlns:xlink="http://www.w3.org/1999/xlink" x="0px" y="0px"
	 width="100px" height="500px" viewBox="0 0 100 500" enable-background="new 0 0 100 500" xml:space="preserve">
<path fill="#FFFFFF" d="M74.823,61.663l-9.438-28.994c-0.482-1.484-1.855-2.48-3.415-2.48c-0.378,0-0.752,0.059-1.112,0.177
	c-1.607,0.523-2.594,2.078-2.469,3.693l-28.21,20.296c-0.482-0.236-1.021-0.367-1.584-0.367c-0.377,0-0.752,0.059-1.112,0.176
	c-0.912,0.298-1.654,0.932-2.089,1.787c-0.435,0.855-0.511,1.828-0.214,2.74l1.826,5.608c0.483,1.483,1.855,2.48,3.415,2.48
	c0.377,0,0.751-0.061,1.112-0.178c0.923-0.3,1.642-0.943,2.063-1.741l4.857-0.028l0.05,1.939c0.015,1.681,1.388,3.042,3.072,3.042
	c0.003,0,0.006,0,0.009,0l4.945-0.017c1.693-0.006,3.066-1.388,3.062-3.08c0-0.011,0-0.021-0.001-0.033l-0.049-1.915l18.81-0.108
	c0.643,1.047,1.788,1.709,3.059,1.709c0.378,0,0.751-0.061,1.112-0.178C74.403,65.576,75.437,63.545,74.823,61.663z M30.654,63.908
	c-0.077,0.025-0.157,0.039-0.236,0.039c-0.331,0-0.621-0.212-0.723-0.525l-1.826-5.609c-0.063-0.193-0.047-0.398,0.045-0.58
	c0.092-0.181,0.25-0.316,0.443-0.379c0.078-0.024,0.157-0.037,0.236-0.037c0.33,0,0.621,0.211,0.724,0.525l1.825,5.608
	C31.272,63.349,31.054,63.779,30.654,63.908z M46.758,66.732c-0.004,0.129-0.11,0.232-0.24,0.232l-4.944,0.018c0,0-0.001,0-0.001,0
	c-0.133,0-0.241-0.107-0.241-0.24c0-0.01,0-0.021,0-0.031l-0.049-1.896l5.426-0.032L46.758,66.732z M71.645,63.498
	c-0.078,0.025-0.158,0.039-0.236,0.039c-0.33,0-0.622-0.213-0.725-0.527l-9.438-28.994c-0.13-0.4,0.088-0.83,0.488-0.96
	c0.077-0.025,0.156-0.038,0.236-0.038c0.33,0,0.62,0.211,0.724,0.526l9.438,28.995C72.261,62.937,72.043,63.369,71.645,63.498z"/>
<g>
	<g id="Layer_1_14_">
		<g>
			<g>
				<g>
					<path fill="#FFFFFF" d="M50.005,125c-11.374,0-20.594,3.361-20.594,7.509v6.162c0,4.149,9.221,7.509,20.594,7.509
						c11.373,0,20.594-3.36,20.594-7.509v-6.162C70.599,128.361,61.378,125,50.005,125z"/>
				</g>
			</g>
			<g>
				<g>
					<path fill="#FFFFFF" d="M50.005,149.771c-10.859,0-19.812-3.066-20.594-6.954c-0.037,0.186,0,10.176,0,10.176
						c0,4.149,9.221,7.509,20.594,7.509c11.373,0,20.594-3.362,20.594-7.509c0,0,0.023-9.991-0.014-10.176
						C69.801,146.705,60.863,149.771,50.005,149.771z"/>
				</g>
			</g>
			<path fill="#FFFFFF" d="M70.579,157.314c-0.782,3.886-9.715,6.954-20.574,6.954c-10.859,0-19.814-3.068-20.597-6.954
				l0.002,10.177c0,4.148,9.221,7.509,20.594,7.509c11.373,0,20.594-3.361,20.594-7.509L70.579,157.314z"/>
		</g>
	</g>
</g>
<g>
	<g id="_x35__21_">
		<path fill="#FFFFFF" d="M67.578,233.504c-4.176-0.247-7.197,3.547-7.413,7.424c0.154,2.722,1.413,4.702,3.134,5.856
			c-1.67,2.517-3.34,5.032-5.011,7.506c-0.938-0.495-1.979-0.742-3.021-0.825c-1.484-0.082-2.794,0.413-3.846,1.237
			c-1.918-2.103-3.825-4.248-5.743-6.351c0.33-0.743,0.537-1.485,0.578-2.227c0.154-2.888-2.454-4.95-5.104-5.114
			c-2.877-0.124-4.949,2.475-5.094,5.114c0.041,0.825,0.237,1.526,0.557,2.186c-1.577,1.814-3.145,3.629-4.722,5.485
			c-0.69-0.495-1.536-0.825-2.495-0.866c-2.474-0.123-4.269,2.104-4.392,4.372c-0.134,2.475,2.113,4.248,4.392,4.413
			c2.464,0.082,4.258-2.145,4.382-4.413c-0.052-0.825-0.289-1.567-0.67-2.186c1.196-1.402,2.402-2.805,3.598-4.207
			c0.33-0.33,0.649-0.742,0.979-1.113c0.887,0.866,2.083,1.36,3.465,1.443c1.392,0.083,2.587-0.496,3.475-1.402
			c1.845,2.063,3.701,4.124,5.547,6.187c-0.835,1.154-1.34,2.557-1.423,3.959c0.196,3.712,2.835,6.311,6.516,6.517
			c3.67,0.206,6.32-3.135,6.506-6.517c0.104-1.896-0.722-3.465-2.011-4.619c1.712-2.599,3.434-5.196,5.145-7.753
			c4.218,1.526,9.754-0.701,10.084-6.681C75.219,236.721,71.424,233.71,67.578,233.504z"/>
	</g>
</g>
<g>
	<path fill="#FFFFFF" d="M41.546,356.813c-0.034-0.233-0.158-0.445-0.347-0.585l-9.582-7.165l9.582-7.165
		c0.189-0.141,0.313-0.352,0.347-0.585c0.034-0.233-0.027-0.471-0.168-0.66l-1.522-2.036c-0.294-0.393-0.852-0.474-1.244-0.179
		l-13.255,9.912c-0.225,0.168-0.357,0.432-0.357,0.713s0.132,0.545,0.357,0.711l13.255,9.913c0.158,0.119,0.346,0.178,0.532,0.178
		c0.27,0,0.538-0.123,0.712-0.357l1.522-2.034C41.519,357.281,41.581,357.046,41.546,356.813z"/>
	<path fill="#FFFFFF" d="M74.642,348.35l-13.254-9.912c-0.393-0.295-0.95-0.214-1.244,0.179l-1.522,2.036
		c-0.141,0.189-0.201,0.427-0.168,0.66c0.034,0.232,0.16,0.444,0.348,0.585l9.58,7.165l-9.58,7.165
		c-0.188,0.14-0.313,0.352-0.348,0.585c-0.033,0.233,0.027,0.471,0.168,0.66l1.522,2.034c0.175,0.234,0.441,0.357,0.713,0.357
		c0.186,0,0.372-0.059,0.533-0.178l13.253-9.913c0.225-0.166,0.357-0.43,0.357-0.711S74.867,348.518,74.642,348.35z"/>
	<path fill="#FFFFFF" d="M58.505,333.147l-2.342-0.99c-0.216-0.092-0.462-0.094-0.68-0.005c-0.219,0.089-0.393,0.26-0.485,0.479
		l-13.977,33.058c-0.191,0.452,0.021,0.973,0.473,1.165l2.34,0.99c0.111,0.046,0.229,0.069,0.346,0.069
		c0.115,0,0.228-0.021,0.334-0.065c0.22-0.088,0.395-0.259,0.485-0.478l13.979-33.058C59.169,333.86,58.958,333.339,58.505,333.147z
		"/>
</g>
<g id="_x0A_people-structure01">
	<g>
		<path fill="#FFFFFF" d="M74.97,469.217c-0.023-0.76-0.248-1.525-0.736-2.098c-0.512-0.603-1.178-1.079-1.797-1.584
			c-0.209-0.171-0.496-0.145-0.696,0.039c-0.218,0.201-0.407,0.441-0.577,0.687c-0.37,0.536-0.707,1.098-1.082,1.63
			c-0.189,0.268-0.254,0.662-0.667,0.729c-0.134-0.268-0.247-0.549-0.407-0.798c-0.366-0.567-0.454-1.106,0.061-1.636
			c0.067-0.07,0.109-0.168,0.154-0.256c0.09-0.172-0.038-0.45-0.223-0.465c-0.349-0.027-0.698-0.051-1.05-0.049
			c-0.387,0.004-0.544,0.225-0.4,0.578c0.132,0.324,0.36,0.635,0.238,0.996c-0.128,0.375-0.313,0.731-0.502,1.079
			c-0.021,0.038-0.318,0.011-0.354-0.057c-0.533-1.019-1.045-2.048-1.561-3.075c-0.102-0.205-0.289-0.313-0.486-0.262
			c-0.582,0.146-1.172,0.293-1.723,0.521c-0.307,0.128-0.594,0.385-0.799,0.653c-0.268,0.354-0.461,0.771-0.659,1.173
			c-0.453,0.918-0.49,1.928-0.659,2.914c-0.209,1.208-0.121,2.402-0.098,3.603c0.013,0.614,0.318,0.873,0.968,0.914
			c0.751,0.048,1.505,0.058,2.254,0.117c0.647,0.053,1.288,0.186,1.937,0.221c1.252,0.069,2.508,0.094,3.761,0.135
			c0-0.012,0-0.025,0-0.037c1.205,0,2.41,0.002,3.615-0.002c0.25,0,0.501-0.027,0.752-0.033c0.361-0.006,0.533-0.238,0.634-0.538
			c0.063-0.187,0.125-0.387,0.126-0.581C74.997,472.228,75.015,470.721,74.97,469.217z M43.969,446.123
			c1.301-0.045,2.6-0.135,3.9-0.161c1.404-0.029,2.809-0.007,4.213-0.007v-0.048c1.505,0,3.01,0.004,4.515-0.003
			c0.42-0.001,0.594-0.133,0.597-0.495c0.011-1.505,0.033-3.01-0.01-4.513c-0.021-0.757-0.244-1.522-0.729-2.1
			c-0.51-0.605-1.166-1.092-1.775-1.609c-0.227-0.191-0.617-0.131-0.821,0.1c-0.198,0.224-0.38,0.466-0.549,0.713
			c-0.394,0.581-0.774,1.172-1.167,1.753c-0.082,0.122-0.18,0.242-0.297,0.328c-0.047,0.034-0.221-0.002-0.239-0.046
			c-0.19-0.46-0.41-0.917-0.521-1.397c-0.101-0.437,0.427-0.644,0.521-1.033c0.01-0.048,0.045-0.089,0.066-0.134
			c0.078-0.166-0.027-0.481-0.191-0.496c-0.495-0.041-0.992-0.084-1.486-0.068c-0.204,0.006-0.337,0.233-0.313,0.444
			c0.028,0.241,0.094,0.488,0.196,0.708c0.136,0.295,0.141,0.584,0.053,0.878c-0.113,0.381-0.247,0.756-0.371,1.133
			c-0.503-0.175-0.54-0.683-0.756-1.062c-0.299-0.522-0.569-1.062-0.9-1.561c-0.241-0.361-0.112-1.021-0.655-1.087
			c-0.417-0.051-0.866,0.169-1.301,0.269c-0.049,0.01-0.096,0.026-0.145,0.039c-0.669,0.174-1.179,0.559-1.486,1.176
			c-0.245,0.492-0.494,0.989-0.666,1.507c-0.397,1.199-0.468,2.457-0.541,3.703c-0.045,0.797,0.017,1.604,0.083,2.402
			C43.24,446.012,43.415,446.143,43.969,446.123z M39.097,469.352c-0.088-1.492-0.827-2.654-1.987-3.552
			c-0.75-0.579-1.188-0.495-1.739,0.304c-0.511,0.741-0.995,1.503-1.498,2.25c-0.137,0.203-0.373,0.189-0.489-0.009
			c-0.445-0.759-0.806-1.52-0.104-2.333c0.06-0.069,0.068-0.185,0.098-0.279c0.051-0.163-0.11-0.459-0.275-0.469
			c-0.349-0.021-0.7-0.045-1.048-0.026c-0.54,0.028-0.672,0.279-0.449,0.766c0.103,0.224,0.285,0.469,0.257,0.681
			c-0.073,0.539-0.241,1.066-0.388,1.594c-0.008,0.031-0.199,0.063-0.236,0.027c-0.173-0.175-0.361-0.354-0.471-0.566
			c-0.46-0.889-0.893-1.792-1.339-2.688c-0.155-0.31-0.396-0.408-0.742-0.313c-0.337,0.094-0.672,0.195-1.009,0.29
			c-0.606,0.171-1.06,0.522-1.4,1.062c-0.38,0.602-0.662,1.242-0.813,1.928c-0.336,1.517-0.534,3.053-0.443,4.614
			c0.045,0.773,0.119,0.877,0.851,0.951c1.493,0.148,2.981,0.324,4.488,0.348c1.65,0.025,3.297,0.184,4.945,0.291
			c0.199,0.012,0.403,0.04,0.59,0.102c0.929,0.304,1.885,0.207,2.833,0.205c0.22-0.001,0.38-0.133,0.382-0.369
			c0.007-0.752,0.003-1.504,0.003-2.256h-0.009C39.106,471.054,39.146,470.198,39.097,469.352z M59.695,461.951
			c-0.755-0.654-1.488-1.319-2.427-1.744c-1.37-0.619-2.735-1.236-4.17-1.696c-0.641-0.206-0.712-0.328-0.716-0.966
			c-0.006-1.053-0.002-2.105-0.002-3.158h0.059c0-1.104-0.008-2.207,0.003-3.311c0.005-0.518-0.118-0.994-0.379-1.435
			c-0.479-0.811-2.103-1.027-2.795-0.363c-0.136,0.13-0.217,0.333-0.283,0.517c-0.246,0.682-0.217,1.371-0.063,2.072
			c0.458,2.076,0.4,4.169,0.13,6.261c-0.021,0.155-0.192,0.362-0.343,0.421c-1.768,0.697-3.542,1.381-5.322,2.048
			c-0.519,0.195-1.024,0.378-1.425,0.796c-0.2,0.208-0.499,0.321-0.75,0.481c-0.534,0.34-0.791,1.196-0.441,1.71
			c0.43,0.63,0.94,1.199,1.844,1c0.292-0.064,0.596-0.088,0.878-0.183c0.665-0.222,1.347-0.416,1.969-0.729
			c0.769-0.388,1.576-0.634,2.394-0.863c0.774-0.218,1.574-0.412,2.206-0.913c0.602-0.476,1.198-0.468,1.829-0.214
			c0.647,0.26,1.323,0.465,1.863,0.954c0.217,0.197,0.494,0.343,0.766,0.462c0.79,0.344,1.482,0.833,2.16,1.354
			c0.236,0.181,0.488,0.346,0.748,0.494c0.125,0.07,0.291,0.135,0.426,0.115c1.245-0.184,2.305-1.12,2.123-2.6
			C59.954,462.28,59.834,462.072,59.695,461.951z M28.695,460.313c0.311,0.147,0.425,0.385,0.515,0.685
			c0.117,0.384,0.261,0.76,0.423,1.128c0.329,0.751,0.818,1.394,1.485,1.866c1.142,0.813,2.689,0.596,3.303-0.76
			c0.272-0.601,0.469-1.209,0.553-1.867c0.063-0.495,0.23-0.932,0.665-1.293c0.71-0.593,0.759-1.738,0.1-2.389
			c-0.351-0.346-0.539-0.663-0.558-1.156c-0.018-0.442-0.122-0.895-0.261-1.318c-0.396-1.203-1.212-1.767-2.634-1.775
			c-0.754-0.101-1.412,0.34-1.945,0.982c-0.583,0.705-1.011,1.505-1.168,2.414c-0.074,0.43-0.252,0.725-0.617,0.973
			c-0.231,0.158-0.477,0.436-0.526,0.695C27.9,459.206,27.898,459.934,28.695,460.313z M32.701,456.797
			c0.012-0.007,0.026-0.01,0.04-0.014c0.016-0.02,0.032-0.039,0.049-0.06c0.01,0.003,0.022,0.004,0.034,0.006
			c-0.083-0.364,0.125-0.644,0.292-0.935c0.023-0.042,0.083-0.108,0.099-0.102c0.074,0.032,0.178,0.072,0.2,0.135
			c0.116,0.322,0.294,0.65,0.299,0.979c0.02,1.392-0.007,2.783-0.038,4.176c-0.006,0.238-0.104,0.481-0.191,0.711
			c-0.049,0.132-0.161,0.24-0.245,0.357c-0.117-0.152-0.27-0.289-0.342-0.461c-0.074-0.176-0.083-0.385-0.098-0.582
			c-0.026-0.353,0.39-0.754-0.119-1.053c0.059-0.229,0.085-0.473,0.186-0.679c0.185-0.373,0.343-0.714,0.014-1.099
			c-0.068-0.079-0.044-0.28,0-0.402c0.082-0.233,0.228-0.443,0.313-0.676c0.148-0.399-0.165-0.332-0.371-0.369
			c0.002,0.012,0.002,0.021,0.006,0.034c-0.029,0.007-0.059,0.011-0.088,0.02c-0.027,0.034-0.054,0.067-0.081,0.102
			C32.672,456.854,32.678,456.811,32.701,456.797z M64.56,460.298c0.296,0.15,0.456,0.353,0.538,0.669
			c0.088,0.338,0.215,0.669,0.35,0.994c0.313,0.756,0.801,1.386,1.41,1.93c0.436,0.387,0.979,0.561,1.521,0.576
			c0.665,0.018,1.294-0.205,1.685-0.818c0.41-0.643,0.688-1.334,0.771-2.102c0.065-0.61,0.258-1.129,0.789-1.549
			c0.621-0.492,0.642-1.71,0.031-2.291c-0.404-0.384-0.568-0.762-0.584-1.297c-0.012-0.393-0.123-0.793-0.248-1.17
			c-0.4-1.221-1.196-1.79-2.571-1.807c-0.841-0.082-1.539,0.35-2.091,1.072c-0.493,0.644-0.899,1.352-1.056,2.144
			c-0.105,0.53-0.282,0.929-0.746,1.226c-0.193,0.125-0.389,0.37-0.428,0.589C63.805,459.174,63.775,459.898,64.56,460.298z
			 M68.806,455.713c0.131-0.168,0.358-0.162,0.475,0.026c0.215,0.348,0.348,0.718,0.347,1.13v1.65
			c-0.011,0.841,0.143,1.705-0.263,2.498c-0.037,0.071-0.156,0.1-0.243,0.138c-0.008,0.003-0.075-0.077-0.075-0.12
			c0.004-0.557-0.36-1.045-0.36-1.572c0-0.566-0.168-1.071-0.266-1.605C68.283,457.114,68.301,456.362,68.806,455.713z
			 M46.778,431.953c0.305,0.148,0.436,0.371,0.527,0.676c0.113,0.385,0.259,0.762,0.418,1.129c0.328,0.752,0.815,1.394,1.479,1.873
			c1.133,0.816,2.694,0.612,3.308-0.738c0.273-0.6,0.478-1.206,0.559-1.864c0.063-0.495,0.221-0.935,0.656-1.3
			c0.712-0.596,0.782-1.754,0.121-2.383c-0.408-0.391-0.549-0.776-0.57-1.304c-0.015-0.394-0.126-0.792-0.251-1.17
			c-0.403-1.212-1.204-1.778-2.562-1.79c-0.867-0.077-1.564,0.362-2.107,1.087c-0.515,0.688-0.933,1.435-1.083,2.293
			c-0.074,0.423-0.23,0.733-0.606,0.979c-0.234,0.152-0.482,0.43-0.533,0.688C45.996,430.836,45.984,431.564,46.778,431.953z
			 M51.021,427.347c0.132-0.165,0.351-0.144,0.474,0.056c0.216,0.349,0.337,0.723,0.339,1.134v1.65c0.02,0,0.039,0.001,0.059,0.001
			c-0.031,0.599-0.045,1.199-0.104,1.795c-0.023,0.24-0.145,0.469-0.229,0.7c-0.014,0.036-0.081,0.087-0.113,0.079
			c-0.073-0.015-0.189-0.049-0.204-0.098c-0.288-1.043-0.377-2.124-0.621-3.179C50.454,428.751,50.508,427.991,51.021,427.347z"/>
	</g>
</g>
</svg>
