<?xml version="1.0" encoding="utf-8"?>
<!-- Generator: Adobe Illustrator 16.0.0, SVG Export Plug-In . SVG Version: 6.00 Build 0)  -->
<!DOCTYPE svg PUBLIC "-//W3C//DTD SVG 1.1//EN" "http://www.w3.org/Graphics/SVG/1.1/DTD/svg11.dtd">
<svg version="1.1" id="Layer_1" xmlns="http://www.w3.org/2000/svg" xmlns:xlink="http://www.w3.org/1999/xlink" x="0px" y="0px"
	 width="50px" height="100px" viewBox="0 0 50 100" enable-background="new 0 0 50 100" xml:space="preserve">
<g>
	<g>
		<path fill="#FFFFFF" d="M42.114,19.438c-0.619-1.917,0.228-4.599-0.934-6.195c-1.172-1.611-3.995-1.627-5.605-2.801
			c-1.596-1.16-2.478-3.845-4.394-4.468c-1.848-0.6-4.133,1.034-6.182,1.034s-4.333-1.634-6.182-1.034
			c-1.917,0.622-2.799,3.308-4.395,4.468c-1.611,1.173-4.432,1.19-5.604,2.801c-1.161,1.596-0.314,4.278-0.935,6.195
			C7.284,21.286,5,22.949,5,25c0,2.048,2.284,3.712,2.885,5.562c0.62,1.916-0.228,4.6,0.935,6.195
			c1.172,1.61,3.994,1.627,5.605,2.799c1.595,1.161,2.477,3.846,4.394,4.47c1.85,0.6,4.132-1.034,6.182-1.034
			c2.049,0,4.334,1.634,6.182,1.034c1.916-0.623,2.798-3.309,4.394-4.468c1.61-1.172,4.432-1.19,5.605-2.801
			c1.161-1.596,0.312-4.278,0.936-6.195C42.715,28.714,45,27.048,45,25C44.998,22.949,42.715,21.287,42.114,19.438z M25,39.093
			c-7.783,0-14.093-6.311-14.093-14.093c0-7.784,6.31-14.093,14.093-14.093c7.784,0,14.092,6.31,14.092,14.093
			C39.092,32.782,32.784,39.093,25,39.093z"/>
		<path fill="#FFFFFF" d="M25,12.705c-6.78,0-12.295,5.516-12.295,12.295S18.22,37.295,25,37.295
			c6.779,0,12.296-5.515,12.296-12.295S31.779,12.705,25,12.705z M25,35.288c-5.673,0-10.289-4.615-10.289-10.289
			c0-5.673,4.616-10.289,10.289-10.289c5.672,0,10.288,4.615,10.288,10.289C35.288,30.673,30.672,35.288,25,35.288z"/>
		<path fill="#FFFFFF" d="M26.134,23.646c-1.561-0.588-2.204-0.974-2.204-1.58c0-0.515,0.386-1.03,1.58-1.03
			c0.724,0,1.305,0.127,1.762,0.275c0.229,0.074,0.479,0.048,0.688-0.072c0.209-0.12,0.356-0.323,0.406-0.558l0.092-0.425
			c0.088-0.418-0.145-0.835-0.55-0.979c-0.427-0.152-0.999-0.265-2.059-0.299V18.2c0-0.469-0.38-0.85-0.85-0.85
			c-0.469,0-0.85,0.381-0.85,0.85v0.907c-1.7,0.387-3.068,1.654-3.068,3.271c0,1.782,1.361,2.701,3.327,3.364
			c1.36,0.458,1.958,0.9,1.958,1.598c0,0.735-0.713,1.14-1.759,1.14c-0.795,0-1.539-0.171-2.175-0.408
			c-0.226-0.085-0.478-0.07-0.691,0.043c-0.214,0.113-0.372,0.31-0.431,0.545l-0.116,0.458c-0.109,0.432,0.135,0.875,0.559,1.014
			c0.773,0.254,1.779,0.44,2.399,0.479v1.191c0,0.47,0.381,0.85,0.85,0.85c0.469,0,0.849-0.38,0.849-0.85V30.48
			c2.55-0.368,3.313-1.762,3.313-3.397C29.163,25.428,28.321,24.416,26.134,23.646z"/>
	</g>
</g>
<g>
	<g>
		<path fill="#FFFFFF" d="M25.671,73.454c-0.566,0-1.036,0.195-1.436,0.598c-0.351,0.353-0.543,0.757-0.585,1.229l2.927-1.623
			C26.305,73.521,26.006,73.454,25.671,73.454z"/>
		<path fill="#FFFFFF" d="M33.218,73.454c-0.566,0-1.036,0.195-1.437,0.598c-0.336,0.337-0.526,0.722-0.579,1.17l2.905-1.571
			C33.84,73.519,33.546,73.454,33.218,73.454z"/>
		<path fill="#FFFFFF" d="M42.344,78.237C43.589,77.435,45,76.523,45,75s-1.411-2.434-2.656-3.237
			c-0.429-0.276-1.21-0.781-1.391-1.046c0.014-0.333,0.474-1.233,0.699-1.676c0.662-1.294,1.411-2.762,0.669-4.045
			c-0.75-1.297-2.409-1.379-3.874-1.452c-0.522-0.026-1.479-0.073-1.771-0.222c-0.147-0.29-0.195-1.247-0.221-1.771
			c-0.073-1.464-0.156-3.123-1.453-3.874c-0.351-0.202-0.75-0.306-1.187-0.306c-0.95,0-1.92,0.495-2.858,0.975
			c-0.559,0.286-1.318,0.674-1.678,0.698c-0.266-0.184-0.768-0.962-1.043-1.389C27.434,56.411,26.522,55,25,55
			c-1.523,0-2.435,1.411-3.238,2.656c-0.276,0.427-0.779,1.206-1.044,1.389c-0.35-0.021-1.115-0.411-1.677-0.698
			c-0.938-0.479-1.908-0.975-2.858-0.975c-0.437,0-0.836,0.104-1.187,0.306c-1.296,0.751-1.379,2.41-1.452,3.874
			c-0.026,0.523-0.074,1.48-0.222,1.771c-0.291,0.148-1.247,0.195-1.771,0.222c-1.464,0.073-3.124,0.156-3.874,1.452
			c-0.742,1.283,0.007,2.751,0.668,4.045c0.226,0.442,0.686,1.343,0.699,1.676c-0.18,0.265-0.962,0.77-1.39,1.046
			C6.411,72.566,5,73.477,5,75s1.411,2.435,2.656,3.238c0.428,0.275,1.209,0.78,1.39,1.045c-0.013,0.333-0.474,1.234-0.699,1.676
			c-0.661,1.294-1.411,2.762-0.668,4.045c0.75,1.297,2.41,1.379,3.874,1.452c0.523,0.026,1.48,0.073,1.771,0.222
			c0.148,0.29,0.195,1.247,0.222,1.771c0.073,1.464,0.155,3.123,1.452,3.874c0.351,0.203,0.75,0.306,1.187,0.306
			c0.95,0,1.92-0.495,2.858-0.975c0.559-0.286,1.318-0.674,1.678-0.698c0.265,0.184,0.768,0.962,1.043,1.389
			C22.565,93.589,23.477,95,25,95c1.522,0,2.434-1.411,3.237-2.656c0.275-0.427,0.778-1.206,1.044-1.389
			c0.351,0.021,1.115,0.411,1.678,0.698c0.938,0.479,1.907,0.975,2.857,0.975c0.437,0,0.836-0.103,1.187-0.306
			c1.297-0.751,1.38-2.41,1.452-3.874c0.026-0.523,0.074-1.48,0.222-1.771c0.291-0.148,1.247-0.195,1.771-0.222
			c1.465-0.073,3.124-0.155,3.874-1.452c0.742-1.283-0.007-2.751-0.669-4.045c-0.226-0.441-0.686-1.343-0.699-1.676
			C41.134,79.019,41.915,78.514,42.344,78.237z M17.472,68.942c0,0.448-0.363,0.812-0.811,0.812h-0.276
			c-0.428,0-0.772,0.157-1.024,0.467c-0.267,0.328-0.402,0.646-0.402,0.944v0.548h1.263c0.448,0,0.811,0.363,0.811,0.811v0.192
			c0,0.447-0.363,0.811-0.811,0.811h-1.263v4.92c0,0.448-0.363,0.812-0.811,0.812h-0.221c-0.448,0-0.811-0.363-0.811-0.812v-7.079
			c0-1.011,0.303-1.837,0.9-2.455c0.6-0.621,1.396-0.936,2.368-0.936h0.276c0.448,0,0.811,0.362,0.811,0.811V68.942L17.472,68.942z
			 M21.351,73.386c-0.62,0.03-1.077,0.246-1.396,0.659c-0.358,0.464-0.54,1.014-0.54,1.635v2.767c0,0.448-0.363,0.811-0.811,0.811
			h-0.221c-0.448,0-0.811-0.362-0.811-0.81l-0.005-5.923c0-0.216,0.085-0.422,0.237-0.574c0.152-0.152,0.358-0.237,0.573-0.237
			h0.226c0.369,0,0.68,0.245,0.778,0.583c0.578-0.431,1.205-0.672,1.872-0.719c0.225-0.017,0.445,0.062,0.61,0.216
			s0.258,0.368,0.258,0.593v0.19C22.122,73.009,21.783,73.365,21.351,73.386z M29.278,76.948c-0.187,0.466-0.479,0.897-0.866,1.282
			c-0.753,0.752-1.676,1.135-2.741,1.135s-1.988-0.381-2.742-1.134c-0.755-0.752-1.138-1.677-1.138-2.746
			c0-1.065,0.382-1.988,1.137-2.743s1.678-1.138,2.743-1.138c0.944,0,1.734,0.258,2.415,0.788c0.438,0.341,0.672,0.659,0.799,0.83
			c0.138,0.188,0.188,0.426,0.139,0.653c-0.049,0.229-0.194,0.424-0.398,0.537l-4.436,2.461c0.015,0.017,0.03,0.032,0.046,0.048
			c0.4,0.399,0.87,0.594,1.437,0.594s1.039-0.195,1.44-0.598c0.189-0.189,0.335-0.399,0.431-0.624
			c0.145-0.338,0.497-0.537,0.861-0.484l0.238,0.034c0.246,0.035,0.463,0.182,0.587,0.397
			C29.353,76.456,29.371,76.717,29.278,76.948z M36.824,76.948c-0.187,0.466-0.478,0.897-0.866,1.282
			c-0.753,0.752-1.676,1.135-2.74,1.135c-1.065,0-1.988-0.381-2.743-1.134c-0.755-0.752-1.138-1.677-1.138-2.746
			c0-1.065,0.383-1.988,1.138-2.743s1.678-1.138,2.743-1.138c0.886,0,1.644,0.243,2.383,0.765c0.448,0.316,0.66,0.615,0.787,0.794
			l0.043,0.06c0.139,0.188,0.189,0.429,0.138,0.657c-0.051,0.229-0.198,0.425-0.405,0.537l-4.309,2.332
			c-0.056,0.03-0.113,0.053-0.172,0.068c0.031,0.035,0.064,0.07,0.099,0.104c0.399,0.399,0.869,0.594,1.436,0.594
			c0.567,0,1.038-0.195,1.44-0.598c0.189-0.189,0.334-0.399,0.431-0.624c0.144-0.338,0.496-0.537,0.861-0.484l0.238,0.034
			c0.246,0.035,0.462,0.182,0.587,0.397C36.899,76.456,36.918,76.717,36.824,76.948z"/>
	</g>
</g>
</svg>
