<?xml version="1.0" encoding="utf-8"?>
<!-- Generator: Adobe Illustrator 16.0.0, SVG Export Plug-In . SVG Version: 6.00 Build 0)  -->
<!DOCTYPE svg PUBLIC "-//W3C//DTD SVG 1.1//EN" "http://www.w3.org/Graphics/SVG/1.1/DTD/svg11.dtd">
<svg version="1.1" id="Layer_1" xmlns="http://www.w3.org/2000/svg" xmlns:xlink="http://www.w3.org/1999/xlink" x="0px" y="0px"
	 width="50px" height="150px" viewBox="0 0 50 150" enable-background="new 0 0 50 150" xml:space="preserve">
<path fill="#5E6570" d="M39.965,9.756c-2.652-1.36-5.381-2.503-8.176-3.516c-0.395-0.825-1.828-0.844-2.588-0.75
	c-1.389,0.188-2.805,0.375-4.192,0.403c-1.388-0.028-2.804-0.216-4.191-0.403c-0.75-0.103-2.194-0.075-2.588,0.75
	c-2.804,1.022-5.523,2.156-8.177,3.516c-0.638,0.328-7.773,4.219-7.548,4.594c1.059,1.763,5.307,9.667,5.832,9.667
	c0.741,0,1.997-1.359,2.682-1.116c0.038,1.575,0.103,19.822,0.103,20.872c0,0.666,7.792,0.778,13.877,0.778
	c6.097,0,13.877-0.112,13.877-0.778c0.011-1.06,0.065-19.297,0.104-20.872c0.686-0.244,1.94,1.116,2.682,1.116
	c0.525,0,4.773-7.904,5.832-9.667C47.729,13.985,40.604,10.084,39.965,9.756z"/>
<path fill="#5E6570" d="M47.5,57.54c0-1.905-1.545-3.449-3.45-3.449H5.95c-1.905,0-3.45,1.544-3.45,3.449
	c0,1.786,1.364,3.237,3.101,3.415v17.751c0,1.36,1.103,2.464,2.464,2.464h14.47v2.574l-6.976,6.974
	c-0.964,0.962-0.964,2.523,0,3.484c0.964,0.963,2.523,0.965,3.485,0l3.491-3.49v2.731c0,1.361,1.103,2.466,2.464,2.466
	c1.36,0,2.464-1.104,2.464-2.466v-2.731l3.492,3.49c0.479,0.479,1.111,0.721,1.743,0.721c0.631,0,1.26-0.239,1.743-0.721
	c0.963-0.964,0.963-2.522,0-3.484l-6.979-6.974V81.17h14.472c1.359,0,2.463-1.104,2.463-2.464V60.954
	C46.137,60.777,47.5,59.325,47.5,57.54z"/>
<g>
	<path fill="#5E6570" d="M33.259,104.049h-5.035C27.588,103.1,26.358,102.5,25,102.5c-1.359,0-2.588,0.6-3.224,1.549h-5.035
		c-0.812,0-1.471,0.659-1.471,1.471v38.604c0,0.812,0.659,1.471,1.471,1.471h4.833c0.535,1.138,1.886,1.905,3.426,1.905
		c1.54,0,2.892-0.768,3.427-1.905h4.832c0.813,0,1.471-0.659,1.471-1.471V105.52C34.729,104.708,34.071,104.049,33.259,104.049z
		 M25,128.315c-1.926,0-3.494-1.567-3.494-3.494c0-1.926,1.567-3.493,3.494-3.493c1.927,0,3.493,1.567,3.493,3.493
		C28.493,126.748,26.927,128.315,25,128.315z M25,133.084c1.927,0,3.493,1.567,3.493,3.494c0,1.926-1.566,3.493-3.493,3.493
		c-1.926,0-3.494-1.567-3.494-3.493C21.506,134.651,23.074,133.084,25,133.084z M25,116.56c-1.926,0-3.494-1.567-3.494-3.494
		c0-1.926,1.567-3.493,3.494-3.493c1.927,0,3.493,1.567,3.493,3.493C28.493,114.992,26.927,116.56,25,116.56z"/>
</g>
</svg>
