<?xml version="1.0" encoding="utf-8"?>
<!-- Generator: Adobe Illustrator 16.0.0, SVG Export Plug-In . SVG Version: 6.00 Build 0)  -->
<!DOCTYPE svg PUBLIC "-//W3C//DTD SVG 1.1//EN" "http://www.w3.org/Graphics/SVG/1.1/DTD/svg11.dtd">
<svg version="1.1" id="Layer_1" xmlns="http://www.w3.org/2000/svg" xmlns:xlink="http://www.w3.org/1999/xlink" x="0px" y="0px"
	 width="32px" height="32px" viewBox="0 0 32 32" enable-background="new 0 0 32 32" xml:space="preserve">
<g>
	<path fill="#FFFFFF" stroke="#464B55" stroke-width="0.5" stroke-miterlimit="10" d="M10.882,6.161H6.764
		C6.342,6.161,6,6.503,6,6.925v4.119c0,0.421,0.342,0.763,0.764,0.763h4.118c0.422,0,0.764-0.342,0.764-0.763V6.925
		C11.646,6.503,11.304,6.161,10.882,6.161z"/>
	<path fill="#FFFFFF" stroke="#464B55" stroke-width="0.5" stroke-miterlimit="10" d="M17.979,6.161H13.86
		c-0.42,0-0.763,0.342-0.763,0.764v4.119c0,0.421,0.343,0.763,0.763,0.763h4.119c0.422,0,0.767-0.342,0.767-0.763V6.925
		C18.742,6.503,18.4,6.161,17.979,6.161z"/>
	<path fill="#FFFFFF" stroke="#464B55" stroke-width="0.5" stroke-miterlimit="10" d="M25.236,6.161h-4.117
		c-0.424,0-0.766,0.342-0.766,0.764v4.119c0,0.421,0.342,0.763,0.766,0.763h4.117c0.422,0,0.764-0.342,0.764-0.763V6.925
		C26,6.504,25.658,6.161,25.236,6.161z"/>
	<path fill="#FFFFFF" stroke="#464B55" stroke-width="0.5" stroke-miterlimit="10" d="M10.882,13.098H6.764
		C6.342,13.098,6,13.438,6,13.859v4.12c0,0.42,0.342,0.764,0.764,0.764h4.118c0.422,0,0.764-0.344,0.764-0.764v-4.12
		C11.646,13.438,11.304,13.098,10.882,13.098z"/>
	<path fill="#FFFFFF" stroke="#464B55" stroke-width="0.5" stroke-miterlimit="10" d="M17.979,13.098H13.86
		c-0.42,0-0.763,0.342-0.763,0.762v4.119c0,0.422,0.343,0.766,0.763,0.766h4.119c0.422,0,0.767-0.344,0.767-0.766V13.86
		C18.742,13.438,18.4,13.098,17.979,13.098z"/>
	<path fill="#FFFFFF" stroke="#464B55" stroke-width="0.5" stroke-miterlimit="10" d="M25.236,13.098h-4.117
		c-0.424,0-0.766,0.342-0.766,0.762v4.119c0,0.422,0.342,0.766,0.766,0.766h4.117c0.422,0,0.764-0.344,0.764-0.766V13.86
		C26,13.438,25.658,13.098,25.236,13.098z"/>
	<path fill="#FFFFFF" stroke="#464B55" stroke-width="0.5" stroke-miterlimit="10" d="M10.882,20.193H6.764
		C6.342,20.193,6,20.535,6,20.956v4.119c0,0.421,0.342,0.764,0.764,0.764h4.118c0.422,0,0.764-0.343,0.764-0.764v-4.119
		C11.646,20.535,11.304,20.193,10.882,20.193z"/>
	<path fill="#FFFFFF" stroke="#464B55" stroke-width="0.5" stroke-miterlimit="10" d="M17.979,20.193H13.86
		c-0.42,0-0.763,0.342-0.763,0.763v4.119c0,0.421,0.343,0.764,0.763,0.764h4.119c0.422,0,0.767-0.343,0.767-0.764v-4.119
		C18.742,20.535,18.4,20.193,17.979,20.193z"/>
	<path fill="#FFFFFF" stroke="#464B55" stroke-width="0.5" stroke-miterlimit="10" d="M25.236,20.193h-4.117
		c-0.424,0-0.766,0.342-0.766,0.763v4.119c0,0.421,0.342,0.764,0.766,0.764h4.117c0.422,0,0.764-0.343,0.764-0.764v-4.119
		C26,20.535,25.658,20.193,25.236,20.193z"/>
</g>
</svg>
