<?xml version="1.0" encoding="utf-8"?>
<!-- Generator: Adobe Illustrator 16.0.0, SVG Export Plug-In . SVG Version: 6.00 Build 0)  -->
<!DOCTYPE svg PUBLIC "-//W3C//DTD SVG 1.1//EN" "http://www.w3.org/Graphics/SVG/1.1/DTD/svg11.dtd">
<svg version="1.1" id="Layer_1" xmlns="http://www.w3.org/2000/svg" xmlns:xlink="http://www.w3.org/1999/xlink" x="0px" y="0px"
	 width="50px" height="200px" viewBox="0 0 50 200" enable-background="new 0 0 50 200" xml:space="preserve">
<g>
	<path fill="#5E6570" d="M43.145,4.678H6.855C4.459,4.678,2.5,6.637,2.5,9.033c0,2.395,1.959,4.354,4.355,4.354h36.29
		c2.396,0,4.355-1.959,4.355-4.354C47.5,6.637,45.54,4.678,43.145,4.678z"/>
	<path fill="#5E6570" d="M43.145,20.645H6.855C4.459,20.645,2.5,22.604,2.5,25s1.959,4.355,4.355,4.355h36.29
		c2.396,0,4.355-1.961,4.355-4.355C47.5,22.604,45.54,20.645,43.145,20.645z"/>
	<path fill="#5E6570" d="M43.145,36.613H6.855c-2.396,0-4.355,1.96-4.355,4.354c0,2.396,1.959,4.355,4.355,4.355h36.29
		c2.396,0,4.355-1.961,4.355-4.355C47.5,38.573,45.54,36.613,43.145,36.613z"/>
</g>
<g>
	<g>
		<path fill="#5E6570" d="M43.9,88.599l-9.176-9.178c-1.367,2.125-3.181,3.936-5.308,5.303l9.181,9.178
			c1.465,1.467,3.842,1.467,5.303,0C45.366,92.438,45.366,90.062,43.9,88.599z"/>
		<path fill="#5E6570" d="M35,69.999c0-8.284-6.716-15-15-15s-15,6.715-15,15c0,8.284,6.716,15,15,15S35,78.282,35,69.999z
			 M20,81.247c-6.204,0-11.25-5.045-11.25-11.249s5.046-11.25,11.25-11.25c6.203,0,11.25,5.046,11.25,11.25S26.203,81.247,20,81.247
			z"/>
		<path fill="#5E6570" d="M11.25,69.999h2.5c0-3.445,2.806-6.25,6.25-6.25v-2.5C15.176,61.249,11.25,65.174,11.25,69.999z"/>
	</g>
</g>
<g>
	<g id="Right">
		<g>
			<path fill="#5E6570" d="M27.09,134.288l0.004-0.005c0.377,0.346,0.87,0.561,1.422,0.561c1.164,0,2.109-0.945,2.109-2.109
				c0-0.613-0.266-1.164-0.688-1.549l0.004-0.006L23.2,125l6.741-6.182l-0.004-0.006c0.42-0.383,0.688-0.933,0.688-1.547
				c0-1.164-0.945-2.109-2.109-2.109c-0.548,0-1.045,0.215-1.423,0.56l-0.004-0.006l-8.438,7.733
				c-0.434,0.398-0.683,0.963-0.683,1.557s0.25,1.152,0.683,1.557L27.09,134.288z M25,147.5c12.426,0,22.5-10.074,22.5-22.5
				S37.426,102.5,25,102.5S2.5,112.574,2.5,125S12.574,147.5,25,147.5z M25,106.719c10.08,0,18.281,8.201,18.281,18.281
				S35.08,143.281,25,143.281S6.719,135.08,6.719,125S14.92,106.719,25,106.719z"/>
		</g>
	</g>
</g>
<g>
	<g id="Info">
		<g>
			<path fill="#5E6570" d="M25,163.75c-1.553,0-2.812,1.26-2.812,2.812c0,1.552,1.26,2.812,2.812,2.812s2.812-1.259,2.812-2.812
				C27.812,165.009,26.555,163.75,25,163.75z M25,172.188c-1.553,0-2.812,1.26-2.812,2.812v8.438c0,1.554,1.26,2.812,2.812,2.812
				s2.812-1.26,2.812-2.812V175C27.812,173.447,26.555,172.188,25,172.188z M25,152.5c-12.406,0-22.5,10.094-22.5,22.5
				s10.094,22.5,22.5,22.5s22.5-10.094,22.5-22.5S37.406,152.5,25,152.5z M25,193.281c-10.082,0-18.281-8.201-18.281-18.281
				s8.2-18.281,18.281-18.281c10.08,0,18.281,8.201,18.281,18.281S35.08,193.281,25,193.281z"/>
		</g>
	</g>
</g>
</svg>
