<?xml version="1.0" encoding="utf-8"?>
<!-- Generator: Adobe Illustrator 16.0.0, SVG Export Plug-In . SVG Version: 6.00 Build 0)  -->
<!DOCTYPE svg PUBLIC "-//W3C//DTD SVG 1.1//EN" "http://www.w3.org/Graphics/SVG/1.1/DTD/svg11.dtd">
<svg version="1.1" id="Layer_1" xmlns="http://www.w3.org/2000/svg" xmlns:xlink="http://www.w3.org/1999/xlink" x="0px" y="0px"
	 width="30px" height="270px" viewBox="0 0 30 270" enable-background="new 0 0 30 270" xml:space="preserve">
<g>
	<path fill="#FFFFFF" stroke="#5E6570" stroke-miterlimit="10" d="M4.908,14.496L14,5.403c0,0,0.906-0.907,1.948,0
		c1.042,0.906,9.095,9.093,9.095,9.093s0.637,1.107-0.37,1.913c-1.007,0.806-1.712,0.335-1.712,0.335l-7.886-7.786l-7.851,7.651
		c0,0-1.143,0.57-1.982-0.201C4.406,15.636,4.908,14.496,4.908,14.496z"/>
	<polygon fill="#FFFFFF" stroke="#5E6570" stroke-miterlimit="10" points="7.826,18.021 14.999,10.939 22.023,18.021 22.023,25 
		17.191,25 17.191,17.386 12.659,17.386 12.625,25 7.826,25 	"/>
</g>
<polygon fill="#FFFFFF" stroke="#5E6570" stroke-miterlimit="10" points="25,102.687 17.281,102.687 17.281,94.857 12.72,94.857 
	12.72,102.687 5,102.687 5,107.313 12.72,107.313 12.72,115.143 17.281,115.143 17.281,107.313 25,107.313 "/>
<path fill="#FFFFFF" stroke="#5E6570" stroke-miterlimit="10" d="M8.596,123.272l1.587,1.615c0,0,0.136,0.08,0.127,0.229
	c-0.007,0.147-0.492,1.417-1.4,1.658c-0.907,0.24-2.103-1.77-2.103-1.77s-0.156-0.277-0.459-0.053
	c-0.305,0.225-0.288,0.882-0.254,1.217c0.032,0.336,0.371,1.912,1.021,2.646c0.646,0.735,2.703,1.285,2.703,1.285
	s0.401,0.087,0.773,0.704c0.373,0.615,5.351,9.553,5.351,9.553s0.353,0.664,0.267,1.395s-0.335,2.324-0.335,2.324
	s-0.078,1.133,1.021,2.354c1.104,1.225,2.979,1.078,3.178,1.059c0.195-0.02,1.416-0.055,0.979-0.635
	c-0.432-0.582-1.588-1.732-1.588-1.732s-0.458-0.318-0.146-0.791c0.312-0.473,1.498-1.477,1.498-1.477s0.189-0.26,0.557,0.104
	c0.359,0.363,1.938,1.889,1.938,1.889s0.418,0.156,0.463-0.41c0.047-0.563,0.363-1.377-0.084-2.449
	c-0.442-1.074-1.252-1.656-1.326-1.725c-0.065-0.063-2.646-1.098-2.646-1.098s-0.577-0.084-0.987-0.832
	c-0.414-0.748-5.398-9.482-5.398-9.482s-0.56-0.914-0.208-1.479c0.35-0.566,0.27-2.024,0.101-2.521
	c-0.167-0.5-0.864-1.539-1.458-1.788c-0.592-0.25-1.526-0.663-2.257-0.536c-0.728,0.125-0.88,0.193-0.965,0.398
	C8.452,123.125,8.596,123.272,8.596,123.272z"/>
<g>
	<path fill="#FFFFFF" stroke="#5E6570" stroke-miterlimit="10" d="M9.882,65.161H5.764C5.342,65.161,5,65.503,5,65.925v4.119
		c0,0.421,0.342,0.763,0.764,0.763h4.118c0.422,0,0.764-0.342,0.764-0.763v-4.119C10.646,65.503,10.304,65.161,9.882,65.161z"/>
	<path fill="#FFFFFF" stroke="#5E6570" stroke-miterlimit="10" d="M16.979,65.161H12.86c-0.42,0-0.763,0.342-0.763,0.764v4.119
		c0,0.421,0.343,0.763,0.763,0.763h4.119c0.422,0,0.769-0.342,0.769-0.763v-4.119C17.742,65.503,17.4,65.161,16.979,65.161z"/>
	<path fill="#FFFFFF" stroke="#5E6570" stroke-miterlimit="10" d="M24.236,65.161h-4.117c-0.424,0-0.766,0.342-0.766,0.764v4.119
		c0,0.421,0.342,0.763,0.766,0.763h4.117c0.422,0,0.764-0.342,0.764-0.763v-4.119C25,65.504,24.658,65.161,24.236,65.161z"/>
	<path fill="#FFFFFF" stroke="#5E6570" stroke-miterlimit="10" d="M9.882,72.098H5.764C5.342,72.098,5,72.438,5,72.859v4.119
		c0,0.42,0.342,0.764,0.764,0.764h4.118c0.422,0,0.764-0.344,0.764-0.764v-4.119C10.646,72.438,10.304,72.098,9.882,72.098z"/>
	<path fill="#FFFFFF" stroke="#5E6570" stroke-miterlimit="10" d="M16.979,72.098H12.86c-0.42,0-0.763,0.342-0.763,0.762v4.119
		c0,0.422,0.343,0.765,0.763,0.765h4.119c0.422,0,0.769-0.343,0.769-0.765V72.86C17.742,72.438,17.4,72.098,16.979,72.098z"/>
	<path fill="#FFFFFF" stroke="#5E6570" stroke-miterlimit="10" d="M24.236,72.098h-4.117c-0.424,0-0.766,0.342-0.766,0.762v4.119
		c0,0.422,0.342,0.765,0.766,0.765h4.117c0.422,0,0.764-0.343,0.764-0.765V72.86C25,72.438,24.658,72.098,24.236,72.098z"/>
	<path fill="#FFFFFF" stroke="#5E6570" stroke-miterlimit="10" d="M9.882,79.193H5.764C5.342,79.193,5,79.535,5,79.956v4.119
		c0,0.421,0.342,0.764,0.764,0.764h4.118c0.422,0,0.764-0.343,0.764-0.764v-4.119C10.646,79.535,10.304,79.193,9.882,79.193z"/>
	<path fill="#FFFFFF" stroke="#5E6570" stroke-miterlimit="10" d="M16.979,79.193H12.86c-0.42,0-0.763,0.342-0.763,0.763v4.119
		c0,0.421,0.343,0.764,0.763,0.764h4.119c0.422,0,0.769-0.343,0.769-0.764v-4.119C17.742,79.535,17.4,79.193,16.979,79.193z"/>
	<path fill="#FFFFFF" stroke="#5E6570" stroke-miterlimit="10" d="M24.236,79.193h-4.117c-0.424,0-0.766,0.342-0.766,0.763v4.119
		c0,0.421,0.342,0.764,0.766,0.764h4.117c0.422,0,0.764-0.343,0.764-0.764v-4.119C25,79.535,24.658,79.193,24.236,79.193z"/>
</g>
<path fill="#FFFFFF" stroke="#5E6570" stroke-miterlimit="10" d="M25,166.23v-2.461l-2.984-1.232l-0.283-0.76l1.188-2.938
	l-1.854-1.754l-2.842,1.187l-0.761-0.332L16.23,155h-2.462l-1.37,3.016l-0.812,0.189l-2.747-1.119l-1.755,1.85l1.138,2.795
	l-0.236,0.81L5,163.77v2.461l2.985,1.234l0.284,0.805l-1.185,2.894l1.85,1.754l2.844-1.188l0.758,0.285L13.767,175h2.463
	l1.274-2.986l0.765-0.285l2.795,1.188l1.848-1.853l-1.182-2.891l0.229-0.615L25,166.23z M14.909,168.701
	c-2.097,0-3.796-1.699-3.796-3.797s1.699-3.795,3.796-3.795c2.097,0,3.796,1.699,3.796,3.795
	C18.705,167.002,17.006,168.701,14.909,168.701z"/>
<path fill="#FFFFFF" stroke="#5E6570" stroke-miterlimit="10" d="M25,185.891h-0.367h-8.604v-0.928h-2.278v0.928H5.582H5v1.115
	h0.582v11.006h8.407v2.049l-4.641,4.979h1.668l3.132-3.363v3.363h0.959v-3.355l3.127,3.355h1.695l-4.671-4.979v-2.049h9.37v-11.006
	H25V185.891z"/>
<g>
	<g opacity="0.4">
		<path fill="#FFFFFF" stroke="#5E6570" stroke-miterlimit="10" d="M22,217.781v7.699c0,0.158-0.123,0.287-0.283,0.287H8.286
			c-0.161,0-0.286-0.129-0.286-0.287v-7.699H22z"/>
		<path fill="#FFFFFF" stroke="#5E6570" stroke-miterlimit="10" d="M8.286,216.725h13.431c0.159,0,0.283,0.123,0.283,0.285v0.771H8
			v-0.771C8,216.852,8.125,216.725,8.286,216.725z"/>
		<g>
			<path fill="#FFFFFF" stroke="#5E6570" stroke-miterlimit="10" d="M22,217.781v7.699c0,0.158-0.123,0.287-0.283,0.287H8.286
				c-0.161,0-0.286-0.129-0.286-0.287v-7.699v-0.771c0-0.158,0.125-0.285,0.286-0.285h13.431c0.159,0,0.283,0.125,0.283,0.285
				V217.781z"/>
			<line fill="none" stroke="#5E6570" stroke-miterlimit="10" x1="8" y1="217.781" x2="22" y2="217.781"/>
		</g>
		<circle fill="#FFFFFF" stroke="#5E6570" stroke-miterlimit="10" cx="21.366" cy="217.276" r="0.188"/>
		<circle fill="#FFFFFF" stroke="#5E6570" stroke-miterlimit="10" cx="20.73" cy="217.276" r="0.188"/>
		<circle fill="#FFFFFF" stroke="#5E6570" stroke-miterlimit="10" cx="20.098" cy="217.276" r="0.188"/>
		<g>
			<rect x="8.525" y="218.758" fill="#FFFFFF" stroke="#5E6570" stroke-miterlimit="10" width="4.857" height="0.119"/>
			<rect x="8.525" y="220.115" fill="#FFFFFF" stroke="#5E6570" stroke-miterlimit="10" width="11.168" height="0.119"/>
			<rect x="8.525" y="221.705" fill="#FFFFFF" stroke="#5E6570" stroke-miterlimit="10" width="11.168" height="0.119"/>
			<rect x="8.525" y="223.293" fill="#FFFFFF" stroke="#5E6570" stroke-miterlimit="10" width="11.168" height="0.119"/>
		</g>
	</g>
	<g opacity="0.6">
		<path fill="#FFFFFF" stroke="#5E6570" stroke-miterlimit="10" d="M22.75,219.41v8.523c0,0.176-0.137,0.313-0.313,0.313H7.567
			c-0.178,0-0.317-0.146-0.317-0.313v-8.523H22.75z"/>
		<path fill="#FFFFFF" stroke="#5E6570" stroke-miterlimit="10" d="M7.567,218.24h14.871c0.179,0,0.313,0.136,0.313,0.314v0.854
			H7.25v-0.854C7.25,218.381,7.389,218.24,7.567,218.24z"/>
		<g>
			<path fill="#FFFFFF" stroke="#5E6570" stroke-miterlimit="10" d="M22.75,219.41v8.523c0,0.176-0.137,0.313-0.313,0.313H7.567
				c-0.178,0-0.317-0.146-0.317-0.313v-8.523v-0.854c0-0.18,0.139-0.315,0.317-0.315h14.871c0.179,0,0.313,0.139,0.313,0.315V219.41
				z"/>
			<line fill="none" stroke="#5E6570" stroke-miterlimit="10" x1="7.25" y1="219.41" x2="22.75" y2="219.41"/>
		</g>
		<circle fill="#FFFFFF" stroke="#5E6570" stroke-miterlimit="10" cx="22.049" cy="218.851" r="0.208"/>
		<circle fill="#FFFFFF" stroke="#5E6570" stroke-miterlimit="10" cx="21.346" cy="218.851" r="0.208"/>
		<circle fill="#FFFFFF" stroke="#5E6570" stroke-miterlimit="10" cx="20.645" cy="218.851" r="0.208"/>
		<g>
			<rect x="7.831" y="220.491" fill="#FFFFFF" stroke="#5E6570" stroke-miterlimit="10" width="5.378" height="0.132"/>
			<rect x="7.831" y="221.994" fill="#FFFFFF" stroke="#5E6570" stroke-miterlimit="10" width="12.364" height="0.132"/>
			<rect x="7.831" y="223.754" fill="#FFFFFF" stroke="#5E6570" stroke-miterlimit="10" width="12.364" height="0.133"/>
			<rect x="7.831" y="225.514" fill="#FFFFFF" stroke="#5E6570" stroke-miterlimit="10" width="12.364" height="0.131"/>
		</g>
	</g>
	<g opacity="0.8">
		<path fill="#FFFFFF" stroke="#5E6570" stroke-miterlimit="10" d="M23.5,221.039v9.35c0,0.191-0.15,0.353-0.344,0.353H6.848
			c-0.195,0-0.348-0.156-0.348-0.353v-9.35H23.5z"/>
		<path fill="#FFFFFF" stroke="#5E6570" stroke-miterlimit="10" d="M6.848,219.756h16.309c0.192,0,0.344,0.148,0.344,0.346v0.938
			h-17v-0.938C6.5,219.91,6.653,219.756,6.848,219.756z"/>
		<g>
			<path fill="#FFFFFF" stroke="#5E6570" stroke-miterlimit="10" d="M23.5,221.039v9.35c0,0.191-0.15,0.353-0.344,0.353H6.848
				c-0.195,0-0.348-0.156-0.348-0.353v-9.35v-0.938c0-0.191,0.152-0.351,0.348-0.351h16.309c0.192,0,0.344,0.149,0.344,0.351
				L23.5,221.039L23.5,221.039z"/>
			<line fill="none" stroke="#5E6570" stroke-miterlimit="10" x1="6.5" y1="221.039" x2="23.5" y2="221.039"/>
		</g>
		<circle fill="#FFFFFF" stroke="#5E6570" stroke-miterlimit="10" cx="22.73" cy="220.426" r="0.229"/>
		<circle fill="#FFFFFF" stroke="#5E6570" stroke-miterlimit="10" cx="21.96" cy="220.426" r="0.229"/>
		<circle fill="#FFFFFF" stroke="#5E6570" stroke-miterlimit="10" cx="21.189" cy="220.426" r="0.229"/>
		<g>
			<rect x="7.137" y="222.225" fill="#FFFFFF" stroke="#5E6570" stroke-miterlimit="10" width="5.897" height="0.146"/>
			<rect x="7.137" y="223.873" fill="#FFFFFF" stroke="#5E6570" stroke-miterlimit="10" width="13.562" height="0.145"/>
			<rect x="7.137" y="225.803" fill="#FFFFFF" stroke="#5E6570" stroke-miterlimit="10" width="13.562" height="0.146"/>
			<rect x="7.137" y="227.732" fill="#FFFFFF" stroke="#5E6570" stroke-miterlimit="10" width="13.562" height="0.145"/>
		</g>
	</g>
	<g>
		<path fill="#FFFFFF" stroke="#5E6570" stroke-miterlimit="10" d="M24.334,222.628v10.265c0,0.211-0.166,0.383-0.379,0.383H6.047
			c-0.214,0-0.381-0.172-0.381-0.383v-10.265H24.334z"/>
		<path fill="#FFFFFF" stroke="#5E6570" stroke-miterlimit="10" d="M6.047,221.219h17.908c0.213,0,0.379,0.163,0.379,0.379v1.028
			H5.666v-1.028C5.666,221.387,5.834,221.219,6.047,221.219z"/>
		<g>
			<path fill="#FFFFFF" stroke="#5E6570" stroke-miterlimit="10" d="M24.334,222.628v10.265c0,0.211-0.166,0.383-0.379,0.383H6.047
				c-0.214,0-0.381-0.172-0.381-0.383v-10.265V221.6c0-0.213,0.167-0.381,0.381-0.381h17.908c0.213,0,0.379,0.166,0.379,0.381
				V222.628L24.334,222.628z"/>
			<line fill="none" stroke="#5E6570" stroke-miterlimit="10" x1="5.666" y1="222.628" x2="24.334" y2="222.628"/>
		</g>
		<circle fill="#FFFFFF" stroke="#5E6570" stroke-miterlimit="10" cx="23.488" cy="221.952" r="0.251"/>
		<circle fill="#FFFFFF" stroke="#5E6570" stroke-miterlimit="10" cx="22.643" cy="221.952" r="0.251"/>
		<circle fill="#FFFFFF" stroke="#5E6570" stroke-miterlimit="10" cx="21.797" cy="221.952" r="0.251"/>
		<g>
			<rect x="6.365" y="223.93" fill="#FFFFFF" stroke="#5E6570" stroke-miterlimit="10" width="6.477" height="0.157"/>
			<rect x="6.365" y="225.739" fill="#FFFFFF" stroke="#5E6570" stroke-miterlimit="10" width="14.893" height="0.157"/>
			<rect x="6.365" y="227.857" fill="#FFFFFF" stroke="#5E6570" stroke-miterlimit="10" width="14.893" height="0.158"/>
			<rect x="6.365" y="229.977" fill="#FFFFFF" stroke="#5E6570" stroke-miterlimit="10" width="14.893" height="0.158"/>
		</g>
	</g>
</g>
<g>
	<g>
		<path fill="#FFFFFF" stroke="#5E6570" stroke-miterlimit="10" d="M11.705,47.005L8.82,44.58l2.897-2.488
			c0.629-0.541,0.701-1.488,0.161-2.117c-0.54-0.628-1.489-0.702-2.118-0.161l-4.237,3.639C5.189,43.741,4.998,44.161,5,44.601
			c0.002,0.441,0.197,0.858,0.534,1.142l4.238,3.562c0.281,0.236,0.624,0.352,0.965,0.352c0.429,0,0.853-0.182,1.149-0.534
			C12.42,48.488,12.34,47.541,11.705,47.005z"/>
		<path fill="#FFFFFF" stroke="#5E6570" stroke-miterlimit="10" d="M24.477,43.454l-4.238-3.638
			c-0.629-0.541-1.576-0.467-2.116,0.161c-0.537,0.629-0.47,1.576,0.161,2.117l2.896,2.488l-2.884,2.426
			c-0.635,0.535-0.718,1.479-0.183,2.116c0.297,0.352,0.719,0.534,1.148,0.534c0.342,0,0.684-0.117,0.965-0.352l4.237-3.562
			c0.337-0.284,0.533-0.701,0.534-1.142C25.001,44.161,24.813,43.741,24.477,43.454z"/>
		<path fill="#FFFFFF" stroke="#5E6570" stroke-miterlimit="10" d="M16.336,37.133c-0.814-0.156-1.604,0.375-1.761,1.189
			l-2.474,12.785c-0.158,0.814,0.375,1.603,1.188,1.76c0.096,0.018,0.192,0.027,0.287,0.027c0.705,0,1.333-0.498,1.472-1.215
			l2.474-12.785C17.682,38.079,17.148,37.291,16.336,37.133z"/>
	</g>
</g>
<g>
	<path fill="#FFFFFF" stroke="#5E6570" stroke-miterlimit="10" d="M19.788,262.48l-0.924-2.428h-7.863l-0.923,2.479
		c-0.36,0.968-0.669,1.623-0.924,1.958C8.899,264.833,8.481,265,7.901,265c-0.493,0-0.928-0.18-1.307-0.541
		c-0.378-0.36-0.566-0.77-0.566-1.227c0-0.264,0.044-0.536,0.132-0.818c0.088-0.281,0.233-0.673,0.436-1.174l4.947-12.56
		c0.141-0.361,0.31-0.797,0.508-1.298c0.198-0.51,0.409-0.928,0.634-1.262c0.224-0.334,0.519-0.602,0.884-0.813
		c0.365-0.203,0.815-0.309,1.353-0.309c0.545,0,0.998,0.105,1.363,0.309c0.365,0.211,0.659,0.474,0.884,0.8
		c0.225,0.325,0.414,0.677,0.568,1.047c0.154,0.378,0.352,0.875,0.589,1.499l5.053,12.48c0.396,0.949,0.594,1.641,0.594,2.071
		c0,0.448-0.189,0.862-0.563,1.231c-0.374,0.379-0.823,0.563-1.351,0.563c-0.308,0-0.571-0.052-0.791-0.166
		c-0.22-0.105-0.405-0.256-0.554-0.448c-0.149-0.186-0.313-0.476-0.483-0.871C20.056,263.126,19.911,262.779,19.788,262.48z
		 M12.03,257.11h5.778l-2.915-7.981L12.03,257.11z"/>
</g>
</svg>
