<?xml version="1.0" encoding="utf-8"?>
<!-- Generator: Adobe Illustrator 16.0.0, SVG Export Plug-In . SVG Version: 6.00 Build 0)  -->
<!DOCTYPE svg PUBLIC "-//W3C//DTD SVG 1.1//EN" "http://www.w3.org/Graphics/SVG/1.1/DTD/svg11.dtd">
<svg version="1.1" id="Layer_1" xmlns="http://www.w3.org/2000/svg" xmlns:xlink="http://www.w3.org/1999/xlink" x="0px" y="0px"
	 width="100px" height="300px" viewBox="0 0 100 300" enable-background="new 0 0 100 300" xml:space="preserve">
<rect fill="none" width="100" height="300"/>
<g>
	<g>
		<polygon fill="#E3E3E3" stroke="#808285" stroke-width="0.3834" stroke-miterlimit="10" points="83,84.55 25.912,84.55 
			25.912,6.016 70.888,6.016 83,6.016 83,19.276 		"/>
		<polygon fill="#F4F4F4" stroke="#808285" stroke-width="0.3834" stroke-miterlimit="10" points="78.611,89.207 21.522,89.207 
			21.522,10.674 66.499,10.674 78.611,10.674 78.611,23.934 		"/>
		<polygon fill="#FFFFFF" stroke="#808285" stroke-width="0.3834" stroke-miterlimit="10" points="74.089,29.27 74.089,93.984 
			17,93.984 17,15.451 60.538,15.451 		"/>
		<polygon fill="#F0F0F0" stroke="#808285" stroke-width="0.3834" stroke-miterlimit="10" points="74.089,29.27 60.538,29.27 
			60.538,15.451 		"/>
		<rect x="26.034" y="39.869" fill="#CBC9C9" width="39.936" height="0.728"/>
		<rect x="26.034" y="34.207" fill="#CBC9C9" width="39.936" height="2.568"/>
		<rect x="26.034" y="42.562" fill="#CBC9C9" width="39.936" height="0.729"/>
		<rect x="26.034" y="45.277" fill="#CBC9C9" width="19.968" height="0.729"/>
		<rect x="26.034" y="47.992" fill="#CBC9C9" width="39.936" height="0.728"/>
		<rect x="26.034" y="50.707" fill="#CBC9C9" width="39.936" height="0.729"/>
		<rect x="26.034" y="53.422" fill="#CBC9C9" width="19.968" height="0.729"/>
		<rect x="26.034" y="56.139" fill="#CBC9C9" width="30.88" height="0.727"/>
		<rect x="26.034" y="58.852" fill="#CBC9C9" width="30.88" height="0.729"/>
		<rect x="26.034" y="61.566" fill="#CBC9C9" width="39.936" height="0.73"/>
		<rect x="26.034" y="64.282" fill="#CBC9C9" width="39.936" height="0.729"/>
		<rect x="26.034" y="67.266" fill="#CBC9C9" width="19.51" height="0.728"/>
	</g>
	<g>
		<path fill="#161616" d="M67.292,78.836v-4.409c0-3.241-2.639-5.88-5.881-5.88c-3.24,0-5.879,2.639-5.879,5.88v4.409
			c-1.623,0-2.939,1.314-2.939,2.938v7.351c0,1.624,1.316,2.939,2.939,2.939h11.76c1.623,0,2.938-1.315,2.938-2.939v-7.351
			C70.23,80.15,68.915,78.836,67.292,78.836 M62.146,85.959v2.431c0,0.405-0.328,0.735-0.735,0.735c-0.406,0-0.734-0.33-0.734-0.735
			v-2.431c-0.432-0.255-0.736-0.706-0.736-1.244c0-0.813,0.66-1.47,1.471-1.47c0.813,0,1.471,0.656,1.471,1.47
			C62.882,85.253,62.577,85.704,62.146,85.959 M64.352,78.836h-5.879v-4.409c0-1.623,1.317-2.941,2.938-2.941
			c1.622,0,2.94,1.318,2.94,2.941V78.836z"/>
		<path fill="#AB5656" d="M67.292,78.836v-4.409c0-3.241-2.639-5.88-5.881-5.88c-3.24,0-5.879,2.639-5.879,5.88v4.409
			c-1.623,0-2.939,1.314-2.939,2.938v7.351c0,1.624,1.316,2.939,2.939,2.939h11.76c1.623,0,2.938-1.315,2.938-2.939v-7.351
			C70.23,80.15,68.915,78.836,67.292,78.836 M64.352,78.836h-5.879v-4.409c0-1.623,1.317-2.941,2.938-2.941
			c1.622,0,2.94,1.318,2.94,2.941V78.836z"/>
		<path fill="#FFFFFF" d="M62.146,85.959v2.431c0,0.405-0.328,0.735-0.735,0.735c-0.406,0-0.734-0.33-0.734-0.735v-2.431
			c-0.432-0.255-0.736-0.706-0.736-1.244c0-0.813,0.66-1.47,1.471-1.47c0.813,0,1.471,0.656,1.471,1.47
			C62.882,85.253,62.577,85.704,62.146,85.959"/>
		<g>
			<path fill="#525252" d="M67.255,78.836l-0.001-3.407c0.006-0.572,0.01-1.131-0.07-1.696c-0.01-0.577-0.257-1.095-0.419-1.63
				c-0.271-0.495-0.511-1.01-0.908-1.42c-0.326-0.465-0.812-0.78-1.246-1.132c-0.496-0.269-0.979-0.568-1.535-0.693
				c-0.528-0.219-1.106-0.192-1.663-0.271c-0.552,0.078-1.144,0.053-1.665,0.271c-0.554,0.125-1.037,0.423-1.532,0.693
				c-0.437,0.351-0.916,0.672-1.235,1.142c-0.391,0.413-0.621,0.931-0.884,1.425c-0.154,0.534-0.393,1.057-0.394,1.623
				c-0.071,0.551-0.062,1.119-0.05,1.688l0.021,1.704c0.003,0.568,0.037,1.136-0.092,1.704l-0.003,0.011
				c-0.005,0.022-0.024,0.037-0.046,0.038c-0.925,0.012-1.813,0.49-2.345,1.236c-0.249,0.381-0.437,0.81-0.481,1.265
				c-0.065,0.447-0.014,0.927-0.017,1.392l0.09,5.612l0.008,0.702c0.023,0.189,0.036,0.464,0.087,0.667
				c0.121,0.39,0.288,0.812,0.596,1.124c0.274,0.337,0.647,0.575,1.035,0.761c0.415,0.153,0.82,0.218,1.294,0.213l5.612,0.04
				l5.613,0.051c0.446,0.016,0.936-0.049,1.337-0.198c0.407-0.184,0.805-0.428,1.09-0.783c0.319-0.328,0.498-0.762,0.626-1.196
				c0.094-0.442,0.096-0.911,0.094-1.38l0.015-5.612c0.014-0.925,0.05-1.912-0.529-2.671c-0.539-0.75-1.437-1.226-2.364-1.234
				C67.271,78.873,67.255,78.856,67.255,78.836z M67.329,78.804c0.938,0.018,1.846,0.496,2.394,1.256
				c0.261,0.39,0.461,0.844,0.511,1.313c0.069,0.463,0.03,0.942,0.042,1.406l0.015,5.612c0.011,0.464,0.021,0.938-0.068,1.414
				c-0.124,0.459-0.306,0.921-0.636,1.277c-0.297,0.383-0.711,0.653-1.147,0.859c-0.478,0.18-0.924,0.244-1.414,0.242l-5.613,0.051
				l-5.612,0.04c-0.464,0.014-0.993-0.052-1.458-0.227c-0.455-0.205-0.894-0.48-1.201-0.882c-0.343-0.372-0.535-0.847-0.666-1.349
				c-0.05-0.251-0.052-0.449-0.075-0.723l0.008-0.702l0.09-5.612c0.009-0.908-0.021-1.95,0.585-2.732
				c0.563-0.773,1.496-1.257,2.451-1.258l-0.049,0.049c-0.129-0.568-0.095-1.136-0.092-1.704l0.021-1.704
				c0.001-0.567,0.004-1.135,0.091-1.712c0.018-0.583,0.276-1.119,0.45-1.661c0.283-0.502,0.534-1.022,0.942-1.434
				c0.34-0.468,0.836-0.78,1.274-1.139c0.502-0.274,0.991-0.576,1.559-0.704c0.542-0.222,1.113-0.194,1.684-0.273
				c0.564,0.079,1.15,0.053,1.686,0.275c0.564,0.127,1.054,0.429,1.556,0.703c0.44,0.357,0.932,0.676,1.263,1.148
				c0.402,0.415,0.646,0.938,0.919,1.439c0.166,0.542,0.416,1.082,0.425,1.653c0.079,0.563,0.076,1.139,0.07,1.704L67.329,78.804z"
				/>
		</g>
		<g>
			<path fill="#525252" d="M64.352,78.939l-5.879-0.062c-0.022,0-0.041-0.019-0.041-0.041l0.006-2.255
				c-0.002-0.754-0.023-1.499-0.009-2.26c0.023-0.187,0.021-0.375,0.065-0.561c0.06-0.183,0.102-0.376,0.178-0.552
				c0.094-0.167,0.172-0.345,0.279-0.503c0.124-0.146,0.235-0.306,0.37-0.442c0.151-0.119,0.286-0.26,0.444-0.371
				c0.169-0.093,0.332-0.202,0.508-0.283c0.185-0.059,0.366-0.134,0.555-0.187l0.599-0.083l0.563,0.033
				c0.193,0.037,0.395,0.098,0.594,0.151c0.189,0.072,0.359,0.178,0.54,0.268c0.169,0.108,0.319,0.245,0.479,0.368
				c0.147,0.137,0.265,0.305,0.394,0.459c0.111,0.167,0.198,0.352,0.291,0.53c0.143,0.378,0.223,0.773,0.224,1.173
				c0.008,0.387-0.024,0.755-0.029,1.133l-0.013,1.128l-0.015,2.255c0,0.056-0.045,0.103-0.102,0.103H64.352z M64.248,78.734
				l-0.015-2.153c-0.008-0.749-0.008-1.51-0.063-2.249c-0.028-0.355-0.126-0.694-0.271-1.012c-0.094-0.147-0.163-0.309-0.263-0.45
				c-0.116-0.129-0.219-0.271-0.338-0.397c-0.134-0.109-0.259-0.235-0.4-0.335c-0.153-0.083-0.303-0.179-0.457-0.255
				c-0.161-0.053-0.315-0.121-0.485-0.172l-0.559-0.08l-0.523,0.03c-0.176,0.033-0.349,0.088-0.524,0.136
				c-0.168,0.066-0.325,0.16-0.49,0.239c-0.152,0.098-0.292,0.219-0.436,0.332c-0.131,0.127-0.239,0.277-0.36,0.415
				c-0.104,0.15-0.182,0.318-0.275,0.477c-0.074,0.166-0.115,0.344-0.177,0.516c-0.047,0.177-0.048,0.371-0.074,0.556
				c-0.026,0.74-0.019,1.5-0.029,2.249l0.006,2.255l-0.041-0.041L64.248,78.734z"/>
		</g>
		<g>
			<path fill="#525252" d="M62.248,86.008c-0.03,0.58-0.05,1.16-0.046,1.74v0.447c0.01,0.147-0.015,0.318-0.041,0.455
				c-0.06,0.135-0.143,0.32-0.283,0.402c-0.122,0.126-0.297,0.149-0.466,0.193c-0.199-0.031-0.303-0.007-0.488-0.14
				c-0.181-0.093-0.265-0.258-0.341-0.416c-0.044-0.182-0.066-0.356-0.053-0.495l0.006-0.447c0.014-0.596,0.038-1.192,0.088-1.789
				l0.026,0.045c-0.123-0.109-0.277-0.184-0.371-0.321c-0.107-0.125-0.203-0.257-0.257-0.415c-0.086-0.144-0.091-0.312-0.118-0.474
				c-0.014-0.173-0.002-0.319,0.045-0.483c0.08-0.326,0.272-0.613,0.539-0.812c0.13-0.099,0.276-0.188,0.435-0.234
				c0.156-0.061,0.321-0.079,0.488-0.102c0.176,0.012,0.318-0.003,0.5,0.053c0.175,0.039,0.333,0.112,0.475,0.214
				c0.146,0.098,0.267,0.228,0.371,0.37c0.087,0.153,0.172,0.308,0.202,0.482c0.044,0.172,0.051,0.337,0.026,0.524
				c-0.035,0.156-0.038,0.312-0.134,0.474c-0.061,0.17-0.161,0.306-0.273,0.433C62.491,85.836,62.362,85.913,62.248,86.008z
				 M62.094,85.87c0.114-0.092,0.261-0.155,0.344-0.281c0.1-0.114,0.19-0.231,0.231-0.368c0.07-0.118,0.072-0.289,0.088-0.445
				c0-0.124-0.021-0.288-0.072-0.416c-0.041-0.138-0.115-0.26-0.186-0.383c-0.094-0.108-0.175-0.224-0.291-0.312
				c-0.108-0.085-0.232-0.182-0.362-0.227c-0.116-0.064-0.294-0.093-0.435-0.113c-0.149,0.009-0.304,0.005-0.446,0.064
				c-0.146,0.039-0.282,0.119-0.403,0.208c-0.248,0.175-0.435,0.446-0.511,0.736c-0.047,0.136-0.064,0.319-0.053,0.457
				c0.023,0.151,0.023,0.31,0.104,0.446c0.049,0.149,0.146,0.27,0.248,0.385c0.09,0.127,0.239,0.193,0.354,0.293l0.006,0.004
				c0.012,0.011,0.02,0.026,0.021,0.041c0.05,0.597,0.074,1.193,0.088,1.789l0.006,0.447c-0.009,0.162,0.023,0.28,0.048,0.39
				c0.054,0.093,0.106,0.229,0.198,0.27c0.042,0.081,0.252,0.113,0.342,0.149c0.12-0.023,0.259-0.009,0.364-0.096
				c0.133-0.052,0.186-0.167,0.257-0.283c0.041-0.154,0.071-0.276,0.059-0.429v-0.447c0.004-0.596-0.016-1.193-0.048-1.789
				c-0.001-0.03,0.012-0.057,0.033-0.075L62.094,85.87z"/>
		</g>
	</g>
</g>
<g>
	<g>
		<polygon fill="#E3E3E3" stroke="#808285" stroke-width="0.3834" stroke-miterlimit="10" points="83,184.55 25.912,184.55 
			25.912,106.016 70.888,106.016 83,106.016 83,119.276 		"/>
		<polygon fill="#F4F4F4" stroke="#808285" stroke-width="0.3834" stroke-miterlimit="10" points="78.611,189.207 21.522,189.207 
			21.522,110.675 66.499,110.675 78.611,110.675 78.611,123.935 		"/>
		<polygon fill="#FFFFFF" stroke="#808285" stroke-width="0.3834" stroke-miterlimit="10" points="74.089,129.271 74.089,193.984 
			17,193.984 17,115.45 60.538,115.45 		"/>
		<polygon fill="#F0F0F0" stroke="#808285" stroke-width="0.3834" stroke-miterlimit="10" points="74.089,129.271 60.538,129.271 
			60.538,115.45 		"/>
		<rect x="26.034" y="139.868" fill="#CBC9C9" width="39.936" height="0.729"/>
		<rect x="26.034" y="134.207" fill="#CBC9C9" width="39.936" height="2.567"/>
		<rect x="26.034" y="142.562" fill="#CBC9C9" width="39.936" height="0.729"/>
		<rect x="26.034" y="145.276" fill="#CBC9C9" width="19.968" height="0.729"/>
		<rect x="26.034" y="147.991" fill="#CBC9C9" width="39.936" height="0.729"/>
		<rect x="26.034" y="150.708" fill="#CBC9C9" width="39.936" height="0.728"/>
		<rect x="26.034" y="153.422" fill="#CBC9C9" width="19.968" height="0.729"/>
		<rect x="26.034" y="156.139" fill="#CBC9C9" width="30.88" height="0.727"/>
		<rect x="26.034" y="158.852" fill="#CBC9C9" width="30.88" height="0.729"/>
		<rect x="26.034" y="161.566" fill="#CBC9C9" width="39.936" height="0.73"/>
		<rect x="26.034" y="164.282" fill="#CBC9C9" width="39.936" height="0.729"/>
		<rect x="26.034" y="167.266" fill="#CBC9C9" width="19.51" height="0.728"/>
	</g>
	<g>
		<polygon fill="none" stroke="#414042" stroke-width="0.3241" stroke-miterlimit="10" points="65.407,189.108 47.146,183.021 
			59.321,170.847 		"/>
		<circle fill="#2E698E" cx="47.146" cy="183.021" r="2.381"/>
		<circle fill="#2E698E" cx="59.321" cy="170.847" r="2.382"/>
		<circle fill="#2E698E" cx="65.408" cy="189.108" r="2.382"/>
	</g>
</g>
<g>
	<g>
		<polygon fill="#E3E3E3" stroke="#808285" stroke-width="0.3834" stroke-miterlimit="10" points="83,284.55 25.912,284.55 
			25.912,206.016 70.888,206.016 83,206.016 83,219.276 		"/>
		<polygon fill="#F4F4F4" stroke="#808285" stroke-width="0.3834" stroke-miterlimit="10" points="78.611,289.207 21.522,289.207 
			21.522,210.674 66.499,210.674 78.611,210.674 78.611,223.934 		"/>
		<polygon fill="#FFFFFF" stroke="#808285" stroke-width="0.3834" stroke-miterlimit="10" points="74.089,229.27 74.089,293.984 
			17,293.984 17,215.451 60.538,215.451 		"/>
		<polygon fill="#F0F0F0" stroke="#808285" stroke-width="0.3834" stroke-miterlimit="10" points="74.089,229.27 60.538,229.27 
			60.538,215.451 		"/>
		<rect x="26.034" y="239.869" fill="#CBC9C9" width="39.936" height="0.728"/>
		<rect x="26.034" y="234.207" fill="#CBC9C9" width="39.936" height="2.568"/>
		<rect x="26.034" y="242.563" fill="#CBC9C9" width="39.936" height="0.729"/>
		<rect x="26.034" y="245.277" fill="#CBC9C9" width="19.968" height="0.729"/>
		<rect x="26.034" y="247.992" fill="#CBC9C9" width="39.936" height="0.728"/>
		<rect x="26.034" y="250.707" fill="#CBC9C9" width="39.936" height="0.729"/>
		<rect x="26.034" y="253.422" fill="#CBC9C9" width="19.968" height="0.729"/>
		<rect x="26.034" y="256.139" fill="#CBC9C9" width="30.88" height="0.727"/>
		<rect x="26.034" y="258.852" fill="#CBC9C9" width="30.88" height="0.729"/>
		<rect x="26.034" y="261.566" fill="#CBC9C9" width="39.936" height="0.73"/>
		<rect x="26.034" y="264.282" fill="#CBC9C9" width="39.936" height="0.729"/>
		<rect x="26.034" y="267.266" fill="#CBC9C9" width="19.51" height="0.728"/>
	</g>
	<g>
		<circle fill="#00A651" cx="60.041" cy="280.919" r="9.77"/>
		<path fill="#FFFFFF" d="M59.117,286.193c-0.494,0.083-1.014-0.036-1.431-0.376l-3.125-2.533c-0.769-0.62-0.89-1.753-0.264-2.524
			c0.626-0.77,1.754-0.886,2.526-0.263l1.765,1.429l4.146-4.866c0.641-0.754,1.772-0.844,2.529-0.201
			c0.755,0.644,0.845,1.778,0.201,2.532l-5.282,6.198C59.898,285.922,59.518,286.125,59.117,286.193z"/>
	</g>
</g>
</svg>
