<?xml version="1.0" encoding="utf-8"?>
<!-- Generator: Adobe Illustrator 16.0.0, SVG Export Plug-In . SVG Version: 6.00 Build 0)  -->
<!DOCTYPE svg PUBLIC "-//W3C//DTD SVG 1.1//EN" "http://www.w3.org/Graphics/SVG/1.1/DTD/svg11.dtd">
<svg version="1.1" id="Layer_1" xmlns="http://www.w3.org/2000/svg" xmlns:xlink="http://www.w3.org/1999/xlink" x="0px" y="0px"
	 width="60px" height="150px" viewBox="0 0 60 150" enable-background="new 0 0 60 150" xml:space="preserve">
<g>
	<g>
		<path fill="#606772" d="M15,12.5c-2.071,0-3.75,1.68-3.75,3.75c0,2.071,1.679,3.75,3.75,3.75c2.07,0,3.75-1.679,3.75-3.75
			C18.75,14.18,17.07,12.5,15,12.5z M25,8.75h-3c-0.412,0-0.857-0.32-0.986-0.711l-0.775-2.327C20.105,5.32,19.662,5,19.25,5h-8.5
			c-0.413,0-0.857,0.32-0.987,0.711L8.987,8.039C8.856,8.43,8.413,8.75,8,8.75H5c-1.375,0-2.5,1.125-2.5,2.5V22.5
			C2.5,23.875,3.625,25,5,25h20c1.375,0,2.5-1.125,2.5-2.5V11.25C27.5,9.875,26.375,8.75,25,8.75z M15,22.5
			c-3.452,0-6.25-2.798-6.25-6.25S11.548,10,15,10c3.451,0,6.25,2.798,6.25,6.25S18.451,22.5,15,22.5z M24.125,12.998
			c-0.482,0-0.875-0.391-0.875-0.875c0-0.483,0.393-0.875,0.875-0.875S25,11.64,25,12.123C25,12.607,24.607,12.998,24.125,12.998z"
			/>
	</g>
</g>
<g id="Settings">
	<g>
		<path fill="#606772" d="M27.422,43.611c-0.039-0.352-0.448-0.616-0.804-0.616c-1.146,0-2.162-0.672-2.59-1.713
			c-0.437-1.065-0.153-2.309,0.7-3.093c0.271-0.246,0.301-0.657,0.076-0.942c-0.588-0.745-1.254-1.417-1.98-2
			c-0.284-0.229-0.702-0.197-0.949,0.077c-0.745,0.825-2.084,1.132-3.12,0.701c-1.075-0.453-1.755-1.543-1.688-2.714
			c0.022-0.368-0.245-0.687-0.611-0.73c-0.937-0.108-1.875-0.111-2.812-0.007c-0.362,0.04-0.631,0.352-0.62,0.715
			c0.041,1.159-0.646,2.23-1.712,2.667c-1.021,0.417-2.352,0.113-3.095-0.706c-0.246-0.27-0.657-0.302-0.943-0.079
			c-0.749,0.587-1.431,1.262-2.022,2c-0.23,0.287-0.197,0.703,0.075,0.95c0.871,0.789,1.151,2.042,0.699,3.121
			c-0.432,1.027-1.5,1.689-2.72,1.689c-0.396-0.013-0.679,0.253-0.722,0.614c-0.11,0.939-0.111,1.896-0.005,2.843
			c0.039,0.354,0.461,0.615,0.819,0.615c1.09-0.027,2.135,0.647,2.574,1.713c0.437,1.064,0.156,2.308-0.7,3.091
			c-0.267,0.246-0.301,0.656-0.076,0.942c0.581,0.74,1.247,1.413,1.978,2.001c0.286,0.23,0.703,0.198,0.951-0.075
			c0.749-0.827,2.086-1.134,3.118-0.7c1.079,0.45,1.758,1.542,1.691,2.713c-0.021,0.367,0.25,0.688,0.613,0.729
			c0.478,0.056,0.958,0.083,1.44,0.083c0.458,0,0.915-0.023,1.374-0.076c0.361-0.039,0.632-0.352,0.62-0.715
			c-0.043-1.158,0.646-2.231,1.709-2.667c1.029-0.42,2.354-0.113,3.099,0.705c0.247,0.269,0.655,0.302,0.942,0.079
			c0.748-0.587,1.428-1.261,2.021-2c0.229-0.285,0.198-0.703-0.073-0.949c-0.87-0.789-1.153-2.042-0.7-3.121
			c0.424-1.014,1.452-1.694,2.558-1.694l0.153,0.004c0.356,0.03,0.688-0.249,0.729-0.612C27.525,45.515,27.527,44.559,27.422,43.611
			z M15.018,49.195c-2.299,0-4.169-1.869-4.169-4.168c0-2.3,1.87-4.171,4.169-4.171c2.299,0,4.17,1.871,4.17,4.171
			C19.188,47.327,17.317,49.195,15.018,49.195z"/>
	</g>
</g>
<g>
	<g>
		<path fill="#606772" d="M4.477,67.284l9.005,7.133c0.409,0.323,0.971,0.467,1.518,0.438c0.546,0.027,1.109-0.114,1.516-0.438
			l9.006-7.133c0.724-0.567,0.561-1.034-0.354-1.034H15H4.837C3.92,66.25,3.757,66.717,4.477,67.284z"/>
		<path fill="#606772" d="M26.172,69.166l-9.841,7.473c-0.368,0.275-0.849,0.41-1.33,0.404c-0.481,0.006-0.963-0.131-1.331-0.404
			l-9.842-7.473c-0.73-0.555-1.328-0.257-1.328,0.66v12.258C2.5,83,3.25,83.75,4.167,83.75H15h10.833
			c0.917,0,1.667-0.75,1.667-1.666V69.826C27.5,68.909,26.902,68.611,26.172,69.166z"/>
	</g>
</g>
<g>
	<path fill="#606772" d="M14.478,108.166h-1.041c-0.541,0-0.979-0.438-0.979-0.979c0-0.199,0.08-0.395,0.224-0.531
		c0.606-0.59,1.115-1.383,1.485-2.236c0.075,0.057,0.154,0.098,0.246,0.098c0.584,0,1.274-1.293,1.274-2.176
		c0-0.881-0.084-1.596-0.668-1.596c-0.069,0-0.143,0.014-0.218,0.031c-0.042-2.393-0.646-5.371-4.293-5.371
		c-3.807,0-4.25,2.977-4.294,5.363c-0.054-0.012-0.107-0.023-0.157-0.023c-0.585,0-0.666,0.715-0.666,1.596
		c0,0.883,0.687,2.176,1.271,2.176c0.073,0,0.14-0.021,0.203-0.059c0.367,0.842,0.87,1.617,1.467,2.201
		c0.144,0.139,0.224,0.328,0.224,0.531c0,0.539-0.438,0.979-0.978,0.979H6.534c-2.229,0-4.034,1.807-4.034,4.033v1.119
		c0,0.703,0.57,1.271,1.274,1.271h13.464c0.703,0,1.271-0.568,1.271-1.271v-1.119C18.512,109.975,16.705,108.166,14.478,108.166z"/>
	<path fill="#606772" d="M26.559,97.098H15.266c0.326,0.721,0.561,1.607,0.656,2.707c0.241,0.148,0.422,0.389,0.568,0.68h10.066
		c0.522,0,0.941-0.424,0.941-0.943v-1.5C27.5,97.521,27.081,97.098,26.559,97.098z"/>
	<path fill="#606772" d="M26.559,103.268h-9.838c-0.265,1.008-0.922,2.063-1.833,2.344c-0.026,0.051-0.058,0.094-0.085,0.145v0.896
		h11.751c0.522,0,0.944-0.422,0.944-0.945v-1.496C27.5,103.689,27.081,103.268,26.559,103.268z"/>
	<path fill="#606772" d="M26.559,109.436h-7.68c0.508,0.803,0.805,1.748,0.805,2.766v0.621h6.875c0.522,0,0.941-0.422,0.941-0.943
		v-1.498C27.5,109.857,27.081,109.436,26.559,109.436z"/>
</g>
<g>
	<path fill="#606772" d="M27.5,125.301c0-1.059-0.857-1.917-1.917-1.917H4.417c-1.058,0-1.917,0.858-1.917,1.917
		c0,0.992,0.757,1.799,1.723,1.896v9.861c0,0.756,0.613,1.369,1.369,1.369h8.039v1.43l-3.875,3.875
		c-0.535,0.535-0.535,1.401,0,1.936c0.536,0.535,1.402,0.536,1.936,0l1.939-1.939v1.52c0,0.756,0.613,1.369,1.369,1.369
		s1.369-0.613,1.369-1.369v-1.52l1.939,1.939c0.267,0.268,0.617,0.4,0.969,0.4s0.699-0.135,0.969-0.4c0.535-0.535,0.535-1.4,0-1.936
		l-3.877-3.875v-1.43h8.039c0.757,0,1.369-0.613,1.369-1.369v-9.861C26.743,127.098,27.5,126.292,27.5,125.301z"/>
</g>
<g>
	<g>
		<path fill="#FFFFFF" d="M45,12.5c-2.07,0-3.75,1.68-3.75,3.75c0,2.071,1.68,3.75,3.75,3.75s3.75-1.679,3.75-3.75
			C48.75,14.18,47.07,12.5,45,12.5z M55,8.75h-3c-0.412,0-0.857-0.32-0.986-0.711l-0.775-2.327C50.105,5.32,49.662,5,49.25,5h-8.5
			c-0.413,0-0.857,0.32-0.986,0.711l-0.777,2.328C38.855,8.43,38.413,8.75,38,8.75h-3c-1.375,0-2.5,1.125-2.5,2.5V22.5
			c0,1.375,1.125,2.5,2.5,2.5h20c1.375,0,2.5-1.125,2.5-2.5V11.25C57.5,9.875,56.375,8.75,55,8.75z M45,22.5
			c-3.452,0-6.25-2.798-6.25-6.25S41.548,10,45,10c3.451,0,6.25,2.798,6.25,6.25S48.451,22.5,45,22.5z M54.125,12.998
			c-0.482,0-0.875-0.391-0.875-0.875c0-0.483,0.393-0.875,0.875-0.875S55,11.64,55,12.123C55,12.607,54.607,12.998,54.125,12.998z"
			/>
	</g>
</g>
<g id="Settings_1_">
	<g>
		<path fill="#FFFFFF" d="M57.422,43.612c-0.039-0.353-0.447-0.616-0.803-0.616c-1.146,0-2.162-0.672-2.591-1.713
			c-0.437-1.065-0.153-2.309,0.7-3.093c0.27-0.246,0.301-0.657,0.076-0.942c-0.589-0.745-1.255-1.417-1.98-2
			c-0.284-0.229-0.702-0.197-0.949,0.077c-0.745,0.825-2.084,1.132-3.119,0.701c-1.076-0.453-1.756-1.544-1.689-2.715
			c0.023-0.368-0.244-0.687-0.61-0.729c-0.937-0.108-1.875-0.111-2.812-0.007c-0.362,0.04-0.632,0.352-0.62,0.715
			c0.041,1.159-0.646,2.229-1.712,2.667c-1.021,0.417-2.352,0.113-3.096-0.705c-0.246-0.271-0.656-0.302-0.943-0.079
			c-0.748,0.587-1.431,1.262-2.022,1.999c-0.229,0.287-0.196,0.703,0.076,0.95c0.87,0.789,1.151,2.043,0.698,3.121
			c-0.432,1.026-1.499,1.688-2.72,1.688c-0.396-0.013-0.68,0.254-0.723,0.614c-0.109,0.939-0.11,1.896-0.004,2.844
			c0.039,0.354,0.461,0.615,0.818,0.615c1.09-0.027,2.135,0.646,2.574,1.713c0.437,1.063,0.155,2.308-0.7,3.091
			c-0.267,0.245-0.301,0.655-0.075,0.941c0.58,0.74,1.247,1.413,1.978,2.002c0.286,0.229,0.703,0.198,0.951-0.075
			c0.749-0.827,2.086-1.135,3.117-0.7c1.08,0.45,1.758,1.541,1.691,2.713c-0.021,0.367,0.25,0.688,0.613,0.729
			c0.479,0.056,0.958,0.083,1.44,0.083c0.458,0,0.915-0.023,1.374-0.076c0.361-0.039,0.633-0.353,0.619-0.715
			c-0.043-1.158,0.646-2.231,1.709-2.668c1.029-0.42,2.354-0.113,3.1,0.705c0.247,0.269,0.655,0.302,0.942,0.079
			c0.748-0.587,1.428-1.261,2.021-2.001c0.23-0.285,0.199-0.703-0.072-0.949c-0.87-0.789-1.153-2.042-0.7-3.12
			c0.425-1.014,1.452-1.694,2.558-1.694l0.154,0.004c0.355,0.03,0.688-0.248,0.729-0.612C57.525,45.516,57.527,44.56,57.422,43.612z
			 M45.018,49.196c-2.299,0-4.169-1.868-4.169-4.168c0-2.301,1.87-4.172,4.169-4.172s4.17,1.871,4.17,4.172
			C49.188,47.328,47.316,49.196,45.018,49.196z"/>
	</g>
</g>
<g>
	<g>
		<path fill="#FFFFFF" d="M34.478,67.284l9.005,7.133c0.408,0.323,0.971,0.467,1.518,0.438c0.546,0.027,1.109-0.114,1.516-0.438
			l9.006-7.133c0.724-0.567,0.561-1.034-0.354-1.034H45H34.837C33.92,66.25,33.757,66.717,34.478,67.284z"/>
		<path fill="#FFFFFF" d="M56.172,69.166l-9.841,7.473c-0.368,0.275-0.849,0.41-1.33,0.404c-0.481,0.006-0.963-0.131-1.331-0.404
			l-9.842-7.473c-0.729-0.555-1.328-0.257-1.328,0.66v12.258c0,0.916,0.75,1.666,1.667,1.666H45h10.833
			c0.917,0,1.667-0.75,1.667-1.666V69.826C57.5,68.909,56.902,68.611,56.172,69.166z"/>
	</g>
</g>
<g>
	<path fill="#FFFFFF" d="M44.479,108.166h-1.041c-0.541,0-0.979-0.438-0.979-0.979c0-0.199,0.08-0.395,0.224-0.531
		c0.606-0.59,1.115-1.383,1.485-2.236c0.075,0.057,0.153,0.098,0.246,0.098c0.584,0,1.274-1.293,1.274-2.176
		c0-0.881-0.084-1.596-0.668-1.596c-0.069,0-0.143,0.014-0.218,0.031c-0.042-2.393-0.646-5.371-4.293-5.371
		c-3.807,0-4.25,2.977-4.294,5.363c-0.054-0.012-0.107-0.023-0.156-0.023c-0.585,0-0.667,0.715-0.667,1.596
		c0,0.883,0.688,2.176,1.271,2.176c0.073,0,0.14-0.021,0.203-0.059c0.366,0.842,0.87,1.617,1.467,2.201
		c0.144,0.139,0.224,0.328,0.224,0.531c0,0.539-0.438,0.979-0.978,0.979h-1.045c-2.229,0-4.034,1.807-4.034,4.033v1.119
		c0,0.703,0.569,1.271,1.274,1.271h13.464c0.703,0,1.271-0.568,1.271-1.271v-1.119C48.512,109.975,46.705,108.166,44.479,108.166z"
		/>
	<path fill="#FFFFFF" d="M56.559,97.098H45.266c0.326,0.721,0.561,1.607,0.656,2.707c0.241,0.148,0.422,0.389,0.568,0.68h10.066
		c0.522,0,0.941-0.424,0.941-0.943v-1.5C57.5,97.521,57.081,97.098,56.559,97.098z"/>
	<path fill="#FFFFFF" d="M56.559,103.268h-9.838c-0.265,1.008-0.922,2.063-1.832,2.344c-0.027,0.051-0.059,0.094-0.086,0.145v0.896
		h11.752c0.522,0,0.944-0.422,0.944-0.945v-1.496C57.5,103.689,57.081,103.268,56.559,103.268z"/>
	<path fill="#FFFFFF" d="M56.559,109.436h-7.68c0.508,0.803,0.805,1.748,0.805,2.766v0.621h6.875c0.522,0,0.941-0.422,0.941-0.943
		v-1.498C57.5,109.857,57.081,109.436,56.559,109.436z"/>
</g>
<g>
	<path fill="#FFFFFF" d="M57.5,125.301c0-1.059-0.857-1.918-1.917-1.918H34.417c-1.059,0-1.917,0.859-1.917,1.918
		c0,0.992,0.757,1.799,1.724,1.896v9.861c0,0.756,0.612,1.369,1.368,1.369h8.039v1.43l-3.875,3.875c-0.535,0.535-0.535,1.4,0,1.936
		c0.536,0.535,1.402,0.535,1.936,0l1.939-1.939v1.52c0,0.756,0.613,1.369,1.369,1.369s1.369-0.613,1.369-1.369v-1.52l1.939,1.939
		c0.267,0.268,0.617,0.4,0.969,0.4s0.699-0.135,0.969-0.4c0.535-0.535,0.535-1.4,0-1.936l-3.877-3.875v-1.43h8.039
		c0.757,0,1.369-0.613,1.369-1.369v-9.861C56.743,127.098,57.5,126.291,57.5,125.301z"/>
</g>
</svg>
