<?xml version="1.0" encoding="utf-8"?>
<!-- Generator: Adobe Illustrator 16.0.0, SVG Export Plug-In . SVG Version: 6.00 Build 0)  -->
<!DOCTYPE svg PUBLIC "-//W3C//DTD SVG 1.1//EN" "http://www.w3.org/Graphics/SVG/1.1/DTD/svg11.dtd">
<svg version="1.1" id="Layer_1" xmlns="http://www.w3.org/2000/svg" xmlns:xlink="http://www.w3.org/1999/xlink" x="0px" y="0px"
	 width="50px" height="150px" viewBox="0 0 50 150" enable-background="new 0 0 50 150" xml:space="preserve">
<g>
	<path fill="#5E6570" d="M24.946,29.133c-6.262,0-11.336-6.083-11.336-13.58C13.61,8.057,18.684,2.5,24.946,2.5
		c6.264,0,11.342,5.557,11.342,13.053C36.288,23.051,31.21,29.133,24.946,29.133z M7.312,47.491c0,0-2.404,0.159-3.463-1.301
		c-0.572-0.787-0.173-2.385,0.218-3.276l0.958-2.185c0,0,2.651-5.927,5.668-9.363c1.854-2.106,4.058-1.626,5.484-0.941
		c0.878,0.421,1.871,1.648,2.597,2.3c1,0.897,2.765,1.916,5.651,1.973h1.77c2.885-0.057,4.649-1.076,5.649-1.973
		c0.725-0.651,1.689-1.917,2.561-2.353c1.309-0.655,3.301-1.059,5.105,0.994c3.019,3.436,5.409,9.471,5.409,9.471l0.981,2.142
		c0.407,0.886,0.823,2.475,0.267,3.274c-0.993,1.428-3.223,1.238-3.223,1.238H7.312z"/>
</g>
<g id="Settings">
	<g>
		<path fill="#5E6570" d="M47.358,72.502c-0.071-0.633-0.809-1.108-1.445-1.108c-2.062,0-3.893-1.211-4.66-3.083
			c-0.784-1.917-0.278-4.154,1.259-5.564c0.483-0.442,0.542-1.183,0.137-1.697c-1.056-1.34-2.255-2.55-3.564-3.6
			c-0.514-0.412-1.266-0.354-1.711,0.138c-1.341,1.485-3.749,2.037-5.61,1.261c-1.938-0.815-3.159-2.778-3.04-4.885
			c0.039-0.663-0.444-1.238-1.104-1.314c-1.681-0.194-3.377-0.201-5.062-0.014c-0.652,0.072-1.136,0.634-1.114,1.288
			c0.074,2.086-1.163,4.015-3.081,4.801c-1.839,0.751-4.231,0.204-5.57-1.269c-0.442-0.485-1.183-0.544-1.698-0.143
			c-1.348,1.058-2.575,2.27-3.64,3.599c-0.416,0.517-0.354,1.266,0.134,1.71c1.566,1.418,2.072,3.674,1.258,5.614
			c-0.777,1.849-2.697,3.042-4.896,3.042c-0.713-0.023-1.222,0.456-1.299,1.104c-0.198,1.69-0.201,3.412-0.01,5.118
			c0.07,0.634,0.831,1.105,1.475,1.105c1.959-0.05,3.84,1.163,4.63,3.083c0.787,1.918,0.281,4.153-1.258,5.564
			c-0.482,0.442-0.543,1.182-0.137,1.695c1.045,1.332,2.245,2.544,3.559,3.601c0.516,0.416,1.266,0.357,1.712-0.135
			c1.346-1.49,3.755-2.04,5.609-1.263c1.942,0.813,3.164,2.775,3.044,4.885c-0.039,0.661,0.447,1.238,1.104,1.313
			c0.859,0.101,1.725,0.15,2.592,0.15c0.824,0,1.646-0.046,2.471-0.137c0.652-0.072,1.136-0.634,1.112-1.289
			c-0.074-2.085,1.164-4.013,3.08-4.798c1.851-0.757,4.232-0.203,5.572,1.269c0.444,0.483,1.18,0.541,1.698,0.142
			c1.346-1.056,2.569-2.266,3.64-3.6c0.415-0.515,0.355-1.266-0.135-1.709c-1.566-1.418-2.074-3.675-1.261-5.614
			c0.765-1.824,2.614-3.05,4.603-3.05l0.279,0.008c0.646,0.053,1.237-0.445,1.316-1.103C47.547,75.926,47.549,74.206,47.358,72.502z
			 M25.036,82.553c-4.139,0-7.505-3.366-7.505-7.505c0-4.138,3.366-7.505,7.505-7.505c4.138,0,7.505,3.367,7.505,7.505
			C32.541,79.187,29.174,82.553,25.036,82.553z"/>
	</g>
</g>
<g>
	<path fill="#5E6570" d="M34.021,112.789v-7.587c0-1.209-0.99-2.199-2.199-2.199H4.699c-1.209,0-2.199,0.99-2.199,2.199v1.43v28.662
		v0.989c0,0.807,0.477,1.576,1.173,1.942l16.713,8.65c0.733,0.367,1.613-0.146,1.613-0.989v-8.43h9.823
		c1.209,0,2.199-0.99,2.199-2.199v-12.022h-4.398v8.724c0,0.623-0.477,1.1-1.1,1.1h-6.488V121.77v-7.147v-0.22
		c0-0.807-0.477-1.576-1.172-1.942l-9.86-5.059h17.52c0.623,0,1.1,0.477,1.1,1.1v4.325h4.398V112.789z"/>
	<path fill="#5E6570" d="M39.666,109.196l7.146,7.147c0.917,0.916,0.917,2.272,0,3.189l-7.146,7.146
		c-0.917,0.917-2.31,0.954-3.227,0.037c-0.879-0.879-0.77-2.346,0.074-3.226l3.225-3.188H27.24c-0.623,0-1.246-0.256-1.649-0.732
		c-1.026-1.1-0.77-3.043,0.55-3.775c0.33-0.184,0.733-0.294,1.1-0.294h12.499c0,0-3.188-3.188-3.226-3.188
		c-0.844-0.843-0.953-2.346-0.073-3.188C37.319,108.244,38.749,108.28,39.666,109.196z"/>
</g>
</svg>
