<?xml version="1.0" encoding="utf-8"?>
<!-- Generator: Adobe Illustrator 16.0.0, SVG Export Plug-In . SVG Version: 6.00 Build 0)  -->
<!DOCTYPE svg PUBLIC "-//W3C//DTD SVG 1.1//EN" "http://www.w3.org/Graphics/SVG/1.1/DTD/svg11.dtd">
<svg version="1.1" id="Layer_1" xmlns="http://www.w3.org/2000/svg" xmlns:xlink="http://www.w3.org/1999/xlink" x="0px" y="0px"
	 width="200px" height="200px" viewBox="0 0 200 200" enable-background="new 0 0 200 200" xml:space="preserve">
<g>
	<path fill="#BF2026" d="M111.593,42.753l-2.036-2.036l-7.268,7.268c0.396,0.566,1.072,1.301,1.951,2.178
		c2.545,2.545,5.826,3.959,8.597,1.188C115.438,48.75,114.279,45.439,111.593,42.753z"/>
	<path fill="#BF2026" d="M162.955,78.62l-0.057-0.057c-1.414,0.849-2.885,1.697-4.412,2.487l-7.381,3.648l5.74,5.741l3.617-7.353
		C161.286,81.417,162.134,80.003,162.955,78.62z"/>
	<path fill="#BF2026" d="M120.98,42.021c2.232-2.235,1.414-4.809-1.073-7.297c-1.132-1.131-1.867-1.696-2.349-2.008l-6.139,6.137
		l2.232,2.233C116.259,43.688,119.145,43.855,120.98,42.021z"/>
	<path fill="#BF2026" d="M108.891,0H31.108L200,168.893V91.108L108.891,0z M109.98,56.188c-2.545-0.114-5.264-1.697-8.373-4.808
		c-1.694-1.697-2.885-3.111-3.59-4.044l18.75-18.75c1.301,0.849,3.168,2.376,4.893,4.101c2.46,2.461,3.619,4.468,3.846,6.618
		c0.256,1.724-0.281,3.449-1.781,4.948c-1.838,1.838-4.666,2.233-7.408,0.961l-0.058,0.057c1.357,2.263,1.979,5.883-0.848,8.71
		C113.77,55.622,111.875,56.214,109.98,56.188z M124.01,73.439L113.291,62.72l19.061-19.06l10.295,10.293l-2.062,2.064l-7.834-7.834
		l-6.021,6.024l7.406,7.408l-2.033,2.036l-7.41-7.409l-6.871,6.873l8.258,8.258L124.01,73.439z M133.768,83.199l-2.488-2.488
		l16.971-16.969l-5.797-5.797l2.093-2.093l14.108,14.112l-2.092,2.092l-5.826-5.825L133.768,83.199z M151.475,100.902l3.957-8.03
		l-6.759-6.76l-7.976,4.017l-2.545-2.545L163.689,75l2.969,2.97l-12.557,25.564L151.475,100.902z"/>
</g>
</svg>
