<?xml version="1.0" encoding="utf-8"?>
<!-- Generator: Adobe Illustrator 16.0.0, SVG Export Plug-In . SVG Version: 6.00 Build 0)  -->
<!DOCTYPE svg PUBLIC "-//W3C//DTD SVG 1.1//EN" "http://www.w3.org/Graphics/SVG/1.1/DTD/svg11.dtd">
<svg version="1.1" id="Layer_1" xmlns="http://www.w3.org/2000/svg" xmlns:xlink="http://www.w3.org/1999/xlink" x="0px" y="0px"
	 width="50px" height="300px" viewBox="0 0 50 300" enable-background="new 0 0 50 300" xml:space="preserve">
<g>
	<g>
		<path fill="#FFFFFF" d="M31.826,7.853c-0.082,0-0.153,0-0.225,0c-1.676,0-3.349,0.004-5.021-0.004
			c-0.185,0-0.234,0.051-0.234,0.238c0.004,3.722,0.004,7.448,0,11.17c0,0.189,0.052,0.236,0.238,0.233
			c1.671-0.007,3.344-0.004,5.021-0.004c0.063,0,0.137,0,0.221,0C31.826,15.601,31.826,11.739,31.826,7.853z"/>
		<path fill="#FFFFFF" d="M44.254,44.999c-12.836,0-25.674,0-38.513,0c-0.288-0.225-0.473-0.496-0.471-0.889
			C5.272,31.404,5.272,18.7,5.272,5.992c0-0.609,0.377-0.991,0.983-0.991c1.472,0,2.943,0,4.413,0c0.065,0,0.125,0,0.209,0
			c0,0.108,0,0.2,0,0.289c0,4.696,0,9.389,0.004,14.08c0,0.211,0,0.42,0.036,0.623c0.223,1.213,1.243,2.066,2.484,2.068
			c1.875,0.006,3.75,0.008,5.624,0.008c4.896,0.002,9.792,0.002,14.681,0c0.419,0,0.797-0.123,1.14-0.362
			c0.607-0.437,0.881-1.037,0.881-1.779c-0.004-4.881,0-9.763,0-14.645c0-0.092,0-0.178,0-0.265
			c0.048-0.009,0.061-0.017,0.082-0.017c0.96,0.002,1.919,0,2.889,0.006c0.067,0,0.154,0.053,0.21,0.106
			c1.88,1.872,3.75,3.747,5.625,5.617c0.139,0.137,0.2,0.275,0.2,0.473c-0.01,10.893-0.01,21.781,0,32.674
			C44.732,44.335,44.641,44.722,44.254,44.999z M10.881,43.544c9.412,0,18.794,0,28.193,0c0-0.099,0-0.189,0-0.278
			c0-5.292,0-10.584,0-15.875c0-0.098,0-0.196-0.004-0.294c-0.03-0.49-0.217-0.908-0.566-1.249
			c-0.414-0.395-0.911-0.526-1.467-0.526c-8.022,0.004-16.051,0.002-24.077,0.002c-0.084,0-0.173-0.011-0.254,0.004
			c-0.275,0.064-0.573,0.091-0.819,0.22c-0.7,0.363-1.012,0.972-1.012,1.76c0.005,5.337,0.005,10.672,0.005,16.011
			C10.881,43.388,10.881,43.461,10.881,43.544z"/>
		<path fill="#FFFFFF" d="M31.826,7.853c0,3.887,0,7.748,0,11.635c-0.082,0-0.153,0-0.221,0c-1.678,0-3.351-0.002-5.021,0.004
			c-0.187,0.002-0.238-0.044-0.238-0.233c0.004-3.722,0.004-7.449,0-11.17c0-0.187,0.05-0.237,0.234-0.237
			c1.673,0.009,3.346,0.004,5.021,0.004C31.673,7.853,31.744,7.853,31.826,7.853z"/>
	</g>
</g>
<g>
	<path fill="#FFFFFF" d="M45,77.462v-4.926l-5.973-2.466l-0.563-1.514l2.365-5.875l-3.698-3.511l-5.686,2.371l-1.521-0.664
		L27.461,55h-4.927l-2.738,6.026l-1.622,0.384l-5.494-2.242l-3.511,3.698l2.273,5.594l-0.471,1.611L5,72.538v4.926l5.971,2.466
		l0.566,1.611l-2.369,5.78l3.698,3.511l5.689-2.371l1.516,0.569L22.534,95h4.927l2.561-5.971l1.52-0.568l5.59,2.371l3.698-3.698
		l-2.365-5.782l0.473-1.236L45,77.462z M24.818,82.404c-4.193,0-7.593-3.4-7.593-7.593c0-4.196,3.4-7.593,7.593-7.593
		c4.197,0,7.593,3.397,7.593,7.593C32.413,79.004,29.015,82.404,24.818,82.404z"/>
</g>
<g>
	<g>
		<path fill="#FFFFFF" d="M11.559,110.004c0,0-1.189-0.488-1.013-1.858c0.178-1.367,1.166-1.445,1.166-1.445l10.635,1.649v-1.647
			c0,0,0.124-1.82,1.316-1.696c1.189,0.124,4.38,0.708,4.38,0.708s0.66,0.254,0.789,1.09c0.125,0.836-0.609,2.61-0.609,2.61
			l10.206,1.773c0,0,1.24,0.505,1.016,1.927c-0.23,1.417-1.676,1.368-1.676,1.368L11.559,110.004z"/>
		<path fill="#FFFFFF" d="M38.897,122.911c0.242-2.162,0.398-3.751,0.387-4.192c-0.07-1.859-1.96-1.958-1.96-1.958h-8.678h-6.45
			h-8.68c0,0-1.892,0.101-1.958,1.958c-0.018,0.44,0.139,2.03,0.385,4.192l-0.387,0.234c0,0,2.398,18.606,2.836,20.159
			c0.44,1.549,1.553,1.621,1.553,1.621s0.188,0.002,0.512,0.004c0.94,0.074,4.927,0.08,8.961,0.063
			c4.035,0.018,8.027,0.012,8.964-0.063c0.32-0.002,0.504-0.004,0.504-0.004s1.117-0.066,1.559-1.621
			c0.434-1.552,2.835-20.159,2.835-20.159L38.897,122.911z M19.846,140.957c-1.507,0.197-1.746-1.275-1.746-1.275
			s-2.098-16.993-2.02-17.358c0.074-0.366,0.3-1.347,1.456-1.515c1.151-0.168,1.748,1.141,1.748,1.141s1.938,17.539,1.928,17.59
			C21.201,139.592,21.354,140.766,19.846,140.957z M26.719,139.523c0,0-0.064,1.484-1.586,1.469
			c-1.518-0.02-1.502-1.199-1.518-1.252c-0.019-0.049-0.12-17.693-0.12-17.693s0.438-1.372,1.604-1.336
			c1.164,0.036,1.501,0.976,1.621,1.336C26.84,122.403,26.719,139.523,26.719,139.523z M32.744,139.682c0,0-0.238,1.469-1.746,1.275
			c-1.508-0.191-1.357-1.365-1.365-1.414c-0.012-0.051,1.926-17.592,1.926-17.592s0.598-1.304,1.75-1.141
			c1.152,0.173,1.377,1.148,1.457,1.517S32.744,139.682,32.744,139.682z"/>
	</g>
</g>
<g>
	<path fill="#FFFFFF" d="M42.142,175c-1.742,0-2.563,1.227-2.854,2.523c-1.046,4.664-5.477,11.765-14.288,11.765
		c-7.889,0-14.287-6.401-14.287-14.288S17.111,160.712,25,160.712c3.199,0,6.137,1.076,8.513,2.855h-2.801
		c-1.575,0-2.854,1.285-2.854,2.861c0,1.575,1.278,2.859,2.854,2.859h8.576c1.575,0,2.85-1.284,2.85-2.859v-8.57
		c0-1.578-1.274-2.858-2.85-2.858c-1.584,0-2.859,1.28-2.859,2.858v0.739C33.19,156.332,29.251,155,25,155c-11.045,0-20,8.954-20,20
		s8.955,20,20,20c14.254,0,20-13.567,20-16.962C45,175.964,43.48,175,42.142,175z"/>
</g>
<g>
	<polygon fill="#FFFFFF" points="45,220.441 29.563,220.441 29.563,205 20.44,205 20.44,220.441 5,220.441 5,229.559 20.44,229.559 
		20.44,245 29.563,245 29.563,229.559 45,229.559 	"/>
</g>
<g>
	<path fill="#FFFFFF" d="M34.578,289.962l-1.848-4.855H17.005l-1.847,4.96c-0.721,1.936-1.337,3.246-1.847,3.915
		c-0.51,0.686-1.346,1.02-2.507,1.02c-0.985,0-1.856-0.36-2.612-1.082c-0.756-0.721-1.134-1.538-1.134-2.454
		c0-0.527,0.088-1.072,0.264-1.636c0.176-0.563,0.466-1.346,0.871-2.348l9.895-25.119c0.282-0.722,0.62-1.593,1.016-2.595
		c0.396-1.02,0.818-1.855,1.267-2.523c0.448-0.669,1.038-1.205,1.768-1.627c0.73-0.405,1.631-0.616,2.705-0.616
		c1.09,0,1.996,0.211,2.726,0.616c0.731,0.422,1.319,0.949,1.769,1.601c0.448,0.65,0.827,1.354,1.135,2.093
		c0.308,0.756,0.704,1.75,1.179,2.999l10.105,24.961c0.791,1.899,1.188,3.28,1.188,4.142c0,0.897-0.379,1.725-1.126,2.463
		c-0.747,0.757-1.645,1.126-2.7,1.126c-0.616,0-1.144-0.105-1.583-0.334c-0.439-0.211-0.81-0.511-1.108-0.896
		c-0.299-0.37-0.624-0.95-0.967-1.742C35.114,291.254,34.824,290.56,34.578,289.962z M19.063,279.223H30.62l-5.831-15.963
		L19.063,279.223z"/>
</g>
</svg>
