<?xml version="1.0" encoding="utf-8"?>
<!-- Generator: Adobe Illustrator 16.0.0, SVG Export Plug-In . SVG Version: 6.00 Build 0)  -->
<!DOCTYPE svg PUBLIC "-//W3C//DTD SVG 1.1//EN" "http://www.w3.org/Graphics/SVG/1.1/DTD/svg11.dtd">
<svg version="1.1" id="Layer_1" xmlns="http://www.w3.org/2000/svg" xmlns:xlink="http://www.w3.org/1999/xlink" x="0px" y="0px"
	 width="19px" height="114px" viewBox="0 0 19 114" enable-background="new 0 0 19 114" xml:space="preserve">
<g>
	<g>
		<polygon fill="#59595C" points="17.6,22.521 10.428,20.446 1.401,21.798 0,25.906 1.715,26.807 6.001,29.063 7.581,24.599 
			6.725,30.598 1.715,27.757 1.715,32.177 7.809,36.554 17.104,33.351 17.373,27.756 19,27.392 		"/>
		<polygon fill="#FFFFFF" points="2.051,21.968 10.566,20.796 16.562,22.478 10.85,21.636 		"/>
		<polygon fill="#FFFFFF" points="16.383,32.71 8.758,35.158 8.758,27.712 9.538,29.561 16.383,28.027 		"/>
		<polygon fill="#FFFFFF" points="9.929,28.501 8.758,25.048 16.922,23.424 17.961,26.772 		"/>
		<polygon fill="#FFFFFF" points="1.715,27.757 1.715,26.807 6.001,29.063 7.581,24.599 6.725,30.598 		"/>
	</g>
	<rect y="19" fill="none" width="19" height="19"/>
</g>
<g>
	<g>
		<polygon fill="#59595C" points="14.342,40.486 4.748,42.249 4.838,46.369 3.797,45.916 3.708,41.798 13.027,40.215 10.586,39.4 
			1.354,40.938 1.852,51.302 7.78,55.601 17.148,52.343 17.646,41.482 		"/>
		<polygon fill="#FFFFFF" points="16.424,51.663 8.685,54.289 8.685,54.288 8.685,44.333 16.74,42.747 		"/>
		<polygon fill="#FFFFFF" points="13.027,40.215 14.342,40.486 4.748,42.249 4.838,46.369 3.797,45.916 3.708,41.798 		"/>
	</g>
	<rect y="38" fill="none" width="19" height="19"/>
</g>
<g>
	<g>
		<g>
			<g>
				<path fill="#FFFFFF" d="M2.53,93.578V77.257c0,0-0.028-0.438,0.353-0.438c0.381,0,8.096,0,8.096,0s0.201-0.034,0.406,0.138
					c0.206,0.172,4.836,4.799,4.836,4.799s0.23,0.312,0.244,0.752c0.014,0.446,0,11.128,0,11.128s0.087,0.508-0.41,0.536
					c-0.498,0.029-13.035,0-13.035,0S2.53,94.259,2.53,93.578z"/>
				<path fill="#58595B" d="M12.453,94.501c-3.862,0-9.434-0.013-9.434-0.013c-0.399,0.033-0.806-0.235-0.806-0.91V77.257
					c-0.003-0.039-0.012-0.342,0.193-0.559c0.083-0.091,0.234-0.197,0.476-0.197h8.095c0.164-0.003,0.391,0.026,0.611,0.212
					c0.21,0.176,4.38,4.344,4.855,4.818c0.061,0.074,0.32,0.439,0.336,0.965c0.015,0.447,0.002,10.702,0.002,11.139l0,0
					c0.003,0,0.048,0.33-0.156,0.588c-0.088,0.109-0.257,0.248-0.552,0.266C16.018,94.49,15.843,94.501,12.453,94.501z
					 M3.231,93.855c1.156,0,5.843,0.011,9.222,0.011c2.785,0,3.486-0.007,3.584-0.013c0.045-0.002,0.08-0.013,0.092-0.026
					c0.021-0.027,0.028-0.103,0.021-0.144c-0.004-0.156,0.01-10.73-0.004-11.168c-0.01-0.33-0.182-0.572-0.184-0.574
					c-1.811-1.805-4.613-4.596-4.783-4.742c-0.07-0.061-0.133-0.066-0.156-0.066l-8.142,0.004c-0.026,0.01-0.037,0.065-0.036,0.104
					v16.338c0,0.187,0.04,0.278,0.119,0.278C2.973,93.855,3.066,93.855,3.231,93.855z"/>
			</g>
			<g>
				<path fill="#58595B" d="M11.143,78.008c0.219,1.165,0.347,2.338,0.455,3.512v0.035c0.002-0.027,0.021,0.038,0.053,0.066
					c0.039,0.033,0.074,0.074,0.141,0.105c0.113,0.069,0.27,0.115,0.425,0.145c0.156,0.033,0.308,0.049,0.498,0.052l0.529,0.031
					c0.706,0.052,1.415,0.119,2.116,0.217l-0.004,0.131c-0.713,0.05-1.422,0.069-2.133,0.074l-0.531-0.007
					c-0.164,0.003-0.367-0.008-0.561-0.041c-0.189-0.026-0.384-0.071-0.578-0.178c-0.098-0.039-0.195-0.123-0.275-0.217
					c-0.079-0.108-0.153-0.203-0.158-0.41v0.033c-0.088-1.177-0.156-2.354-0.137-3.539L11.143,78.008z"/>
			</g>
		</g>
		<g>
			<path fill="#1B75BB" d="M6.616,90.275v0.912l-3.248-1.405v-0.781l3.248-1.409v0.922l-2.262,0.871L6.616,90.275z"/>
			<path fill="#1B75BB" d="M10.275,87.573l-0.901,3.724c-0.029,0.121-0.058,0.219-0.079,0.29c-0.023,0.071-0.058,0.125-0.104,0.166
				c-0.046,0.043-0.114,0.062-0.203,0.062c-0.218,0-0.328-0.094-0.328-0.285c0-0.049,0.022-0.172,0.065-0.369l0.899-3.725
				c0.049-0.199,0.094-0.336,0.136-0.41c0.044-0.071,0.126-0.107,0.254-0.107c0.105,0,0.188,0.023,0.243,0.075
				c0.06,0.052,0.086,0.124,0.086,0.214C10.346,87.275,10.322,87.396,10.275,87.573z"/>
			<path fill="#1B75BB" d="M15.632,89.782l-3.245,1.416v-0.915l2.27-0.893l-2.27-0.879v-0.904l3.245,1.399V89.782z"/>
		</g>
	</g>
	<rect y="76" fill="none" width="19" height="19"/>
</g>
<g>
	<g>
		<g>
			<g>
				<path fill="#FFFFFF" d="M2.53,112.578V96.257c0,0-0.028-0.438,0.352-0.438c0.382,0,8.095,0,8.095,0s0.201-0.034,0.407,0.138
					s4.835,4.799,4.835,4.799s0.23,0.312,0.244,0.752c0.014,0.446,0,11.128,0,11.128s0.088,0.506-0.408,0.536
					c-0.5,0.029-13.036,0-13.036,0S2.53,113.259,2.53,112.578z"/>
				<path fill="#58595B" d="M12.453,113.501c-3.862,0-9.434-0.013-9.434-0.013c-0.398-0.018-0.806-0.235-0.806-0.91V96.257
					c-0.003-0.038-0.011-0.342,0.193-0.559c0.083-0.091,0.235-0.197,0.476-0.197h8.095c0.164-0.006,0.391,0.026,0.611,0.212
					c0.21,0.176,4.38,4.344,4.855,4.818c0.061,0.074,0.32,0.439,0.336,0.966c0.014,0.446,0.002,10.701,0.002,11.138l0,0
					c0.003,0,0.047,0.33-0.156,0.588c-0.088,0.109-0.257,0.248-0.552,0.266C16.018,113.49,15.843,113.501,12.453,113.501z
					 M3.232,112.855c1.156,0,5.842,0.011,9.221,0.011c2.785,0,3.486-0.007,3.584-0.013c0.045-0.002,0.08-0.013,0.091-0.026
					c0.022-0.027,0.028-0.103,0.022-0.144c-0.004-0.156,0.01-10.73-0.004-11.168c-0.01-0.33-0.182-0.57-0.185-0.574
					c-1.81-1.805-4.612-4.596-4.782-4.742c-0.07-0.059-0.133-0.065-0.156-0.065l-8.142,0.003c-0.025,0.012-0.037,0.065-0.036,0.104
					v16.337c0,0.186,0.04,0.279,0.119,0.279C2.973,112.855,3.066,112.855,3.232,112.855z"/>
			</g>
			<g>
				<path fill="#58595B" d="M11.143,97.008c0.219,1.166,0.347,2.338,0.455,3.512v0.035c0.002-0.027,0.021,0.038,0.053,0.066
					c0.037,0.033,0.074,0.074,0.141,0.105c0.113,0.069,0.27,0.115,0.425,0.145c0.156,0.033,0.308,0.049,0.498,0.053l0.528,0.03
					c0.707,0.052,1.416,0.12,2.117,0.217l-0.006,0.131c-0.711,0.05-1.42,0.069-2.131,0.074l-0.531-0.007
					c-0.164,0.003-0.367-0.008-0.561-0.041c-0.189-0.026-0.384-0.071-0.578-0.178c-0.098-0.039-0.195-0.123-0.275-0.217
					c-0.079-0.108-0.153-0.203-0.158-0.41v0.035c-0.088-1.179-0.156-2.354-0.137-3.541L11.143,97.008z"/>
			</g>
		</g>
		<g>
			<path fill="#1B75BB" d="M5.514,108.914c0.153,0.093,0.272,0.199,0.359,0.314c0.085,0.119,0.146,0.267,0.181,0.449
				c0.033,0.182,0.051,0.414,0.051,0.699c0,0.211,0.004,0.366,0.015,0.469c0.01,0.102,0.029,0.178,0.059,0.229
				c0.031,0.055,0.064,0.088,0.107,0.106c0.04,0.016,0.111,0.028,0.209,0.045c0.083,0.012,0.148,0.053,0.203,0.121
				c0.055,0.07,0.081,0.157,0.081,0.271c0,0.264-0.16,0.392-0.476,0.392c-0.196,0-0.369-0.042-0.523-0.123
				c-0.154-0.08-0.273-0.197-0.358-0.348c-0.083-0.15-0.125-0.321-0.128-0.516c-0.007-0.326-0.013-0.592-0.02-0.787
				c-0.006-0.198-0.018-0.327-0.029-0.385c-0.032-0.146-0.081-0.254-0.145-0.326c-0.062-0.071-0.146-0.144-0.248-0.205
				c-0.102-0.063-0.174-0.12-0.218-0.17c-0.044-0.047-0.064-0.129-0.064-0.237c0-0.162,0.061-0.28,0.187-0.361
				c0.154-0.097,0.265-0.18,0.331-0.245c0.066-0.068,0.113-0.156,0.139-0.264c0.027-0.107,0.042-0.223,0.046-0.35
				c0.005-0.127,0.009-0.43,0.02-0.908c0.007-0.297,0.101-0.536,0.281-0.712c0.183-0.175,0.426-0.265,0.729-0.265
				c0.316,0,0.476,0.125,0.476,0.383c0,0.117-0.027,0.209-0.079,0.275c-0.053,0.067-0.121,0.104-0.206,0.115
				c-0.124,0.018-0.213,0.043-0.262,0.077c-0.048,0.034-0.082,0.103-0.097,0.2c-0.016,0.099-0.024,0.291-0.029,0.574
				c-0.004,0.277-0.021,0.506-0.05,0.684c-0.029,0.178-0.085,0.326-0.171,0.456C5.796,108.698,5.673,108.811,5.514,108.914z"/>
			<path fill="#1B75BB" d="M10.277,106.465l-0.9,3.725c-0.029,0.121-0.057,0.219-0.079,0.291c-0.023,0.071-0.059,0.123-0.104,0.164
				c-0.049,0.039-0.116,0.062-0.205,0.062c-0.219,0-0.328-0.095-0.328-0.283c0-0.051,0.022-0.175,0.065-0.371l0.898-3.722
				c0.049-0.198,0.093-0.334,0.136-0.409c0.042-0.071,0.126-0.11,0.254-0.11c0.105,0,0.188,0.024,0.243,0.078
				c0.06,0.051,0.089,0.123,0.089,0.213C10.346,106.167,10.324,106.289,10.277,106.465z"/>
			<path fill="#1B75BB" d="M13.488,108.914c-0.116-0.074-0.213-0.148-0.284-0.23c-0.072-0.078-0.134-0.174-0.181-0.287
				c-0.047-0.117-0.08-0.25-0.101-0.41c-0.021-0.153-0.028-0.34-0.028-0.549c0-0.207-0.004-0.36-0.013-0.469
				c-0.009-0.109-0.024-0.185-0.052-0.238c-0.023-0.049-0.062-0.082-0.107-0.103c-0.046-0.017-0.117-0.028-0.213-0.043
				c-0.076-0.012-0.146-0.051-0.201-0.114c-0.059-0.068-0.082-0.164-0.082-0.275c0-0.258,0.156-0.385,0.465-0.385
				c0.201,0,0.377,0.041,0.527,0.121c0.15,0.082,0.271,0.197,0.361,0.348c0.088,0.148,0.13,0.32,0.133,0.513
				c0.012,0.711,0.026,1.104,0.043,1.177c0.034,0.143,0.086,0.252,0.152,0.324c0.066,0.073,0.148,0.141,0.244,0.197
				c0.093,0.059,0.164,0.113,0.209,0.168c0.049,0.058,0.07,0.141,0.07,0.257c0,0.162-0.062,0.28-0.184,0.354
				c-0.15,0.092-0.262,0.174-0.328,0.244c-0.068,0.07-0.115,0.157-0.143,0.264c-0.025,0.104-0.041,0.262-0.049,0.468
				c-0.006,0.21-0.013,0.469-0.02,0.785c-0.007,0.296-0.102,0.532-0.285,0.715c-0.186,0.179-0.43,0.271-0.734,0.271
				c-0.149,0-0.268-0.033-0.35-0.102c-0.081-0.068-0.121-0.165-0.121-0.292c0-0.071,0.012-0.136,0.038-0.194
				c0.025-0.059,0.062-0.104,0.103-0.138c0.041-0.032,0.091-0.052,0.146-0.06c0.097-0.015,0.169-0.027,0.218-0.047
				c0.047-0.021,0.084-0.058,0.107-0.113c0.025-0.053,0.041-0.131,0.05-0.235c0.009-0.106,0.013-0.259,0.013-0.458
				c0.004-0.299,0.021-0.531,0.051-0.699c0.029-0.169,0.086-0.312,0.171-0.435C13.201,109.127,13.325,109.016,13.488,108.914z"/>
		</g>
	</g>
	<rect y="95" fill="none" width="19" height="19"/>
</g>
<g>
	<path fill="none" stroke="#4B837A" stroke-width="0.446" stroke-miterlimit="10" d="M3.674,63.357h5.679
		c0,0,0.204,0.02,0.363-0.229c0.159-0.248,0.499-1.078,0.499-1.078s0.081-0.15,0.271-0.156c0.193-0.002,4.707,0.064,4.707,0.064
		s0.32-0.082,0.408,0.529c0.086,0.609,0.217,1.14,0.293,2.934c0.07,1.794,0,3.874,0,3.874l-0.027,1.31c0,0-0.018,0.303-0.223,0.438
		c-0.205,0.137-12.41,0-12.41,0s-0.158,0.064-0.158-0.273c0-0.344-0.01-2.086,0-3.028c0.009-0.941,0.055-3.903,0.055-3.903
		S3.121,63.357,3.674,63.357z"/>
	<g>
		<path fill="#FFFFFF" d="M1.93,62.417h7.379c0,0,0.265,0.024,0.471-0.296c0.207-0.322,0.648-1.4,0.648-1.4s0.105-0.197,0.354-0.205
			c0.252-0.002,6.115,0.086,6.115,0.086s0.418-0.106,0.531,0.688c0.111,0.792,0.281,1.479,0.381,3.812c0.092,2.33,0,5.033,0,5.033
			l-0.035,1.7c0,0-0.022,0.394-0.289,0.567c-0.268,0.179-16.125,0-16.125,0s-0.205,0.084-0.205-0.354c0-0.446-0.013-2.71,0-3.937
			c0.012-1.223,0.071-5.071,0.071-5.071S1.211,62.417,1.93,62.417z"/>
		<path fill="#59595C" d="M13.186,73.132c-4.437,0-10.831-0.067-11.727-0.077l-0.137,0.006c-0.303,0-0.817-0.213-0.817-1.013
			l-0.002-0.562c-0.002-0.873-0.008-2.437,0.002-3.383c0.011-1.224,0.071-5.074,0.071-5.074c-0.002-0.062,0.005-0.516,0.358-0.879
			c0.172-0.174,0.483-0.383,0.996-0.383h7.379c0.045-0.186,0.344-0.869,0.518-1.295c0.16-0.304,0.475-0.594,0.935-0.606
			c0.396,0.034,5.44,0.075,6.079,0.084l0.106-0.005c0.156,0,0.953,0.062,1.123,1.252l0.065,0.429
			c0.106,0.672,0.239,1.508,0.322,3.446c0.093,2.33,0,5.058,0,5.085l-0.036,1.69c-0.007,0.145-0.068,0.762-0.582,1.098
			C17.628,73.089,17.562,73.132,13.186,73.132z M1.805,71.759c1.607,0.017,7.316,0.073,11.38,0.073c2.569,0,3.562-0.021,3.939-0.042
			l0.034-1.67c0.001-0.035,0.092-2.716,0-4.994c-0.078-1.86-0.204-2.657-0.306-3.297l-0.068-0.449
			c-0.008-0.057-0.018-0.103-0.026-0.136c-0.923-0.01-4.94-0.068-5.815-0.077c-0.115,0.287-0.426,1.009-0.615,1.306
			c-0.354,0.553-0.858,0.594-1.004,0.594H1.93c0,0,0,0-0.001,0c-0.053,0-0.112,3.832-0.124,5.053
			c-0.01,0.941-0.004,2.495-0.002,3.363L1.805,71.759z"/>
	</g>
	<rect y="57" fill="none" width="19" height="19"/>
</g>
<g>
	<g>
		<g>
			<rect x="2.395" y="1.062" fill="#FFFFFF" width="14.21" height="5.329"/>
			<path fill="#59595C" d="M16.605,6.954H2.395c-0.311,0-0.562-0.252-0.562-0.562v-5.33c0-0.311,0.252-0.562,0.562-0.562h14.21
				c0.312,0,0.562,0.251,0.562,0.562v5.329C17.168,6.702,16.916,6.954,16.605,6.954z M2.957,5.829h13.086V1.625H2.957V5.829z"/>
		</g>
		<g>
			<rect x="2.395" y="6.392" fill="#FFFFFF" width="14.21" height="5.328"/>
			<path fill="#59595C" d="M16.605,12.282H2.395c-0.311,0-0.562-0.251-0.562-0.562V6.392c0-0.311,0.252-0.562,0.562-0.562h14.21
				c0.312,0,0.562,0.251,0.562,0.562v5.328C17.168,12.031,16.916,12.282,16.605,12.282z M2.957,11.157h13.086V6.954H2.957V11.157z"
				/>
		</g>
		<g>
			<rect x="2.395" y="11.72" fill="#FFFFFF" width="14.21" height="5.329"/>
			<path fill="#59595C" d="M16.605,17.611H2.395c-0.311,0-0.562-0.251-0.562-0.562V11.72c0-0.311,0.252-0.562,0.562-0.562h14.21
				c0.312,0,0.562,0.252,0.562,0.562v5.329C17.168,17.36,16.916,17.611,16.605,17.611z M2.957,16.486h13.086v-4.204H2.957V16.486z"
				/>
		</g>
		<g>
			<path fill="#59595C" d="M2.867,18.5c-0.311,0-0.562-0.251-0.562-0.562v-0.889c0-0.311,0.251-0.562,0.562-0.562
				s0.562,0.251,0.562,0.562v0.889C3.43,18.249,3.178,18.5,2.867,18.5z"/>
		</g>
		<g>
			<path fill="#59595C" d="M16.131,18.5c-0.312,0-0.562-0.251-0.562-0.562v-0.889c0-0.311,0.252-0.562,0.562-0.562
				s0.562,0.251,0.562,0.562v0.889C16.693,18.249,16.441,18.5,16.131,18.5z"/>
		</g>
		<g>
			<path fill="#59595C" d="M14.818,5.632c-0.232,0-0.422-0.189-0.422-0.422V2.305c0-0.233,0.188-0.422,0.422-0.422
				c0.232,0,0.422,0.188,0.422,0.422V5.21C15.24,5.443,15.051,5.632,14.818,5.632z"/>
		</g>
		<g>
			<path fill="#59595C" d="M13.672,5.632c-0.232,0-0.422-0.189-0.422-0.422V2.305c0-0.233,0.188-0.422,0.422-0.422
				c0.232,0,0.422,0.188,0.422,0.422V5.21C14.094,5.443,13.904,5.632,13.672,5.632z"/>
		</g>
		<g>
			<path fill="#59595C" d="M12.406,5.632c-0.233,0-0.422-0.189-0.422-0.422V2.305c0-0.233,0.188-0.422,0.422-0.422
				c0.232,0,0.422,0.188,0.422,0.422V5.21C12.828,5.443,12.639,5.632,12.406,5.632z"/>
		</g>
		<g>
			<path fill="#59595C" d="M6.78,10.976H3.873c-0.232,0-0.422-0.189-0.422-0.422c0-0.233,0.189-0.422,0.422-0.422H6.78
				c0.233,0,0.422,0.189,0.422,0.422C7.202,10.787,7.013,10.976,6.78,10.976z"/>
		</g>
		<g>
			<path fill="#59595C" d="M6.78,9.922H3.873c-0.232,0-0.422-0.189-0.422-0.422S3.64,9.078,3.873,9.078H6.78
				c0.233,0,0.422,0.189,0.422,0.422S7.013,9.922,6.78,9.922z"/>
		</g>
		<g>
			<path fill="#59595C" d="M6.78,8.867H3.873c-0.232,0-0.422-0.189-0.422-0.422c0-0.233,0.189-0.422,0.422-0.422H6.78
				c0.233,0,0.422,0.189,0.422,0.422C7.202,8.678,7.013,8.867,6.78,8.867z"/>
		</g>
		<g>
			<path fill="#59595C" d="M10.172,5.632c-0.057,0-0.111-0.011-0.167-0.034C9.791,5.506,9.692,5.259,9.784,5.044l1.142-2.672
				c0.092-0.215,0.342-0.313,0.555-0.222c0.213,0.092,0.312,0.34,0.223,0.554l-1.143,2.672C10.491,5.536,10.335,5.632,10.172,5.632z
				"/>
		</g>
		<g>
			<path fill="#59595C" d="M4.209,16.38c-0.233,0-0.422-0.188-0.422-0.422v-2.905c0-0.233,0.189-0.422,0.422-0.422
				s0.422,0.188,0.422,0.422v2.905C4.631,16.191,4.442,16.38,4.209,16.38z"/>
		</g>
		<g>
			<path fill="#59595C" d="M6.444,16.38c-0.164,0-0.32-0.096-0.388-0.256l-1.142-2.672c-0.092-0.214,0.007-0.462,0.222-0.554
				c0.214-0.091,0.462,0.008,0.554,0.222l1.142,2.672c0.092,0.214-0.008,0.462-0.222,0.554C6.555,16.369,6.499,16.38,6.444,16.38z"
				/>
		</g>
	</g>
	<rect fill="none" width="19" height="19"/>
</g>
</svg>
