<?xml version="1.0" encoding="utf-8"?>
<!-- Generator: Adobe Illustrator 16.0.0, SVG Export Plug-In . SVG Version: 6.00 Build 0)  -->
<!DOCTYPE svg PUBLIC "-//W3C//DTD SVG 1.1//EN" "http://www.w3.org/Graphics/SVG/1.1/DTD/svg11.dtd">
<svg version="1.1" id="Layer_1" xmlns="http://www.w3.org/2000/svg" xmlns:xlink="http://www.w3.org/1999/xlink" x="0px" y="0px"
	 width="50px" height="100px" viewBox="0 0 50 100" enable-background="new 0 0 50 100" xml:space="preserve">
<g>
	<g>
		<path fill="#FFFFFF" stroke="#464B55" stroke-miterlimit="10" d="M26.327,31.677l10.538-10.539
			c0.396-0.396,0.634-0.952,0.634-1.426c0-0.476-0.236-0.951-0.634-1.347c-0.793-0.794-1.901-0.794-2.693,0l-9.191,9.191
			l-9.191-9.191c-0.792-0.794-1.902-0.794-2.694,0c-0.793,0.792-0.793,1.979,0,2.772l10.538,10.539
			c0.396,0.396,0.873,0.554,1.348,0.554C25.535,32.23,25.931,32.073,26.327,31.677z"/>
	</g>
</g>
<g>
	<g>
		<path fill="#464B55" stroke="#FFFFFF" stroke-miterlimit="10" d="M26.327,81.677l10.538-10.539
			c0.396-0.396,0.634-0.952,0.634-1.426c0-0.476-0.236-0.951-0.634-1.347c-0.793-0.794-1.901-0.794-2.693,0l-9.191,9.191
			l-9.191-9.191c-0.792-0.794-1.902-0.794-2.694,0c-0.793,0.792-0.793,1.979,0,2.772l10.538,10.539
			c0.396,0.396,0.873,0.554,1.348,0.554C25.535,82.23,25.931,82.073,26.327,81.677z"/>
	</g>
</g>
</svg>
