<?xml version="1.0" encoding="utf-8"?>
<!-- Generator: Adobe Illustrator 16.0.0, SVG Export Plug-In . SVG Version: 6.00 Build 0)  -->
<!DOCTYPE svg PUBLIC "-//W3C//DTD SVG 1.1//EN" "http://www.w3.org/Graphics/SVG/1.1/DTD/svg11.dtd">
<svg version="1.1" id="Layer_1" xmlns="http://www.w3.org/2000/svg" xmlns:xlink="http://www.w3.org/1999/xlink" x="0px" y="0px"
	 width="100px" height="100px" viewBox="0 0 100 100" enable-background="new 0 0 100 100" xml:space="preserve">
<g>
	<g>
		<path fill="#FFFFFF" stroke="#454A54" stroke-miterlimit="10" d="M50,10.529c-26.233,0-47.5,21.266-47.5,47.5
			c0,11.432,4.04,21.92,10.769,30.115c1.038-8.311,9.339-15.34,20.979-18.67c4.253,3.963,9.746,6.367,15.752,6.367
			c5.864,0,11.25-2.283,15.46-6.079c11.74,3.62,19.863,11.061,20.131,19.708C92.995,81.093,97.5,70.091,97.5,58.029
			C97.5,31.795,76.233,10.529,50,10.529z M50,70.217c-3.032,0-5.889-0.833-8.427-2.276C35.459,64.462,31.25,57.342,31.25,49.123
			c0-11.631,8.411-21.095,18.75-21.095c10.341,0,18.75,9.463,18.75,21.095c0,8.345-4.342,15.553-10.607,18.972
			C55.674,69.44,52.921,70.217,50,70.217z"/>
	</g>
</g>
</svg>
