<?xml version="1.0" encoding="utf-8"?>
<!-- Generator: Adobe Illustrator 16.0.0, SVG Export Plug-In . SVG Version: 6.00 Build 0)  -->
<!DOCTYPE svg PUBLIC "-//W3C//DTD SVG 1.1//EN" "http://www.w3.org/Graphics/SVG/1.1/DTD/svg11.dtd">
<svg version="1.1" id="Layer_1" xmlns="http://www.w3.org/2000/svg" xmlns:xlink="http://www.w3.org/1999/xlink" x="0px" y="0px"
	 width="150px" height="150px" viewBox="0 0 150 150" enable-background="new 0 0 150 150" xml:space="preserve">
<g>
	<path fill="#5E6570" stroke="#FFFFFF" stroke-width="3" stroke-miterlimit="10" d="M75.838,87.533
		c-18.988,0-34.373-18.443-34.373-41.177c0-22.731,15.385-39.581,34.373-39.581c18.991,0,34.389,16.85,34.389,39.581
		C110.227,69.09,94.828,87.533,75.838,87.533z M22.37,143.199c0,0-7.291,0.48-10.502-3.943c-1.735-2.392-0.526-7.234,0.66-9.939
		l2.906-6.621c0,0,8.038-17.977,17.187-28.393c5.62-6.387,12.304-4.933,16.628-2.855c2.663,1.279,5.673,5.004,7.874,6.978
		c3.032,2.72,8.384,5.81,17.135,5.983h5.369c8.745-0.174,14.1-3.266,17.127-5.983c2.198-1.974,5.126-5.813,7.766-7.134
		c3.967-1.986,10.008-3.208,15.479,3.014c9.151,10.418,16.399,28.719,16.399,28.719l2.979,6.494
		c1.231,2.685,2.494,7.504,0.808,9.928c-3.011,4.33-9.771,3.757-9.771,3.757L22.37,143.199z"/>
</g>
</svg>
