<?xml version="1.0" encoding="utf-8"?>
<!-- Generator: Adobe Illustrator 16.0.0, SVG Export Plug-In . SVG Version: 6.00 Build 0)  -->
<!DOCTYPE svg PUBLIC "-//W3C//DTD SVG 1.1//EN" "http://www.w3.org/Graphics/SVG/1.1/DTD/svg11.dtd">
<svg version="1.1" id="Layer_1" xmlns="http://www.w3.org/2000/svg" xmlns:xlink="http://www.w3.org/1999/xlink" x="0px" y="0px"
	 width="50px" height="200px" viewBox="0 0 50 200" enable-background="new 0 0 50 200" xml:space="preserve">
<g>
	<path id="Facebook" fill="#FFFFFF" d="M21.026,15.81c0,0.756,0,4.13,0,4.13h-3.027v5.051h3.027V40h6.215V24.992h4.173
		c0,0,0.391-2.422,0.58-5.07c-0.544,0-4.729,0-4.729,0s0-2.938,0-3.453c0-0.516,0.678-1.21,1.348-1.21c0.669,0,2.08,0,3.388,0
		c0-0.688,0-3.063,0-5.259c-1.745,0-3.729,0-4.604,0C20.873,10,21.026,15.056,21.026,15.81z"/>
</g>
<path fill="#FFFFFF" d="M30.701,138.57v-5.266c0-1.613-0.434-2.796-1.299-3.544c0.949-0.1,1.802-0.25,2.56-0.45
	c0.757-0.199,1.539-0.523,2.347-0.974c0.808-0.448,1.48-1.002,2.021-1.659c0.54-0.656,0.98-1.529,1.322-2.619
	c0.34-1.091,0.511-2.343,0.511-3.757c0-2.014-0.657-3.728-1.972-5.142c0.615-1.516,0.55-3.211-0.199-5.092
	c-0.467-0.149-1.141-0.059-2.021,0.274c-0.882,0.332-1.646,0.698-2.297,1.099l-0.947,0.599c-1.549-0.433-3.146-0.647-4.793-0.647
	c-1.646,0-3.244,0.215-4.792,0.647c-0.266-0.183-0.62-0.407-1.061-0.674s-1.136-0.587-2.084-0.962
	c-0.948-0.373-1.664-0.485-2.146-0.336c-0.732,1.881-0.79,3.576-0.175,5.092c-1.314,1.414-1.972,3.127-1.972,5.142
	c0,1.413,0.171,2.661,0.512,3.743c0.341,1.081,0.778,1.954,1.31,2.62c0.532,0.665,1.202,1.224,2.009,1.672
	c0.807,0.449,1.589,0.772,2.346,0.974c0.757,0.201,1.61,0.351,2.558,0.449c-0.665,0.6-1.073,1.456-1.223,2.571
	c-0.35,0.166-0.724,0.291-1.123,0.375c-0.399,0.082-0.874,0.124-1.422,0.124c-0.549,0-1.094-0.18-1.635-0.537
	s-1.002-0.877-1.385-1.561c-0.316-0.531-0.719-0.965-1.21-1.297c-0.491-0.334-0.903-0.533-1.236-0.6l-0.499-0.074
	c-0.35,0-0.591,0.036-0.724,0.111c-0.133,0.075-0.175,0.171-0.125,0.287c0.05,0.117,0.125,0.232,0.225,0.35
	c0.1,0.116,0.208,0.217,0.324,0.301l0.175,0.125c0.366,0.166,0.728,0.481,1.086,0.947c0.358,0.467,0.62,0.891,0.786,1.273
	l0.25,0.574c0.216,0.631,0.582,1.143,1.098,1.533c0.516,0.391,1.073,0.641,1.672,0.75c0.599,0.106,1.177,0.166,1.734,0.174
	c0.558,0.008,1.019-0.021,1.385-0.088l0.574-0.1c0,0.632,0.004,1.372,0.013,2.223c0.008,0.848,0.012,1.297,0.012,1.348
	c0,0.299-0.108,0.548-0.324,0.746c0,0.002-0.001,0.002-0.001,0.002c1.614,0.441,3.313,0.68,5.067,0.68
	c1.76,0,3.461-0.238,5.08-0.682C30.805,139.119,30.701,138.87,30.701,138.57z"/>
<g>
	<path id="Shape" fill="#FFFFFF" d="M19.545,73.636v3.273h5.415c-0.218,1.403-1.638,4.118-5.415,4.118
		c-3.26,0-5.918-2.701-5.918-6.027s2.658-6.027,5.918-6.027c1.854,0,3.095,0.791,3.805,1.473l2.59-2.496
		c-1.662-1.555-3.817-2.496-6.395-2.496C14.268,65.455,10,69.723,10,75s4.268,9.545,9.545,9.545c5.509,0,9.165-3.873,9.165-9.327
		c0-0.627-0.069-1.105-0.151-1.582H19.545L19.545,73.636z"/>
	<path id="Shape_1_" fill="#FFFFFF" d="M40,73.636h-2.728v-2.727h-2.727v2.727h-2.728v2.728h2.728v2.727
		h2.727v-2.727H40"/>
</g>
</svg>
