<?xml version="1.0" encoding="utf-8"?>
<!-- Generator: Adobe Illustrator 16.0.0, SVG Export Plug-In . SVG Version: 6.00 Build 0)  -->
<!DOCTYPE svg PUBLIC "-//W3C//DTD SVG 1.1//EN" "http://www.w3.org/Graphics/SVG/1.1/DTD/svg11.dtd">
<svg version="1.1" id="Layer_1" xmlns="http://www.w3.org/2000/svg" xmlns:xlink="http://www.w3.org/1999/xlink" x="0px" y="0px"
	 width="100px" height="300px" viewBox="0 0 100 300" enable-background="new 0 0 100 300" xml:space="preserve">
<linearGradient id="SVGID_1_" gradientUnits="userSpaceOnUse" x1="2" y1="50" x2="98" y2="50">
	<stop  offset="0" style="stop-color:#FFFFFF"/>
	<stop  offset="1" style="stop-color:#000000"/>
</linearGradient>
<path fill="#FFFFFF" stroke="url(#SVGID_1_)" stroke-miterlimit="10" d="M89.037,7.217c-4.666,0-8.464,3.797-8.464,8.464
	c0,1.093,0.217,2.183,0.628,3.193L67.304,32.772c-3.526-2.622-7.893-4.176-12.615-4.176c-3.772,0-7.451,1.003-10.696,2.91
	l-8.732-10.027c0.591-1.174,0.901-2.472,0.901-3.793c0-4.666-3.797-8.462-8.463-8.462s-8.463,3.796-8.463,8.462
	c0,4.667,3.797,8.464,8.463,8.464c0.882,0,1.746-0.135,2.577-0.401l8.634,9.915c-3.494,3.896-5.408,8.875-5.408,14.12
	c0,2.103,0.312,4.181,0.928,6.19L15.414,69.507c-1.336-0.831-2.86-1.267-4.451-1.267c-4.667,0-8.463,3.796-8.463,8.462
	c0,4.667,3.797,8.464,8.463,8.464s8.463-3.797,8.463-8.464c0-0.624-0.069-1.243-0.205-1.85l18.135-12.906
	c2.337,3.319,5.598,5.921,9.34,7.453l-2.022,5.702c-4.302,0.394-7.689,4.032-7.689,8.428c0,4.667,3.797,8.463,8.463,8.463
	s8.463-3.796,8.463-8.463c0-2.482-1.102-4.836-2.979-6.438l2.193-6.181c0.531,0.04,1.055,0.061,1.562,0.061
	c2.713,0,5.354-0.51,7.858-1.517l9.092,10.96c-0.629,1.204-0.959,2.54-0.959,3.907c0,4.667,3.797,8.463,8.462,8.463
	c4.668,0,8.465-3.796,8.465-8.463c0-4.667-3.797-8.462-8.465-8.462c-0.837,0-1.658,0.122-2.452,0.364l-8.441-10.174
	c4.861-4.046,7.627-9.915,7.627-16.265c0-4.596-1.472-8.855-3.97-12.331l13.938-13.937c1.011,0.412,2.102,0.628,3.194,0.628
	c4.667,0,8.463-3.796,8.463-8.462C97.5,11.014,93.704,7.217,89.037,7.217z M54.688,38.358c6.3,0,11.425,5.125,11.425,11.424
	c0,6.3-5.125,11.425-11.425,11.425s-11.425-5.125-11.425-11.425C43.263,43.483,48.389,38.358,54.688,38.358z"/>
<g>
	<g>
		<linearGradient id="SVGID_2_" gradientUnits="userSpaceOnUse" x1="2" y1="150" x2="98" y2="150">
			<stop  offset="0" style="stop-color:#FFFFFF"/>
			<stop  offset="1" style="stop-color:#000000"/>
		</linearGradient>
		<path fill="#FFFFFF" stroke="url(#SVGID_2_)" stroke-miterlimit="10" d="M95.646,139.792h-0.74
			c-0.711-8.396-6.182-15.448-13.704-18.451c-6.859-9.882-18.283-16.374-31.201-16.374c-12.917,0-24.338,6.488-31.201,16.373
			c-7.52,3.002-12.989,10.052-13.702,18.452h-0.74c-1.026,0-1.858,0.834-1.858,1.858c0,1.026,0.833,1.858,1.858,1.858h0.74
			c0.572,6.759,4.217,12.656,9.544,16.263l5.264,33.685c0.141,0.905,0.92,1.575,1.836,1.575h13.934c1.025,0,1.858-0.832,1.858-1.858
			c0-6.874,5.593-12.465,12.465-12.465c6.873,0,12.467,5.596,12.467,12.465c0,1.026,0.832,1.858,1.858,1.858h13.933
			c0.914,0,1.693-0.668,1.834-1.575l5.265-33.685c5.328-3.61,8.972-9.504,9.543-16.263h0.742c1.023,0,1.858-0.833,1.858-1.858
			C97.502,140.626,96.673,139.792,95.646,139.792z M50.001,108.684c10.015,0,19.046,4.324,25.314,11.201
			c-0.721-0.072-1.452-0.111-2.192-0.111c-11.435,0-20.833,8.824-21.781,20.016h-2.685c-0.947-11.191-10.346-20.014-21.781-20.014
			c-0.739,0-1.468,0.038-2.189,0.111C30.957,113.01,39.984,108.684,50.001,108.684z M84.253,142.794l-2.298,14.709
			c-2.618,1.469-5.626,2.304-8.832,2.304c-10.012,0-18.158-8.142-18.158-18.156c0-10.013,8.146-18.157,18.158-18.157
			c1.979,0,3.879,0.329,5.662,0.915C82.216,129.717,84.227,136.023,84.253,142.794z M15.754,142.794
			c0.025-6.771,2.038-13.077,5.466-18.386c1.783-0.588,3.684-0.915,5.661-0.915c10.013,0,18.158,8.144,18.158,18.157
			c0,10.011-8.145,18.158-18.158,18.158c-3.205,0-6.212-0.844-8.829-2.303L15.754,142.794z M8.724,141.651
			c0-5.571,2.527-10.559,6.488-13.893c-2.037,4.652-3.174,9.781-3.174,15.178c0,0.095,0.007,0.191,0.022,0.284l1.712,10.959
			C10.651,150.915,8.724,146.509,8.724,141.651z M76.67,191.315H66.079c-0.925-8.052-7.781-14.323-16.079-14.323
			c-8.296,0-15.151,6.271-16.075,14.323H23.332l-4.59-29.378c2.518,1.012,5.26,1.585,8.136,1.585
			c11.435,0,20.833-8.821,21.78-20.015h2.685c0.947,11.193,10.349,20.015,21.78,20.015c2.877,0,5.618-0.573,8.135-1.585
			L76.67,191.315z M86.237,154.176l1.71-10.957c0.015-0.093,0.024-0.19,0.024-0.284c0-5.395-1.137-10.526-3.174-15.178
			c3.963,3.332,6.491,8.322,6.491,13.893C91.284,146.509,89.354,150.915,86.237,154.176z"/>
		<linearGradient id="SVGID_3_" gradientUnits="userSpaceOnUse" x1="18.8315" y1="134.3008" x2="34.9316" y2="134.3008">
			<stop  offset="0" style="stop-color:#FFFFFF"/>
			<stop  offset="1" style="stop-color:#000000"/>
		</linearGradient>
		<path fill="#FFFFFF" stroke="url(#SVGID_3_)" stroke-miterlimit="10" d="M34.432,134.3c0-4.162-3.386-7.55-7.551-7.55
			c-4.163,0-7.549,3.385-7.549,7.55c0,4.163,3.385,7.55,7.549,7.55S34.432,138.464,34.432,134.3z M26.879,138.134
			c-0.462,0-0.9-0.096-1.31-0.245c2.472-0.195,4.428-2.245,4.428-4.764c0-0.442-0.079-0.863-0.191-1.27
			c0.559,0.667,0.907,1.514,0.907,2.449C30.715,136.414,28.994,138.134,26.879,138.134z M26.283,133.125
			c0,0.596-0.49,1.085-1.087,1.085c-0.598,0-1.085-0.489-1.085-1.085c0-0.598,0.488-1.087,1.085-1.087
			C25.792,132.037,26.283,132.527,26.283,133.125z"/>
		<linearGradient id="SVGID_4_" gradientUnits="userSpaceOnUse" x1="63.5684" y1="134.3008" x2="79.667" y2="134.3008">
			<stop  offset="0" style="stop-color:#FFFFFF"/>
			<stop  offset="1" style="stop-color:#000000"/>
		</linearGradient>
		<path fill="#FFFFFF" stroke="url(#SVGID_4_)" stroke-miterlimit="10" d="M64.068,134.3c0,4.162,3.384,7.55,7.55,7.55
			c4.162,0,7.549-3.385,7.549-7.55c0-4.164-3.382-7.55-7.549-7.55C67.452,126.75,64.068,130.139,64.068,134.3z M68.848,133.125
			c0-0.598,0.489-1.087,1.087-1.087s1.084,0.49,1.084,1.087c0,0.596-0.486,1.085-1.084,1.085
			C69.334,134.209,68.848,133.721,68.848,133.125z M71.618,138.134c-0.462,0-0.902-0.096-1.313-0.245
			c2.473-0.195,4.428-2.245,4.428-4.764c0-0.442-0.077-0.863-0.191-1.271c0.559,0.667,0.907,1.514,0.907,2.449
			C75.451,136.414,73.733,138.134,71.618,138.134z"/>
		<linearGradient id="SVGID_5_" gradientUnits="userSpaceOnUse" x1="46.7754" y1="166.4844" x2="62.0908" y2="166.4844">
			<stop  offset="0" style="stop-color:#FFFFFF"/>
			<stop  offset="1" style="stop-color:#000000"/>
		</linearGradient>
		<path fill="#FFFFFF" stroke="url(#SVGID_5_)" stroke-miterlimit="10" d="M59.732,164.626H49.134c-1.024,0-1.858,0.832-1.858,1.858
			c0,1.025,0.834,1.858,1.858,1.858h10.599c1.024,0,1.858-0.833,1.858-1.858C61.591,165.458,60.759,164.626,59.732,164.626z"/>
	</g>
</g>
<g>
	<g id="Layer_8_59_">
		<linearGradient id="SVGID_6_" gradientUnits="userSpaceOnUse" x1="2" y1="250" x2="98" y2="250">
			<stop  offset="0" style="stop-color:#FFFFFF"/>
			<stop  offset="1" style="stop-color:#000000"/>
		</linearGradient>
		<path fill="#FFFFFF" stroke="url(#SVGID_6_)" stroke-miterlimit="10" d="M92.303,208.001H7.373H2.5v7.773h4.875v50.713H43.29
			l-25.482,25.479l7.632,0.032l22.84-22.312v22.312h5.469l-0.123-22.43l23.081,22.426h7.379l-25.547-25.508h33.76v-50.713H97.5
			v-7.773H92.303z M86.425,261.504H13.532l-0.079-45.571l72.892,0.008L86.425,261.504z"/>
	</g>
</g>
</svg>
