<?xml version="1.0" encoding="utf-8"?>
<!-- Generator: Adobe Illustrator 16.0.0, SVG Export Plug-In . SVG Version: 6.00 Build 0)  -->
<!DOCTYPE svg PUBLIC "-//W3C//DTD SVG 1.1//EN" "http://www.w3.org/Graphics/SVG/1.1/DTD/svg11.dtd">
<svg version="1.1" id="Layer_1" xmlns="http://www.w3.org/2000/svg" xmlns:xlink="http://www.w3.org/1999/xlink" x="0px" y="0px"
	 width="300px" height="300px" viewBox="0 0 300 300" enable-background="new 0 0 300 300" xml:space="preserve">
<g>
	<path fill="#89A26C" d="M177.887,104.342c0.158-0.928,0.008-1.793-0.447-2.598c-0.299-0.514-0.994-1.317-2.088-2.411l-4.661-4.661
		l-6.513,6.514l4.711,4.711c1.557,1.557,2.953,2.373,4.188,2.448c1.234,0.074,2.378-0.414,3.431-1.467
		C177.27,106.116,177.729,105.271,177.887,104.342z"/>
	<path fill="#89A26C" d="M189.926,125.006c0.849,0.395,1.686,0.502,2.51,0.324c0.825-0.179,1.531-0.562,2.119-1.15
		c0.862-0.861,1.258-1.883,1.188-3.063s-0.781-2.446-2.131-3.798l-5.768-5.768l-6.029,6.029l5.184,5.183
		C188.1,123.866,189.076,124.614,189.926,125.006z"/>
	<path fill="#89A26C" d="M99.804,24.819c-0.356-1.575-1.135-2.963-2.337-4.164c-1.707-1.707-3.762-2.59-6.165-2.648
		c-2.403-0.058-4.976,1.285-7.719,4.027c-2.196,2.196-3.335,4.516-3.418,6.961c-0.083,2.444,0.767,4.557,2.548,6.339
		c1.814,1.814,3.946,2.671,6.395,2.567c2.448-0.104,4.845-1.328,7.19-3.674c1.483-1.482,2.527-3.028,3.132-4.636
		C100.037,27.983,100.161,26.393,99.804,24.819z"/>
	<path fill="#89A26C" d="M118.474,44.929c0.157-0.928,0.008-1.794-0.447-2.598c-0.299-0.514-0.995-1.317-2.088-2.411l-4.661-4.662
		l-6.513,6.514l4.711,4.711c1.558,1.558,2.954,2.374,4.189,2.449c1.234,0.074,2.378-0.414,3.431-1.467
		C117.856,46.703,118.316,45.858,118.474,44.929z"/>
	<path fill="#89A26C" d="M214.381,139.395c-0.356-1.575-1.136-2.963-2.338-4.164c-1.707-1.707-3.762-2.59-6.164-2.648
		c-2.403-0.058-4.977,1.285-7.719,4.027c-2.196,2.196-3.336,4.516-3.418,6.961c-0.083,2.444,0.766,4.557,2.548,6.339
		c1.814,1.815,3.946,2.67,6.396,2.567c2.447-0.104,4.845-1.328,7.189-3.673c1.484-1.482,2.527-3.028,3.133-4.636
		C214.613,142.559,214.736,140.969,214.381,139.395z"/>
	<path fill="#89A26C" d="M110.741,0H14.436L300,285.564V189.26L110.741,0z M86.213,40.709c-2.118-0.617-3.967-1.717-5.55-3.301
		c-1.715-1.715-2.833-3.662-3.355-5.842c-0.522-2.18-0.415-4.333,0.323-6.463s1.906-3.994,3.505-5.594
		c3.024-3.023,6.204-4.58,9.54-4.667c3.335-0.087,6.287,1.154,8.856,3.724c1.682,1.682,2.796,3.6,3.344,5.754
		c0.547,2.154,0.456,4.305-0.274,6.451c-0.729,2.146-2.005,4.131-3.828,5.953c-1.848,1.849-3.874,3.129-6.078,3.842
		C90.49,41.279,88.33,41.327,86.213,40.709z M102.613,43.922l-7.408,7.408l-2.411-2.411l18.222-18.222l6.874,6.873
		c1.21,1.21,2.076,2.191,2.598,2.946c0.746,1.044,1.212,2.077,1.398,3.101s0.087,2.097-0.298,3.219
		c-0.386,1.123-1.03,2.137-1.933,3.04c-1.549,1.55-3.354,2.368-5.413,2.454c-2.06,0.088-4.378-1.158-6.955-3.734L102.613,43.922z
		 M123.42,79.545l-13.598-13.598l18.222-18.223l13.175,13.176l-2.15,2.15l-10.764-10.764l-5.581,5.581l10.08,10.08l-2.138,2.138
		l-10.08-10.08l-6.203,6.203l11.187,11.186L123.42,79.545z M138.609,94.735l4.749-23.891l-14.319,14.32l-2.312-2.312l18.222-18.223
		l2.474,2.475l-4.736,23.877l14.307-14.307l2.312,2.312l-18.222,18.222L138.609,94.735z M162.027,103.336l-7.408,7.408l-2.412-2.412
		l18.223-18.222l6.873,6.874c1.21,1.209,2.076,2.191,2.598,2.945c0.746,1.044,1.213,2.078,1.398,3.102
		c0.188,1.023,0.088,2.096-0.298,3.219s-1.03,2.137-1.933,3.039c-1.55,1.55-3.354,2.368-5.413,2.455
		c-2.06,0.087-4.378-1.158-6.954-3.734L162.027,103.336z M187.072,133.279l-1.789,8.13l-3.033-3.033l1.379-6.203
		c0.391-1.798,0.647-3.215,0.771-4.25c0.124-1.036,0.122-1.851-0.006-2.443c-0.129-0.592-0.334-1.12-0.615-1.584
		c-0.216-0.332-0.635-0.809-1.256-1.43l-2.797-2.797l-8.092,8.092l-2.411-2.411l18.222-18.222l8.08,8.078
		c1.623,1.625,2.694,3.023,3.213,4.195c0.518,1.173,0.615,2.426,0.291,3.76c-0.322,1.334-0.985,2.503-1.988,3.506
		c-1.293,1.293-2.801,1.964-4.524,2.014c-1.724,0.049-3.579-0.68-5.568-2.188c0.331,0.943,0.514,1.731,0.547,2.361
		C187.553,130.206,187.412,131.68,187.072,133.279z M200.789,155.285c-2.117-0.617-3.967-1.717-5.551-3.301
		c-1.715-1.714-2.833-3.662-3.355-5.841c-0.521-2.18-0.414-4.334,0.323-6.463c0.737-2.13,1.906-3.994,3.505-5.594
		c3.025-3.023,6.205-4.58,9.54-4.667s6.287,1.154,8.856,3.724c1.682,1.682,2.796,3.6,3.344,5.754
		c0.547,2.154,0.455,4.305-0.274,6.451s-2.005,4.131-3.827,5.953c-1.849,1.85-3.875,3.129-6.078,3.842
		C205.066,155.855,202.906,155.902,200.789,155.285z M214.2,169.629c-1.239-0.361-2.397-1.08-3.474-2.156
		c-1.6-1.6-2.364-3.283-2.293-5.053c0.07-1.77,1.029-3.545,2.877-5.326l2.473,1.877c-1.334,1.449-2.025,2.664-2.075,3.643
		c-0.05,0.977,0.336,1.877,1.156,2.697c0.604,0.604,1.266,0.988,1.982,1.148c0.717,0.162,1.396,0.088,2.038-0.223
		s1.486-0.988,2.529-2.033l12.555-12.553l2.411,2.41l-12.417,12.418c-1.525,1.523-2.891,2.521-4.096,2.988
		C216.661,169.936,215.439,169.99,214.2,169.629z M233.746,189.871l-13.599-13.598l18.222-18.223l13.176,13.176l-2.15,2.15
		l-10.764-10.764l-5.581,5.58l10.08,10.08l-2.138,2.139l-10.08-10.08l-6.203,6.201l11.188,11.188L233.746,189.871z M251.011,204.637
		c-2.354-0.273-4.479-1.359-6.376-3.256c-1.965-1.965-3.162-3.961-3.593-5.99c-0.431-2.031-0.209-4.125,0.665-6.283
		c0.874-2.16,2.182-4.109,3.922-5.85c1.897-1.896,3.915-3.189,6.053-3.877c2.139-0.689,4.242-0.73,6.314-0.125
		c2.071,0.605,3.911,1.711,5.519,3.318c1.823,1.824,2.892,3.82,3.207,5.992c0.314,2.17-0.124,4.342-1.317,6.512l-2.934-1.814
		c0.902-1.748,1.256-3.326,1.057-4.734c-0.199-1.41-0.908-2.723-2.126-3.941c-1.4-1.4-2.906-2.234-4.519-2.504
		c-1.611-0.27-3.174-0.029-4.686,0.721s-2.869,1.725-4.07,2.928c-1.55,1.549-2.677,3.127-3.381,4.734
		c-0.705,1.607-0.866,3.174-0.484,4.699c0.381,1.525,1.127,2.842,2.236,3.951c1.352,1.352,2.885,2.105,4.6,2.264
		c1.715,0.156,3.505-0.365,5.369-1.566l1.803,3.02C255.783,204.311,253.363,204.91,251.011,204.637z M284.607,208.59l-6.027-6.029
		l-16.072,16.072l-2.412-2.412l16.072-16.07l-6.004-6.004l2.15-2.15l14.443,14.443L284.607,208.59z"/>
</g>
</svg>
