<?xml version="1.0" encoding="utf-8"?>
<!-- Generator: Adobe Illustrator 16.0.0, SVG Export Plug-In . SVG Version: 6.00 Build 0)  -->
<!DOCTYPE svg PUBLIC "-//W3C//DTD SVG 1.1//EN" "http://www.w3.org/Graphics/SVG/1.1/DTD/svg11.dtd">
<svg version="1.1" id="Layer_1" xmlns="http://www.w3.org/2000/svg" xmlns:xlink="http://www.w3.org/1999/xlink" x="0px" y="0px"
	 width="100px" height="200px" viewBox="0 0 100 200" enable-background="new 0 0 100 200" xml:space="preserve">
<g>
	<path fill="#89A26C" d="M35.07,20.055c0,0.797-0.752,1.603-1.678,1.603H16.608c-0.928,0-1.678-0.806-1.678-1.603l0,0
		c0-0.797,0.75-1.602,1.678-1.602h16.784C34.318,18.453,35.07,19.258,35.07,20.055L35.07,20.055z"/>
	<path fill="#89A26C" d="M24.183,24.978c0,0.58-0.326,1.049-0.729,1.049h-7.291c-0.404,0-0.73-0.469-0.73-1.049l0,0
		c0-0.58,0.326-1.05,0.73-1.05h7.291C23.857,23.928,24.183,24.398,24.183,24.978L24.183,24.978z"/>
	<path fill="#89A26C" d="M34.565,24.978c0,0.58,0.003,1.049-0.387,1.049h-3.89c-0.389,0-0.389-0.469-0.389-1.049l0,0
		c0-0.58,0-1.05,0.389-1.05h3.89C34.565,23.928,34.565,24.398,34.565,24.978L34.565,24.978z"/>
	<path fill="#89A26C" d="M34.565,28.478c0,0.58,0.003,1.05-0.387,1.05h-3.89c-0.389,0-0.389-0.471-0.389-1.05l0,0
		c0-0.58,0-1.049,0.389-1.049h3.89C34.565,27.429,34.565,27.898,34.565,28.478L34.565,28.478z"/>
	<path fill="#89A26C" d="M34.565,31.978c0,0.58,0.003,1.05-0.387,1.05h-3.89c-0.389,0-0.389-0.471-0.389-1.05l0,0
		c0-0.58,0-1.05,0.389-1.05h3.89C34.565,30.928,34.565,31.398,34.565,31.978L34.565,31.978z"/>
	<path fill="#89A26C" d="M24.183,28.478c0,0.58-0.326,1.05-0.729,1.05h-7.291c-0.404,0-0.73-0.471-0.73-1.05l0,0
		c0-0.58,0.326-1.049,0.73-1.049h7.291C23.857,27.429,24.183,27.898,24.183,28.478L24.183,28.478z"/>
	<path fill="#89A26C" d="M24.183,31.978c0,0.58-0.326,1.05-0.729,1.05h-7.291c-0.404,0-0.73-0.471-0.73-1.05l0,0
		c0-0.58,0.326-1.05,0.73-1.05h7.291C23.857,30.928,24.183,31.398,24.183,31.978L24.183,31.978z"/>
	<path fill="#89A26C" d="M31.409,42.5H18.56c-6.545,0-9.66-1.47-9.66-9.821V17.103c0-7.25,2.528-9.603,9.66-9.603h12.849
		c7.056,0,9.691,2.169,9.691,9.603V32.68C41.1,41.135,37.982,42.5,31.409,42.5z M18.56,14.304c-5.277,0-6.16-0.421-6.16,2.798
		v15.577c0,6.197,1.084,6.321,6.16,6.321h12.849c2.361,0,4.22-0.098,4.984-0.844c0.747-0.727,1.206-2.378,1.206-5.479V17.103
		c0-3.077-1.031-2.798-6.19-2.798L18.56,14.304L18.56,14.304z"/>
</g>
<g id="Layer_1_1_">
	<path fill="#89A26C" d="M35.671,170.448c0-0.156,0-0.313,0-0.472c0-2.668-1.49-5.021-3.845-6.199
		c-0.313-3.531-3.218-6.277-6.827-6.277s-6.514,2.746-6.827,6.277c-2.354,1.1-3.845,3.531-3.845,6.199c0,0.157,0,0.314,0,0.472
		c-1.962,1.569-3.06,4.002-3.06,6.514c0,4.708,3.845,8.476,8.475,8.476c0.707,0,1.491-0.078,2.119-0.234v6.12
		c0,0.627,0.549,1.178,1.177,1.178h3.844c0.629,0,1.178-0.551,1.178-1.178v-6.12c0.706,0.156,1.413,0.313,2.197,0.313
		c4.708,0,8.475-3.846,8.475-8.476C38.732,174.529,37.634,172.098,35.671,170.448z M30.257,183.239
		c-1.569,0-3.061-0.628-4.159-1.569v-8.082l0.079-0.079l3.844-3.061c0.471-0.394,0.551-1.099,0.157-1.569
		c-0.392-0.471-1.099-0.549-1.569-0.158l-2.432,1.963v-6.043c0-0.627-0.472-1.099-1.1-1.176l0,0c-0.627,0-1.177,0.549-1.177,1.176
		l-0.078,12.321l-3.767-3.14c-0.471-0.393-1.177-0.313-1.569,0.156c-0.392,0.472-0.313,1.178,0.157,1.647l5.179,4.396v1.728
		c-1.099,0.94-2.512,1.569-4.08,1.569c-3.454,0-6.201-2.748-6.201-6.2c0-2.118,1.021-4.001,2.669-5.101
		c0.392-0.235,0.549-0.707,0.471-1.179c-0.08-0.233-0.08-0.471-0.08-0.784c0-1.962,1.256-3.688,3.06-4.314
		c0.471-0.156,0.786-0.629,0.786-1.1c0-0.078,0-0.078,0-0.158c0-2.51,2.039-4.551,4.551-4.551c2.512,0,4.551,2.041,4.551,4.551
		c0,0.08,0,0.08,0,0.158c0,0.471,0.314,0.942,0.786,1.1c1.804,0.627,3.061,2.275,3.061,4.314c0,0.236,0,0.551-0.08,0.784
		c-0.077,0.472,0.08,0.864,0.471,1.179c1.571,1.1,2.67,2.981,2.67,5.101C36.458,180.493,33.71,183.239,30.257,183.239z"/>
</g>
<path fill="#89A26C" d="M25.288,58.714h-0.836c-0.447,0-0.809-0.362-0.809-0.808v-0.027c0-1.038-0.841-1.879-1.878-1.879H21.72
	c-1.038,0-1.878,0.841-1.878,1.879v0.027c0,0.446-0.362,0.808-0.809,0.808h-0.836c-0.891,0-1.612,0.722-1.612,1.613v0.033
	c0,0.89,0.721,1.612,1.612,1.612h7.09c0.891,0,1.612-0.722,1.612-1.612v-0.033C26.9,59.436,26.178,58.714,25.288,58.714z
	 M21.742,58.714c-0.45,0-0.814-0.364-0.814-0.814c0-0.45,0.364-0.814,0.814-0.814c0.45,0,0.814,0.364,0.814,0.814
	C22.556,58.35,22.192,58.714,21.742,58.714z M25.368,90.2H11.7c-1.2,0-2.172-0.972-2.172-2.172V61.972
	c0-1.2,0.972-2.172,1.628-2.172h4.4c-0.037,0.18-0.057,0.367-0.057,0.56c0,1.487,1.21,2.697,2.698,2.697h7.09
	c1.488,0,2.697-1.21,2.697-2.73c0-0.18-0.02-0.356-0.053-0.526h3.312c1.739,0,2.713,0.972,2.713,2.172v16.313
	c-0.18-0.012-0.359-0.028-0.543-0.028c-0.75,0-1.477,0.106-2.17,0.286V65.772H12.242v21.714h12.513
	C24.815,88.439,25.023,89.354,25.368,90.2z M33.414,79.886c-3.896,0-7.058,3.159-7.058,7.057c0,3.897,3.161,7.057,7.058,7.057
	s7.058-3.159,7.058-7.057C40.471,83.045,37.31,79.886,33.414,79.886z M38.025,85.493l-4.343,4.885
	c-0.215,0.242-0.513,0.365-0.812,0.365c-0.238,0-0.477-0.079-0.677-0.239l-2.715-2.17c-0.468-0.375-0.543-1.059-0.169-1.526
	c0.373-0.469,1.058-0.544,1.526-0.17l1.908,1.527l3.658-4.115c0.398-0.448,1.085-0.488,1.533-0.09
	C38.382,84.359,38.424,85.044,38.025,85.493z M28.527,75h-8.685c-0.3,0-0.543-0.243-0.543-0.542v-0.542
	c0-0.3,0.243-0.543,0.543-0.543h8.685c0.301,0,0.544,0.243,0.544,0.543v0.542C29.071,74.757,28.828,75,28.527,75z M28.527,70.115
	h-8.685c-0.3,0-0.543-0.244-0.543-0.543v-0.544c0-0.298,0.243-0.542,0.543-0.542h8.685c0.301,0,0.544,0.243,0.544,0.542v0.544
	C29.071,69.872,28.828,70.115,28.527,70.115z M25.813,79.343h-5.971c-0.3,0-0.543-0.244-0.543-0.543v-0.543
	c0-0.3,0.243-0.542,0.543-0.542h5.971c0.3,0,0.542,0.242,0.542,0.542V78.8C26.356,79.1,26.114,79.343,25.813,79.343z M24.728,84.228
	h-4.885c-0.3,0-0.543-0.242-0.543-0.542v-0.543c0-0.3,0.243-0.543,0.543-0.543h4.885c0.3,0,0.544,0.243,0.544,0.543v0.543
	C25.271,83.986,25.028,84.228,24.728,84.228z M18.26,68.106l-1.999,2.25c-0.099,0.11-0.236,0.167-0.375,0.167
	c-0.11,0-0.219-0.037-0.312-0.109l-1.25-1c-0.215-0.172-0.251-0.487-0.078-0.702c0.172-0.215,0.487-0.251,0.702-0.078l0.879,0.703
	l1.685-1.894c0.184-0.207,0.499-0.226,0.705-0.042C18.425,67.584,18.443,67.9,18.26,68.106z M18.26,72.937l-1.999,2.249
	c-0.099,0.111-0.236,0.168-0.375,0.168c-0.11,0-0.219-0.036-0.312-0.109l-1.25-1c-0.215-0.172-0.251-0.487-0.078-0.702
	c0.172-0.216,0.487-0.251,0.702-0.079l0.879,0.704l1.685-1.895c0.184-0.206,0.499-0.225,0.705-0.041
	C18.425,72.415,18.443,72.73,18.26,72.937z M18.26,77.556l-1.999,2.249c-0.099,0.111-0.236,0.168-0.375,0.168
	c-0.11,0-0.219-0.036-0.312-0.11l-1.25-0.999c-0.215-0.173-0.251-0.487-0.078-0.704c0.172-0.216,0.487-0.25,0.702-0.078l0.879,0.704
	l1.685-1.895c0.184-0.206,0.499-0.224,0.705-0.042C18.425,77.034,18.443,77.35,18.26,77.556z M18.26,82.207l-1.999,2.25
	c-0.099,0.11-0.236,0.168-0.375,0.168c-0.11,0-0.219-0.037-0.312-0.11l-1.25-1c-0.215-0.172-0.251-0.486-0.078-0.702
	c0.172-0.215,0.487-0.251,0.702-0.078l0.879,0.703l1.685-1.895c0.184-0.206,0.499-0.226,0.705-0.042
	C18.425,81.686,18.443,82,18.26,82.207z"/>
<g>
	<path fill="#FFFFFF" d="M85.07,20.055c0,0.797-0.752,1.603-1.678,1.603H66.607c-0.928,0-1.678-0.806-1.678-1.603l0,0
		c0-0.797,0.75-1.602,1.678-1.602h16.785C84.318,18.453,85.07,19.258,85.07,20.055L85.07,20.055z"/>
	<path fill="#FFFFFF" d="M74.184,24.978c0,0.58-0.326,1.049-0.729,1.049h-7.291c-0.404,0-0.729-0.469-0.729-1.049l0,0
		c0-0.58,0.325-1.05,0.729-1.05h7.291C73.857,23.928,74.184,24.398,74.184,24.978L74.184,24.978z"/>
	<path fill="#FFFFFF" d="M84.564,24.978c0,0.58,0.004,1.049-0.388,1.049h-3.889c-0.39,0-0.39-0.469-0.39-1.049l0,0
		c0-0.58,0-1.05,0.39-1.05h3.889C84.564,23.928,84.564,24.398,84.564,24.978L84.564,24.978z"/>
	<path fill="#FFFFFF" d="M84.564,28.478c0,0.58,0.004,1.05-0.388,1.05h-3.889c-0.39,0-0.39-0.471-0.39-1.05l0,0
		c0-0.58,0-1.049,0.39-1.049h3.889C84.564,27.429,84.564,27.898,84.564,28.478L84.564,28.478z"/>
	<path fill="#FFFFFF" d="M84.564,31.978c0,0.58,0.004,1.05-0.388,1.05h-3.889c-0.39,0-0.39-0.471-0.39-1.05l0,0
		c0-0.58,0-1.05,0.39-1.05h3.889C84.564,30.928,84.564,31.398,84.564,31.978L84.564,31.978z"/>
	<path fill="#FFFFFF" d="M74.184,28.478c0,0.58-0.326,1.05-0.729,1.05h-7.291c-0.404,0-0.729-0.471-0.729-1.05l0,0
		c0-0.58,0.325-1.049,0.729-1.049h7.291C73.857,27.429,74.184,27.898,74.184,28.478L74.184,28.478z"/>
	<path fill="#FFFFFF" d="M74.184,31.978c0,0.58-0.326,1.05-0.729,1.05h-7.291c-0.404,0-0.729-0.471-0.729-1.05l0,0
		c0-0.58,0.325-1.05,0.729-1.05h7.291C73.857,30.928,74.184,31.398,74.184,31.978L74.184,31.978z"/>
	<path fill="#FFFFFF" d="M81.408,42.5H68.561c-6.545,0-9.66-1.47-9.66-9.821V17.103c0-7.25,2.527-9.603,9.66-9.603h12.849
		c7.057,0,9.69,2.169,9.69,9.603V32.68C91.1,41.135,87.982,42.5,81.408,42.5z M68.561,14.304c-5.276,0-6.16-0.421-6.16,2.798v15.577
		c0,6.197,1.084,6.321,6.16,6.321h12.849c2.36,0,4.221-0.098,4.983-0.844c0.748-0.727,1.207-2.378,1.207-5.479V17.103
		c0-3.077-1.031-2.798-6.19-2.798L68.561,14.304L68.561,14.304z"/>
</g>
<g id="Layer_1_2_">
	<path fill="#FFFFFF" d="M85.672,170.448c0-0.156,0-0.313,0-0.472c0-2.668-1.49-5.021-3.846-6.199
		c-0.313-3.531-3.217-6.277-6.826-6.277s-6.514,2.746-6.828,6.277c-2.354,1.1-3.845,3.531-3.845,6.199c0,0.157,0,0.314,0,0.472
		c-1.962,1.569-3.06,4.002-3.06,6.514c0,4.708,3.844,8.476,8.475,8.476c0.707,0,1.49-0.078,2.119-0.234v6.12
		c0,0.627,0.549,1.178,1.177,1.178h3.845c0.629,0,1.178-0.551,1.178-1.178v-6.12c0.705,0.156,1.412,0.313,2.197,0.313
		c4.707,0,8.475-3.846,8.475-8.476C88.732,174.529,87.635,172.098,85.672,170.448z M80.258,183.239c-1.57,0-3.061-0.628-4.16-1.569
		v-8.082l0.08-0.079l3.844-3.061c0.472-0.394,0.552-1.099,0.156-1.569c-0.391-0.471-1.098-0.549-1.568-0.158l-2.432,1.963v-6.043
		c0-0.627-0.473-1.099-1.1-1.176l0,0c-0.627,0-1.178,0.549-1.178,1.176l-0.078,12.321l-3.768-3.14
		c-0.472-0.393-1.177-0.313-1.568,0.156c-0.393,0.471-0.314,1.178,0.156,1.647l5.18,4.396v1.728c-1.1,0.94-2.512,1.569-4.08,1.569
		c-3.453,0-6.201-2.748-6.201-6.2c0-2.118,1.021-4.001,2.67-5.101c0.393-0.235,0.549-0.707,0.471-1.179
		c-0.078-0.233-0.078-0.471-0.078-0.784c0-1.962,1.256-3.688,3.06-4.314c0.472-0.156,0.787-0.629,0.787-1.1c0-0.078,0-0.078,0-0.158
		c0-2.51,2.038-4.551,4.551-4.551s4.552,2.041,4.552,4.551c0,0.08,0,0.08,0,0.158c0,0.471,0.313,0.942,0.784,1.1
		c1.806,0.627,3.062,2.275,3.062,4.314c0,0.236,0,0.551-0.08,0.784c-0.076,0.472,0.08,0.864,0.471,1.179
		c1.572,1.1,2.67,2.981,2.67,5.101C86.457,180.493,83.711,183.239,80.258,183.239z"/>
</g>
<path fill="#FFFFFF" d="M75.287,58.714h-0.836c-0.447,0-0.809-0.362-0.809-0.808v-0.027c0-1.038-0.843-1.879-1.879-1.879h-0.043
	c-1.039,0-1.88,0.841-1.88,1.879v0.027c0,0.446-0.36,0.808-0.809,0.808h-0.837c-0.891,0-1.61,0.722-1.61,1.613v0.033
	c0,0.89,0.722,1.612,1.61,1.612h7.091c0.892,0,1.612-0.722,1.612-1.612v-0.033C76.9,59.436,76.178,58.714,75.287,58.714z
	 M71.742,58.714c-0.45,0-0.814-0.364-0.814-0.814c0-0.45,0.364-0.814,0.814-0.814c0.449,0,0.814,0.364,0.814,0.814
	C72.557,58.35,72.191,58.714,71.742,58.714z M75.367,90.2H61.699c-1.199,0-2.172-0.972-2.172-2.172V61.972
	c0-1.2,0.973-2.172,1.629-2.172h4.4c-0.037,0.18-0.058,0.367-0.058,0.56c0,1.487,1.209,2.697,2.696,2.697h7.091
	c1.487,0,2.696-1.21,2.696-2.73c0-0.18-0.02-0.356-0.053-0.526h3.313c1.738,0,2.713,0.972,2.713,2.172v16.313
	c-0.18-0.012-0.359-0.028-0.543-0.028c-0.75,0-1.477,0.106-2.17,0.286V65.772h-19v21.714h12.514
	C74.814,88.439,75.023,89.354,75.367,90.2z M83.414,79.886c-3.896,0-7.059,3.159-7.059,7.057c0,3.897,3.162,7.057,7.059,7.057
	s7.057-3.159,7.057-7.057S87.311,79.886,83.414,79.886z M88.025,85.493l-4.344,4.885c-0.216,0.242-0.513,0.365-0.813,0.365
	c-0.238,0-0.477-0.079-0.676-0.239l-2.715-2.17c-0.47-0.375-0.543-1.059-0.17-1.526c0.373-0.469,1.059-0.544,1.526-0.17l1.908,1.527
	L86.4,84.05c0.398-0.448,1.084-0.488,1.533-0.09C88.383,84.359,88.424,85.044,88.025,85.493z M78.527,75h-8.687
	c-0.3,0-0.543-0.243-0.543-0.542v-0.542c0-0.3,0.243-0.543,0.543-0.543h8.687c0.301,0,0.543,0.243,0.543,0.543v0.542
	C79.07,74.757,78.828,75,78.527,75z M78.527,70.115h-8.687c-0.3,0-0.543-0.244-0.543-0.543v-0.544c0-0.298,0.243-0.542,0.543-0.542
	h8.687c0.301,0,0.543,0.243,0.543,0.542v0.544C79.07,69.872,78.828,70.115,78.527,70.115z M75.813,79.343h-5.972
	c-0.3,0-0.543-0.244-0.543-0.543v-0.543c0-0.3,0.243-0.542,0.543-0.542h5.972c0.301,0,0.543,0.242,0.543,0.542V78.8
	C76.355,79.1,76.113,79.343,75.813,79.343z M74.729,84.228h-4.887c-0.3,0-0.543-0.242-0.543-0.542v-0.543
	c0-0.3,0.243-0.543,0.543-0.543h4.887c0.299,0,0.543,0.243,0.543,0.543v0.543C75.271,83.986,75.027,84.228,74.729,84.228z
	 M68.26,68.106l-1.998,2.25c-0.1,0.11-0.236,0.167-0.375,0.167c-0.109,0-0.219-0.037-0.312-0.109l-1.249-1
	c-0.217-0.172-0.252-0.487-0.078-0.702c0.172-0.215,0.486-0.251,0.701-0.078l0.879,0.703l1.686-1.894
	c0.184-0.207,0.498-0.226,0.705-0.042C68.426,67.584,68.443,67.9,68.26,68.106z M68.26,72.937l-1.998,2.249
	c-0.1,0.111-0.236,0.168-0.375,0.168c-0.109,0-0.219-0.036-0.312-0.109l-1.249-1c-0.217-0.172-0.252-0.487-0.078-0.702
	c0.172-0.216,0.486-0.251,0.701-0.079l0.879,0.704l1.686-1.895c0.184-0.206,0.498-0.225,0.705-0.041
	C68.426,72.415,68.443,72.73,68.26,72.937z M68.26,77.556l-1.998,2.249c-0.1,0.111-0.236,0.168-0.375,0.168
	c-0.109,0-0.219-0.036-0.312-0.11l-1.249-0.999c-0.217-0.173-0.252-0.487-0.078-0.704c0.172-0.216,0.486-0.25,0.701-0.078
	l0.879,0.704l1.686-1.895c0.184-0.206,0.498-0.224,0.705-0.042C68.426,77.034,68.443,77.35,68.26,77.556z M68.26,82.207l-1.998,2.25
	c-0.1,0.11-0.236,0.168-0.375,0.168c-0.109,0-0.219-0.037-0.312-0.11l-1.249-1c-0.217-0.172-0.252-0.486-0.078-0.702
	c0.172-0.215,0.486-0.251,0.701-0.078l0.879,0.703l1.686-1.895c0.184-0.206,0.498-0.226,0.705-0.042S68.443,82,68.26,82.207z"/>
<g>
	<path fill="#89A26C" d="M18.473,138.109c0,1.044-0.846,1.891-1.89,1.891h-2.747c-1.044-0.001-1.891-0.847-1.891-1.891v-16.455
		c0-1.044,0.846-1.891,1.891-1.891h2.747c1.044,0,1.89,0.847,1.89,1.891L18.473,138.109L18.473,138.109z"/>
	<path fill="#89A26C" d="M28.264,138.109c0,1.044-0.846,1.891-1.891,1.891h-2.747c-1.044,0-1.89-0.847-1.89-1.891v-26.219
		c0-1.044,0.846-1.891,1.89-1.891h2.747c1.045,0.001,1.891,0.847,1.891,1.891V138.109z"/>
	<path fill="#89A26C" d="M38.055,138.109c0,1.044-0.846,1.891-1.891,1.891h-2.748c-1.043,0-1.89-0.847-1.89-1.891v-21.595
		c0-1.044,0.846-1.891,1.89-1.891h2.748c1.044,0,1.891,0.847,1.891,1.891V138.109z"/>
</g>
<g>
	<path fill="#FFFFFF" d="M68.473,138.109c0,1.044-0.846,1.891-1.891,1.891h-2.746c-1.045-0.001-1.891-0.847-1.891-1.891v-16.455
		c0-1.044,0.846-1.891,1.891-1.891h2.747c1.044,0,1.89,0.847,1.89,1.891V138.109L68.473,138.109z"/>
	<path fill="#FFFFFF" d="M78.264,138.109c0,1.044-0.846,1.891-1.891,1.891h-2.747c-1.044,0-1.89-0.847-1.89-1.891v-26.219
		c0-1.044,0.846-1.891,1.89-1.891h2.747c1.045,0.001,1.891,0.847,1.891,1.891V138.109z"/>
	<path fill="#FFFFFF" d="M88.055,138.109c0,1.044-0.846,1.891-1.891,1.891h-2.748c-1.043,0-1.889-0.847-1.889-1.891v-21.595
		c0-1.044,0.846-1.891,1.889-1.891h2.748c1.045,0,1.891,0.847,1.891,1.891V138.109z"/>
</g>
</svg>
