<?xml version="1.0" encoding="utf-8"?>
<!-- Generator: Adobe Illustrator 16.0.0, SVG Export Plug-In . SVG Version: 6.00 Build 0)  -->
<!DOCTYPE svg PUBLIC "-//W3C//DTD SVG 1.1//EN" "http://www.w3.org/Graphics/SVG/1.1/DTD/svg11.dtd">
<svg version="1.1" id="Layer_1" xmlns="http://www.w3.org/2000/svg" xmlns:xlink="http://www.w3.org/1999/xlink" x="0px" y="0px"
	 width="24px" height="24px" viewBox="0 0 24 24" enable-background="new 0 0 24 24" xml:space="preserve">
<g>
	<path fill="#555655" d="M16.038,1.757h-2.462C13.266,1.293,12.665,1,12,1s-1.265,0.293-1.576,0.757H7.962
		c-0.397,0-0.719,0.322-0.719,0.719v18.872c0,0.397,0.322,0.72,0.719,0.72h2.362C10.586,22.625,11.247,23,12,23
		s1.414-0.375,1.675-0.932h2.363c0.396,0,0.719-0.322,0.719-0.72V2.477C16.757,2.08,16.435,1.757,16.038,1.757z M12,13.621
		c-0.941,0-1.708-0.766-1.708-1.708s0.767-1.708,1.708-1.708s1.708,0.766,1.708,1.708S12.941,13.621,12,13.621z M12,15.952
		c0.941,0,1.708,0.767,1.708,1.708c0,0.942-0.767,1.708-1.708,1.708s-1.708-0.766-1.708-1.708
		C10.292,16.719,11.059,15.952,12,15.952z M12,7.874c-0.941,0-1.708-0.766-1.708-1.708S11.059,4.458,12,4.458
		s1.708,0.766,1.708,1.708S12.941,7.874,12,7.874z"/>
</g>
</svg>
