<?xml version="1.0" encoding="utf-8"?>
<!-- Generator: Adobe Illustrator 16.0.0, SVG Export Plug-In . SVG Version: 6.00 Build 0)  -->
<!DOCTYPE svg PUBLIC "-//W3C//DTD SVG 1.1//EN" "http://www.w3.org/Graphics/SVG/1.1/DTD/svg11.dtd">
<svg version="1.1" id="Layer_1" xmlns="http://www.w3.org/2000/svg" xmlns:xlink="http://www.w3.org/1999/xlink" x="0px" y="0px"
	 width="100px" height="100px" viewBox="0 0 100 100" enable-background="new 0 0 100 100" xml:space="preserve">
<g>
	<path fill="#555655" d="M94.982,27.663V14.574c0-0.712-0.571-1.289-1.276-1.289H6.276C5.572,13.285,5,13.861,5,14.574v16.875
		c0,0.09,0.009,0.178,0.026,0.263v55.003H95V27.663H94.982z M91.778,83.494H8.247V32.736h83.531V83.494z"/>
	<g>
		<polygon fill="#1E5C90" points="41.593,66.759 24.599,58.005 24.599,56.027 41.593,47.274 41.593,49.8 27.272,56.979 
			27.272,57.054 41.593,64.231 		"/>
		<polygon fill="#1E5C90" points="75.541,58.043 58.548,66.76 58.548,64.232 72.979,57.054 72.979,56.98 58.548,49.802 
			58.548,47.275 75.541,55.991 75.541,58.043 		"/>
		<polygon fill="#1E5C90" points="45.122,72.831 42.296,72.831 54.057,42.261 56.925,42.261 		"/>
	</g>
</g>
</svg>
