<?xml version="1.0" encoding="utf-8"?>
<!-- Generator: Adobe Illustrator 16.0.0, SVG Export Plug-In . SVG Version: 6.00 Build 0)  -->
<!DOCTYPE svg PUBLIC "-//W3C//DTD SVG 1.1//EN" "http://www.w3.org/Graphics/SVG/1.1/DTD/svg11.dtd">
<svg version="1.1" id="Layer_1" xmlns="http://www.w3.org/2000/svg" xmlns:xlink="http://www.w3.org/1999/xlink" x="0px" y="0px"
	 width="50px" height="100px" viewBox="0 0 50 100" enable-background="new 0 0 50 100" xml:space="preserve">
<g>
	<path fill="#5E6570" d="M43.145,4.678H6.855C4.459,4.678,2.5,6.637,2.5,9.033c0,2.395,1.959,4.354,4.355,4.354h36.29
		c2.396,0,4.355-1.959,4.355-4.354C47.5,6.637,45.54,4.678,43.145,4.678z"/>
	<path fill="#5E6570" d="M43.145,20.645H6.855C4.459,20.645,2.5,22.604,2.5,25s1.959,4.355,4.355,4.355h36.29
		c2.396,0,4.355-1.961,4.355-4.355C47.5,22.604,45.54,20.645,43.145,20.645z"/>
	<path fill="#5E6570" d="M43.145,36.613H6.855c-2.396,0-4.355,1.96-4.355,4.354c0,2.396,1.959,4.355,4.355,4.355h36.29
		c2.396,0,4.355-1.961,4.355-4.355C47.5,38.573,45.54,36.613,43.145,36.613z"/>
</g>
<g>
	<g>
		<path fill="#5E6570" d="M43.9,88.6l-9.176-9.178c-1.367,2.126-3.178,3.936-5.305,5.303l9.178,9.178
			c1.465,1.465,3.842,1.465,5.303,0C45.366,92.439,45.366,90.062,43.9,88.6z"/>
		<path fill="#5E6570" d="M35,70c0-8.284-6.716-15-15-15S5,61.716,5,70c0,8.283,6.716,15,15,15S35,78.283,35,70z M20,81.249
			c-6.204,0-11.25-5.046-11.25-11.249c0-6.204,5.046-11.25,11.25-11.25c6.203,0,11.25,5.046,11.25,11.25
			C31.25,76.203,26.203,81.249,20,81.249z"/>
		<path fill="#5E6570" d="M11.25,70h2.5c0-3.445,2.804-6.25,6.25-6.25v-2.5C15.176,61.25,11.25,65.176,11.25,70z"/>
	</g>
</g>
</svg>
