<?xml version="1.0" encoding="utf-8"?>
<!-- Generator: Adobe Illustrator 16.0.0, SVG Export Plug-In . SVG Version: 6.00 Build 0)  -->
<!DOCTYPE svg PUBLIC "-//W3C//DTD SVG 1.1//EN" "http://www.w3.org/Graphics/SVG/1.1/DTD/svg11.dtd">
<svg version="1.1" id="Layer_1" xmlns="http://www.w3.org/2000/svg" xmlns:xlink="http://www.w3.org/1999/xlink" x="0px" y="0px"
	 width="50px" height="50px" viewBox="0 0 50 50" enable-background="new 0 0 50 50" xml:space="preserve">
<g>
	<g>
		<path fill="#B6C2D3" stroke="#5E6570" stroke-width="0.5" stroke-miterlimit="10" d="M10.257,34.647
			c5.096,0.099,9.512,0.861,12.77,2.203c0.056,0.023,0.115,0.034,0.172,0.034c0.089,0,0.178-0.026,0.253-0.077
			c0.126-0.083,0.202-0.226,0.202-0.376l0.001-24.359c0-0.186-0.114-0.353-0.286-0.422L10.434,6.503
			c-0.139-0.056-0.297-0.039-0.422,0.046C9.887,6.634,9.812,6.775,9.812,6.925v27.268C9.812,34.441,10.01,34.643,10.257,34.647z"/>
		<path fill="#5E6570" d="M47.317,10.829c-0.115-0.085-0.264-0.111-0.4-0.071l-4.576,1.369c-0.191,0.057-0.323,0.234-0.323,0.434
			v23.531c0,0,0.02,0.371-0.371,0.371c-0.447,0-0.741,0-0.741,0c-3.69,0-10.55,0.384-15.019,2.949L25,39.921l-0.887-0.509
			c-4.469-2.565-11.327-2.949-15.018-2.949c0,0-0.756,0-0.947,0c-0.176,0-0.165-0.211-0.165-0.211V12.561
			c0-0.2-0.131-0.377-0.324-0.434l-4.575-1.369c-0.137-0.041-0.286-0.014-0.4,0.071C2.567,10.915,2.5,11.05,2.5,11.193v28.469
			c0,0.129,0.054,0.251,0.149,0.338c0.095,0.085,0.222,0.128,0.349,0.115c1.36-0.135,3.485-0.294,5.891-0.294
			c5.283,0,9.528,0.772,12.279,2.232c0.404,0.212,2.748,1.476,3.832,1.476c1.084,0,3.428-1.264,3.832-1.476
			c2.751-1.46,6.996-2.232,12.279-2.232c2.405,0,4.531,0.159,5.89,0.294c0.128,0.013,0.255-0.03,0.35-0.115
			c0.095-0.087,0.149-0.209,0.149-0.338V11.193C47.5,11.05,47.432,10.915,47.317,10.829z"/>
		<path fill="#B6C2D3" stroke="#5E6570" stroke-width="0.5" stroke-miterlimit="10" d="M26.547,36.808
			c0.076,0.051,0.164,0.077,0.253,0.077c0.058,0,0.117-0.011,0.172-0.034c3.26-1.342,7.676-2.104,12.771-2.203
			c0.246-0.005,0.445-0.206,0.445-0.454V6.925c0-0.15-0.074-0.291-0.199-0.376c-0.124-0.084-0.282-0.102-0.423-0.046L26.629,11.65
			c-0.172,0.069-0.285,0.236-0.285,0.422l0.002,24.359C26.346,36.582,26.422,36.725,26.547,36.808z"/>
	</g>
</g>
</svg>
