<?xml version="1.0" encoding="utf-8"?>
<!-- Generator: Adobe Illustrator 16.0.0, SVG Export Plug-In . SVG Version: 6.00 Build 0)  -->
<!DOCTYPE svg PUBLIC "-//W3C//DTD SVG 1.1//EN" "http://www.w3.org/Graphics/SVG/1.1/DTD/svg11.dtd">
<svg version="1.1" id="Layer_1" xmlns="http://www.w3.org/2000/svg" xmlns:xlink="http://www.w3.org/1999/xlink" x="0px" y="0px"
	 width="100px" height="300px" viewBox="0 0 100 300" enable-background="new 0 0 100 300" xml:space="preserve">
<path fill="#5F6671" d="M42.5,25c0,9.664-7.837,17.5-17.499,17.5C15.336,42.5,7.5,34.664,7.5,25S15.336,7.5,25.001,7.5
	C34.664,7.5,42.5,15.336,42.5,25z M25.001,20.415c-2.534,0-4.586,2.054-4.586,4.585c0,2.533,2.054,4.586,4.586,4.586
	c2.531,0,4.584-2.054,4.584-4.586S27.533,20.415,25.001,20.415z"/>
<path fill="#5F6671" d="M11.379,178.842c0.312,1.065,0.739,2.092,1.285,3.053l-1.552,1.959c-0.507,0.64-0.45,1.551,0.12,2.129
	l2.674,2.672c0.576,0.578,1.486,0.628,2.128,0.121l1.944-1.539c1.002,0.576,2.066,1.024,3.175,1.342l0.291,2.502
	c0.094,0.811,0.779,1.421,1.591,1.421h3.779c0.812,0,1.496-0.61,1.595-1.421l0.274-2.415c1.195-0.31,2.33-0.772,3.404-1.372
	l1.885,1.486c0.641,0.506,1.551,0.449,2.131-0.12l2.668-2.673c0.574-0.577,0.627-1.487,0.121-2.129l-1.467-1.855
	c0.612-1.051,1.08-2.172,1.397-3.348l2.256-0.26c0.81-0.096,1.419-0.779,1.419-1.59v-3.783c0-0.81-0.609-1.492-1.419-1.588
	l-2.224-0.261c-0.307-1.162-0.76-2.271-1.346-3.31l1.37-1.728c0.506-0.64,0.448-1.554-0.118-2.13l-2.669-2.665
	c-0.571-0.577-1.483-0.626-2.127-0.12l-1.679,1.327c-1.086-0.64-2.251-1.128-3.473-1.454l-0.258-2.174
	c-0.094-0.813-0.779-1.421-1.592-1.421H23.19c-0.812,0-1.496,0.608-1.593,1.421l-0.251,2.174c-1.254,0.333-2.453,0.844-3.567,1.506
	l-1.743-1.379c-0.64-0.506-1.553-0.449-2.128,0.12l-2.674,2.67c-0.577,0.577-0.627,1.49-0.12,2.13l1.457,1.844
	c-0.582,1.054-1.026,2.175-1.316,3.339l-2.333,0.266c-0.812,0.097-1.42,0.782-1.42,1.593v3.783c0,0.811,0.608,1.491,1.42,1.59
	L11.379,178.842z M25.082,168.611c3.446,0,6.252,2.808,6.252,6.253c0,3.446-2.806,6.255-6.252,6.255
	c-3.445,0-6.253-2.809-6.253-6.255C18.828,171.419,21.633,168.611,25.082,168.611z"/>
<g>
	<g id="Layer_1_110_">
		<g>
			<path fill="#5F6671" d="M20.582,119.371l-2.128-2.013c0.248-0.451,0.4-0.963,0.4-1.512c0-1.743-1.414-3.157-3.158-3.157
				c-1.744,0-3.158,1.412-3.158,3.157c0,1.745,1.414,3.158,3.158,3.158c0.614,0,1.186-0.183,1.669-0.487l2.126,2.01
				C19.814,120.102,20.179,119.712,20.582,119.371z"/>
			<path fill="#5F6671" d="M29.586,119.117l2.827-4.758c0.278,0.08,0.565,0.137,0.869,0.137c1.747,0,3.161-1.414,3.161-3.158
				c0-1.743-1.414-3.159-3.161-3.159c-1.744,0-3.155,1.414-3.155,3.159c0,0.863,0.348,1.649,0.913,2.22l-2.821,4.747
				C28.708,118.521,29.167,118.794,29.586,119.117z"/>
			<path fill="#5F6671" d="M39.342,123.104c-1.355,0-2.508,0.864-2.953,2.068l-3.932-0.385c0,0.03,0.005,0.056,0.005,0.087
				c0,0.509-0.058,1.013-0.157,1.494l3.928,0.388c0.238,1.507,1.537,2.663,3.113,2.663c1.743,0,3.154-1.414,3.154-3.158
				C42.5,124.516,41.086,123.104,39.342,123.104z"/>
			<path fill="#5F6671" d="M28.498,135.52l-0.878-3.839c-0.494,0.172-1.012,0.295-1.551,0.358l0.881,3.839
				c-1.01,0.528-1.706,1.572-1.706,2.789c0,1.742,1.414,3.155,3.161,3.155c1.742,0,3.154-1.413,3.154-3.155
				C31.563,136.955,30.196,135.568,28.498,135.52z"/>
			<path fill="#5F6671" d="M18.193,126.394l-4.895,1.638c-0.562-0.861-1.536-1.434-2.642-1.434c-1.746,0-3.157,1.414-3.157,3.158
				c0,1.745,1.411,3.158,3.157,3.158c1.743,0,3.158-1.414,3.158-3.158c0-0.074-0.015-0.143-0.022-0.211l4.908-1.646
				C18.481,127.42,18.306,126.919,18.193,126.394z"/>
			<circle fill="#5F6671" cx="25.247" cy="124.869" r="5.415"/>
		</g>
	</g>
</g>
<g>
	<g>
		<path fill="#5F6671" d="M42.13,267.873c0.31,0.386,0.425,0.85,0.347,1.391l-1.467,8.418c-0.052,0.438-0.252,0.797-0.599,1.08
			c-0.349,0.283-0.74,0.426-1.179,0.426H17.842l-0.425,2.394h20.388c0.488,0,0.913,0.174,1.273,0.521
			c0.359,0.348,0.54,0.779,0.54,1.295c0,0.515-0.181,0.945-0.54,1.293c-0.36,0.348-0.785,0.521-1.273,0.521h-22.55
			c-0.541,0-1.004-0.219-1.39-0.656c-0.36-0.438-0.502-0.938-0.425-1.506l0.965-5.251l-1.467-14.75l-4.17-1.313
			c-0.489-0.153-0.843-0.45-1.062-0.889c-0.219-0.438-0.264-0.9-0.135-1.39c0.155-0.489,0.457-0.845,0.908-1.062
			c0.45-0.22,0.907-0.265,1.371-0.136l5.329,1.698c0.334,0.104,0.611,0.297,0.83,0.579c0.219,0.282,0.354,0.606,0.405,0.966
			l0.309,2.936l24.171,2.702C41.436,267.217,41.848,267.461,42.13,267.873z M17.998,286.214c0.772,0,1.428,0.271,1.969,0.812
			s0.811,1.197,0.811,1.97c0,0.771-0.27,1.435-0.811,1.987c-0.541,0.555-1.197,0.83-1.969,0.83s-1.429-0.275-1.97-0.83
			c-0.541-0.553-0.811-1.215-0.811-1.987s0.27-1.429,0.811-1.97S17.226,286.214,17.998,286.214z M34.485,286.214
			c0.771,0,1.429,0.271,1.969,0.812c0.541,0.541,0.813,1.197,0.813,1.97c0,0.771-0.271,1.435-0.813,1.987
			c-0.54,0.555-1.196,0.83-1.969,0.83c-0.773,0-1.43-0.275-1.969-0.83c-0.543-0.553-0.813-1.215-0.813-1.987s0.27-1.429,0.813-1.97
			C33.057,286.484,33.712,286.214,34.485,286.214z"/>
	</g>
</g>
<g>
	<path fill="#5F6671" d="M39.704,57.5H15.372c-1.257,0-2.278,1.021-2.278,2.277v5.586h-2.798c-1.256,0-2.277,1.022-2.277,2.279
		v22.58c0,1.257,1.021,2.277,2.277,2.277h2.097h27.312c1.257,0,2.278-1.021,2.278-2.277V59.777
		C41.981,58.521,40.96,57.5,39.704,57.5z M36.83,86.833H18.611c-0.436,0-0.788-0.353-0.788-0.788s0.353-0.788,0.788-0.788H36.83
		c0.435,0,0.788,0.353,0.788,0.788S37.264,86.833,36.83,86.833z M36.83,82.628H18.611c-0.436,0-0.788-0.353-0.788-0.788
		s0.353-0.788,0.788-0.788H36.83c0.435,0,0.788,0.353,0.788,0.788S37.264,82.628,36.83,82.628z M36.83,78.424H18.611
		c-0.436,0-0.788-0.353-0.788-0.788c0-0.435,0.353-0.788,0.788-0.788H36.83c0.435,0,0.788,0.353,0.788,0.788
		C37.618,78.071,37.264,78.424,36.83,78.424z M36.83,74.221H18.611c-0.436,0-0.788-0.353-0.788-0.788s0.353-0.788,0.788-0.788H36.83
		c0.435,0,0.788,0.354,0.788,0.788C37.618,73.868,37.264,74.221,36.83,74.221z M36.83,70.018H18.611
		c-0.436,0-0.788-0.354-0.788-0.789s0.353-0.788,0.788-0.788H36.83c0.435,0,0.788,0.354,0.788,0.788
		C37.618,69.664,37.264,70.018,36.83,70.018z M36.83,65.813H18.611c-0.436,0-0.788-0.354-0.788-0.789s0.353-0.788,0.788-0.788H36.83
		c0.435,0,0.788,0.354,0.788,0.788C37.618,65.459,37.264,65.813,36.83,65.813z"/>
</g>
<g>
	<path fill="#5F6671" d="M34.164,222.543h-0.511v-6.391c0-4.771-3.883-8.652-8.652-8.652c-4.77,0-8.652,3.881-8.652,8.652v0.488
		c0,1.303,1.057,2.359,2.36,2.359s2.358-1.057,2.358-2.359v-0.488c0-2.168,1.766-3.936,3.934-3.936s3.934,1.768,3.934,3.936v6.391
		H15.837c-1.781,0-3.225,1.443-3.225,3.225v13.508c0,1.781,1.443,3.225,3.225,3.225h18.326c1.78,0,3.226-1.441,3.226-3.225v-13.508
		C37.389,223.986,35.944,222.543,34.164,222.543z M26.77,232.783v2.344c0,0.979-0.791,1.77-1.77,1.77c-0.978,0-1.77-0.791-1.77-1.77
		v-2.344c-0.771-0.555-1.278-1.453-1.278-2.475c0-1.684,1.364-3.049,3.049-3.049c1.683,0,3.047,1.365,3.047,3.049
		C28.048,231.33,27.542,232.229,26.77,232.783z"/>
</g>
<path fill="#FFFFFF" d="M92.5,24.999c0,9.664-7.836,17.5-17.498,17.5c-9.666,0-17.502-7.836-17.502-17.5s7.836-17.5,17.502-17.5
	C84.664,7.499,92.5,15.335,92.5,24.999z M75.002,20.414c-2.535,0-4.586,2.054-4.586,4.585c0,2.533,2.053,4.586,4.586,4.586
	c2.531,0,4.584-2.054,4.584-4.586S77.533,20.414,75.002,20.414z"/>
<path fill="#FFFFFF" d="M61.38,178.842c0.312,1.065,0.739,2.092,1.285,3.053l-1.553,1.959c-0.507,0.64-0.449,1.551,0.12,2.129
	l2.675,2.672c0.575,0.578,1.485,0.628,2.128,0.121l1.943-1.539c1.002,0.576,2.066,1.024,3.175,1.342l0.291,2.502
	c0.095,0.811,0.779,1.421,1.592,1.421h3.778c0.813,0,1.496-0.61,1.596-1.421l0.273-2.415c1.195-0.31,2.33-0.772,3.404-1.372
	l1.885,1.486c0.641,0.506,1.551,0.449,2.131-0.12l2.668-2.673c0.574-0.577,0.627-1.487,0.121-2.129l-1.467-1.855
	c0.613-1.051,1.08-2.172,1.398-3.348l2.256-0.26c0.809-0.096,1.418-0.779,1.418-1.59v-3.783c0-0.81-0.609-1.492-1.418-1.588
	l-2.225-0.261c-0.307-1.162-0.76-2.271-1.346-3.31l1.371-1.728c0.506-0.64,0.447-1.554-0.119-2.13l-2.668-2.665
	c-0.572-0.577-1.484-0.626-2.127-0.12l-1.68,1.327c-1.086-0.64-2.25-1.128-3.473-1.454l-0.258-2.174
	c-0.094-0.813-0.779-1.421-1.592-1.421H73.19c-0.812,0-1.496,0.608-1.593,1.421l-0.251,2.174c-1.254,0.333-2.453,0.844-3.567,1.506
	l-1.742-1.379c-0.641-0.506-1.554-0.449-2.128,0.12l-2.675,2.67c-0.576,0.577-0.627,1.49-0.119,2.13l1.456,1.844
	c-0.582,1.054-1.025,2.175-1.315,3.339l-2.333,0.266c-0.813,0.097-1.42,0.782-1.42,1.593v3.783c0,0.811,0.607,1.491,1.42,1.59
	L61.38,178.842z M75.082,168.611c3.445,0,6.252,2.808,6.252,6.253c0,3.446-2.807,6.255-6.252,6.255s-6.253-2.809-6.253-6.255
	C68.828,171.419,71.634,168.611,75.082,168.611z"/>
<g>
	<g id="Layer_1_1_">
		<g>
			<path fill="#FFFFFF" d="M70.582,119.37l-2.128-2.013c0.248-0.451,0.399-0.963,0.399-1.512c0-1.743-1.414-3.157-3.158-3.157
				c-1.743,0-3.157,1.412-3.157,3.157c0,1.744,1.414,3.157,3.157,3.157c0.614,0,1.187-0.183,1.669-0.486l2.127,2.01
				C69.814,120.102,70.179,119.712,70.582,119.37z"/>
			<path fill="#FFFFFF" d="M79.586,119.116l2.828-4.758c0.277,0.08,0.564,0.137,0.869,0.137c1.746,0,3.16-1.414,3.16-3.158
				c0-1.743-1.414-3.158-3.16-3.158c-1.744,0-3.156,1.413-3.156,3.158c0,0.863,0.348,1.649,0.914,2.221l-2.822,4.747
				C78.709,118.521,79.168,118.794,79.586,119.116z"/>
			<path fill="#FFFFFF" d="M89.342,123.104c-1.355,0-2.508,0.863-2.953,2.067l-3.932-0.385c0,0.03,0.006,0.056,0.006,0.087
				c0,0.509-0.059,1.013-0.158,1.494l3.928,0.388c0.238,1.508,1.537,2.663,3.113,2.663c1.744,0,3.154-1.414,3.154-3.158
				S91.086,123.104,89.342,123.104z"/>
			<path fill="#FFFFFF" d="M78.498,135.52l-0.879-3.839c-0.494,0.172-1.012,0.295-1.551,0.357l0.881,3.839
				c-1.009,0.528-1.705,1.572-1.705,2.789c0,1.742,1.414,3.155,3.16,3.155c1.742,0,3.154-1.413,3.154-3.155
				C81.563,136.954,80.195,135.568,78.498,135.52z"/>
			<path fill="#FFFFFF" d="M68.193,126.394l-4.895,1.638c-0.563-0.861-1.536-1.434-2.642-1.434c-1.746,0-3.157,1.413-3.157,3.157
				c0,1.745,1.411,3.158,3.157,3.158c1.742,0,3.157-1.414,3.157-3.158c0-0.073-0.015-0.143-0.021-0.211l4.908-1.646
				C68.481,127.42,68.306,126.919,68.193,126.394z"/>
			<circle fill="#FFFFFF" cx="75.247" cy="124.868" r="5.415"/>
		</g>
	</g>
</g>
<g>
	<g>
		<path fill="#FFFFFF" d="M92.131,267.873c0.309,0.386,0.424,0.85,0.346,1.391l-1.467,8.418c-0.051,0.438-0.252,0.797-0.598,1.08
			c-0.35,0.283-0.74,0.426-1.18,0.426h-21.39l-0.425,2.394h20.387c0.488,0,0.914,0.174,1.273,0.521
			c0.359,0.348,0.541,0.779,0.541,1.295c0,0.515-0.182,0.945-0.541,1.293s-0.785,0.521-1.273,0.521H65.256
			c-0.541,0-1.004-0.219-1.39-0.656c-0.36-0.438-0.503-0.938-0.426-1.506l0.965-5.251l-1.467-14.75l-4.17-1.313
			c-0.489-0.153-0.843-0.45-1.062-0.889c-0.22-0.438-0.265-0.9-0.136-1.39c0.155-0.489,0.457-0.845,0.908-1.062
			c0.45-0.22,0.907-0.265,1.371-0.136l5.329,1.698c0.334,0.104,0.611,0.297,0.83,0.579s0.354,0.606,0.405,0.966l0.309,2.936
			l24.171,2.702C91.436,267.217,91.848,267.461,92.131,267.873z M67.998,286.214c0.771,0,1.428,0.271,1.969,0.812
			s0.811,1.197,0.811,1.97c0,0.771-0.27,1.435-0.811,1.987c-0.541,0.555-1.197,0.83-1.969,0.83c-0.772,0-1.43-0.275-1.971-0.83
			c-0.541-0.553-0.811-1.215-0.811-1.987s0.27-1.429,0.811-1.97S67.226,286.214,67.998,286.214z M84.484,286.214
			c0.771,0,1.43,0.271,1.969,0.812c0.541,0.541,0.813,1.197,0.813,1.97c0,0.771-0.271,1.435-0.813,1.987
			c-0.539,0.555-1.195,0.83-1.969,0.83s-1.43-0.275-1.969-0.83c-0.543-0.553-0.813-1.215-0.813-1.987s0.27-1.429,0.813-1.97
			C83.057,286.484,83.713,286.214,84.484,286.214z"/>
	</g>
</g>
<g>
	<path fill="#FFFFFF" d="M89.703,57.5H65.372c-1.258,0-2.278,1.021-2.278,2.277v5.586h-2.798c-1.256,0-2.277,1.021-2.277,2.279
		v22.58c0,1.257,1.021,2.276,2.277,2.276h2.097h27.313c1.256,0,2.277-1.021,2.277-2.276V59.778
		C91.98,58.522,90.961,57.5,89.703,57.5z M86.83,86.833H68.611c-0.436,0-0.787-0.353-0.787-0.788c0-0.435,0.353-0.788,0.787-0.788
		H86.83c0.434,0,0.787,0.354,0.787,0.788C87.617,86.48,87.264,86.833,86.83,86.833z M86.83,82.628H68.611
		c-0.436,0-0.787-0.353-0.787-0.788c0-0.435,0.353-0.788,0.787-0.788H86.83c0.434,0,0.787,0.354,0.787,0.788
		C87.617,82.276,87.264,82.628,86.83,82.628z M86.83,78.424H68.611c-0.436,0-0.787-0.353-0.787-0.788
		c0-0.435,0.353-0.787,0.787-0.787H86.83c0.434,0,0.787,0.353,0.787,0.787C87.617,78.072,87.264,78.424,86.83,78.424z M86.83,74.221
		H68.611c-0.436,0-0.787-0.354-0.787-0.788c0-0.436,0.353-0.788,0.787-0.788H86.83c0.434,0,0.787,0.354,0.787,0.788
		S87.264,74.221,86.83,74.221z M86.83,70.018H68.611c-0.436,0-0.787-0.354-0.787-0.789c0-0.436,0.353-0.788,0.787-0.788H86.83
		c0.434,0,0.787,0.354,0.787,0.788S87.264,70.018,86.83,70.018z M86.83,65.813H68.611c-0.436,0-0.787-0.354-0.787-0.789
		c0-0.436,0.353-0.788,0.787-0.788H86.83c0.434,0,0.787,0.354,0.787,0.788C87.617,65.459,87.264,65.813,86.83,65.813z"/>
</g>
<g>
	<path fill="#FFFFFF" d="M84.164,222.543h-0.512v-6.391c0-4.771-3.883-8.652-8.651-8.652c-4.771,0-8.652,3.881-8.652,8.652v0.488
		c0,1.303,1.057,2.359,2.36,2.359c1.303,0,2.357-1.057,2.357-2.359v-0.488c0-2.168,1.767-3.936,3.935-3.936
		c2.167,0,3.933,1.768,3.933,3.936v6.391H65.838c-1.781,0-3.226,1.443-3.226,3.225v13.508c0,1.781,1.443,3.225,3.226,3.225h18.326
		c1.779,0,3.225-1.441,3.225-3.225v-13.508C87.389,223.986,85.943,222.543,84.164,222.543z M76.77,232.783v2.344
		c0,0.979-0.79,1.77-1.769,1.77s-1.771-0.791-1.771-1.77v-2.344c-0.771-0.555-1.277-1.453-1.277-2.475
		c0-1.684,1.363-3.049,3.049-3.049c1.682,0,3.047,1.365,3.047,3.049C78.049,231.33,77.541,232.229,76.77,232.783z"/>
</g>
</svg>
