<?xml version="1.0" encoding="utf-8"?>
<!-- Generator: Adobe Illustrator 16.0.0, SVG Export Plug-In . SVG Version: 6.00 Build 0)  -->
<!DOCTYPE svg PUBLIC "-//W3C//DTD SVG 1.1//EN" "http://www.w3.org/Graphics/SVG/1.1/DTD/svg11.dtd">
<svg version="1.1" id="Layer_1" xmlns="http://www.w3.org/2000/svg" xmlns:xlink="http://www.w3.org/1999/xlink" x="0px" y="0px"
	 width="100px" height="600px" viewBox="0 0 100 600" enable-background="new 0 0 100 600" xml:space="preserve">
<g>
	<path fill="#FFFFFF" stroke="#4A4A4A" stroke-miterlimit="10" d="M74.005,25.991h-48.01c-0.549,0-0.995,0.444-0.995,0.993v46.031
		c0,0.55,0.445,0.994,0.995,0.994h48.01c0.551,0,0.995-0.443,0.995-0.994V26.984C75,26.436,74.556,25.991,74.005,25.991z
		 M63.149,37.87v6.105c0,7.25-5.898,13.149-13.149,13.149s-13.149-5.899-13.149-13.149V37.7c-0.79-0.375-1.34-1.173-1.34-2.104
		c0-1.287,1.046-2.334,2.333-2.334c1.287,0,2.335,1.047,2.335,2.334c0,0.931-0.551,1.729-1.341,2.104v6.275
		c0,6.155,5.007,11.162,11.162,11.162c6.154,0,11.162-5.006,11.162-11.162v-6.104c-0.876-0.385-1.489-1.258-1.489-2.273
		c0-1.369,1.113-2.483,2.482-2.483c1.37,0,2.483,1.114,2.483,2.483C64.639,36.612,64.026,37.485,63.149,37.87z"/>
</g>
<g>
	<path fill="#FFFFFF" stroke="#4A4A4A" stroke-miterlimit="10" d="M55.174,136.183c2.312,1.45,3.933,3.902,4.228,6.75
		c0.943,0.44,1.989,0.694,3.1,0.694c4.05,0,7.332-3.283,7.332-7.333c0-4.05-3.282-7.333-7.332-7.333
		C58.488,128.962,55.234,132.186,55.174,136.183z M50.369,151.197c4.05,0,7.334-3.283,7.334-7.333c0-4.049-3.284-7.333-7.334-7.333
		s-7.335,3.284-7.335,7.333C43.034,147.915,46.319,151.197,50.369,151.197z M53.479,151.697h-6.222
		c-5.177,0-9.389,4.212-9.389,9.389v7.61l0.019,0.119l0.525,0.165c4.94,1.543,9.233,2.059,12.765,2.059
		c6.9,0,10.901-1.968,11.147-2.094l0.49-0.248h0.053v-7.611C62.869,155.909,58.657,151.697,53.479,151.697z M65.612,144.126h-6.174
		c-0.068,2.47-1.122,4.695-2.79,6.294c4.602,1.37,7.969,5.637,7.969,10.678v2.345c6.097-0.224,9.61-1.951,9.842-2.068l0.488-0.248
		H75v-7.612C75,148.338,70.788,144.126,65.612,144.126z M37.502,143.627c1.434,0,2.769-0.418,3.9-1.131
		c0.359-2.345,1.616-4.393,3.411-5.789c0.007-0.137,0.021-0.273,0.021-0.412c0-4.051-3.284-7.333-7.332-7.333
		c-4.051,0-7.333,3.282-7.333,7.333C30.168,140.344,33.451,143.627,37.502,143.627z M44.087,150.421
		c-1.66-1.591-2.71-3.804-2.788-6.259c-0.229-0.017-0.456-0.036-0.689-0.036h-6.222c-5.177,0-9.389,4.212-9.389,9.39v7.611
		l0.02,0.117l0.524,0.167c3.963,1.237,7.5,1.807,10.573,1.986v-2.298C36.118,156.058,39.484,151.791,44.087,150.421z"/>
</g>
<g>
	<path fill="#FFFFFF" stroke="#4A4A4A" stroke-miterlimit="10" d="M71.489,240.727h-1.368v15.052c0,2.345-1.363,4.463-4.098,4.463
		H39.22v0.714c0,2.073,2.356,4.165,4.776,4.165h20.492l7.841,4.609l-1.138-4.609h0.298c2.421,0,3.511-2.087,3.511-4.165v-16.656
		C75,242.228,73.91,240.727,71.489,240.727z"/>
	<path fill="#FFFFFF" stroke="#4A4A4A" stroke-miterlimit="10" d="M62.021,230.27H30.891c-2.74,0-5.891,2.433-5.891,4.778v18.867
		c0,2.16,2.67,3.719,5.232,3.96l-1.667,6.329l10.683-6.285h22.773c2.738,0,5.267-1.661,5.267-4.004V238.65v-3.602
		C67.287,232.702,64.759,230.27,62.021,230.27z M35.64,246.195c-1.554,0-2.813-1.259-2.813-2.812c0-1.554,1.259-2.813,2.813-2.813
		c1.552,0,2.812,1.259,2.812,2.813C38.452,244.937,37.192,246.195,35.64,246.195z M46.144,246.195c-1.554,0-2.813-1.259-2.813-2.812
		c0-1.554,1.26-2.813,2.813-2.813c1.553,0,2.812,1.259,2.812,2.813C48.955,244.937,47.697,246.195,46.144,246.195z M56.648,246.195
		c-1.553,0-2.814-1.259-2.814-2.812c0-1.554,1.262-2.813,2.814-2.813c1.55,0,2.812,1.259,2.812,2.813
		C59.46,244.937,58.198,246.195,56.648,246.195z"/>
</g>
<g>
	<path fill="#FFFFFF" stroke="#4A4A4A" stroke-miterlimit="10" d="M52.38,333.521c-0.767-1.474-2.294-2.4-3.951-2.4H27.971
		c-1.64,0-2.971,1.331-2.971,2.971v1.593h28.503L52.38,333.521z"/>
	<g>
		<path fill="#FFFFFF" stroke="#4A4A4A" stroke-miterlimit="10" d="M72.035,338.357H25v27.552c0,1.641,1.331,2.971,2.971,2.971
			h44.058c1.64,0,2.971-1.332,2.971-2.971v-24.581C75.006,339.688,73.675,338.357,72.035,338.357z"/>
	</g>
</g>
<g>
	<path fill="#FFFFFF" stroke="#4A4A4A" stroke-miterlimit="10" d="M72.141,421.558h-5.418v17.677c0,0.43-0.255,0.818-0.649,0.988
		c-0.138,0.06-0.283,0.089-0.428,0.089c-0.269,0-0.533-0.102-0.737-0.293l-3.354-3.155l-3.354,3.155
		c-0.313,0.294-0.771,0.375-1.165,0.204c-0.396-0.17-0.651-0.559-0.651-0.988v-17.677h-23.7c-1.579,0-2.859,1.28-2.859,2.859v6.999
		h-2.109c-1.497,0-2.716,1.218-2.716,2.716c0,1.44,1.128,2.618,2.545,2.707h7.006c0.749,0,1.358,0.609,1.358,1.358
		c0,0.748-0.61,1.357-1.358,1.357h-4.726v6.156h-2.109c-1.498,0-2.716,1.219-2.716,2.716c0,1.479,1.188,2.684,2.661,2.714h6.861
		c0.749,0,1.358,0.609,1.358,1.357c0,0.749-0.609,1.358-1.358,1.358h-4.697v6.149h-2.109c-1.498,0-2.716,1.22-2.716,2.718
		c0,1.497,1.218,2.716,2.716,2.716h2.109v0.001h4.697c0.749,0,1.358,0.61,1.358,1.359s-0.609,1.358-1.358,1.358h-4.697v7.425
		c0,1.58,1.28,2.859,2.859,2.859h39.457c1.579,0,2.859-1.279,2.859-2.859v-51.166C75,422.838,73.72,421.558,72.141,421.558z"/>
</g>
<g>
	<g id="_x31_5_38_">
		<g>
			<path fill="#FFFFFF" stroke="#4A4A4A" stroke-miterlimit="10" d="M37.218,536.891h0.715c1.087,0,1.969-0.881,1.969-1.968v-5.432
				v-2.031c0-1.087-0.882-1.969-1.969-1.969h-0.715c-1.087,0-1.968,0.882-1.968,1.969v2.031v5.432
				C35.25,536.01,36.131,536.891,37.218,536.891z"/>
			<path fill="#FFFFFF" stroke="#4A4A4A" stroke-miterlimit="10" d="M62.465,536.843h0.715c1.088,0,1.969-0.882,1.969-1.969v-5.898
				v-1.564c0-1.087-0.881-1.969-1.969-1.969h-0.715c-1.087,0-1.968,0.882-1.968,1.969v1.564v5.898
				C60.497,535.961,61.378,536.843,62.465,536.843z"/>
			<path fill="#FFFFFF" stroke="#4A4A4A" stroke-miterlimit="10" d="M71.8,529.491h-5.052v5.898c0,1.968-1.601,3.053-3.568,3.053
				h-0.715c-1.968,0-3.568-1.601-3.568-3.568v-5.383H41.502v5.432c0,1.968-1.6,3.568-3.568,3.568h-0.715
				c-1.968,0-3.568-1.601-3.568-3.568v-5.432H28.2c-1.765,0-3.2,1.436-3.2,3.2v38.667c0,1.764,1.436,3.199,3.2,3.199h43.6
				c1.765,0,3.2-1.436,3.2-3.199v-38.667C75,530.927,73.564,529.491,71.8,529.491z M71.8,571.358H28.2v-29.2h43.601l0.002,29.2
				C71.802,571.358,71.802,571.358,71.8,571.358z"/>
			<path fill="#FFFFFF" stroke="#4A4A4A" stroke-miterlimit="10" d="M51.652,551.952h5.745c0.229,0,0.413-0.185,0.413-0.412v-4.976
				c0-0.228-0.186-0.412-0.413-0.412h-5.745c-0.228,0-0.413,0.185-0.413,0.412v4.976C51.239,551.768,51.425,551.952,51.652,551.952z
				"/>
			<path fill="#FFFFFF" stroke="#4A4A4A" stroke-miterlimit="10" d="M61.029,551.952h5.745c0.228,0,0.412-0.185,0.412-0.412v-4.976
				c0-0.228-0.185-0.412-0.412-0.412h-5.745c-0.229,0-0.413,0.185-0.413,0.412v4.976C60.616,551.768,60.801,551.952,61.029,551.952z
				"/>
			<path fill="#FFFFFF" stroke="#4A4A4A" stroke-miterlimit="10" d="M32.899,560.097h5.746c0.228,0,0.413-0.184,0.413-0.411v-4.976
				c0-0.229-0.185-0.412-0.413-0.412h-5.746c-0.228,0-0.413,0.185-0.413,0.412v4.976C32.486,559.913,32.671,560.097,32.899,560.097z
				"/>
			<path fill="#FFFFFF" stroke="#4A4A4A" stroke-miterlimit="10" d="M42.275,560.097h5.745c0.228,0,0.413-0.184,0.413-0.411v-4.976
				c0-0.229-0.185-0.412-0.413-0.412h-5.745c-0.228,0-0.412,0.185-0.412,0.412v4.976C41.863,559.913,42.047,560.097,42.275,560.097z
				"/>
			<path fill="#FFFFFF" stroke="#4A4A4A" stroke-miterlimit="10" d="M51.652,560.097h5.745c0.229,0,0.413-0.184,0.413-0.411v-4.976
				c0-0.229-0.186-0.412-0.413-0.412h-5.745c-0.228,0-0.413,0.185-0.413,0.412v4.976C51.239,559.913,51.425,560.097,51.652,560.097z
				"/>
			<path fill="#FFFFFF" stroke="#4A4A4A" stroke-miterlimit="10" d="M61.029,560.097h5.745c0.228,0,0.412-0.184,0.412-0.411v-4.976
				c0-0.229-0.185-0.412-0.412-0.412h-5.745c-0.229,0-0.413,0.185-0.413,0.412v4.976C60.616,559.913,60.801,560.097,61.029,560.097z
				"/>
			<path fill="#FFFFFF" stroke="#4A4A4A" stroke-miterlimit="10" d="M38.645,562.442h-5.746c-0.228,0-0.413,0.185-0.413,0.413v4.975
				c0,0.228,0.185,0.413,0.413,0.413h5.746c0.228,0,0.413-0.186,0.413-0.413v-4.975C39.057,562.627,38.872,562.442,38.645,562.442z"
				/>
			<path fill="#FFFFFF" stroke="#4A4A4A" stroke-miterlimit="10" d="M48.021,562.442h-5.745c-0.228,0-0.413,0.185-0.413,0.413v4.975
				c0,0.228,0.185,0.413,0.413,0.413h5.745c0.228,0,0.412-0.186,0.412-0.413v-4.975C48.433,562.627,48.249,562.442,48.021,562.442z"
				/>
			<path fill="#FFFFFF" stroke="#4A4A4A" stroke-miterlimit="10" d="M57.397,562.442h-5.745c-0.228,0-0.412,0.185-0.412,0.413v4.975
				c0,0.228,0.185,0.413,0.412,0.413h5.745c0.229,0,0.413-0.186,0.413-0.413v-4.975C57.811,562.627,57.626,562.442,57.397,562.442z"
				/>
			<path fill="#FFFFFF" stroke="#4A4A4A" stroke-miterlimit="10" d="M66.774,562.442h-5.745c-0.229,0-0.413,0.185-0.413,0.413v4.975
				c0,0.228,0.186,0.413,0.413,0.413h5.745c0.228,0,0.412-0.186,0.412-0.413v-4.975C67.187,562.627,67.002,562.442,66.774,562.442z"
				/>
		</g>
	</g>
</g>
</svg>
