<?xml version="1.0" encoding="utf-8"?>
<!-- Generator: Adobe Illustrator 16.0.0, SVG Export Plug-In . SVG Version: 6.00 Build 0)  -->
<!DOCTYPE svg PUBLIC "-//W3C//DTD SVG 1.1//EN" "http://www.w3.org/Graphics/SVG/1.1/DTD/svg11.dtd">
<svg version="1.1" id="Layer_1" xmlns="http://www.w3.org/2000/svg" xmlns:xlink="http://www.w3.org/1999/xlink" x="0px" y="0px"
	 width="100px" height="600px" viewBox="0 0 100 600" enable-background="new 0 0 100 600" xml:space="preserve">
<g>
	<path fill="#FFFFFF" stroke="#4A4A4A" stroke-miterlimit="10" d="M74.005,425.991h-48.01c-0.549,0-0.995,0.444-0.995,0.993v46.031
		c0,0.549,0.445,0.993,0.995,0.993h48.01c0.552,0,0.995-0.442,0.995-0.993v-46.031C75,426.436,74.557,425.991,74.005,425.991z
		 M63.148,437.87v6.104c0,7.25-5.897,13.149-13.148,13.149s-13.149-5.899-13.149-13.149V437.7c-0.79-0.375-1.34-1.173-1.34-2.104
		c0-1.287,1.046-2.334,2.333-2.334c1.287,0,2.335,1.047,2.335,2.334c0,0.932-0.551,1.729-1.341,2.104v6.274
		c0,6.155,5.007,11.162,11.162,11.162c6.154,0,11.162-5.006,11.162-11.162v-6.104c-0.876-0.385-1.489-1.258-1.489-2.273
		c0-1.369,1.113-2.482,2.481-2.482c1.371,0,2.484,1.113,2.484,2.482C64.639,436.611,64.025,437.484,63.148,437.87z"/>
</g>
<g>
	<path fill="#FFFFFF" stroke="#4A4A4A" stroke-miterlimit="10" d="M71.488,140.727h-1.367v15.052c0,2.345-1.363,4.463-4.098,4.463
		H39.22v0.714c0,2.073,2.356,4.165,4.776,4.165h20.492l7.841,4.609l-1.138-4.609h0.298c2.421,0,3.511-2.087,3.511-4.165V144.3
		C75,142.228,73.91,140.727,71.488,140.727z"/>
	<path fill="#FFFFFF" stroke="#4A4A4A" stroke-miterlimit="10" d="M62.021,130.27h-31.13c-2.74,0-5.891,2.433-5.891,4.778v18.867
		c0,2.16,2.67,3.719,5.232,3.96l-1.667,6.329l10.683-6.285h22.773c2.737,0,5.267-1.661,5.267-4.004V138.65v-3.602
		C67.287,132.702,64.759,130.27,62.021,130.27z M35.64,146.195c-1.554,0-2.813-1.259-2.813-2.812c0-1.554,1.259-2.813,2.813-2.813
		c1.552,0,2.812,1.259,2.812,2.813C38.452,144.937,37.192,146.195,35.64,146.195z M46.144,146.195c-1.554,0-2.813-1.259-2.813-2.812
		c0-1.554,1.26-2.813,2.813-2.813c1.553,0,2.812,1.259,2.812,2.813C48.955,144.937,47.697,146.195,46.144,146.195z M56.648,146.195
		c-1.553,0-2.814-1.259-2.814-2.812c0-1.554,1.262-2.813,2.814-2.813c1.55,0,2.812,1.259,2.812,2.813
		C59.46,144.937,58.198,146.195,56.648,146.195z"/>
</g>
<g id="Group">
	<path fill="#FFFFFF" stroke="#4A4A4A" stroke-miterlimit="10" d="M50,50.021c4.383,0,7.791-4.546,7.791-9.251v-1.475
		c0-4.705-3.408-8.044-7.791-8.044s-7.792,3.338-7.792,8.044v1.475C42.208,45.475,45.617,50.021,50,50.021z M34.389,51.543
		c1.254,0,4.684-1.626,4.684-5v-2.5c0-3.374-2.475-5-4.684-5c-2.135,0-4.682,1.625-4.682,5v2.5
		C29.707,49.917,33.203,51.543,34.389,51.543z M62.445,57.794c-0.002-0.024-0.01-0.048-0.012-0.072
		c-0.037-0.294-0.094-0.582-0.171-0.864c0-0.002,0-0.005-0.003-0.008c-0.163-0.599-0.439-1.176-0.852-1.745v-0.003
		c-0.676-0.936-1.697-1.891-3.354-2.821c-0.876-0.492-1.263-0.718-1.804-0.718c-0.862,0-1.614,0.67-2.881,1.834h-0.002l-1.152,1.059
		C52.173,54.494,50.93,56.25,50,56.25s-2.173-1.756-2.215-1.795l-1.152-1.059h-0.002c-1.267-1.164-2.019-1.834-2.881-1.834
		c-0.541,0-1.025,0.226-1.804,0.718c-1.606,1.015-2.679,1.885-3.352,2.819l-0.003,0.002c-0.002,0.002-0.002,0.006-0.004,0.008
		c-0.408,0.564-0.682,1.138-0.846,1.733c-0.002,0.005-0.005,0.011-0.007,0.017c-0.075,0.28-0.132,0.564-0.169,0.855
		c-0.002,0.027-0.01,0.053-0.012,0.08c-0.034,0.311-0.054,0.626-0.054,0.954c0,0.036-0.001,6.843,0,6.875
		c0,2.222,0.837,3.125,3.124,3.125h18.75c2.307,0,3.125-0.854,3.125-3.125c0-0.032,0-6.839,0-6.875
		C62.499,58.422,62.479,58.105,62.445,57.794z M65.639,51.543c1.252,0,4.682-1.626,4.682-5v-2.5c0-3.374-2.474-5-4.682-5
		c-2.137,0-4.684,1.625-4.684,5v2.5C60.955,49.917,64.451,51.543,65.639,51.543z M28.556,54.926
		c-2.907,1.656-3.555,4.295-3.555,6.012c0,0.026-0.003,3.1,0,3.125c0,2.268,0.762,3.125,3.125,3.125h6.249c0,0,0-6.641,0-9.375
		l-1.563-1.563C31.16,54.792,29.767,54.238,28.556,54.926z M34.375,57.813C34.41,57.842,34.375,57.07,34.375,57.813L34.375,57.813z
		 M74.999,60.938c0-1.717-0.647-4.355-3.555-6.012c-1.211-0.688-2.604-0.134-4.257,1.324l-1.563,1.563c0,2.734,0,9.375,0,9.375
		h6.249c2.363,0,3.125-0.857,3.125-3.125C75.002,64.037,74.999,60.964,74.999,60.938z M65.624,57.813
		C65.624,57.07,65.59,57.842,65.624,57.813L65.624,57.813z"/>
</g>
<g>
	<g id="_x35__21_">
		<path fill="#FFFFFF" stroke="#4A4A4A" stroke-miterlimit="10" d="M67.582,233.504c-4.181-0.227-7.201,3.559-7.41,7.41
			c0.149,2.754,1.407,4.707,3.13,5.871c-1.669,2.51-3.34,5.02-5.011,7.527c-0.934-0.488-1.976-0.785-3.023-0.84
			c-1.48-0.08-2.792,0.42-3.848,1.258c-1.912-2.137-3.826-4.273-5.737-6.41c0.329-0.686,0.532-1.434,0.573-2.191
			c0.155-2.875-2.45-4.957-5.099-5.098c-2.877-0.156-4.958,2.449-5.101,5.098c0.043,0.797,0.244,1.523,0.555,2.172
			c-1.571,1.82-3.143,3.643-4.714,5.465c-0.695-0.492-1.545-0.793-2.506-0.848c-2.473-0.133-4.263,2.109-4.386,4.387
			c-0.133,2.475,2.11,4.264,4.386,4.387c2.474,0.133,4.264-2.109,4.386-4.387c-0.044-0.828-0.287-1.57-0.665-2.207
			c1.197-1.389,2.396-2.777,3.594-4.166c0.328-0.381,0.655-0.76,0.984-1.141c0.887,0.838,2.077,1.365,3.465,1.439
			c1.386,0.074,2.585-0.496,3.473-1.398c1.849,2.066,3.7,4.133,5.549,6.199c-0.834,1.143-1.347,2.543-1.423,3.955
			c0.199,3.682,2.83,6.311,6.513,6.51c3.674,0.199,6.328-3.129,6.511-6.51c0.102-1.885-0.728-3.498-2.013-4.65
			c1.716-2.578,3.431-5.152,5.146-7.73c4.216,1.52,9.757-0.707,10.08-6.691C75.217,236.733,71.432,233.711,67.582,233.504z"/>
	</g>
</g>
<g>
	<path fill="#FFFFFF" stroke="#4A4A4A" stroke-miterlimit="10" d="M49.323,525c8.65,0,17.164,3.982,17.164,13.511
		c0,8.785-10.068,12.164-12.229,15.337c-1.624,2.362-1.082,5.681-5.542,5.681c-2.905,0-4.324-2.364-4.324-4.525
		c0-8.045,11.822-9.867,11.822-16.49c0-3.647-2.426-5.81-6.484-5.81c-8.648,0-5.271,8.915-11.82,8.915
		c-2.365,0-4.396-1.418-4.396-4.119C33.512,530.873,41.078,525,49.323,525z M48.986,563.914c3.036,0,5.542,2.498,5.542,5.542
		c0,3.046-2.501,5.544-5.542,5.544c-3.04,0-5.542-2.495-5.542-5.544C43.445,566.414,45.947,563.914,48.986,563.914z"/>
</g>
<g>
	<g>
		<path fill="#FFFFFF" stroke="#4A4A4A" stroke-miterlimit="10" d="M30.499,358.299c-0.565-0.711-1.437-1.168-2.416-1.168
			c-1.703,0-3.083,1.379-3.083,3.082s1.38,3.084,3.083,3.084c0.979,0,1.851-0.457,2.416-1.168h4.171v-3.83H30.499z"/>
		<path fill="#FFFFFF" stroke="#4A4A4A" stroke-miterlimit="10" d="M30.499,348.085c-0.565-0.712-1.437-1.168-2.416-1.168
			c-1.703,0-3.083,1.38-3.083,3.083s1.38,3.084,3.083,3.084c0.979,0,1.851-0.457,2.416-1.17h4.171v-3.829H30.499L30.499,348.085z"/>
		<path fill="#FFFFFF" stroke="#4A4A4A" stroke-miterlimit="10" d="M30.499,337.871c-0.565-0.711-1.437-1.168-2.416-1.168
			c-1.703,0-3.083,1.381-3.083,3.084c0,1.702,1.38,3.083,3.083,3.083c0.979,0,1.851-0.457,2.416-1.169h4.171v-3.83H30.499z"/>
		<path fill="#FFFFFF" stroke="#4A4A4A" stroke-miterlimit="10" d="M69.502,362.129c0.564,0.711,1.437,1.168,2.415,1.168
			c1.702,0,3.083-1.381,3.083-3.084s-1.381-3.082-3.083-3.082c-0.979,0-1.851,0.457-2.415,1.168H65.33v3.83H69.502z"/>
		<path fill="#FFFFFF" stroke="#4A4A4A" stroke-miterlimit="10" d="M69.502,351.914c0.564,0.713,1.437,1.17,2.415,1.17
			c1.702,0,3.083-1.381,3.083-3.084s-1.381-3.083-3.083-3.083c-0.979,0-1.851,0.456-2.415,1.168H65.33v3.831h4.172V351.914z"/>
		<path fill="#FFFFFF" stroke="#4A4A4A" stroke-miterlimit="10" d="M69.502,341.701c0.564,0.712,1.437,1.169,2.415,1.169
			c1.702,0,3.083-1.381,3.083-3.083c0-1.703-1.381-3.084-3.083-3.084c-0.979,0-1.851,0.457-2.415,1.168H65.33v3.83H69.502
			L69.502,341.701z"/>
		<path fill="#FFFFFF" stroke="#4A4A4A" stroke-miterlimit="10" d="M60.06,329.461H39.941c-1.058,0-1.915,0.857-1.915,1.914v37.25
			c0,1.057,0.857,1.914,1.915,1.914H60.06c1.058,0,1.915-0.857,1.915-1.914v-37.25C61.975,330.318,61.117,329.461,60.06,329.461z
			 M56.767,335.941c-0.812,0-1.469-0.657-1.469-1.469c0-0.811,0.657-1.468,1.469-1.468c0.811,0,1.468,0.657,1.468,1.468
			C58.234,335.284,57.577,335.941,56.767,335.941z"/>
	</g>
</g>
</svg>
