<?xml version="1.0" encoding="utf-8"?>
<!-- Generator: Adobe Illustrator 16.0.0, SVG Export Plug-In . SVG Version: 6.00 Build 0)  -->
<!DOCTYPE svg PUBLIC "-//W3C//DTD SVG 1.1//EN" "http://www.w3.org/Graphics/SVG/1.1/DTD/svg11.dtd">
<svg version="1.1" id="Layer_1" xmlns="http://www.w3.org/2000/svg" xmlns:xlink="http://www.w3.org/1999/xlink" x="0px" y="0px"
	 width="50px" height="150px" viewBox="0 0 50 150" enable-background="new 0 0 50 150" xml:space="preserve">
<g>
	<g>
		<path fill="#F2F2F2" d="M46.355,14.506L25.783,5.332c-0.498-0.224-1.068-0.224-1.568,0L3.642,14.506
			c-0.671,0.299-1.115,0.958-1.14,1.693c-0.024,0.734,0.369,1.42,1.019,1.766l20.572,10.971c0.284,0.152,0.595,0.227,0.906,0.227
			c0.313,0,0.624-0.075,0.908-0.227L46.48,17.964c0.648-0.346,1.042-1.031,1.019-1.766C47.471,15.463,47.028,14.805,46.355,14.506z"
			/>
		<path fill="#F2F2F2" d="M44.665,22.715L24.998,33.207L5.334,22.715c-0.941-0.502-2.107-0.146-2.606,0.793
			c-0.502,0.939-0.146,2.104,0.793,2.605l20.572,10.975c0.284,0.151,0.595,0.227,0.907,0.227c0.313,0,0.624-0.075,0.908-0.227
			l20.573-10.975c0.938-0.501,1.293-1.666,0.794-2.605C46.771,22.569,45.604,22.213,44.665,22.715z"/>
		<path fill="#F2F2F2" d="M44.665,30.24L24.998,40.729L5.334,30.24c-0.941-0.502-2.107-0.146-2.606,0.792
			c-0.502,0.939-0.146,2.106,0.793,2.606l20.572,10.971c0.284,0.152,0.595,0.228,0.907,0.228c0.313,0,0.624-0.074,0.908-0.228
			l20.573-10.971c0.938-0.5,1.293-1.667,0.794-2.606C46.771,30.094,45.605,29.737,44.665,30.24z"/>
	</g>
</g>
<path fill="#F2F2F2" d="M44.326,71.827h-2.24c-0.45-2.439-1.401-4.701-2.756-6.669l1.58-1.58c1.24-1.239,1.24-3.249,0-4.487
	c-1.239-1.24-3.25-1.24-4.486,0l-1.58,1.58c-1.97-1.355-4.231-2.308-6.672-2.758v-2.24c0-1.752-1.42-3.173-3.173-3.173
	c-1.752,0-3.173,1.421-3.173,3.173v2.24c-2.44,0.45-4.702,1.402-6.671,2.757l-1.578-1.579c-1.239-1.239-3.25-1.239-4.486,0
	c-1.24,1.239-1.24,3.248,0,4.487l1.577,1.579c-1.354,1.969-2.305,4.23-2.754,6.67h-2.24C3.919,71.827,2.5,73.248,2.5,75
	c0,1.752,1.419,3.173,3.173,3.173h2.24c0.449,2.439,1.401,4.702,2.758,6.67l-1.58,1.58c-1.24,1.239-1.24,3.249,0,4.487
	c0.618,0.619,1.431,0.93,2.243,0.93s1.624-0.311,2.243-0.93l1.581-1.58c1.968,1.354,4.229,2.307,6.668,2.757v2.24
	c0,1.752,1.421,3.173,3.173,3.173c1.753,0,3.173-1.421,3.173-3.173v-2.24c2.438-0.45,4.701-1.402,6.67-2.757l1.582,1.581
	c0.618,0.619,1.432,0.93,2.243,0.93s1.624-0.311,2.243-0.93c1.24-1.239,1.24-3.248,0-4.487l-1.581-1.581
	c1.332-1.936,2.27-4.158,2.729-6.553l0.057-0.117h2.211c1.753,0,3.173-1.421,3.173-3.173C47.499,73.248,46.079,71.827,44.326,71.827
	z M24.999,86.896c-6.56,0-11.896-5.337-11.896-11.896s5.336-11.896,11.896-11.896c6.284,0,11.433,4.902,11.854,11.082l3.952-1.652
	c0.109-0.046,0.235-0.019,0.319,0.068c0.081,0.087,0.1,0.215,0.047,0.322c-1.915,3.876-0.58,1.176-5.565,11.261
	c-0.056,0.112-0.17,0.185-0.296,0.185c-0.063,0-0.122-0.018-0.175-0.051c-0.051-0.031-0.093-0.078-0.121-0.134
	c-1.009-2.04-4.268-8.632-5.568-11.261c-0.053-0.107-0.033-0.235,0.049-0.322c0.081-0.087,0.209-0.115,0.317-0.068l3.866,1.616
	c-0.43-4.412-4.157-7.872-8.679-7.872c-4.809,0-8.723,3.913-8.723,8.723s3.914,8.722,8.723,8.722c2.011,0,3.859-0.69,5.336-1.838
	l1.429,2.889C29.841,86.107,27.513,86.896,24.999,86.896z"/>
<g>
	<path fill="#F2F2F2" d="M21.88,133.712H6.177c-0.365,0-0.663-0.298-0.663-0.663v-25.548c0-0.365,0.297-0.662,0.663-0.662h37.646
		c0.364,0,0.662,0.297,0.662,0.662v5.595c1.103,0.131,2.136,0.492,3.014,1.086v-6.681c0-2.027-1.649-3.677-3.676-3.677H6.177
		c-2.027,0-3.677,1.649-3.677,3.677v25.548c0,2.027,1.65,3.677,3.677,3.677h12.618v4.929h-1.99c-1.248,0-2.261,1.012-2.261,2.261
		s1.013,2.261,2.261,2.261h6.347c-0.793-1.115-1.271-2.47-1.271-3.94V133.712L21.88,133.712z"/>
	<path fill="#F2F2F2" d="M34.531,143.896v-3.256h-6.623v-20.8c0-0.438,0.356-0.796,0.795-0.796h14.986
		c0.438,0,0.795,0.357,0.795,0.796v6.438h1.129c0.69,0,1.329,0.199,1.885,0.524v-6.962c0-2.101-1.708-3.81-3.809-3.81H28.703
		c-2.101,0-3.809,1.709-3.809,3.81v22.396c0,2.102,1.708,3.811,3.809,3.811h6.509C34.797,145.449,34.531,144.619,34.531,143.896z"/>
	<path fill="#F2F2F2" d="M45.613,128.161h-7.311c-1.041,0-1.887,0.847-1.887,1.888v13.847c0,1.041,0.846,1.888,1.887,1.888h7.311
		c1.04,0,1.887-0.847,1.887-1.888v-13.847C47.5,129.008,46.653,128.161,45.613,128.161z M38.676,130.422h6.563v11.97h-6.563V130.422
		z M41.959,144.866c-0.208,0-0.394-0.085-0.535-0.214c-0.16-0.146-0.263-0.351-0.263-0.584c0-0.439,0.356-0.796,0.798-0.796
		c0.438,0,0.794,0.356,0.794,0.796c0,0.233-0.103,0.438-0.262,0.584C42.35,144.782,42.164,144.866,41.959,144.866z"/>
</g>
</svg>
