<?xml version="1.0" encoding="utf-8"?>
<!-- Generator: Adobe Illustrator 16.0.0, SVG Export Plug-In . SVG Version: 6.00 Build 0)  -->
<!DOCTYPE svg PUBLIC "-//W3C//DTD SVG 1.1//EN" "http://www.w3.org/Graphics/SVG/1.1/DTD/svg11.dtd">
<svg version="1.1" id="Layer_1" xmlns="http://www.w3.org/2000/svg" xmlns:xlink="http://www.w3.org/1999/xlink" x="0px" y="0px"
	 width="50px" height="200px" viewBox="0 0 50 200" enable-background="new 0 0 50 200" xml:space="preserve">
<g>
	<path fill="#2C4762" d="M39.927,26.668l-2.253-3.436c-0.119-0.188-0.401-0.333-0.619-0.333H23.071
		c-0.883-2.675-3.401-4.6-6.371-4.6c-3.7,0-6.7,3-6.7,6.7c0,3.699,3,6.699,6.7,6.699c2.966,0,5.479-1.929,6.367-4.6h5.04
		c0.222,0,0.533,0.119,0.695,0.272l2.736,2.548c0.161,0.153,0.426,0.153,0.589,0l1.895-1.758c0.162-0.154,0.426-0.154,0.589,0
		l1.895,1.758c0.162,0.153,0.418,0.145,0.58-0.008l2.773-2.642C40.017,27.121,40.046,26.852,39.927,26.668z M16.708,27.061
		c-1.139,0-2.061-0.926-2.061-2.061c0-1.135,0.926-2.062,2.061-2.062c1.135,0,2.061,0.926,2.061,2.062
		C18.769,26.135,17.848,27.061,16.708,27.061z"/>
</g>
<g>
	<path fill="#2C4762" d="M15.625,74.419v-5.044C15.625,64.197,19.823,60,25,60c5.178,0,9.375,4.197,9.375,9.375v5.044
		c-0.959-1.445-2.247-2.649-3.75-3.523v-1.521c0-3.102-2.523-5.625-5.625-5.625s-5.625,2.523-5.625,5.625v1.521
		C17.871,71.77,16.584,72.975,15.625,74.419z M34.375,80.625C34.375,85.803,30.178,90,25,90c-5.177,0-9.375-4.197-9.375-9.375
		S19.823,71.25,25,71.25C30.178,71.25,34.375,75.447,34.375,80.625z M26.875,78.75c0-1.036-0.84-1.875-1.875-1.875
		c-1.036,0-1.875,0.839-1.875,1.875c0,0.687,0.387,1.262,0.938,1.587v3.1c0,0.518,0.419,0.938,0.938,0.938s0.938-0.419,0.938-0.938
		v-3.1C26.487,80.012,26.875,79.437,26.875,78.75z"/>
</g>
<g>
	<g>
		<path fill="#2C4762" d="M32.498,116.49c0,0.439,0.439,0.877,1.054,0.877c0.876,0,1.14-0.351,1.14-0.877c0-0.088,0-0.088,0-0.176
			c-0.087-0.263-0.351-0.438-0.613-0.612c-0.088,0-0.263-0.088-0.438-0.088C33.025,115.614,32.498,115.965,32.498,116.49z"/>
		<path fill="#2C4762" d="M34.341,113.596c-0.088-0.526-0.438-0.965-0.877-0.965s-0.702,0.438-0.613,0.965
			c0.088,0.526,0.438,0.965,0.876,0.965C34.078,114.561,34.429,114.122,34.341,113.596z"/>
		<path fill="#2C4762" d="M30.395,120.175l1.491-1.492c0.876,0.702,1.931,1.141,3.07,1.141c2.719,0,4.912-2.192,4.912-4.911
			c-0.001-2.719-2.193-4.912-4.912-4.912s-4.913,2.193-4.913,4.912c0,1.228,0.438,2.28,1.141,3.07l-1.492,1.491
			C29.955,119.736,30.218,120,30.395,120.175z M35.744,113.332h0.965v-0.964h0.351v0.965h0.966v0.351H37.06v0.966h-0.351v-0.966
			h-0.965V113.332L35.744,113.332z M33.552,115c0-0.088,0-0.176,0.089-0.264c-0.089,0-0.089,0-0.176,0
			c-0.702,0-1.228-0.526-1.228-1.141s0.7-1.14,1.403-1.14h1.578l-0.352,0.263h-0.526c0.352,0.088,0.526,0.526,0.526,0.965
			c0,0.352-0.175,0.614-0.438,0.877c-0.264,0.176-0.352,0.264-0.352,0.439c0,0.175,0.264,0.438,0.439,0.525
			c0.438,0.264,0.526,0.614,0.526,1.053c0,0.613-0.526,1.141-1.579,1.141c-0.876,0-1.666-0.352-1.666-0.965
			c0-0.614,0.7-1.141,1.578-1.141c0.088,0,0.175,0,0.263,0C33.639,115.351,33.552,115.176,33.552,115z"/>
		<path fill="#2C4762" d="M34.956,130.175c-1.141,0-2.281,0.438-3.071,1.14l-1.49-1.49c-0.177,0.263-0.439,0.437-0.614,0.612
			l1.491,1.492c-0.701,0.876-1.141,1.929-1.141,3.069c0,2.72,2.194,4.913,4.913,4.913s4.912-2.193,4.912-4.913
			C39.867,132.279,37.675,130.175,34.956,130.175z M33.552,137.279h-0.965v-3.07h0.965V137.279z M33.113,133.771L33.113,133.771
			c-0.352,0-0.614-0.264-0.614-0.526s0.264-0.526,0.614-0.526s0.613,0.264,0.613,0.526
			C33.639,133.596,33.464,133.771,33.113,133.771z M37.499,137.279h-1.14v-1.578c0-0.438-0.176-0.702-0.527-0.702
			c-0.264,0-0.438,0.177-0.526,0.352c0,0.089,0,0.176,0,0.264v1.666h-1.053c0,0,0-2.807,0-3.069h1.053v0.438
			c0.088-0.175,0.438-0.525,0.966-0.525c0.7,0,1.228,0.438,1.228,1.403V137.279L37.499,137.279z"/>
		<path fill="#2C4762" d="M19.518,129.824l-1.492,1.491c-0.877-0.701-1.93-1.14-3.07-1.14c-2.72,0-4.913,2.193-4.913,4.912
			S12.236,140,14.956,140c2.719,0,4.912-2.193,4.912-4.912c0-1.141-0.438-2.28-1.14-3.07l1.492-1.491
			C19.956,130.262,19.692,129.999,19.518,129.824z M17.061,134.297c0,1.492-1.14,3.158-3.158,3.158
			c-0.613,0-1.228-0.176-1.667-0.527c0.088,0,0.175,0,0.263,0c0.526,0,0.965-0.175,1.403-0.438c-0.438,0-0.877-0.352-1.052-0.79
			c0.087,0,0.175,0,0.175,0c0.088,0,0.175,0,0.264,0c-0.526-0.089-0.877-0.526-0.877-1.053l0,0c0.176,0.088,0.351,0.175,0.526,0.175
			c-0.263-0.175-0.526-0.526-0.526-0.877c0-0.176,0.088-0.352,0.176-0.526c0.526,0.702,1.315,1.14,2.28,1.14
			c0-0.088,0-0.174,0-0.263c0-0.614,0.527-1.141,1.14-1.141c0.351,0,0.614,0.175,0.79,0.351c0.263-0.088,0.526-0.175,0.702-0.263
			c-0.088,0.263-0.263,0.438-0.527,0.613c0.264,0,0.439-0.088,0.614-0.175c-0.175,0.263-0.35,0.438-0.526,0.526
			C17.061,134.209,17.061,134.209,17.061,134.297z"/>
		<path fill="#2C4762" d="M14.956,119.824c1.14,0,2.28-0.439,3.07-1.141l1.492,1.492c0.175-0.264,0.438-0.439,0.614-0.615
			l-1.492-1.49c0.702-0.877,1.14-1.93,1.14-3.07c0-2.719-2.193-4.912-4.912-4.912c-2.719,0-4.825,2.193-4.825,4.912
			C10.043,117.631,12.236,119.824,14.956,119.824z M13.815,114.122h0.526v-0.526c0-0.701,0.263-1.14,1.14-1.14h0.702v0.876h-0.438
			c-0.351,0-0.351,0.088-0.351,0.352v0.438h0.79L16.096,115h-0.791v2.455h-1.053V115h-0.525v-0.878H13.815z"/>
		<g>
			<path fill="#2C4762" d="M29.43,127.455c-0.089-0.174-0.264-0.263-0.351-0.263c-0.79-0.264-1.491-0.438-2.28-0.702
				c-0.089,0-0.264-0.175-0.264-0.525c0-0.176,0-0.265-0.175-0.265c-0.088,0,0,0-0.088-0.088c-0.088-0.351-0.088-0.526-0.088-0.614
				c0-0.087,0.088-0.088,0.088-0.175c0.263-0.352,0.35-0.876,0.35-1.052c0,0,0.088,0,0.088-0.088
				c0.089-0.176,0.089-0.176,0.089-0.439c0.088-0.176,0.088-0.438-0.089-0.438c-0.088,0.088-0.088,0-0.088-0.175v-1.053
				c0-0.351-0.263-0.614-0.438-0.701c-0.264-0.176-0.351-0.264-0.439-0.264c-0.088-0.088-0.088-0.176,0-0.264
				c0.088-0.087,0.175-0.087,0.175-0.175c0,0,0,0-0.088,0c-0.088,0-0.614,0.088-0.877,0.175c-0.438,0.088-0.877,0.264-1.228,0.527
				c-0.264,0.175-0.439,0.438-0.439,0.789c0,0.175,0,0.701,0,1.053c0,0.088,0,0.176-0.088,0.088c-0.263,0-0.087,0.352-0.087,0.438
				c0,0.176,0.087,0.264,0.175,0.439c0,0.088,0.088,0.088,0.088,0.088c0.088,0.263,0.176,0.79,0.352,1.053
				c0,0,0.088,0.088,0.088,0.176c0,0.175,0,0.438-0.088,0.612c0,0,0,0.09-0.088,0.09c-0.176,0-0.176,0.087-0.176,0.263
				c0,0.263-0.175,0.526-0.263,0.526c-0.438,0.175-1.754,0.614-2.193,0.701c-0.263,0.089-0.351,0.176-0.438,0.264l-0.438,1.053
				c1.754,0,2.631,1.053,4.473,1.403h0.877c1.842-0.263,3.158-1.403,4.386-1.403L29.43,127.455z"/>
		</g>
	</g>
</g>
<g>
	<g>
		<path fill="#2C4762" d="M13.299,179.979c-0.339-0.427-0.862-0.7-1.449-0.7c-1.022,0-1.85,0.828-1.85,1.85s0.828,1.85,1.85,1.85
			c0.587,0,1.11-0.273,1.449-0.7h2.503v-2.299H13.299z"/>
		<path fill="#2C4762" d="M13.299,173.851c-0.339-0.427-0.862-0.7-1.449-0.7c-1.022,0-1.85,0.828-1.85,1.85s0.828,1.85,1.85,1.85
			c0.587,0,1.11-0.273,1.449-0.7h2.503v-2.299H13.299L13.299,173.851z"/>
		<path fill="#2C4762" d="M13.299,167.723c-0.339-0.427-0.862-0.7-1.449-0.7c-1.022,0-1.85,0.828-1.85,1.85s0.828,1.85,1.85,1.85
			c0.587,0,1.11-0.273,1.449-0.7h2.503v-2.299H13.299z"/>
		<path fill="#2C4762" d="M36.701,182.277c0.339,0.427,0.861,0.7,1.449,0.7c1.021,0,1.85-0.828,1.85-1.85s-0.828-1.85-1.85-1.85
			c-0.588,0-1.11,0.273-1.449,0.7h-2.503v2.299H36.701z"/>
		<path fill="#2C4762" d="M36.701,176.149c0.339,0.427,0.861,0.7,1.449,0.7c1.021,0,1.85-0.828,1.85-1.85s-0.828-1.85-1.85-1.85
			c-0.588,0-1.11,0.273-1.449,0.7h-2.503v2.299H36.701L36.701,176.149z"/>
		<path fill="#2C4762" d="M36.701,170.021c0.339,0.427,0.861,0.7,1.449,0.7c1.021,0,1.85-0.828,1.85-1.85s-0.828-1.85-1.85-1.85
			c-0.588,0-1.11,0.273-1.449,0.7h-2.503v2.299H36.701L36.701,170.021z"/>
		<path fill="#2C4762" d="M31.035,162.676H18.964c-0.634,0-1.149,0.515-1.149,1.149v22.35c0,0.635,0.515,1.149,1.149,1.149h12.071
			c0.635,0,1.149-0.515,1.149-1.149v-22.35C32.185,163.19,31.67,162.676,31.035,162.676z M29.06,166.564
			c-0.486,0-0.881-0.394-0.881-0.881c0-0.486,0.395-0.881,0.881-0.881s0.881,0.395,0.881,0.881
			C29.94,166.171,29.546,166.564,29.06,166.564z"/>
	</g>
</g>
</svg>
