<?xml version="1.0" encoding="utf-8"?>
<!-- Generator: Adobe Illustrator 16.0.0, SVG Export Plug-In . SVG Version: 6.00 Build 0)  -->
<!DOCTYPE svg PUBLIC "-//W3C//DTD SVG 1.1//EN" "http://www.w3.org/Graphics/SVG/1.1/DTD/svg11.dtd">
<svg version="1.1" id="Layer_1" xmlns="http://www.w3.org/2000/svg" xmlns:xlink="http://www.w3.org/1999/xlink" x="0px" y="0px"
	 width="50px" height="150px" viewBox="0 0 50 150" enable-background="new 0 0 50 150" xml:space="preserve">
<g>
	<g id="Layer_5_59_">
		<g>
			<path fill="#5E6570" d="M27.889,33.696c-0.801,0.491-1.827,0.762-2.889,0.762s-2.087-0.271-2.888-0.762l-13.076-8.02
				c0,0-1.18-0.724-1.18,0.916c0,1.861,0,7.444,0,7.444c0,0.075,0,0.448,0,0.564c0,4.219,7.675,8.767,17.144,8.767
				s17.145-4.548,17.145-8.767c0-0.116,0-0.489,0-0.564c0,0,0-5.922,0-7.896c0-1.315-0.84-0.673-0.84-0.673L27.889,33.696z"/>
			<path fill="#5E6570" d="M46.746,19.298c1.006-0.617,1.006-1.625,0-2.241L26.827,7.096c-1.005-0.616-2.649-0.616-3.654,0
				L3.254,17.057c-1.005,0.616-1.005,1.625,0,2.241l19.919,12.217c1.004,0.616,2.648,0.616,3.654,0"/>
			<path fill="#5E6570" d="M45.923,37.406c0-3.373,0-13.493,0-13.493s0.01-0.639-0.37-0.428c-0.304,0.169-1.05,0.585-1.313,0.813
				c-0.303,0.264-0.234,0.855-0.234,0.855s0,9.189,0,12.252c0,0.174-0.149,0.257-0.221,0.299c-0.689,0.405-1.152,1.152-1.152,2.009
				c0,1.287,1.044,2.331,2.331,2.331c1.288,0,2.331-1.044,2.331-2.331c0-0.86-0.466-1.61-1.159-2.013
				C46.066,37.66,45.923,37.58,45.923,37.406z"/>
		</g>
	</g>
</g>
<g>
	<g>
		<path fill="#5E6570" d="M17.587,129.511l-6.492-5.456l6.519-5.599c1.416-1.218,1.578-3.348,0.362-4.763
			c-1.215-1.413-3.35-1.58-4.766-0.363l-9.533,8.188c-0.751,0.648-1.181,1.594-1.177,2.583c0.004,0.992,0.443,1.931,1.202,2.57
			l9.535,8.014c0.633,0.532,1.404,0.794,2.171,0.794c0.965,0,1.919-0.411,2.585-1.202C19.195,132.849,19.015,130.718,17.587,129.511
			z"/>
		<path fill="#5E6570" d="M46.324,121.521l-9.537-8.187c-1.415-1.218-3.549-1.051-4.764,0.362c-1.209,1.415-1.055,3.547,0.362,4.763
			l6.52,5.6l-6.488,5.458c-1.429,1.204-1.615,3.327-0.411,4.762c0.668,0.793,1.617,1.202,2.584,1.202
			c0.77,0,1.538-0.264,2.171-0.791l9.537-8.017c0.758-0.639,1.199-1.577,1.201-2.569C47.504,123.112,47.08,122.167,46.324,121.521z"
			/>
		<path fill="#5E6570" d="M28.007,107.298c-1.833-0.351-3.609,0.844-3.962,2.675l-5.567,28.77c-0.356,1.83,0.844,3.605,2.673,3.96
			c0.215,0.039,0.432,0.062,0.646,0.062c1.586,0,3-1.121,3.312-2.733l5.565-28.77C31.034,109.427,29.835,107.653,28.007,107.298z"/>
	</g>
</g>
<g>
	<path fill="#5E6570" d="M11.807,76.838c3.581,0,6.495-2.913,6.495-6.494s-2.914-6.494-6.495-6.494
		c-3.582,0-6.495,2.913-6.495,6.494S8.226,76.838,11.807,76.838z"/>
	<path fill="#5E6570" d="M15.856,75.818c-0.216-0.122-0.489-0.083-0.662,0.097l-3.387,3.532l-3.388-3.532
		c-0.172-0.18-0.445-0.22-0.662-0.097c-1.558,0.879-2.874,2.246-3.806,3.954C3.002,81.514,2.5,83.53,2.5,85.604
		c0,0.302,0.244,0.546,0.545,0.546h17.523c0.301,0,0.545-0.244,0.545-0.546c0-2.074-0.502-4.091-1.453-5.832
		C18.73,78.064,17.414,76.697,15.856,75.818z"/>
	<path fill="#5E6570" d="M38.192,76.838c3.581,0,6.495-2.913,6.495-6.494s-2.914-6.494-6.495-6.494s-6.495,2.913-6.495,6.494
		S34.611,76.838,38.192,76.838z"/>
	<path fill="#5E6570" d="M46.047,79.772c-0.932-1.708-2.247-3.075-3.805-3.954c-0.217-0.122-0.489-0.083-0.662,0.097l-3.388,3.532
		l-3.388-3.532c-0.172-0.18-0.444-0.22-0.661-0.097c-1.558,0.879-2.874,2.246-3.806,3.954c-0.95,1.741-1.452,3.758-1.452,5.832
		c0,0.302,0.244,0.546,0.545,0.546h17.524c0.301,0,0.545-0.244,0.545-0.546C47.5,83.53,46.998,81.514,46.047,79.772z"/>
	<path fill="#5E6570" d="M20.488,72.627h7.181l-1.363,1.363c-0.299,0.298-0.299,0.781,0,1.079c0.149,0.149,0.345,0.224,0.54,0.224
		s0.391-0.074,0.54-0.224l2.666-2.667c0.299-0.298,0.299-0.781,0-1.079l-2.666-2.667c-0.298-0.298-0.782-0.298-1.08,0
		c-0.298,0.299-0.298,0.782,0,1.08l1.363,1.363h-7.181c-0.421,0-0.763,0.342-0.763,0.764C19.725,72.284,20.066,72.627,20.488,72.627
		z"/>
	<path fill="#5E6570" d="M22.331,78.9h7.182c0.422,0,0.763-0.342,0.763-0.764c0-0.421-0.341-0.764-0.763-0.764h-7.182l1.364-1.363
		c0.298-0.298,0.298-0.781,0-1.079s-0.782-0.298-1.08,0l-2.667,2.667c-0.298,0.298-0.298,0.781,0,1.079l2.667,2.667
		c0.149,0.148,0.344,0.224,0.54,0.224s0.391-0.075,0.54-0.224c0.298-0.299,0.298-0.782,0-1.08L22.331,78.9z"/>
</g>
</svg>
