<?xml version="1.0" encoding="utf-8"?>
<!-- Generator: Adobe Illustrator 16.0.0, SVG Export Plug-In . SVG Version: 6.00 Build 0)  -->
<!DOCTYPE svg PUBLIC "-//W3C//DTD SVG 1.1//EN" "http://www.w3.org/Graphics/SVG/1.1/DTD/svg11.dtd">
<svg version="1.1" id="Layer_1" xmlns="http://www.w3.org/2000/svg" xmlns:xlink="http://www.w3.org/1999/xlink" x="0px" y="0px"
	 width="50px" height="200px" viewBox="0 0 50 200" enable-background="new 0 0 50 200" xml:space="preserve">
<g>
	<path id="Facebook" fill="#CFD8DC" d="M19.701,12.747c0,1.008,0,5.507,0,5.507h-4.035v6.734h4.035V45h8.287V24.989h5.563
		c0,0,0.521-3.229,0.773-6.759c-0.726,0-6.306,0-6.306,0s0-3.918,0-4.604c0-0.688,0.904-1.614,1.797-1.614s2.773,0,4.517,0
		c0-0.917,0-4.084,0-7.011c-2.326,0-4.974,0-6.14,0C19.497,5,19.701,11.741,19.701,12.747z"/>
</g>
<g>
	<path fill="#CFD8DC" d="M45,62.595c-1.473,0.652-3.055,1.094-4.713,1.292c1.693-1.016,2.995-2.624,3.607-4.54
		c-1.586,0.94-3.343,1.623-5.211,1.991c-1.498-1.595-3.631-2.591-5.99-2.591c-4.532,0-8.207,3.674-8.207,8.206
		c0,0.643,0.072,1.27,0.212,1.87c-6.82-0.342-12.867-3.609-16.915-8.574c-0.706,1.212-1.111,2.622-1.111,4.125
		c0,2.847,1.449,5.359,3.651,6.831c-1.345-0.043-2.611-0.412-3.717-1.027c0,0.034,0,0.069,0,0.104c0,3.976,2.829,7.292,6.583,8.047
		c-0.688,0.187-1.414,0.288-2.162,0.288c-0.529,0-1.043-0.052-1.544-0.148c1.044,3.26,4.075,5.633,7.666,5.699
		c-2.809,2.201-6.347,3.513-10.192,3.513c-0.662,0-1.315-0.039-1.958-0.115c3.632,2.329,7.945,3.687,12.58,3.687
		c15.095,0,23.35-12.505,23.35-23.349c0-0.356-0.009-0.71-0.023-1.062C42.509,65.686,43.898,64.24,45,62.595z"/>
</g>
<g>
	<path id="LinkedIn" fill="#CFD8DC" d="M45,179.323v14.788h-8.573v-13.799c0-3.467-1.239-5.832-4.344-5.832
		c-2.368,0-3.778,1.596-4.397,3.138c-0.228,0.551-0.285,1.317-0.285,2.09v14.403h-8.576c0,0,0.116-23.369,0-25.791H27.4v3.656
		c-0.019,0.026-0.041,0.057-0.058,0.082H27.4v-0.082c1.14-1.756,3.174-4.263,7.729-4.263C40.771,167.715,45,171.4,45,179.323z
		 M9.853,155.889c-2.934,0-4.853,1.926-4.853,4.455c0,2.477,1.863,4.458,4.739,4.458h0.057c2.991,0,4.851-1.981,4.851-4.458
		C14.591,157.813,12.787,155.889,9.853,155.889z M5.509,194.111h8.573V168.32H5.509V194.111z"/>
</g>
<g>
	<path id="Shape" fill="#CFD8DC" d="M17.727,123.183v4.364h7.22c-0.291,1.87-2.184,5.489-7.22,5.489
		c-4.346,0-7.891-3.602-7.891-8.036s3.544-8.036,7.891-8.036c2.471,0,4.127,1.055,5.073,1.963l3.454-3.325
		c-2.216-2.075-5.089-3.328-8.526-3.328C10.691,112.273,5,117.964,5,125s5.691,12.727,12.727,12.727
		c7.346,0,12.22-5.164,12.22-12.435c0-0.836-0.092-1.475-0.201-2.109H17.727L17.727,123.183z"/>
	<path id="Shape_1_" fill="#CFD8DC" d="M45,123.183h-3.638v-3.636h-3.636v3.636h-3.638v3.638h3.638v3.636h3.636v-3.636H45"/>
</g>
</svg>
