<?xml version="1.0" encoding="utf-8"?>
<!-- Generator: Adobe Illustrator 16.0.0, SVG Export Plug-In . SVG Version: 6.00 Build 0)  -->
<!DOCTYPE svg PUBLIC "-//W3C//DTD SVG 1.1//EN" "http://www.w3.org/Graphics/SVG/1.1/DTD/svg11.dtd">
<svg version="1.1" id="Layer_1" xmlns="http://www.w3.org/2000/svg" xmlns:xlink="http://www.w3.org/1999/xlink" x="0px" y="0px"
	 width="100px" height="250px" viewBox="0 0 100 250" enable-background="new 0 0 100 250" xml:space="preserve">
<g>
	<g>
		<path fill="#616772" d="M25,121c-3.313,0-6,2.688-6,6c0,3.313,2.688,6,6,6s6-2.687,6-6C31,123.688,28.312,121,25,121z M41,115
			h-4.799c-0.66,0-1.371-0.512-1.578-1.138l-1.24-3.723C33.167,109.512,32.459,109,31.8,109h-13.6c-0.662,0-1.371,0.512-1.58,1.138
			l-1.242,3.725C15.169,114.488,14.46,115,13.8,115H9c-2.199,0-4,1.8-4,4v18c0,2.2,1.801,4,4,4h32c2.201,0,4-1.8,4-4v-18
			C45,116.8,43.201,115,41,115z M25,137c-5.523,0-10-4.477-10-10s4.477-10,10-10c5.522,0,10,4.477,10,10S30.522,137,25,137z
			 M39.6,121.797c-0.771,0-1.399-0.626-1.399-1.4c0-0.773,0.629-1.4,1.399-1.4s1.399,0.627,1.399,1.4
			C41,121.171,40.371,121.797,39.6,121.797z"/>
	</g>
</g>
<g id="Settings">
	<g>
		<path fill="#616772" d="M44.874,72.779c-0.063-0.563-0.717-0.985-1.286-0.985c-1.834,0-3.459-1.075-4.145-2.74
			c-0.699-1.705-0.244-3.694,1.121-4.949c0.434-0.394,0.48-1.051,0.121-1.507c-0.941-1.192-2.006-2.267-3.168-3.2
			c-0.454-0.367-1.123-0.316-1.518,0.123c-1.192,1.32-3.334,1.811-4.992,1.121c-1.719-0.724-2.808-2.468-2.701-4.342
			c0.035-0.589-0.392-1.099-0.977-1.168c-1.499-0.172-3-0.178-4.499-0.011c-0.579,0.064-1.009,0.563-0.992,1.144
			c0.065,1.854-1.033,3.568-2.739,4.267c-1.633,0.667-3.762,0.18-4.951-1.13c-0.393-0.432-1.051-0.483-1.509-0.126
			c-1.198,0.939-2.29,2.02-3.235,3.2c-0.367,0.459-0.314,1.125,0.121,1.52c1.394,1.263,1.842,3.267,1.117,4.994
			c-0.691,1.643-2.399,2.702-4.351,2.702c-0.634-0.021-1.087,0.404-1.155,0.982c-0.176,1.502-0.178,3.033-0.008,4.549
			c0.063,0.566,0.737,0.983,1.311,0.983c1.743-0.043,3.416,1.035,4.117,2.74c0.699,1.702,0.25,3.693-1.119,4.946
			c-0.428,0.393-0.482,1.049-0.123,1.507c0.93,1.185,1.996,2.261,3.165,3.201c0.458,0.368,1.125,0.317,1.522-0.12
			c1.197-1.323,3.337-1.814,4.988-1.12c1.726,0.72,2.813,2.467,2.705,4.34c-0.033,0.587,0.4,1.101,0.98,1.167
			C23.44,94.957,24.208,95,24.979,95c0.732,0,1.464-0.037,2.198-0.122c0.578-0.063,1.012-0.563,0.992-1.144
			c-0.068-1.853,1.033-3.569,2.734-4.267c1.646-0.672,3.766-0.181,4.958,1.128c0.396,0.43,1.048,0.482,1.507,0.126
			c1.197-0.939,2.285-2.018,3.232-3.2c0.367-0.456,0.318-1.125-0.115-1.519c-1.393-1.263-1.846-3.267-1.121-4.994
			c0.679-1.622,2.324-2.709,4.094-2.709l0.244,0.006c0.569,0.049,1.101-0.398,1.166-0.979
			C45.039,75.826,45.042,74.296,44.874,72.779z M25.029,81.713c-3.679,0-6.67-2.99-6.67-6.668c0-3.679,2.991-6.673,6.67-6.673
			c3.678,0,6.672,2.994,6.672,6.673C31.701,78.725,28.707,81.713,25.029,81.713z"/>
	</g>
</g>
<g>
	<path fill="#616772" d="M24.166,30.065H22.5c-0.865,0-1.566-0.7-1.566-1.565c0-0.319,0.128-0.632,0.358-0.851
		c0.97-0.943,1.784-2.212,2.376-3.577c0.12,0.091,0.246,0.156,0.394,0.156c0.935,0,2.038-2.068,2.038-3.48
		c0-1.41-0.135-2.554-1.068-2.554c-0.11,0-0.229,0.022-0.35,0.05c-0.066-3.83-1.033-8.594-6.869-8.594
		c-6.09,0-6.799,4.763-6.869,8.582c-0.086-0.021-0.172-0.038-0.252-0.038c-0.936,0-1.064,1.144-1.064,2.554
		c0,1.412,1.099,3.48,2.033,3.48c0.116,0,0.223-0.033,0.324-0.094c0.588,1.348,1.393,2.587,2.348,3.521
		c0.23,0.222,0.358,0.524,0.358,0.85c0,0.862-0.7,1.565-1.565,1.565h-1.67C7.888,30.071,5,32.962,5,36.524v1.791
		c0,1.125,0.912,2.034,2.039,2.034h21.542c1.125,0,2.034-0.909,2.034-2.034v-1.791C30.62,32.959,27.728,30.065,24.166,30.065z"/>
	<path fill="#616772" d="M43.495,12.357H25.425c0.521,1.152,0.898,2.571,1.05,4.33c0.386,0.238,0.675,0.623,0.909,1.088H43.49
		c0.836,0,1.506-0.678,1.506-1.508v-2.4C45,13.035,44.33,12.357,43.495,12.357z"/>
	<path fill="#616772" d="M43.495,22.229H27.753c-0.424,1.613-1.475,3.302-2.932,3.75c-0.043,0.083-0.094,0.151-0.137,0.233v1.432
		h18.802c0.835,0,1.511-0.675,1.511-1.51V23.74C45,22.904,44.33,22.229,43.495,22.229z"/>
	<path fill="#616772" d="M43.495,32.097H31.207c0.813,1.287,1.288,2.797,1.288,4.428v0.994h11c0.835,0,1.505-0.678,1.505-1.51
		v-2.396C45,32.771,44.33,32.097,43.495,32.097z"/>
</g>
<g>
	<g>
		<path fill="#FFFFFF" d="M75,121c-3.313,0-6,2.688-6,6c0,3.313,2.688,6,6,6s6-2.688,6-6C81,123.688,78.313,121,75,121z M91,115
			h-4.8c-0.659,0-1.372-0.512-1.578-1.138l-1.241-3.723C83.169,109.512,82.459,109,81.8,109H68.2c-0.659,0-1.372,0.512-1.578,1.138
			l-1.244,3.725C65.169,114.488,64.463,115,63.8,115H59c-2.2,0-4,1.8-4,4v18c0,2.2,1.8,4,4,4h32c2.2,0,4-1.8,4-4v-18
			C95,116.8,93.2,115,91,115z M75,137c-5.521,0-10-4.477-10-10s4.479-10,10-10s10,4.477,10,10S80.521,137,75,137z M89.6,121.797
			c-0.771,0-1.399-0.626-1.399-1.4c0-0.773,0.628-1.4,1.399-1.4c0.772,0,1.4,0.627,1.4,1.4C91,121.171,90.372,121.797,89.6,121.797z
			"/>
	</g>
</g>
<g id="Settings_1_">
	<g>
		<path fill="#FFFFFF" d="M94.874,72.779c-0.063-0.565-0.715-0.985-1.284-0.985c-1.834,0-3.459-1.075-4.146-2.741
			c-0.697-1.705-0.244-3.694,1.121-4.949c0.432-0.394,0.481-1.051,0.122-1.507c-0.943-1.192-2.009-2.268-3.169-3.2
			c-0.453-0.367-1.121-0.316-1.519,0.124c-1.19,1.319-3.334,1.811-4.99,1.121c-1.723-0.725-2.81-2.471-2.704-4.344
			c0.038-0.589-0.387-1.099-0.975-1.166c-1.5-0.173-3-0.178-4.5-0.011c-0.578,0.064-1.01,0.563-0.991,1.144
			c0.066,1.854-1.034,3.566-2.74,4.267c-1.631,0.667-3.763,0.181-4.953-1.128c-0.394-0.434-1.05-0.483-1.51-0.127
			c-1.196,0.939-2.287,2.02-3.234,3.199c-0.365,0.459-0.313,1.125,0.122,1.521c1.394,1.262,1.841,3.269,1.115,4.994
			c-0.69,1.642-2.396,2.701-4.35,2.701c-0.635-0.021-1.088,0.406-1.156,0.982c-0.175,1.502-0.179,3.034-0.007,4.552
			c0.063,0.565,0.738,0.983,1.307,0.983c1.744-0.042,3.419,1.034,4.119,2.74c0.7,1.702,0.25,3.694-1.119,4.947
			c-0.428,0.391-0.481,1.047-0.122,1.505c0.929,1.184,1.997,2.261,3.166,3.203c0.459,0.367,1.125,0.317,1.521-0.121
			c1.2-1.322,3.338-1.815,4.988-1.119c1.728,0.719,2.813,2.466,2.706,4.341c-0.034,0.587,0.4,1.1,0.981,1.166
			c0.766,0.091,1.531,0.133,2.303,0.133c0.731,0,1.463-0.036,2.197-0.122c0.578-0.063,1.016-0.564,0.99-1.144
			c-0.068-1.853,1.035-3.569,2.735-4.269c1.646-0.672,3.769-0.18,4.962,1.128c0.395,0.431,1.047,0.483,1.507,0.126
			c1.196-0.939,2.284-2.017,3.234-3.202c0.365-0.456,0.318-1.125-0.116-1.519c-1.394-1.263-1.847-3.268-1.121-4.992
			c0.681-1.622,2.324-2.709,4.094-2.709l0.247,0.006c0.568,0.049,1.1-0.396,1.165-0.979C95.04,75.826,95.043,74.296,94.874,72.779z
			 M75.027,81.714c-3.679,0-6.669-2.989-6.669-6.67c0-3.681,2.99-6.675,6.669-6.675c3.678,0,6.672,2.994,6.672,6.675
			C81.699,78.725,78.705,81.714,75.027,81.714z"/>
	</g>
</g>
<g>
	<path fill="#FFFFFF" d="M74.166,30.065H72.5c-0.865,0-1.565-0.7-1.565-1.565c0-0.319,0.128-0.633,0.359-0.85
		c0.969-0.944,1.784-2.212,2.375-3.578c0.122,0.091,0.243,0.156,0.394,0.156c0.935,0,2.037-2.069,2.037-3.481
		c0-1.41-0.134-2.553-1.068-2.553c-0.109,0-0.229,0.022-0.347,0.05c-0.069-3.83-1.034-8.594-6.869-8.594
		c-6.091,0-6.8,4.763-6.872,8.582c-0.084-0.021-0.172-0.038-0.25-0.038c-0.934,0-1.065,1.144-1.065,2.553
		c0,1.412,1.101,3.481,2.034,3.481c0.116,0,0.223-0.033,0.325-0.094c0.585,1.347,1.391,2.587,2.347,3.522
		c0.229,0.222,0.356,0.525,0.356,0.85c0,0.862-0.7,1.565-1.563,1.565h-1.672c-3.568,0-6.456,2.891-6.456,6.453v1.791
		c0,1.125,0.909,2.035,2.037,2.035h21.544c1.125,0,2.034-0.91,2.034-2.035v-1.791C80.619,32.959,77.729,30.065,74.166,30.065z"/>
	<path fill="#FFFFFF" d="M93.494,12.356H75.425c0.522,1.153,0.9,2.572,1.05,4.331c0.388,0.237,0.676,0.622,0.91,1.087H93.49
		c0.835,0,1.507-0.678,1.507-1.508v-2.4C95,13.034,94.331,12.356,93.494,12.356z"/>
	<path fill="#FFFFFF" d="M93.494,22.228H77.753c-0.422,1.613-1.475,3.302-2.931,3.75c-0.044,0.083-0.094,0.152-0.138,0.233v1.433
		h18.803c0.838,0,1.513-0.675,1.513-1.511v-2.394C95,22.903,94.331,22.228,93.494,22.228z"/>
	<path fill="#FFFFFF" d="M93.494,32.097H81.206c0.813,1.288,1.288,2.797,1.288,4.428v0.994h11c0.837,0,1.506-0.678,1.506-1.509
		v-2.397C95,32.772,94.331,32.097,93.494,32.097z"/>
</g>
<g>
	<path fill="#616772" d="M22.775,194.902l4.58-3.004c0.251-0.16,0.444-0.535,0.444-0.826v-18.645
		c3.567-1.178,6.134-4.535,6.134-8.495c0-4.933-4-8.933-8.934-8.933c-4.933,0-8.933,4-8.933,8.933c0,3.954,2.571,7.306,6.134,8.489
		v6.72c0,0.296-0.159,0.711-0.364,0.927l-3.396,3.647c-0.205,0.216-0.205,0.569,0,0.785l2.344,2.526
		c0.205,0.217,0.205,0.568,0,0.785l-2.344,2.526c-0.205,0.216-0.194,0.558,0.011,0.774l3.522,3.697
		C22.172,195.021,22.531,195.062,22.775,194.902z M22.251,163.943c0-1.519,1.235-2.748,2.748-2.748c1.514,0,2.748,1.235,2.748,2.748
		c0,1.514-1.234,2.748-2.748,2.748C23.487,166.691,22.251,165.463,22.251,163.943z"/>
</g>
<g>
	<path fill="#FFFFFF" d="M72.775,194.902l4.58-3.004c0.25-0.16,0.443-0.535,0.443-0.826v-18.645
		c3.568-1.178,6.135-4.535,6.135-8.495c0-4.933-4-8.933-8.934-8.933s-8.934,4-8.934,8.933c0,3.954,2.572,7.306,6.135,8.489v6.72
		c0,0.296-0.16,0.711-0.365,0.927l-3.396,3.647c-0.205,0.216-0.205,0.569,0,0.785l2.344,2.526c0.205,0.217,0.205,0.568,0,0.785
		l-2.344,2.526c-0.205,0.216-0.193,0.558,0.012,0.774l3.521,3.697C72.172,195.021,72.531,195.062,72.775,194.902z M72.252,163.943
		c0-1.519,1.234-2.748,2.748-2.748s2.748,1.235,2.748,2.748c0,1.514-1.234,2.748-2.748,2.748S72.252,165.463,72.252,163.943z"/>
</g>
<g>
	<path fill="#616772" d="M12.5,224.227V217.5c0-6.904,5.597-12.5,12.5-12.5c6.904,0,12.5,5.596,12.5,12.5v6.727
		c-1.279-1.927-2.996-3.533-5-4.697V217.5c0-4.136-3.364-7.5-7.5-7.5s-7.5,3.364-7.5,7.5v2.029
		C15.494,220.693,13.779,222.3,12.5,224.227z M37.5,232.5c0,6.904-5.596,12.5-12.5,12.5c-6.903,0-12.5-5.596-12.5-12.5
		S18.097,220,25,220C31.904,220,37.5,225.596,37.5,232.5z M27.5,230c0-1.382-1.119-2.5-2.5-2.5s-2.5,1.118-2.5,2.5
		c0,0.916,0.517,1.682,1.25,2.117v4.133c0,0.691,0.559,1.25,1.25,1.25s1.25-0.559,1.25-1.25v-4.133
		C26.983,231.682,27.5,230.916,27.5,230z"/>
</g>
<g>
	<path fill="#FFFFFF" d="M62.5,224.227V217.5c0-6.904,5.597-12.5,12.5-12.5c6.904,0,12.5,5.596,12.5,12.5v6.727
		c-1.279-1.927-2.996-3.533-5-4.697V217.5c0-4.136-3.364-7.5-7.5-7.5s-7.5,3.364-7.5,7.5v2.029
		C65.494,220.693,63.779,222.3,62.5,224.227z M87.5,232.5c0,6.904-5.596,12.5-12.5,12.5c-6.903,0-12.5-5.596-12.5-12.5
		S68.097,220,75,220C81.904,220,87.5,225.596,87.5,232.5z M77.5,230c0-1.382-1.119-2.5-2.5-2.5s-2.5,1.118-2.5,2.5
		c0,0.916,0.517,1.682,1.25,2.117v4.133c0,0.691,0.559,1.25,1.25,1.25s1.25-0.559,1.25-1.25v-4.133
		C76.983,231.682,77.5,230.916,77.5,230z"/>
</g>
</svg>
