<?xml version="1.0" encoding="utf-8"?>
<!-- Generator: Adobe Illustrator 16.0.0, SVG Export Plug-In . SVG Version: 6.00 Build 0)  -->
<!DOCTYPE svg PUBLIC "-//W3C//DTD SVG 1.1//EN" "http://www.w3.org/Graphics/SVG/1.1/DTD/svg11.dtd">
<svg version="1.1" id="Layer_1" xmlns="http://www.w3.org/2000/svg" xmlns:xlink="http://www.w3.org/1999/xlink" x="0px" y="0px"
	 width="50px" height="100px" viewBox="0 0 50 100" enable-background="new 0 0 50 100" xml:space="preserve">
<g>
	<path fill="#3D3535" d="M29.873,11.74l8.137,8.137L17.413,40.474l-8.132-8.137L29.873,11.74z M44.185,9.778l-3.629-3.629
		c-1.402-1.402-3.68-1.402-5.087,0l-3.477,3.476l8.138,8.137l4.055-4.055C45.271,12.62,45.271,10.866,44.185,9.778z M5.022,43.774
		c-0.148,0.667,0.454,1.264,1.12,1.102l9.067-2.198l-8.132-8.137L5.022,43.774z"/>
</g>
<g>
	<path fill="#3D3535" d="M36.25,60h-22.5C11.679,60,10,61.679,10,63.75V65h30v-1.25C40,61.679,38.321,60,36.25,60z M29.7,57.5
		l0.551,3.945H19.749L20.3,57.5H29.7 M30,55H20c-1.031,0-1.992,0.836-2.134,1.856l-0.731,5.231
		c-0.143,1.022,0.584,1.857,1.615,1.857h12.5c1.031,0,1.758-0.835,1.615-1.857l-0.73-5.231C31.991,55.836,31.031,55,30,55L30,55z
		 M36.875,67.5h-23.75c-1.375,0-2.398,1.121-2.273,2.489l2.047,22.521C13.023,93.88,14.25,95,15.625,95h18.75
		c1.375,0,2.602-1.12,2.726-2.49l2.048-22.521C39.273,68.621,38.25,67.5,36.875,67.5z M20,90h-3.75L15,72.5h5V90z M27.5,90h-5V72.5
		h5V90z M33.75,90H30V72.5h5L33.75,90z"/>
</g>
</svg>
