<?xml version="1.0" encoding="utf-8"?>
<!-- Generator: Adobe Illustrator 16.0.0, SVG Export Plug-In . SVG Version: 6.00 Build 0)  -->
<!DOCTYPE svg PUBLIC "-//W3C//DTD SVG 1.1//EN" "http://www.w3.org/Graphics/SVG/1.1/DTD/svg11.dtd">
<svg version="1.1" id="Layer_1" xmlns="http://www.w3.org/2000/svg" xmlns:xlink="http://www.w3.org/1999/xlink" x="0px" y="0px"
	 width="50px" height="200px" viewBox="0 0 50 200" enable-background="new 0 0 50 200" xml:space="preserve">
<g>
	<g>
		<path fill="#3CB0F7" d="M21.667,6.944c0-0.916-0.75-1.667-1.667-1.667H6.667C5.75,5.279,5,6.03,5,6.944v13.333
			c0,0.917,0.75,1.667,1.667,1.667H20c0.917,0,1.667-0.75,1.667-1.667V6.944z"/>
		<path fill="#3CB0F7" d="M45,6.944c0-0.916-0.75-1.667-1.667-1.667H30c-0.917,0-1.667,0.751-1.667,1.667v13.333
			c0,0.917,0.75,1.667,1.667,1.667h13.333c0.917,0,1.667-0.75,1.667-1.667V6.944z"/>
		<path fill="#3CB0F7" d="M21.667,29.723c0-0.917-0.75-1.667-1.667-1.667H6.667C5.75,28.056,5,28.806,5,29.723v13.333
			c0,0.916,0.75,1.667,1.667,1.667H20c0.917,0,1.667-0.751,1.667-1.667V29.723z"/>
		<path fill="#3CB0F7" d="M45,29.723c0-0.917-0.75-1.667-1.667-1.667H30c-0.917,0-1.667,0.75-1.667,1.667v13.333
			c0,0.916,0.75,1.667,1.667,1.667h13.333c0.917,0,1.667-0.751,1.667-1.667V29.723z"/>
	</g>
</g>
<g>
	<path fill="#3CB0F7" d="M24.953,78.674c-5.567,0-10.076-5.405-10.076-12.071C14.876,59.939,19.386,55,24.953,55
		c5.568,0,10.082,4.939,10.082,11.603S30.521,78.674,24.953,78.674z M9.278,94.994c0,0-2.137,0.141-3.078-1.156
		c-0.509-0.702-0.155-2.12,0.194-2.913l0.851-1.944c0,0,2.357-5.269,5.039-8.323c1.648-1.871,3.607-1.445,4.876-0.836
		c0.779,0.375,1.663,1.465,2.307,2.045c0.89,0.797,2.458,1.701,5.022,1.754h1.574c2.563-0.05,4.133-0.958,5.021-1.754
		c0.644-0.58,1.502-1.705,2.276-2.092c1.164-0.582,2.935-0.941,4.538,0.883c2.685,3.055,4.81,8.42,4.81,8.42l0.871,1.905
		c0.363,0.786,0.731,2.198,0.236,2.908c-0.881,1.269-2.861,1.102-2.861,1.102H9.278V94.994z"/>
</g>
<g>
	<g>
		<g>
			<path fill="#3CB0F7" d="M39.703,120.19l-0.19-0.067l-0.744-1.774l0.083-0.18c2.248-5.106,2.096-5.26,1.721-5.63l-3.004-2.93
				c-0.121-0.122-0.337-0.208-0.521-0.208c-0.169,0-0.682,0-5.115,2.01l-0.179,0.079l-1.829-0.737l-0.074-0.181
				c-2.087-5.166-2.301-5.166-2.818-5.166h-4.241c-0.517,0-0.752,0-2.687,5.172l-0.072,0.19l-1.821,0.741l-0.174-0.072
				c-3.001-1.266-4.755-1.906-5.211-1.906c-0.186,0-0.401,0.083-0.525,0.205l-3.006,2.938c-0.381,0.376-0.539,0.532,1.831,5.532
				l0.087,0.187l-0.744,1.77l-0.182,0.072C5,122.276,5,122.475,5,123.008v4.154c0,0.535,0,0.757,5.296,2.653l0.191,0.067
				l0.744,1.768l-0.081,0.178c-2.25,5.107-2.108,5.247-1.724,5.63l2.999,2.933c0.125,0.119,0.342,0.208,0.53,0.208
				c0.166,0,0.678,0,5.116-2.008l0.177-0.085l1.832,0.741l0.07,0.185c2.087,5.162,2.302,5.162,2.821,5.162h4.242
				c0.532,0,0.756,0,2.69-5.177l0.071-0.188l1.824-0.738l0.173,0.072c3,1.269,4.752,1.909,5.206,1.909
				c0.182,0,0.4-0.081,0.525-0.204l3.013-2.945c0.378-0.379,0.537-0.533-1.836-5.527l-0.089-0.188l0.743-1.764l0.175-0.072
				C45,127.721,45,127.521,45,126.987v-4.153C45,122.3,45,122.081,39.703,120.19z M25,131.739c-3.791,0-6.874-3.023-6.874-6.739
				c0-3.713,3.083-6.734,6.874-6.734c3.787,0,6.87,3.021,6.87,6.734S28.789,131.739,25,131.739z"/>
		</g>
	</g>
</g>
<path fill="#3CB0F7" d="M44.13,173.124l-17.028-17.027c-1.161-1.161-3.042-1.161-4.204,0L5.871,173.124
	c-0.85,0.851-1.104,2.129-0.645,3.24c0.46,1.11,1.544,1.834,2.747,1.834h2.307v12.731c0,2.124,1.721,3.844,3.845,3.844h21.75
	c2.124,0,3.846-1.72,3.846-3.844v-12.731h2.306c1.203,0,2.288-0.724,2.747-1.834C45.233,175.253,44.979,173.975,44.13,173.124z
	 M29.492,189.198h-8.984v-5.064c0-2.481,2.011-4.492,4.492-4.492c2.481,0,4.492,2.011,4.492,4.492V189.198z"/>
</svg>
