<?xml version="1.0" encoding="utf-8"?>
<!-- Generator: Adobe Illustrator 16.0.0, SVG Export Plug-In . SVG Version: 6.00 Build 0)  -->
<!DOCTYPE svg PUBLIC "-//W3C//DTD SVG 1.1//EN" "http://www.w3.org/Graphics/SVG/1.1/DTD/svg11.dtd">
<svg version="1.1" id="Layer_1" xmlns="http://www.w3.org/2000/svg" xmlns:xlink="http://www.w3.org/1999/xlink" x="0px" y="0px"
	 width="30px" height="270px" viewBox="0 0 30 270" enable-background="new 0 0 30 270" xml:space="preserve">
<g>
	<path fill="#FFFFFF" stroke="#464B55" stroke-width="0.6041" stroke-miterlimit="10" d="M4.908,14.496L14,5.403
		c0,0,0.906-0.907,1.948,0c1.042,0.906,9.095,9.093,9.095,9.093s0.637,1.107-0.37,1.913c-1.007,0.806-1.712,0.335-1.712,0.335
		l-7.886-7.786l-7.851,7.651c0,0-1.143,0.57-1.982-0.201C4.406,15.636,4.908,14.496,4.908,14.496z"/>
	<polygon fill="#FFFFFF" stroke="#464B55" stroke-width="0.6041" stroke-miterlimit="10" points="7.826,18.021 14.999,10.939 
		22.023,18.021 22.023,25 17.191,25 17.191,17.386 12.659,17.386 12.625,25 7.826,25 	"/>
</g>
<polygon fill="#FFFFFF" stroke="#464B55" stroke-width="0.6041" stroke-miterlimit="10" points="25,102.687 17.281,102.687 
	17.281,94.857 12.72,94.857 12.72,102.687 5,102.687 5,107.313 12.72,107.313 12.72,115.143 17.281,115.143 17.281,107.313 
	25,107.313 "/>
<path fill="#FFFFFF" stroke="#464B55" stroke-width="0.6041" stroke-miterlimit="10" d="M8.596,123.272l1.587,1.615
	c0,0,0.136,0.08,0.127,0.229c-0.007,0.147-0.492,1.417-1.4,1.658c-0.907,0.24-2.103-1.77-2.103-1.77s-0.156-0.277-0.459-0.053
	c-0.305,0.225-0.288,0.882-0.254,1.217c0.032,0.336,0.371,1.912,1.02,2.646c0.646,0.735,2.703,1.285,2.703,1.285
	s0.401,0.087,0.773,0.704c0.373,0.615,5.349,9.553,5.349,9.553s0.353,0.663,0.267,1.393c-0.086,0.729-0.335,2.324-0.335,2.324
	s-0.078,1.133,1.021,2.354c1.104,1.223,2.979,1.078,3.178,1.058c0.195-0.019,1.416-0.056,0.981-0.635
	c-0.432-0.583-1.588-1.733-1.588-1.733s-0.458-0.318-0.146-0.791s1.498-1.477,1.498-1.477s0.19-0.258,0.556,0.105
	c0.36,0.365,1.938,1.889,1.938,1.889s0.418,0.156,0.463-0.411c0.047-0.563,0.363-1.377-0.084-2.449
	c-0.444-1.075-1.252-1.657-1.326-1.724c-0.067-0.064-2.647-1.098-2.647-1.098s-0.579-0.084-0.989-0.832
	c-0.414-0.748-5.398-9.482-5.398-9.482s-0.56-0.914-0.208-1.479c0.35-0.566,0.27-2.024,0.101-2.521
	c-0.167-0.5-0.864-1.539-1.458-1.788c-0.592-0.25-1.526-0.663-2.257-0.536c-0.728,0.125-0.88,0.193-0.965,0.398
	C8.452,123.125,8.596,123.272,8.596,123.272z"/>
<g>
	<path fill="#FFFFFF" stroke="#464B55" stroke-width="0.6041" stroke-miterlimit="10" d="M9.882,65.161H5.764
		C5.342,65.161,5,65.503,5,65.925v4.119c0,0.421,0.342,0.763,0.764,0.763h4.118c0.422,0,0.764-0.342,0.764-0.763v-4.119
		C10.646,65.503,10.304,65.161,9.882,65.161z"/>
	<path fill="#FFFFFF" stroke="#464B55" stroke-width="0.6041" stroke-miterlimit="10" d="M16.979,65.161H12.86
		c-0.42,0-0.763,0.342-0.763,0.764v4.119c0,0.421,0.343,0.763,0.763,0.763h4.119c0.422,0,0.767-0.342,0.767-0.763v-4.119
		C17.742,65.503,17.4,65.161,16.979,65.161z"/>
	<path fill="#FFFFFF" stroke="#464B55" stroke-width="0.6041" stroke-miterlimit="10" d="M24.236,65.161h-4.117
		c-0.424,0-0.766,0.342-0.766,0.764v4.119c0,0.421,0.342,0.763,0.766,0.763h4.117c0.422,0,0.764-0.342,0.764-0.763v-4.119
		C25,65.504,24.658,65.161,24.236,65.161z"/>
	<path fill="#FFFFFF" stroke="#464B55" stroke-width="0.6041" stroke-miterlimit="10" d="M9.882,72.098H5.764
		C5.342,72.098,5,72.438,5,72.859v4.119c0,0.42,0.342,0.764,0.764,0.764h4.118c0.422,0,0.764-0.344,0.764-0.764v-4.119
		C10.646,72.438,10.304,72.098,9.882,72.098z"/>
	<path fill="#FFFFFF" stroke="#464B55" stroke-width="0.6041" stroke-miterlimit="10" d="M16.979,72.098H12.86
		c-0.42,0-0.763,0.342-0.763,0.762v4.119c0,0.422,0.343,0.765,0.763,0.765h4.119c0.422,0,0.767-0.343,0.767-0.765V72.86
		C17.742,72.438,17.4,72.098,16.979,72.098z"/>
	<path fill="#FFFFFF" stroke="#464B55" stroke-width="0.6041" stroke-miterlimit="10" d="M24.236,72.098h-4.117
		c-0.424,0-0.766,0.342-0.766,0.762v4.119c0,0.422,0.342,0.765,0.766,0.765h4.117c0.422,0,0.764-0.343,0.764-0.765V72.86
		C25,72.438,24.658,72.098,24.236,72.098z"/>
	<path fill="#FFFFFF" stroke="#464B55" stroke-width="0.6041" stroke-miterlimit="10" d="M9.882,79.193H5.764
		C5.342,79.193,5,79.535,5,79.956v4.119c0,0.421,0.342,0.764,0.764,0.764h4.118c0.422,0,0.764-0.343,0.764-0.764v-4.119
		C10.646,79.535,10.304,79.193,9.882,79.193z"/>
	<path fill="#FFFFFF" stroke="#464B55" stroke-width="0.6041" stroke-miterlimit="10" d="M16.979,79.193H12.86
		c-0.42,0-0.763,0.342-0.763,0.763v4.119c0,0.421,0.343,0.764,0.763,0.764h4.119c0.422,0,0.767-0.343,0.767-0.764v-4.119
		C17.742,79.535,17.4,79.193,16.979,79.193z"/>
	<path fill="#FFFFFF" stroke="#464B55" stroke-width="0.6041" stroke-miterlimit="10" d="M24.236,79.193h-4.117
		c-0.424,0-0.766,0.342-0.766,0.763v4.119c0,0.421,0.342,0.764,0.766,0.764h4.117c0.422,0,0.764-0.343,0.764-0.764v-4.119
		C25,79.535,24.658,79.193,24.236,79.193z"/>
</g>
<path fill="#FFFFFF" stroke="#464B55" stroke-width="0.6041" stroke-miterlimit="10" d="M25,166.23v-2.461l-2.984-1.232l-0.283-0.76
	l1.187-2.938l-1.853-1.754l-2.842,1.186l-0.761-0.332L16.23,155h-2.462l-1.37,3.016l-0.812,0.189l-2.747-1.119l-1.755,1.85
	l1.138,2.795l-0.236,0.808L5,163.77v2.461l2.985,1.234l0.284,0.805l-1.185,2.892l1.85,1.754l2.844-1.187l0.758,0.285L13.767,175
	h2.463l1.276-2.986l0.763-0.285l2.795,1.187l1.848-1.851l-1.182-2.891l0.231-0.615L25,166.23z M14.909,168.701
	c-2.097,0-3.796-1.699-3.796-3.797s1.699-3.795,3.796-3.795c2.097,0,3.796,1.699,3.796,3.795
	C18.705,167.002,17.006,168.701,14.909,168.701z"/>
<path fill="#FFFFFF" stroke="#464B55" stroke-width="0.6041" stroke-miterlimit="10" d="M25,185.891h-0.367h-8.604v-0.928h-2.278
	v0.928H5.582H5v1.115h0.582v11.006h8.407v2.049l-4.641,4.977h1.668l3.132-3.363v3.363h0.959v-3.357l3.127,3.357h1.695l-4.669-4.977
	v-2.049h9.37v-11.006H25V185.891z"/>
<g>
	<g opacity="0.4">
		<path fill="#FFFFFF" stroke="#464B55" stroke-width="0.6041" stroke-miterlimit="10" d="M22,217.781v7.699
			c0,0.158-0.123,0.287-0.283,0.287H8.286c-0.161,0-0.286-0.129-0.286-0.287v-7.699H22z"/>
		<path fill="#FFFFFF" stroke="#464B55" stroke-width="0.6041" stroke-miterlimit="10" d="M8.286,216.725h13.431
			c0.159,0,0.283,0.123,0.283,0.285v0.771H8v-0.771C8,216.852,8.125,216.725,8.286,216.725z"/>
		<g>
			<path fill="#FFFFFF" stroke="#464B55" stroke-width="0.6041" stroke-miterlimit="10" d="M22,217.781v7.699
				c0,0.158-0.123,0.287-0.283,0.287H8.286c-0.161,0-0.286-0.129-0.286-0.287v-7.699v-0.771c0-0.158,0.125-0.285,0.286-0.285h13.431
				c0.159,0,0.283,0.125,0.283,0.285V217.781z"/>
			<line fill="none" stroke="#464B55" stroke-width="0.6041" stroke-miterlimit="10" x1="8" y1="217.781" x2="22" y2="217.781"/>
		</g>
		<circle fill="#FFFFFF" stroke="#464B55" stroke-width="0.6041" stroke-miterlimit="10" cx="21.366" cy="217.276" r="0.188"/>
		<circle fill="#FFFFFF" stroke="#464B55" stroke-width="0.6041" stroke-miterlimit="10" cx="20.73" cy="217.276" r="0.188"/>
		<circle fill="#FFFFFF" stroke="#464B55" stroke-width="0.6041" stroke-miterlimit="10" cx="20.098" cy="217.276" r="0.188"/>
		<g>
			
				<rect x="8.525" y="218.758" fill="#FFFFFF" stroke="#464B55" stroke-width="0.6041" stroke-miterlimit="10" width="4.857" height="0.119"/>
			
				<rect x="8.525" y="220.115" fill="#FFFFFF" stroke="#464B55" stroke-width="0.6041" stroke-miterlimit="10" width="11.168" height="0.119"/>
			
				<rect x="8.525" y="221.705" fill="#FFFFFF" stroke="#464B55" stroke-width="0.6041" stroke-miterlimit="10" width="11.168" height="0.119"/>
			
				<rect x="8.525" y="223.293" fill="#FFFFFF" stroke="#464B55" stroke-width="0.6041" stroke-miterlimit="10" width="11.168" height="0.119"/>
		</g>
	</g>
	<g opacity="0.6">
		<path fill="#FFFFFF" stroke="#464B55" stroke-width="0.6041" stroke-miterlimit="10" d="M22.75,219.41v8.523
			c0,0.176-0.137,0.315-0.312,0.315H7.567c-0.178,0-0.317-0.146-0.317-0.315v-8.523H22.75z"/>
		<path fill="#FFFFFF" stroke="#464B55" stroke-width="0.6041" stroke-miterlimit="10" d="M7.567,218.24h14.871
			c0.177,0,0.312,0.136,0.312,0.314v0.854H7.25v-0.854C7.25,218.381,7.389,218.24,7.567,218.24z"/>
		<g>
			<path fill="#FFFFFF" stroke="#464B55" stroke-width="0.6041" stroke-miterlimit="10" d="M22.75,219.41v8.523
				c0,0.176-0.137,0.315-0.312,0.315H7.567c-0.178,0-0.317-0.146-0.317-0.315v-8.523v-0.854c0-0.178,0.139-0.315,0.317-0.315h14.871
				c0.177,0,0.312,0.139,0.312,0.315V219.41z"/>
			
				<line fill="none" stroke="#464B55" stroke-width="0.6041" stroke-miterlimit="10" x1="7.25" y1="219.41" x2="22.75" y2="219.41"/>
		</g>
		<circle fill="#FFFFFF" stroke="#464B55" stroke-width="0.6041" stroke-miterlimit="10" cx="22.049" cy="218.851" r="0.208"/>
		<circle fill="#FFFFFF" stroke="#464B55" stroke-width="0.6041" stroke-miterlimit="10" cx="21.346" cy="218.851" r="0.208"/>
		<circle fill="#FFFFFF" stroke="#464B55" stroke-width="0.6041" stroke-miterlimit="10" cx="20.645" cy="218.851" r="0.208"/>
		<g>
			
				<rect x="7.831" y="220.491" fill="#FFFFFF" stroke="#464B55" stroke-width="0.6041" stroke-miterlimit="10" width="5.378" height="0.132"/>
			
				<rect x="7.831" y="221.994" fill="#FFFFFF" stroke="#464B55" stroke-width="0.6041" stroke-miterlimit="10" width="12.364" height="0.132"/>
			
				<rect x="7.831" y="223.754" fill="#FFFFFF" stroke="#464B55" stroke-width="0.6041" stroke-miterlimit="10" width="12.364" height="0.133"/>
			
				<rect x="7.831" y="225.514" fill="#FFFFFF" stroke="#464B55" stroke-width="0.6041" stroke-miterlimit="10" width="12.364" height="0.131"/>
		</g>
	</g>
	<g opacity="0.8">
		<path fill="#FFFFFF" stroke="#464B55" stroke-width="0.6041" stroke-miterlimit="10" d="M23.5,221.039v9.35
			c0,0.191-0.15,0.351-0.344,0.351H6.848c-0.195,0-0.348-0.156-0.348-0.351v-9.35H23.5z"/>
		<path fill="#FFFFFF" stroke="#464B55" stroke-width="0.6041" stroke-miterlimit="10" d="M6.848,219.756h16.309
			c0.192,0,0.344,0.148,0.344,0.346v0.938h-17v-0.938C6.5,219.91,6.653,219.756,6.848,219.756z"/>
		<g>
			<path fill="#FFFFFF" stroke="#464B55" stroke-width="0.6041" stroke-miterlimit="10" d="M23.5,221.039v9.35
				c0,0.191-0.15,0.351-0.344,0.351H6.848c-0.195,0-0.348-0.156-0.348-0.351v-9.35v-0.938c0-0.191,0.152-0.349,0.348-0.349h16.309
				c0.192,0,0.344,0.151,0.344,0.349L23.5,221.039L23.5,221.039z"/>
			
				<line fill="none" stroke="#464B55" stroke-width="0.6041" stroke-miterlimit="10" x1="6.5" y1="221.039" x2="23.5" y2="221.039"/>
		</g>
		<circle fill="#FFFFFF" stroke="#464B55" stroke-width="0.6041" stroke-miterlimit="10" cx="22.73" cy="220.426" r="0.229"/>
		<circle fill="#FFFFFF" stroke="#464B55" stroke-width="0.6041" stroke-miterlimit="10" cx="21.96" cy="220.426" r="0.229"/>
		<circle fill="#FFFFFF" stroke="#464B55" stroke-width="0.6041" stroke-miterlimit="10" cx="21.189" cy="220.426" r="0.229"/>
		<g>
			
				<rect x="7.137" y="222.225" fill="#FFFFFF" stroke="#464B55" stroke-width="0.6041" stroke-miterlimit="10" width="5.897" height="0.146"/>
			
				<rect x="7.137" y="223.873" fill="#FFFFFF" stroke="#464B55" stroke-width="0.6041" stroke-miterlimit="10" width="13.562" height="0.145"/>
			
				<rect x="7.137" y="225.803" fill="#FFFFFF" stroke="#464B55" stroke-width="0.6041" stroke-miterlimit="10" width="13.562" height="0.146"/>
			
				<rect x="7.137" y="227.732" fill="#FFFFFF" stroke="#464B55" stroke-width="0.6041" stroke-miterlimit="10" width="13.562" height="0.145"/>
		</g>
	</g>
	<g>
		<path fill="#FFFFFF" stroke="#464B55" stroke-width="0.6041" stroke-miterlimit="10" d="M24.334,222.628v10.265
			c0,0.211-0.166,0.383-0.379,0.383H6.047c-0.214,0-0.381-0.172-0.381-0.383v-10.265H24.334z"/>
		<path fill="#FFFFFF" stroke="#464B55" stroke-width="0.6041" stroke-miterlimit="10" d="M6.047,221.219h17.908
			c0.213,0,0.379,0.163,0.379,0.379v1.028H5.666v-1.028C5.666,221.387,5.834,221.219,6.047,221.219z"/>
		<g>
			<path fill="#FFFFFF" stroke="#464B55" stroke-width="0.6041" stroke-miterlimit="10" d="M24.334,222.628v10.265
				c0,0.211-0.166,0.383-0.379,0.383H6.047c-0.214,0-0.381-0.172-0.381-0.383v-10.265V221.6c0-0.213,0.167-0.381,0.381-0.381h17.908
				c0.213,0,0.379,0.166,0.379,0.381V222.628L24.334,222.628z"/>
			
				<line fill="none" stroke="#464B55" stroke-width="0.6041" stroke-miterlimit="10" x1="5.666" y1="222.628" x2="24.334" y2="222.628"/>
		</g>
		<circle fill="#FFFFFF" stroke="#464B55" stroke-width="0.6041" stroke-miterlimit="10" cx="23.488" cy="221.952" r="0.251"/>
		<circle fill="#FFFFFF" stroke="#464B55" stroke-width="0.6041" stroke-miterlimit="10" cx="22.643" cy="221.952" r="0.251"/>
		<circle fill="#FFFFFF" stroke="#464B55" stroke-width="0.6041" stroke-miterlimit="10" cx="21.797" cy="221.952" r="0.251"/>
		<g>
			
				<rect x="6.365" y="223.93" fill="#FFFFFF" stroke="#464B55" stroke-width="0.6041" stroke-miterlimit="10" width="6.477" height="0.157"/>
			
				<rect x="6.365" y="225.739" fill="#FFFFFF" stroke="#464B55" stroke-width="0.6041" stroke-miterlimit="10" width="14.893" height="0.157"/>
			
				<rect x="6.365" y="227.857" fill="#FFFFFF" stroke="#464B55" stroke-width="0.6041" stroke-miterlimit="10" width="14.893" height="0.158"/>
			
				<rect x="6.365" y="229.977" fill="#FFFFFF" stroke="#464B55" stroke-width="0.6041" stroke-miterlimit="10" width="14.893" height="0.158"/>
		</g>
	</g>
</g>
<g>
	<g>
		<path fill="#FFFFFF" stroke="#464B55" stroke-width="0.6041" stroke-miterlimit="10" d="M9.719,258.132
			c-0.975-0.161-1.933-0.371-2.863-0.626c-0.187,0.521-0.371,1.008-0.556,1.45c-0.44-0.222-0.874-0.459-1.3-0.715
			c0.949-1.597,1.936-4.414,2.949-7.933c0.214-0.084,0.43-0.162,0.646-0.236c1.027,2.927,2.077,6.652,3.14,10.652
			c-0.476-0.08-0.949-0.179-1.42-0.295C10.116,259.646,9.917,258.879,9.719,258.132z M7.31,256.133
			c0.635,0.069,1.281,0.133,1.937,0.184c-0.329-1.155-0.656-2.25-0.979-3.26C7.945,254.161,7.626,255.191,7.31,256.133z"/>
		<path fill="#FFFFFF" stroke="#464B55" stroke-width="0.6041" stroke-miterlimit="10" d="M16.473,253.438
			c1.07,0.289,1.805,1.879,1.805,3.664c0,1.875-0.692,3.75-2.021,3.859c-1.234,0.08-2.478,0.042-3.708-0.111c0-3.897,0-7.8,0-11.697
			c0.983-0.125,1.973-0.174,2.96-0.146c0.807,0.021,1.463,1.258,1.463,2.705C16.969,252.375,16.787,253.104,16.473,253.438z
			 M13.871,253.191c0.412-0.008,0.823-0.012,1.234-0.012c0.459,0.002,0.641-0.537,0.641-1.029c0-0.577-0.268-1.045-0.746-1.047
			c-0.376,0-0.753,0.01-1.129,0.021C13.871,251.814,13.871,252.503,13.871,253.191z M15.508,258.882
			c0.947-0.021,1.338-0.862,1.338-1.964c0-0.953-0.4-1.925-1.328-1.928c-0.542,0-1.092,0-1.637,0c0,1.292,0,2.584,0,3.875
			C14.423,258.886,14.966,258.893,15.508,258.882z"/>
		<path fill="#FFFFFF" stroke="#464B55" stroke-width="0.6041" stroke-miterlimit="10" d="M24.047,256.416
			c0.321,0.271,0.641,0.497,0.953,0.664c-0.583,0.965-1.482,2.083-2.542,2.542c-1.845,0.89-3.433-1.396-3.431-4.618
			c-0.002-3.22,1.586-5.523,3.431-4.635c1.06,0.46,1.959,1.588,2.542,2.551c-0.312,0.168-0.63,0.395-0.953,0.666
			c-0.347-0.671-0.925-1.29-1.589-1.47c-1.106-0.334-2.049,0.844-2.047,2.887c-0.002,2.015,0.94,3.224,2.047,2.888
			C23.122,257.708,23.7,257.089,24.047,256.416z"/>
	</g>
</g>
<g>
	<g>
		<path fill="#FFFFFF" stroke="#464B55" stroke-width="0.6041" stroke-miterlimit="10" d="M11.705,47.005L8.82,44.58l2.897-2.488
			c0.629-0.541,0.701-1.488,0.161-2.117c-0.54-0.628-1.489-0.702-2.118-0.161l-4.237,3.639C5.189,43.741,4.998,44.161,5,44.601
			c0.002,0.441,0.197,0.858,0.534,1.142l4.238,3.562c0.281,0.236,0.624,0.352,0.965,0.352c0.429,0,0.853-0.182,1.149-0.534
			C12.42,48.488,12.34,47.541,11.705,47.005z"/>
		<path fill="#FFFFFF" stroke="#464B55" stroke-width="0.6041" stroke-miterlimit="10" d="M24.476,43.454l-4.238-3.638
			c-0.629-0.541-1.577-0.467-2.117,0.161c-0.537,0.629-0.468,1.576,0.161,2.117l2.897,2.488l-2.883,2.426
			c-0.635,0.535-0.718,1.479-0.183,2.116c0.297,0.352,0.719,0.534,1.149,0.534c0.341,0,0.684-0.117,0.965-0.352l4.238-3.562
			c0.337-0.284,0.533-0.701,0.534-1.142C25.001,44.161,24.812,43.741,24.476,43.454z"/>
		<path fill="#FFFFFF" stroke="#464B55" stroke-width="0.6041" stroke-miterlimit="10" d="M16.336,37.133
			c-0.814-0.156-1.604,0.375-1.761,1.189l-2.474,12.785c-0.158,0.814,0.375,1.603,1.188,1.76c0.096,0.018,0.192,0.027,0.287,0.027
			c0.705,0,1.333-0.498,1.472-1.215l2.474-12.785C17.682,38.079,17.149,37.291,16.336,37.133z"/>
	</g>
</g>
</svg>
