<?xml version="1.0" encoding="utf-8"?>
<!-- Generator: Adobe Illustrator 16.0.0, SVG Export Plug-In . SVG Version: 6.00 Build 0)  -->
<!DOCTYPE svg PUBLIC "-//W3C//DTD SVG 1.1//EN" "http://www.w3.org/Graphics/SVG/1.1/DTD/svg11.dtd">
<svg version="1.1" id="Layer_1" xmlns="http://www.w3.org/2000/svg" xmlns:xlink="http://www.w3.org/1999/xlink" x="0px" y="0px"
	 width="100px" height="450px" viewBox="0 0 100 450" enable-background="new 0 0 100 450" xml:space="preserve">
<g>
	<g>
		<g>
			<path fill="#5F6671" stroke="#FFFFFF" stroke-width="0.1" stroke-miterlimit="10" d="M6.59,289.398
				c-0.778,0-1.406-0.629-1.406-1.414v-25.979c0-0.773,0.628-1.408,1.406-1.408h36.817c0.771,0,1.41,0.629,1.41,1.408v25.979
				c0,0.773-0.625,1.414-1.41,1.414H6.59L6.59,289.398z"/>
			<path fill="#5F6671" stroke="#FFFFFF" stroke-width="0.1" stroke-miterlimit="10" d="M43.407,260.788
				c0.673,0,1.225,0.55,1.225,1.22v25.979c0,0.678-0.552,1.228-1.225,1.228H6.59c-0.673,0-1.225-0.55-1.225-1.228v-25.979
				c0-0.673,0.552-1.217,1.225-1.217L43.407,260.788 M43.407,260.421H6.59c-0.878,0-1.59,0.71-1.59,1.587v25.979
				c0,0.888,0.713,1.595,1.59,1.595h36.817c0.873,0,1.593-0.707,1.593-1.595v-25.979C45,261.131,44.28,260.421,43.407,260.421
				L43.407,260.421z"/>
		</g>
		
			<line fill="none" stroke="#FFFFFF" stroke-width="0.196" stroke-miterlimit="10" x1="5.363" y1="262.877" x2="44.631" y2="262.877"/>
		<path fill="#FFFFFF" d="M39.735,261.26c0.316,0,0.573,0.256,0.573,0.571c0,0.319-0.257,0.574-0.573,0.574s-0.57-0.255-0.57-0.574
			C39.165,261.516,39.419,261.26,39.735,261.26z"/>
		<circle fill="#FFFFFF" cx="41.449" cy="261.833" r="0.569"/>
		<path fill="#FFFFFF" d="M43.163,261.264c0.312,0,0.567,0.256,0.567,0.567c0,0.315-0.254,0.569-0.567,0.569
			c-0.316,0-0.569-0.254-0.569-0.569C42.593,261.52,42.847,261.264,43.163,261.264z"/>
		<g>
			<path fill="#FFFFFF" d="M42.649,263.939c0.506,0,0.916,0.408,0.916,0.918v22.377c0,0.507-0.409,0.918-0.916,0.918H7.344
				c-0.509,0-0.92-0.408-0.92-0.918v-22.377c0-0.51,0.411-0.918,0.92-0.918H42.649 M42.649,263.57H7.344
				c-0.707,0-1.288,0.58-1.288,1.287v22.377c0,0.703,0.581,1.283,1.288,1.283H42.65c0.707,0,1.288-0.576,1.288-1.283v-22.377
				C43.934,264.15,43.359,263.57,42.649,263.57L42.649,263.57z"/>
		</g>
		<rect x="12.538" y="264.331" fill="#FFFFFF" width="0.237" height="22.965"/>
		<g>
			<path fill="#FFFFFF" d="M27.042,276.501l-13.39,6.865v-1.994l11.366-5.651v-0.063l-11.366-5.648v-1.989l13.39,6.842V276.501z"/>
			<path fill="#FFFFFF" d="M41.889,281.702v1.419h-14.24v-1.419H41.889z"/>
		</g>
	</g>
</g>
<path fill="#5F6671" d="M45,427.461v-4.925l-5.973-2.466l-0.565-1.519l2.366-5.876l-3.697-3.507l-5.684,2.371l-1.521-0.666
	L27.459,405h-4.928l-2.742,6.027l-1.621,0.385l-5.494-2.24l-3.508,3.697l2.275,5.592l-0.471,1.613L5,422.536v4.926l5.971,2.467
	l0.567,1.612l-2.371,5.78l3.699,3.508l5.687-2.371l1.518,0.57L22.532,445h4.928l2.562-5.972l1.521-0.571l5.59,2.371l3.697-3.697
	l-2.366-5.782l0.476-1.229L45,427.461z M24.822,432.403c-4.198,0-7.596-3.399-7.596-7.598c0-4.194,3.397-7.593,7.596-7.593
	c4.189,0,7.589,3.396,7.589,7.593C32.411,429.004,29.012,432.403,24.822,432.403z"/>
<path fill="#FFFFFF" d="M95,427.461v-4.925l-5.973-2.466l-0.565-1.519l2.366-5.876l-3.697-3.507l-5.684,2.371l-1.521-0.666
	L77.459,405h-4.928l-2.742,6.027l-1.621,0.385l-5.494-2.24l-3.508,3.697l2.275,5.592l-0.475,1.613L55,422.536v4.926l5.973,2.467
	l0.565,1.612l-2.371,5.78l3.699,3.508l5.688-2.371l1.516,0.57L72.532,445h4.928l2.562-5.972l1.521-0.571l5.59,2.371l3.697-3.697
	l-2.366-5.782l0.476-1.229L95,427.461z M74.82,432.403c-4.196,0-7.596-3.399-7.596-7.598c0-4.194,3.396-7.593,7.596-7.593
	c4.191,0,7.591,3.396,7.591,7.593C82.411,429.004,79.012,432.403,74.82,432.403z"/>
<g>
	<g>
		<polygon fill="#5F6671" points="10.344,392.9 10.344,372.889 11.456,369.701 21.684,369.701 23.092,372.814 42.364,372.814 
			42.364,392.9 		"/>
		<path fill="#5F6671" d="M10.233,392.9v-20.017l0.006-0.036l1.112-3.188c0.017-0.045,0.06-0.074,0.105-0.074h10.228
			c0.045,0,0.084,0.025,0.102,0.064l1.408,3.109l-0.102-0.063l19.272-0.219c0.18,0,0.328,0.144,0.328,0.315v0.011l-0.219,20.088
			c0,0.063-0.049,0.105-0.109,0.105h-32.02C10.283,393.01,10.233,392.962,10.233,392.9z M10.455,392.789h31.909l-0.111,0.111
			l-0.219-20.086l0.33,0.324l-19.273-0.218c-0.043,0-0.084-0.026-0.101-0.063l-1.409-3.112l0.101,0.063H11.456l0.104-0.072
			l-1.111,3.187l0.006-0.034V392.789z"/>
	</g>
	<g>
		<path fill="#5F6671" d="M15.606,361.361c2.177,3.908,4.354,7.82,6.53,11.729c-3.536,1.971-7.072,3.938-10.608,5.902
			c-2.176-3.911-4.351-7.823-6.527-11.734C8.534,365.293,12.072,363.326,15.606,361.361z"/>
		<path fill="#5F6671" d="M10.269,371.421c2.107-1.171,4.213-2.343,6.32-3.515c-0.797-1.434-1.591-2.858-2.387-4.288
			c-2.105,1.173-4.211,2.343-6.318,3.515C8.679,368.563,9.474,369.992,10.269,371.421z"/>
		<path fill="#5F6671" d="M8.111,369.668c-0.167-0.303-0.335-0.604-0.503-0.904c-0.299,0.17-0.602,0.336-0.902,0.504
			C6.964,370.143,7.431,370.271,8.111,369.668z"/>
		<path fill="#5F6671" d="M13.157,376.613c2.108-1.172,4.215-2.348,6.318-3.521c-0.796-1.428-1.588-2.855-2.385-4.287
			c-2.107,1.172-4.213,2.346-6.32,3.519C11.567,373.756,12.361,375.184,13.157,376.613z"/>
		<path fill="#5F6671" d="M7.884,367.133c2.107-1.172,4.213-2.342,6.32-3.515c0.797,1.43,1.59,2.854,2.386,4.288
			c-2.107,1.172-4.213,2.344-6.32,3.515C9.474,369.992,8.679,368.563,7.884,367.133z"/>
		<path fill="#5F6671" d="M10.77,372.323c2.107-1.173,4.213-2.347,6.32-3.519c0.797,1.432,1.589,2.859,2.385,4.287
			c-2.104,1.174-4.21,2.35-6.318,3.521C12.361,375.184,11.567,373.756,10.77,372.323z"/>
		<g>
			<g>
				
					<rect x="5.668" y="366.569" transform="matrix(0.874 -0.4859 0.4859 0.874 -177.5913 49.2719)" fill="#5F6671" width="1.12" height="1.122"/>
				
					<rect x="14.246" y="361.793" transform="matrix(0.8757 -0.4829 0.4829 0.8757 -173.1532 52.2073)" fill="#5F6671" width="1.12" height="1.12"/>
			</g>
			<g>
				
					<rect x="6.575" y="368.143" transform="matrix(0.8729 -0.4879 0.4879 0.8729 -178.9689 50.3354)" fill="#5F6671" width="1.121" height="1.119"/>
				
					<rect x="15.116" y="363.351" transform="matrix(0.8744 -0.4852 0.4852 0.8744 -174.5996 53.3113)" fill="#5F6671" width="1.119" height="1.118"/>
			</g>
			<g>
				
					<rect x="7.442" y="369.727" transform="matrix(0.8744 -0.4852 0.4852 0.8744 -178.6716 50.398)" fill="#5F6671" width="1.123" height="1.119"/>
				
					<rect x="15.991" y="364.982" transform="matrix(0.8739 -0.4862 0.4862 0.8739 -175.6245 54.1526)" fill="#5F6671" width="1.121" height="1.12"/>
			</g>
			<g>
				
					<rect x="8.281" y="371.266" transform="matrix(0.8739 -0.4862 0.4862 0.8739 -179.6525 51.1971)" fill="#5F6671" width="1.121" height="1.122"/>
				
					<rect x="16.869" y="366.522" transform="matrix(0.8737 -0.4865 0.4865 0.8737 -176.3949 54.8555)" fill="#5F6671" width="1.12" height="1.12"/>
			</g>
			<g>
				
					<rect x="9.144" y="372.799" transform="matrix(0.8739 -0.4862 0.4862 0.8739 -180.2891 51.8099)" fill="#5F6671" width="1.121" height="1.122"/>
				
					<rect x="17.697" y="368.045" transform="matrix(0.8748 -0.4845 0.4845 0.8748 -176.2877 54.9889)" fill="#5F6671" width="1.121" height="1.117"/>
			</g>
			<g>
				
					<rect x="10.037" y="374.35" transform="matrix(0.8737 -0.4865 0.4865 0.8737 -181.0666 52.5208)" fill="#5F6671" width="1.12" height="1.12"/>
				
					<rect x="18.584" y="369.617" transform="matrix(0.8733 -0.4871 0.4871 0.8733 -177.8953 56.2142)" fill="#5F6671" width="1.123" height="1.12"/>
			</g>
			<g>
				
					<rect x="10.942" y="375.983" transform="matrix(0.8746 -0.4848 0.4848 0.8746 -181.1166 52.7917)" fill="#5F6671" width="1.12" height="1.12"/>
				
					<rect x="19.471" y="371.198" transform="matrix(0.8733 -0.4871 0.4871 0.8733 -178.5538 56.8467)" fill="#5F6671" width="1.123" height="1.122"/>
			</g>
			<g>
				
					<rect x="11.769" y="377.513" transform="matrix(0.8735 -0.4868 0.4868 0.8735 -182.4956 53.8287)" fill="#5F6671" width="1.121" height="1.119"/>
				
					<rect x="20.348" y="372.748" transform="matrix(0.8746 -0.4848 0.4848 0.8746 -178.3697 56.9463)" fill="#5F6671" width="1.12" height="1.124"/>
			</g>
		</g>
	</g>
	<g>
		<path fill="#5F6671" d="M26.778,364.441c-2.242,0.521-4.417-0.646-6.734,1.85c-1.04-0.459-2.549-2.271-3.033-3.271
			c0.482-0.449,0.968-0.896,1.452-1.35c0.604-1.438,0.322-2.908,0.341-4.372C21.908,356.895,25.704,361.408,26.778,364.441z"/>
		<path fill="#5F6671" d="M23.97,357.032c1.897-0.494,5.596,3.385,4.887,5.271C28.33,359.922,26.219,357.855,23.97,357.032z"/>
		<path fill="#5F6671" d="M24.255,358.796c1.48-0.688,3.727,1.626,2.861,3.093C27.048,360.453,25.678,358.975,24.255,358.796z"/>
	</g>
	<g>
		
			<rect x="26.385" y="366.655" transform="matrix(0.9467 0.322 -0.322 0.9467 121.4356 8.4529)" fill="#5F6671" width="17.56" height="9.329"/>
		
			<rect x="28.563" y="366.432" transform="matrix(0.9465 0.3227 -0.3227 0.9465 120.0784 10.0157)" fill="#5F6671" width="2.536" height="1.479"/>
		
			<rect x="38.502" y="370.104" transform="matrix(0.9468 0.3219 -0.3219 0.9468 121.5258 6.6258)" fill="#5F6671" width="4.445" height="1.48"/>
		<path fill="#5F6671" d="M37.872,372.896c-0.553,1.631-2.322,2.498-3.95,1.943c-1.629-0.553-2.496-2.322-1.946-3.949
			c0.553-1.627,2.324-2.498,3.95-1.942C37.554,369.5,38.425,371.27,37.872,372.896z M35.505,370.184
			c-0.941-0.32-1.97,0.188-2.29,1.129c-0.323,0.943,0.183,1.977,1.127,2.295c0.947,0.319,1.972-0.186,2.294-1.131
			C36.956,371.529,36.451,370.504,35.505,370.184z"/>
		
			<rect x="28.575" y="362.867" transform="matrix(0.9466 0.3224 -0.3224 0.9466 118.9902 9.3504)" fill="#5F6671" width="5.38" height="2.121"/>
	</g>
	<g>
		<polygon fill="#5F6671" points="10.344,392.9 7.306,375.93 8.414,372.668 20.35,372.668 21.831,375.557 43.4,375.557 
			42.364,392.9 		"/>
		<path fill="#5F6671" d="M10.235,392.92l-3.041-16.975c-0.003-0.021-0.003-0.038,0.003-0.059l1.112-3.261
			c0.018-0.047,0.06-0.077,0.104-0.077h11.936c0.042,0,0.078,0.025,0.097,0.063l1.482,2.893l-0.099-0.061l21.57-0.237
			c0.188-0.002,0.348,0.149,0.351,0.34l-0.003,0.031l-1.273,17.329c-0.002,0.058-0.054,0.104-0.109,0.104H10.344
			C10.289,393.01,10.245,392.973,10.235,392.92z M10.437,392.789h31.927l-0.109,0.104l0.798-17.354l0.351,0.37l-21.569-0.239
			c-0.043,0-0.081-0.025-0.099-0.061l-1.481-2.895l0.097,0.063H8.414l0.105-0.074l-1.11,3.261l0.003-0.056L10.437,392.789z"/>
	</g>
</g>
<g>
	<g>
		<polygon fill="#FFFFFF" points="60.344,392.9 60.344,372.889 61.456,369.701 71.686,369.701 73.092,372.814 92.363,372.814 
			92.363,392.9 		"/>
		<path fill="#FFFFFF" d="M60.232,392.9v-20.017l0.006-0.036l1.113-3.188c0.016-0.045,0.062-0.074,0.104-0.074h10.229
			c0.045,0,0.084,0.025,0.103,0.064l1.407,3.109l-0.104-0.063l19.271-0.219c0.182,0,0.328,0.144,0.328,0.315v0.011l-0.22,20.088
			c0,0.063-0.049,0.105-0.108,0.105H60.344C60.281,393.01,60.232,392.962,60.232,392.9z M60.455,392.789h31.908l-0.11,0.111
			l-0.22-20.086l0.33,0.324l-19.272-0.218c-0.043,0-0.084-0.026-0.103-0.063l-1.407-3.112l0.101,0.063H61.456l0.104-0.072
			l-1.111,3.187l0.007-0.034L60.455,392.789L60.455,392.789z"/>
	</g>
	<g>
		<path fill="#FFFFFF" d="M65.607,361.361c2.179,3.908,4.354,7.82,6.528,11.729c-3.534,1.971-7.069,3.938-10.606,5.902
			c-2.176-3.911-4.353-7.823-6.525-11.734C58.533,365.293,62.07,363.326,65.607,361.361z"/>
		<path fill="#FFFFFF" d="M60.271,371.421c2.104-1.171,4.213-2.343,6.317-3.515c-0.797-1.434-1.591-2.858-2.387-4.288
			c-2.104,1.173-4.212,2.343-6.318,3.515C58.68,368.563,59.477,369.992,60.271,371.421z"/>
		<path fill="#FFFFFF" d="M58.109,369.668c-0.168-0.303-0.336-0.604-0.504-0.904c-0.3,0.17-0.603,0.336-0.899,0.504
			C56.964,370.143,57.432,370.271,58.109,369.668z"/>
		<path fill="#FFFFFF" d="M63.156,376.613c2.106-1.172,4.216-2.348,6.315-3.521c-0.795-1.428-1.588-2.855-2.385-4.287
			c-2.106,1.172-4.213,2.346-6.319,3.519C61.566,373.756,62.359,375.184,63.156,376.613z"/>
		<path fill="#FFFFFF" d="M57.884,367.133c2.106-1.172,4.214-2.342,6.32-3.515c0.797,1.43,1.59,2.854,2.386,4.288
			c-2.105,1.172-4.213,2.344-6.318,3.515C59.477,369.992,58.68,368.563,57.884,367.133z"/>
		<path fill="#FFFFFF" d="M60.771,372.323c2.105-1.173,4.213-2.347,6.318-3.519c0.797,1.432,1.59,2.859,2.387,4.287
			c-2.104,1.174-4.209,2.35-6.318,3.521C62.359,375.184,61.566,373.756,60.771,372.323z"/>
		<g>
			<g>
				
					<rect x="55.639" y="366.596" transform="matrix(0.8737 -0.4865 0.4865 0.8737 -171.5334 73.7279)" fill="#FFFFFF" width="1.12" height="1.122"/>
				
					<rect x="64.268" y="361.811" transform="matrix(0.8748 -0.4845 0.4845 0.8748 -167.4383 76.7703)" fill="#FFFFFF" width="1.121" height="1.121"/>
			</g>
			<g>
				
					<rect x="56.555" y="368.132" transform="matrix(0.8733 -0.4872 0.4872 0.8733 -172.3881 74.5423)" fill="#FFFFFF" width="1.12" height="1.119"/>
				
					<rect x="65.119" y="363.336" transform="matrix(0.8744 -0.4852 0.4852 0.8744 -168.3125 77.571)" fill="#FFFFFF" width="1.119" height="1.119"/>
			</g>
			<g>
				
					<rect x="57.427" y="369.741" transform="matrix(0.8743 -0.4854 0.4854 0.8743 -172.4616 74.7028)" fill="#FFFFFF" width="1.123" height="1.12"/>
				
					<rect x="66.023" y="364.975" transform="matrix(0.8737 -0.4865 0.4865 0.8737 -169.4327 78.5756)" fill="#FFFFFF" width="1.12" height="1.122"/>
			</g>
			<g>
				
					<rect x="58.276" y="371.269" transform="matrix(0.8743 -0.4854 0.4854 0.8743 -173.0972 75.3073)" fill="#FFFFFF" width="1.123" height="1.122"/>
				
					<rect x="66.866" y="366.52" transform="matrix(0.8737 -0.4865 0.4865 0.8737 -170.0774 79.1806)" fill="#FFFFFF" width="1.12" height="1.12"/>
			</g>
			<g>
				
					<rect x="59.133" y="372.799" transform="matrix(0.8739 -0.4862 0.4862 0.8739 -173.9836 76.1129)" fill="#FFFFFF" width="1.121" height="1.121"/>
				
					<rect x="67.713" y="368.045" transform="matrix(0.8744 -0.4851 0.4851 0.8744 -170.2463 79.4012)" fill="#FFFFFF" width="1.121" height="1.115"/>
			</g>
			<g>
				
					<rect x="60.038" y="374.346" transform="matrix(0.8737 -0.4865 0.4865 0.8737 -174.7478 76.847)" fill="#FFFFFF" width="1.12" height="1.12"/>
				
					<rect x="68.609" y="369.624" transform="matrix(0.8733 -0.4871 0.4871 0.8733 -171.5632 80.5834)" fill="#FFFFFF" width="1.123" height="1.123"/>
			</g>
			<g>
				
					<rect x="60.916" y="375.949" transform="matrix(0.8748 -0.4845 0.4845 0.8748 -174.708 76.9165)" fill="#FFFFFF" width="1.121" height="1.123"/>
				
					<rect x="69.45" y="371.192" transform="matrix(0.8741 -0.4858 0.4858 0.8741 -171.7776 80.8234)" fill="#FFFFFF" width="1.122" height="1.12"/>
			</g>
			<g>
				
					<rect x="61.774" y="377.498" transform="matrix(0.8737 -0.4865 0.4865 0.8737 -176.0617 78.09)" fill="#FFFFFF" width="1.12" height="1.118"/>
				
					<rect x="70.335" y="372.746" transform="matrix(0.8744 -0.4852 0.4852 0.8744 -172.2247 81.2837)" fill="#FFFFFF" width="1.119" height="1.126"/>
			</g>
		</g>
	</g>
	<g>
		<path fill="#FFFFFF" d="M76.777,364.441c-2.241,0.521-4.418-0.646-6.733,1.85c-1.04-0.459-2.549-2.271-3.033-3.271
			c0.482-0.449,0.97-0.896,1.452-1.35c0.604-1.438,0.32-2.908,0.342-4.372C71.906,356.895,75.704,361.408,76.777,364.441z"/>
		<path fill="#FFFFFF" d="M73.97,357.032c1.896-0.494,5.597,3.385,4.888,5.271C78.33,359.922,76.219,357.855,73.97,357.032z"/>
		<path fill="#FFFFFF" d="M74.255,358.796c1.479-0.688,3.728,1.626,2.86,3.093C77.048,360.453,75.678,358.975,74.255,358.796z"/>
	</g>
	<g>
		
			<rect x="76.404" y="366.661" transform="matrix(0.9467 0.322 -0.322 0.9467 124.1216 -7.6507)" fill="#FFFFFF" width="17.561" height="9.329"/>
		
			<rect x="78.606" y="366.43" transform="matrix(0.9465 0.3227 -0.3227 0.9465 122.7545 -6.1328)" fill="#FFFFFF" width="2.536" height="1.477"/>
		
			<rect x="88.492" y="370.114" transform="matrix(0.9468 0.3219 -0.3219 0.9468 124.203 -9.462)" fill="#FFFFFF" width="4.445" height="1.481"/>
		<path fill="#FFFFFF" d="M87.872,372.896c-0.554,1.631-2.322,2.498-3.95,1.943c-1.629-0.553-2.496-2.322-1.945-3.949
			c0.553-1.627,2.323-2.498,3.949-1.942C87.554,369.5,88.425,371.27,87.872,372.896z M85.505,370.184
			c-0.94-0.32-1.972,0.188-2.29,1.129c-0.322,0.943,0.184,1.977,1.127,2.295c0.947,0.319,1.973-0.186,2.294-1.131
			C86.956,371.529,86.449,370.504,85.505,370.184z"/>
		
			<rect x="78.586" y="362.871" transform="matrix(0.9466 0.3223 -0.3223 0.9466 121.6398 -6.7743)" fill="#FFFFFF" width="5.381" height="2.121"/>
	</g>
	<g>
		<polygon fill="#FFFFFF" points="60.344,392.9 57.307,375.93 58.414,372.668 70.352,372.668 71.831,375.557 93.4,375.557 
			92.363,392.9 		"/>
		<path fill="#FFFFFF" d="M60.232,392.92l-3.041-16.975c-0.002-0.021-0.002-0.038,0.004-0.059l1.111-3.261
			c0.021-0.047,0.061-0.077,0.104-0.077h11.937c0.041,0,0.077,0.025,0.096,0.063l1.482,2.893l-0.099-0.061l21.569-0.237
			c0.188-0.002,0.349,0.149,0.352,0.34l-0.003,0.031l-1.273,17.329c-0.002,0.058-0.054,0.104-0.108,0.104h-32.02
			C60.289,393.01,60.245,392.973,60.232,392.92z M60.439,392.789h31.924l-0.106,0.104l0.798-17.354l0.354,0.37l-21.57-0.239
			c-0.043,0-0.081-0.025-0.1-0.061l-1.48-2.895l0.098,0.063H58.414l0.104-0.074l-1.109,3.261l0.005-0.056L60.439,392.789z"/>
	</g>
</g>
<g>
	<path fill="#5F6671" d="M35.32,325c0,5.664-4.588,10.256-10.254,10.256c-5.664,0-10.256-4.591-10.256-10.256
		s4.592-10.256,10.256-10.256S35.32,319.336,35.32,325z M25.066,317.807c-3.973,0-7.194,3.221-7.194,7.193s3.219,7.193,7.194,7.193
		s7.197-3.223,7.197-7.193S29.041,317.807,25.066,317.807z"/>
	<path fill="#5F6671" d="M28.678,323.648c-0.217,0.776-0.922,1.352-1.769,1.352c-1.019,0-1.845-0.825-1.845-1.844
		c0-0.848,0.574-1.553,1.352-1.77c-0.422-0.158-0.873-0.257-1.35-0.257c-2.137,0-3.868,1.729-3.868,3.868s1.731,3.868,3.868,3.868
		c2.136,0,3.867-1.729,3.867-3.868C28.934,324.521,28.836,324.07,28.678,323.648z"/>
	
		<path fill="none" stroke="#5F6671" stroke-width="1.2246" stroke-linecap="round" stroke-linejoin="round" stroke-miterlimit="10" d="
		M5,325c12.607-14.361,27.557-13.617,39.868,0"/>
	
		<path fill="none" stroke="#5F6671" stroke-width="1.2246" stroke-linecap="round" stroke-linejoin="round" stroke-miterlimit="10" d="
		M45,325c-12.607,14.361-27.557,13.617-39.87,0"/>
</g>
<g>
	<path fill="#FFFFFF" stroke="#FFFFFF" stroke-miterlimit="10" d="M85.32,325c0,5.664-4.588,10.256-10.256,10.256
		c-5.662,0-10.256-4.591-10.256-10.256s4.592-10.256,10.256-10.256C80.73,314.744,85.32,319.336,85.32,325z M75.064,317.807
		c-3.974,0-7.192,3.221-7.192,7.193s3.219,7.193,7.192,7.193c3.977,0,7.199-3.223,7.199-7.193S79.041,317.807,75.064,317.807z"/>
	<path fill="#FFFFFF" stroke="#FFFFFF" stroke-miterlimit="10" d="M78.678,323.648c-0.217,0.776-0.922,1.352-1.769,1.352
		c-1.019,0-1.845-0.825-1.845-1.844c0-0.848,0.574-1.553,1.352-1.77c-0.422-0.158-0.875-0.257-1.352-0.257
		c-2.138,0-3.867,1.729-3.867,3.868s1.729,3.868,3.867,3.868c2.137,0,3.869-1.729,3.869-3.868
		C78.934,324.521,78.836,324.07,78.678,323.648z"/>
	
		<path fill="none" stroke="#FFFFFF" stroke-width="1.2246" stroke-linecap="round" stroke-linejoin="round" stroke-miterlimit="10" d="
		M55,325c12.607-14.361,27.557-13.617,39.868,0"/>
	
		<path fill="none" stroke="#FFFFFF" stroke-width="1.2246" stroke-linecap="round" stroke-linejoin="round" stroke-miterlimit="10" d="
		M95,325c-12.607,14.361-27.559,13.617-39.87,0"/>
</g>
<path fill="#5F6671" d="M45,25c0,11.044-8.955,20-20,20C13.954,45,5,36.044,5,25C5,13.955,13.954,5,25,5C36.045,5,45,13.955,45,25z
	 M25,19.759c-2.895,0-5.242,2.347-5.242,5.241s2.348,5.242,5.242,5.242s5.242-2.348,5.242-5.242S27.895,19.759,25,19.759z"/>
<path fill="#FFFFFF" d="M95,25c0,11.044-8.955,20-20,20c-11.046,0-20-8.956-20-20c0-11.045,8.954-20,20-20C86.045,5,95,13.955,95,25
	z M75,19.759c-2.896,0-5.242,2.347-5.242,5.241s2.348,5.242,5.242,5.242s5.242-2.348,5.242-5.242S77.895,19.759,75,19.759z"/>
<g>
	<g>
		<g>
			<path fill="#FFFFFF" stroke="#5F6671" stroke-width="0.1" stroke-miterlimit="10" d="M56.59,289.398
				c-0.777,0-1.406-0.629-1.406-1.414v-25.979c0-0.773,0.629-1.408,1.406-1.408h36.817c0.771,0,1.409,0.629,1.409,1.408v25.979
				c0,0.773-0.625,1.414-1.409,1.414H56.59L56.59,289.398z"/>
			<path fill="#FFFFFF" stroke="#5F6671" stroke-width="0.1" stroke-miterlimit="10" d="M93.407,260.788
				c0.672,0,1.225,0.55,1.225,1.22v25.979c0,0.678-0.553,1.228-1.225,1.228H56.59c-0.673,0-1.225-0.55-1.225-1.228v-25.979
				c0-0.673,0.552-1.217,1.225-1.217L93.407,260.788 M93.407,260.421H56.59c-0.878,0-1.59,0.71-1.59,1.587v25.979
				c0,0.888,0.714,1.595,1.59,1.595h36.817c0.872,0,1.593-0.707,1.593-1.595v-25.979C95,261.131,94.279,260.421,93.407,260.421
				L93.407,260.421z"/>
		</g>
		
			<line fill="none" stroke="#5F6671" stroke-width="0.196" stroke-miterlimit="10" x1="55.363" y1="262.877" x2="94.632" y2="262.877"/>
		<path fill="#5F6671" d="M89.734,261.26c0.314,0,0.572,0.256,0.572,0.571c0,0.319-0.258,0.574-0.572,0.574
			c-0.315,0-0.569-0.255-0.569-0.574C89.165,261.516,89.419,261.26,89.734,261.26z"/>
		<circle fill="#5F6671" cx="91.448" cy="261.833" r="0.569"/>
		<path fill="#5F6671" d="M93.163,261.264c0.312,0,0.565,0.256,0.565,0.567c0,0.315-0.254,0.569-0.565,0.569
			c-0.315,0-0.57-0.254-0.57-0.569C92.593,261.52,92.848,261.264,93.163,261.264z"/>
		<g>
			<path fill="#5F6671" d="M92.648,263.939c0.506,0,0.916,0.408,0.916,0.918v22.377c0,0.507-0.41,0.918-0.916,0.918H57.344
				c-0.509,0-0.921-0.408-0.921-0.918v-22.377c0-0.51,0.412-0.918,0.921-0.918H92.648 M92.648,263.57H57.344
				c-0.705,0-1.287,0.58-1.287,1.287v22.377c0,0.703,0.582,1.283,1.287,1.283H92.65c0.707,0,1.287-0.576,1.287-1.283v-22.377
				C93.934,264.15,93.359,263.57,92.648,263.57L92.648,263.57z"/>
		</g>
		<rect x="62.538" y="264.331" fill="#5F6671" width="0.235" height="22.965"/>
		<g>
			<path fill="#5F6671" d="M77.042,276.501l-13.392,6.865v-1.994l11.365-5.651v-0.063l-11.365-5.648v-1.989l13.392,6.842V276.501z"
				/>
			<path fill="#5F6671" d="M91.889,281.702v1.419h-14.24v-1.419H91.889z"/>
		</g>
	</g>
</g>
<g>
	<path fill="#FFFFFF" d="M85.438,55.041l-0.408,0.017l-0.834,0.028l-3.35,0.138l-13.41,0.556c0,0-0.002,0-0.002,0.002
		c-0.002,0-0.002,0.002-0.004,0.002v0.002c-0.002,0-0.002,0.002-0.002,0.002c0.004,0.074,0.01,0.173,0.02,0.295
		c0.006,0.124,0.016,0.271,0.027,0.44c0.01,0.171,0.021,0.36,0.037,0.569c0.014,0.21,0.025,0.437,0.035,0.678
		c0.012,0.16,0.021,0.329,0.037,0.5c0.016,0.17,0.021,0.349,0.037,0.532c0.014,0.181,0.023,0.369,0.036,0.561
		c0.012,0.188,0.024,0.386,0.036,0.582c0.007,0.104,0.015,0.201,0.021,0.302c0.008,0.102,0.016,0.205,0.021,0.304
		c0.008,0.103,0.012,0.203,0.02,0.308c0.01,0.105,0.018,0.205,0.021,0.308l0.048,0.634c0.006,0.026,0.008,0.05,0.008,0.077
		s-0.002,0.054-0.004,0.081c-0.004,0.029-0.007,0.053-0.013,0.082c-0.004,0.03-0.008,0.057-0.01,0.086
		c-0.004,0.027-0.014,0.05-0.021,0.076c-0.016,0.025-0.021,0.047-0.037,0.074c-0.012,0.023-0.023,0.047-0.037,0.074
		c-0.012,0.023-0.027,0.047-0.033,0.074c-0.053,0.052-0.104,0.095-0.154,0.126c-0.055,0.035-0.109,0.06-0.168,0.077
		c-0.057,0.02-0.111,0.033-0.176,0.037c-0.058,0.011-0.115,0.015-0.182,0.016c-0.016,0-0.023,0.002-0.037,0.002s-0.023,0-0.037,0
		c-0.012,0-0.023,0-0.035,0c-0.016,0-0.025,0-0.035,0c-0.018,0-0.027,0-0.041,0c-0.012,0-0.024,0-0.037,0c-0.01,0-0.024,0-0.036,0
		c-0.017,0-0.027,0-0.037,0c-0.017,0.002-0.031,0.002-0.041,0.002c-0.015,0.002-0.024,0.002-0.035,0.003
		c-0.013,0.002-0.032,0.002-0.04,0.002c-0.012,0.002-0.025,0.003-0.037,0.005c-0.096,0.005-0.189,0.012-0.287,0.018
		c-0.094,0.007-0.188,0.013-0.285,0.018c-0.095,0.005-0.189,0.01-0.285,0.016c-0.094,0.007-0.183,0.011-0.274,0.014
		c-0.187,0.012-0.364,0.023-0.544,0.035c-0.182,0.009-0.354,0.019-0.521,0.028c-0.174,0.01-0.336,0.021-0.496,0.03
		c-0.159,0.007-0.313,0.017-0.465,0.023c-0.228,0.017-0.439,0.032-0.636,0.042c-0.19,0.011-0.372,0.027-0.53,0.037
		c-0.158,0.012-0.297,0.019-0.41,0.028c-0.113,0.007-0.207,0.013-0.271,0.017c0.097,1.212,0.194,2.42,0.293,3.627
		c0.099,1.209,0.19,2.421,0.288,3.632c0.096,1.211,0.186,2.417,0.277,3.63c0.092,1.211,0.183,2.42,0.271,3.631L63.7,92.225
		l0.07,0.92l0.03,0.459c0.005,0.035,0.007,0.072,0.007,0.11c0.002,0.039,0.004,0.082,0.006,0.12
		c0.004,0.039,0.008,0.077,0.013,0.104c0.004,0.03,0.012,0.049,0.021,0.056l0.104,0.188l0.034,0.048l0.193,0.037l0.03,0.006h0.013
		l0.11-0.006l0.206-0.015l0.424-0.014l3.407-0.165l6.771-0.289l6.737-0.258l3.356-0.136l1.668-0.083l0.836-0.036
		c0.021,0,0.037,0,0.051,0c0.018,0,0.035,0,0.05,0c0.021,0,0.035,0,0.05-0.004c0.012-0.002,0.032,0,0.038-0.002
		c0.056-0.001,0.108-0.006,0.155-0.014c0.043-0.007,0.096-0.018,0.131-0.033c0.046-0.015,0.092-0.035,0.124-0.058
		c0.037-0.026,0.07-0.057,0.11-0.098c0.018-0.024,0.031-0.047,0.039-0.074c0.018-0.026,0.033-0.051,0.041-0.081
		c0.008-0.029,0.021-0.063,0.031-0.095c0.006-0.036,0.01-0.072,0.014-0.118c0.006-0.028,0.006-0.058,0.006-0.092
		c0-0.035-0.004-0.073-0.004-0.11c-0.006-0.039-0.01-0.078-0.014-0.117c-0.002-0.036-0.006-0.074-0.006-0.11l-0.063-0.909
		l-0.11-1.826l-0.252-3.63l-0.478-7.273l-0.977-14.52l-0.479-7.25l-0.064-0.906c0.006-0.074-0.004-0.15-0.014-0.226
		c-0.014-0.073-0.031-0.146-0.047-0.215c-0.023-0.07-0.055-0.132-0.098-0.19c-0.035-0.058-0.09-0.108-0.144-0.152
		c-0.03-0.025-0.052-0.039-0.083-0.057c-0.035-0.017-0.061-0.028-0.096-0.037c-0.037-0.009-0.069-0.016-0.106-0.022
		C85.507,55.052,85.474,55.046,85.438,55.041"/>
	<path fill="#5F6671" d="M67.358,55.869c-0.254,0.278-0.498,0.557-0.744,0.84c-0.252,0.284-0.494,0.566-0.739,0.848
		c-0.247,0.287-0.489,0.571-0.731,0.859c-0.248,0.287-0.483,0.572-0.729,0.86c-0.236,0.282-0.468,0.562-0.703,0.847
		c-0.229,0.282-0.461,0.562-0.693,0.849c-0.229,0.285-0.459,0.57-0.687,0.86c-0.228,0.287-0.451,0.58-0.673,0.874
		c0.08,0,0.183-0.002,0.296-0.005c0.114,0,0.246-0.001,0.39-0.003c0.146,0,0.303-0.002,0.475-0.004
		c0.175-0.001,0.351-0.003,0.547-0.008c0.146-0.004,0.303-0.007,0.464-0.011c0.161-0.003,0.327-0.009,0.496-0.014
		c0.171-0.004,0.342-0.011,0.521-0.016c0.18-0.004,0.359-0.009,0.545-0.016c0.094-0.002,0.185-0.004,0.281-0.006
		c0.094-0.002,0.186-0.005,0.28-0.007c0.097-0.002,0.187-0.007,0.289-0.01c0.092-0.002,0.188-0.004,0.286-0.005
		c0.027-0.002,0.049-0.002,0.074-0.004c0.024-0.002,0.049-0.002,0.073-0.002c0.029,0,0.052,0,0.08,0c0.025,0,0.048,0,0.077,0.002
		c0.018,0,0.033,0,0.045,0c0.014,0,0.033,0,0.047,0c0.016,0,0.035,0,0.053,0c0.016,0,0.033,0,0.045-0.002
		c0.056-0.002,0.108-0.006,0.166-0.013c0.057-0.008,0.109-0.019,0.16-0.036c0.049-0.017,0.099-0.037,0.144-0.067
		c0.041-0.028,0.082-0.064,0.116-0.11c0.064-0.076,0.107-0.166,0.131-0.259c0.021-0.091,0.029-0.193,0.029-0.298
		c-0.002-0.107-0.014-0.213-0.021-0.32c-0.008-0.11-0.016-0.213-0.016-0.317c-0.008-0.105-0.018-0.209-0.021-0.31
		c-0.01-0.105-0.018-0.207-0.025-0.307c-0.004-0.102-0.012-0.205-0.018-0.305c-0.008-0.103-0.016-0.202-0.02-0.3
		c-0.02-0.199-0.03-0.395-0.043-0.583c-0.015-0.192-0.024-0.38-0.035-0.561c-0.014-0.182-0.024-0.361-0.036-0.533
		c-0.015-0.173-0.023-0.337-0.035-0.5c-0.021-0.225-0.037-0.437-0.045-0.63c-0.013-0.196-0.03-0.375-0.038-0.539
		c-0.014-0.164-0.023-0.307-0.033-0.434C67.372,56.054,67.366,55.95,67.358,55.869"/>
	<path fill="#5D5C5F" d="M67.429,55.795c-0.01,0.005-0.014,0.012-0.021,0.019c-0.007,0.005-0.011,0.013-0.019,0.02
		c-0.009,0.007-0.011,0.012-0.017,0.019c-0.006,0.006-0.015,0.013-0.019,0.022c0.004,0.08,0.015,0.181,0.022,0.309
		c0.011,0.123,0.021,0.266,0.035,0.432c0.013,0.163,0.024,0.342,0.038,0.539c0.014,0.196,0.027,0.405,0.043,0.63
		c0.01,0.163,0.021,0.329,0.033,0.5c0.016,0.172,0.025,0.351,0.037,0.533c0.014,0.182,0.027,0.369,0.035,0.56
		c0.018,0.189,0.028,0.387,0.041,0.584c0.006,0.1,0.014,0.2,0.021,0.3c0.006,0.102,0.014,0.203,0.021,0.305
		c0.008,0.105,0.017,0.202,0.022,0.307s0.014,0.206,0.021,0.311c0,0.103,0.008,0.208,0.017,0.314c0.01,0.109,0.021,0.215,0.021,0.32
		c0.002,0.105-0.007,0.205-0.029,0.299c-0.022,0.096-0.063,0.184-0.133,0.258c-0.035,0.044-0.074,0.078-0.117,0.111
		c-0.045,0.03-0.094,0.049-0.142,0.066c-0.047,0.017-0.104,0.026-0.161,0.037c-0.051,0.007-0.105,0.011-0.166,0.013
		c-0.017,0-0.035,0-0.045,0.001c-0.017,0.002-0.033,0-0.052,0c-0.017,0-0.03,0-0.045,0c-0.019,0-0.035,0-0.047,0
		c-0.028,0-0.054-0.001-0.075-0.001c-0.029,0-0.055,0-0.082,0c-0.025,0-0.047,0-0.072,0.001c-0.027,0-0.05,0.002-0.078,0.002
		c-0.095,0.002-0.188,0.004-0.285,0.007c-0.098,0.002-0.188,0.005-0.285,0.009c-0.1,0.003-0.188,0.007-0.282,0.008
		c-0.097,0.003-0.187,0.005-0.281,0.006c-0.182,0.006-0.362,0.011-0.543,0.016c-0.181,0.007-0.354,0.012-0.522,0.016
		c-0.172,0.006-0.334,0.009-0.496,0.015c-0.159,0.003-0.314,0.007-0.463,0.01c-0.191,0.002-0.373,0.005-0.547,0.009
		c-0.168,0.001-0.328,0.004-0.473,0.006c-0.143,0-0.271,0.002-0.389,0.002c-0.115,0.001-0.219,0.001-0.299,0.003
		c-0.018,0.016-0.028,0.036-0.036,0.049c-0.015,0.018-0.025,0.032-0.037,0.048c-0.017,0.017-0.026,0.032-0.036,0.046
		c-0.018,0.016-0.023,0.035-0.037,0.049c0,0.008,0.002,0.02,0.002,0.028c0,0.009,0.004,0.018,0.004,0.027s0,0.018,0,0.026
		c0,0.008,0.006,0.018,0.006,0.026c0.065-0.003,0.155-0.009,0.271-0.016c0.11-0.009,0.255-0.018,0.41-0.027
		c0.155-0.012,0.333-0.023,0.53-0.037c0.191-0.014,0.405-0.028,0.635-0.041c0.15-0.007,0.307-0.018,0.468-0.024
		c0.161-0.008,0.323-0.017,0.494-0.029c0.169-0.009,0.34-0.019,0.521-0.029c0.18-0.01,0.361-0.021,0.543-0.033
		c0.094-0.003,0.187-0.007,0.281-0.014c0.094-0.003,0.184-0.008,0.28-0.014c0.097-0.005,0.187-0.011,0.289-0.016
		c0.094-0.007,0.187-0.014,0.284-0.019c0.016-0.002,0.028-0.002,0.041-0.004c0.01-0.001,0.023-0.001,0.037-0.003
		c0.012,0,0.024-0.002,0.035-0.002c0.014-0.003,0.028-0.003,0.041-0.003c0.01,0,0.024-0.001,0.034-0.001c0.013,0,0.031,0,0.039,0
		c0.015,0,0.026,0,0.037,0c0.012,0,0.028,0,0.038,0.001c0.014,0,0.025,0,0.037,0c0.014,0,0.027,0,0.035,0
		c0.012,0,0.025,0,0.037-0.001c0.014,0,0.027,0,0.037,0c0.063-0.002,0.116-0.006,0.183-0.018c0.055-0.008,0.114-0.021,0.175-0.038
		c0.054-0.02,0.109-0.042,0.165-0.077c0.049-0.035,0.104-0.074,0.149-0.128c0.016-0.026,0.023-0.05,0.037-0.073
		c0.018-0.025,0.031-0.049,0.039-0.074s0.025-0.05,0.037-0.074c0.01-0.025,0.021-0.052,0.027-0.074
		c0.002-0.031,0.002-0.058,0.006-0.087c0.006-0.026,0.01-0.056,0.012-0.083c0.004-0.029,0.006-0.054,0.006-0.081
		c0-0.028-0.002-0.054-0.01-0.076l-0.047-0.631c-0.01-0.107-0.016-0.21-0.021-0.313c-0.004-0.103-0.014-0.204-0.021-0.305
		c-0.006-0.102-0.012-0.205-0.022-0.305c-0.006-0.102-0.012-0.202-0.021-0.302c-0.012-0.197-0.026-0.394-0.034-0.582
		c-0.02-0.191-0.031-0.38-0.041-0.56c-0.012-0.184-0.025-0.36-0.037-0.534c-0.014-0.173-0.021-0.337-0.035-0.5
		c-0.018-0.245-0.029-0.469-0.037-0.679c-0.012-0.21-0.025-0.4-0.035-0.567c-0.012-0.167-0.021-0.317-0.028-0.441
		C67.435,55.961,67.429,55.865,67.429,55.795"/>
	<path fill="#5F6671" d="M67.429,55.795L67.429,55.795c0-0.002,0.002-0.002,0.002-0.005c0,0,0,0,0.002-0.002
		c0,0,0.002,0,0.002-0.002l13.414-0.557l3.35-0.136l0.836-0.03l0.4-0.018c0.037,0.003,0.072,0.013,0.109,0.018
		c0.033,0.005,0.068,0.014,0.105,0.022c0.033,0.01,0.06,0.022,0.088,0.036c0.035,0.018,0.06,0.036,0.092,0.058
		c0.051,0.043,0.107,0.094,0.143,0.152c0.037,0.06,0.073,0.12,0.094,0.19c0.029,0.07,0.037,0.142,0.052,0.217
		c0.012,0.075,0.014,0.148,0.014,0.225l0.063,0.908l0.475,7.25l0.971,14.52l0.483,7.275l0.245,3.632l0.115,1.826l0.063,0.909
		c0,0.038,0.004,0.075,0.006,0.11c0.006,0.037,0.01,0.075,0.012,0.113c0.004,0.04,0.008,0.074,0.008,0.111
		c0,0.037-0.004,0.065-0.008,0.092c-0.002,0.045-0.006,0.084-0.018,0.118c-0.008,0.035-0.02,0.068-0.033,0.096
		c-0.012,0.029-0.027,0.054-0.039,0.081c-0.016,0.025-0.027,0.046-0.043,0.073c-0.035,0.037-0.068,0.071-0.104,0.096
		c-0.037,0.024-0.078,0.042-0.124,0.056c-0.035,0.017-0.088,0.029-0.133,0.036c-0.047,0.007-0.1,0.01-0.149,0.014
		c-0.019,0-0.03,0-0.039,0.003c-0.024,0-0.034,0-0.049,0c-0.024,0-0.038,0-0.054,0c-0.018,0-0.035,0-0.047,0l-0.84,0.037
		l-1.664,0.083l-3.358,0.138l-6.735,0.261l-6.773,0.285l-3.403,0.164l-0.426,0.014l-0.212,0.015L64.21,94.28h-0.02l-0.026-0.005
		l-0.198-0.039l-0.035-0.048l-0.105-0.187c-0.008-0.007-0.014-0.028-0.018-0.056c-0.008-0.027-0.014-0.067-0.018-0.105
		c0-0.037-0.005-0.081-0.007-0.121c-0.002-0.04-0.005-0.082-0.007-0.11l-0.03-0.459l-0.067-0.92l-1.023-14.703
		c-0.09-1.21-0.184-2.419-0.27-3.632c-0.096-1.211-0.186-2.419-0.279-3.63c-0.094-1.209-0.188-2.42-0.287-3.631
		c-0.103-1.208-0.192-2.417-0.297-3.628c0-0.009,0-0.019,0-0.028s0-0.017-0.004-0.026c0-0.01,0-0.019,0-0.03
		c0-0.007-0.004-0.02-0.004-0.027c0.014-0.017,0.027-0.035,0.035-0.05c0.012-0.017,0.024-0.034,0.038-0.047
		c0.013-0.015,0.022-0.032,0.037-0.048c0.013-0.017,0.022-0.036,0.035-0.047c0.222-0.294,0.444-0.585,0.673-0.873
		c0.229-0.291,0.456-0.575,0.688-0.859c0.229-0.287,0.463-0.568,0.694-0.851c0.237-0.284,0.47-0.563,0.701-0.848
		c0.243-0.289,0.483-0.577,0.728-0.859c0.246-0.289,0.487-0.573,0.732-0.859c0.245-0.284,0.488-0.566,0.74-0.849
		c0.246-0.28,0.494-0.561,0.742-0.837c0.007-0.007,0.011-0.015,0.019-0.022c0.004-0.005,0.013-0.012,0.017-0.019
		c0.008-0.008,0.013-0.015,0.021-0.02C67.415,55.805,67.419,55.8,67.429,55.795 M67.372,55.54l-0.078,0.037
		c-0.238,0.311-0.479,0.622-0.719,0.926c-0.243,0.308-0.48,0.615-0.729,0.917c-0.248,0.304-0.49,0.608-0.736,0.911
		c-0.248,0.302-0.493,0.603-0.745,0.905c-0.249,0.303-0.496,0.602-0.745,0.902c-0.256,0.297-0.508,0.596-0.762,0.894
		c-0.258,0.298-0.514,0.59-0.773,0.882c-0.259,0.292-0.521,0.582-0.783,0.869l-0.029,0.083v0.006
		c0.064,1.226,0.129,2.448,0.19,3.672c0.063,1.224,0.13,2.446,0.198,3.672c0.066,1.225,0.134,2.448,0.204,3.672
		c0.071,1.221,0.146,2.446,0.222,3.669l0.93,14.714l0.063,0.918l0.029,0.459c0.008,0.044,0.01,0.084,0.012,0.12
		s0.002,0.074,0.004,0.11c0.002,0.038,0.008,0.079,0.02,0.125c0.006,0.048,0.018,0.101,0.033,0.168
		c0.014,0.059,0.024,0.114,0.045,0.166c0.021,0.056,0.043,0.106,0.073,0.152c0.027,0.049,0.062,0.096,0.103,0.137
		c0.035,0.042,0.07,0.085,0.109,0.125c0.025,0.021,0.051,0.04,0.081,0.061c0.031,0.02,0.054,0.037,0.082,0.055
		c0.031,0.015,0.062,0.033,0.088,0.045c0.029,0.014,0.056,0.031,0.085,0.039c0.021,0.003,0.041,0.009,0.063,0.011
		c0.021,0.004,0.035,0.006,0.054,0.009c0.021,0.002,0.036,0.003,0.048,0.007c0.02,0.003,0.037,0.007,0.049,0.007l0.053,0.007
		L64.207,95h0.021l0.109-0.008l0.208-0.017l0.429-0.024l3.4-0.197l6.764-0.436l6.728-0.463l3.349-0.211l1.67-0.104l0.838-0.053
		c0.006,0,0.014,0,0.021,0s0.014,0,0.021,0c0.006,0,0.012,0,0.021,0c0.012,0,0.021,0,0.028,0c0.059-0.004,0.123-0.009,0.188-0.016
		c0.064-0.008,0.132-0.021,0.195-0.039c0.07-0.02,0.135-0.046,0.193-0.083c0.055-0.037,0.106-0.082,0.162-0.142
		c0.021-0.036,0.04-0.074,0.063-0.115c0.02-0.042,0.037-0.081,0.058-0.119c0.015-0.037,0.022-0.077,0.035-0.114
		c0.01-0.037,0.013-0.075,0.013-0.11c0.004-0.045,0.008-0.089,0.008-0.128s-0.004-0.08-0.008-0.114
		c-0.003-0.038-0.011-0.075-0.013-0.11c-0.004-0.037-0.008-0.075-0.008-0.116l-0.062-0.907l-0.121-1.826l-0.256-3.632l-0.502-7.271
		l-1.01-14.512l-0.512-7.249l-0.063-0.908c0.005-0.074-0.004-0.15-0.014-0.228c-0.017-0.078-0.033-0.155-0.056-0.229
		c-0.026-0.074-0.056-0.145-0.1-0.208c-0.045-0.064-0.098-0.119-0.162-0.164c-0.046-0.036-0.097-0.069-0.146-0.09
		c-0.044-0.022-0.103-0.039-0.149-0.044c-0.05-0.006-0.105-0.012-0.154-0.013c-0.057,0-0.111,0-0.166,0.001
		c-0.002,0-0.012,0-0.018,0c-0.004,0-0.008,0-0.016,0.002c-0.004,0-0.012,0-0.018,0c-0.005,0-0.007,0-0.015,0
		c-0.011,0.002-0.015,0.002-0.021,0.002c-0.009,0.002-0.021,0.002-0.022,0.002c-0.007,0.001-0.017,0.001-0.022,0.001
		c-0.004,0.002-0.017,0.002-0.021,0.002c-0.009,0-0.015,0-0.019,0c-0.006,0-0.015,0-0.021,0c-0.013,0-0.019,0-0.022-0.002
		c-0.009,0-0.015,0-0.021-0.001l-0.822,0.026l-3.327,0.088L67.372,55.54"/>
	<path fill="#5F6671" d="M83.265,63.119l-18.373,1.514c-0.025,0-0.049,0.02-0.074,0.038c-0.02,0.027-0.036,0.065-0.053,0.104
		c-0.021,0.041-0.033,0.09-0.037,0.143c-0.008,0.057-0.017,0.112-0.013,0.165c0.002,0.063,0.013,0.123,0.021,0.176
		c0.014,0.052,0.029,0.097,0.047,0.131c0.021,0.035,0.037,0.064,0.064,0.088c0.024,0.017,0.047,0.027,0.075,0.023l18.374-1.526
		c0.029,0,0.051-0.013,0.07-0.036c0.025-0.024,0.037-0.057,0.056-0.092c0.021-0.041,0.035-0.093,0.035-0.144
		c0.008-0.05,0.013-0.11,0.013-0.173c-0.005-0.061-0.013-0.114-0.022-0.161c-0.015-0.053-0.031-0.096-0.046-0.136
		c-0.019-0.037-0.035-0.074-0.063-0.089C83.313,63.122,83.291,63.115,83.265,63.119"/>
	<path fill="#5F6671" d="M84.233,73.798l-18.379,1.517c-0.024,0-0.047,0.018-0.072,0.038c-0.021,0.027-0.039,0.064-0.055,0.105
		c-0.021,0.038-0.033,0.088-0.035,0.143c-0.01,0.055-0.018,0.11-0.012,0.164c0.002,0.062,0.012,0.123,0.021,0.174
		c0.01,0.052,0.028,0.098,0.043,0.132c0.021,0.036,0.039,0.063,0.067,0.086c0.023,0.019,0.045,0.029,0.07,0.026l18.376-1.526
		c0.027,0,0.05-0.015,0.074-0.038c0.021-0.025,0.037-0.058,0.054-0.096c0.021-0.036,0.033-0.088,0.037-0.143
		c0.012-0.048,0.016-0.108,0.016-0.171c-0.004-0.062-0.016-0.114-0.025-0.161c-0.014-0.054-0.027-0.096-0.044-0.137
		c-0.019-0.037-0.037-0.074-0.062-0.089C84.282,73.802,84.255,73.795,84.233,73.798"/>
	<path fill="#5F6671" d="M83.876,68.209l-18.38,1.517c-0.026,0-0.047,0.02-0.074,0.036c-0.021,0.028-0.038,0.067-0.056,0.105
		c-0.02,0.041-0.031,0.089-0.037,0.144c-0.01,0.056-0.014,0.112-0.01,0.165c0,0.062,0.01,0.122,0.02,0.175
		c0.012,0.052,0.033,0.097,0.047,0.132c0.021,0.036,0.038,0.063,0.065,0.087c0.021,0.018,0.045,0.027,0.071,0.024l18.377-1.525
		c0.029,0,0.049-0.014,0.07-0.038c0.024-0.023,0.038-0.057,0.053-0.092c0.021-0.04,0.037-0.093,0.037-0.143
		c0.01-0.051,0.015-0.11,0.015-0.174c-0.005-0.061-0.015-0.113-0.025-0.16c-0.014-0.053-0.028-0.096-0.041-0.136
		c-0.024-0.037-0.038-0.074-0.063-0.09C83.919,68.213,83.896,68.207,83.876,68.209"/>
	<path fill="#5F6671" d="M84.667,79.559l-18.376,1.517c-0.026,0-0.047,0.019-0.074,0.038c-0.022,0.028-0.04,0.066-0.056,0.104
		c-0.021,0.038-0.033,0.088-0.037,0.143c-0.008,0.054-0.014,0.112-0.01,0.164c0.002,0.062,0.01,0.121,0.021,0.172
		c0.01,0.055,0.029,0.1,0.043,0.134c0.02,0.036,0.036,0.064,0.065,0.088c0.021,0.019,0.045,0.028,0.071,0.025l18.375-1.526
		c0.031,0,0.051-0.014,0.07-0.039c0.025-0.026,0.043-0.058,0.057-0.095c0.017-0.036,0.035-0.09,0.035-0.143
		c0.011-0.048,0.015-0.109,0.011-0.171c0-0.061-0.011-0.115-0.021-0.161c-0.015-0.052-0.031-0.095-0.044-0.136
		c-0.022-0.037-0.038-0.073-0.062-0.09C84.714,79.565,84.69,79.556,84.667,79.559"/>
	<path fill="#5F6671" d="M85.185,85.621L66.81,87.14c-0.024,0-0.047,0.017-0.074,0.035c-0.021,0.029-0.038,0.065-0.053,0.107
		c-0.021,0.038-0.033,0.089-0.037,0.142c-0.011,0.057-0.017,0.111-0.013,0.165c0.002,0.062,0.013,0.122,0.021,0.174
		c0.012,0.052,0.031,0.098,0.045,0.131c0.02,0.037,0.037,0.065,0.064,0.088c0.023,0.019,0.045,0.029,0.075,0.025l18.374-1.525
		c0.031,0,0.051-0.015,0.072-0.041c0.027-0.024,0.039-0.056,0.053-0.092c0.018-0.039,0.035-0.092,0.035-0.144
		c0.012-0.048,0.016-0.11,0.016-0.173c-0.004-0.062-0.016-0.114-0.025-0.161c-0.014-0.054-0.029-0.098-0.043-0.137
		c-0.021-0.036-0.033-0.072-0.061-0.088C85.233,85.623,85.211,85.617,85.185,85.621"/>
</g>
<g>
	<path fill="#5F6671" d="M35.437,55.041l-0.406,0.017l-0.836,0.028l-3.348,0.138L17.436,55.78c0,0-0.002,0-0.002,0.002
		c-0.002,0-0.002,0.002-0.004,0.002v0.002c-0.003,0-0.003,0.002-0.003,0.002c0.005,0.074,0.011,0.173,0.021,0.295
		c0.007,0.124,0.017,0.271,0.028,0.44c0.01,0.171,0.023,0.36,0.036,0.569c0.014,0.21,0.028,0.437,0.038,0.678
		c0.01,0.16,0.021,0.329,0.038,0.5c0.014,0.17,0.022,0.349,0.036,0.532c0.012,0.181,0.022,0.369,0.036,0.561
		c0.012,0.188,0.025,0.386,0.038,0.582c0.006,0.104,0.014,0.201,0.021,0.302c0.006,0.102,0.014,0.205,0.021,0.304
		c0.007,0.103,0.012,0.203,0.019,0.308c0.008,0.105,0.017,0.205,0.022,0.308l0.048,0.634c0.006,0.026,0.008,0.05,0.008,0.077
		s-0.002,0.054-0.004,0.081c-0.004,0.029-0.007,0.053-0.01,0.082c-0.005,0.03-0.009,0.057-0.011,0.086
		c-0.004,0.027-0.014,0.05-0.022,0.076c-0.015,0.025-0.025,0.047-0.038,0.074c-0.012,0.023-0.026,0.047-0.037,0.074
		c-0.013,0.023-0.029,0.047-0.035,0.074c-0.051,0.052-0.104,0.095-0.154,0.126c-0.054,0.035-0.108,0.06-0.168,0.077
		c-0.055,0.02-0.111,0.033-0.174,0.037c-0.058,0.011-0.116,0.015-0.181,0.016c-0.014,0-0.025,0.002-0.038,0.002
		c-0.014,0-0.025,0-0.037,0c-0.013,0-0.026,0-0.037,0c-0.014,0-0.025,0-0.036,0c-0.016,0-0.026,0-0.039,0s-0.024,0-0.037,0
		c-0.01,0-0.025,0-0.038,0c-0.017,0-0.027,0-0.036,0c-0.017,0.002-0.031,0.002-0.042,0.002c-0.015,0.002-0.025,0.002-0.036,0.003
		c-0.011,0.002-0.031,0.002-0.038,0.002c-0.012,0.002-0.027,0.003-0.038,0.005c-0.096,0.005-0.19,0.012-0.288,0.018
		c-0.093,0.007-0.188,0.013-0.285,0.018c-0.095,0.005-0.189,0.01-0.285,0.016c-0.094,0.007-0.183,0.011-0.276,0.014
		c-0.186,0.012-0.366,0.023-0.543,0.035c-0.182,0.009-0.354,0.019-0.521,0.028c-0.172,0.01-0.336,0.021-0.497,0.03
		c-0.159,0.007-0.313,0.017-0.464,0.023c-0.226,0.017-0.438,0.032-0.634,0.042c-0.191,0.011-0.373,0.027-0.533,0.037
		c-0.157,0.012-0.295,0.019-0.41,0.028c-0.114,0.007-0.206,0.013-0.27,0.017c0.097,1.212,0.194,2.42,0.293,3.627
		c0.097,1.209,0.189,2.421,0.289,3.632c0.094,1.211,0.183,2.417,0.275,3.63c0.093,1.211,0.184,2.42,0.271,3.631l1.026,14.704
		l0.07,0.92l0.031,0.459c0.004,0.035,0.005,0.072,0.006,0.11c0.002,0.039,0.004,0.082,0.006,0.12
		c0.004,0.039,0.007,0.077,0.013,0.104c0.004,0.03,0.012,0.049,0.02,0.056l0.104,0.188l0.033,0.048l0.195,0.037l0.028,0.006h0.012
		l0.112-0.006l0.207-0.015l0.424-0.014l3.406-0.165l6.771-0.289l6.738-0.258l3.354-0.136l1.669-0.083l0.836-0.036
		c0.021,0,0.038,0,0.052,0c0.017,0,0.033,0,0.048,0c0.02,0,0.035,0,0.049-0.004c0.012-0.002,0.033,0,0.039-0.002
		c0.055-0.001,0.108-0.006,0.155-0.014c0.043-0.007,0.096-0.018,0.131-0.033c0.045-0.015,0.09-0.035,0.124-0.058
		c0.037-0.026,0.07-0.057,0.109-0.098c0.019-0.024,0.031-0.047,0.04-0.074c0.019-0.026,0.033-0.051,0.041-0.081
		c0.01-0.029,0.024-0.063,0.031-0.095c0.006-0.036,0.01-0.072,0.014-0.118c0.007-0.028,0.007-0.058,0.007-0.092
		c0-0.035-0.003-0.073-0.003-0.11c-0.008-0.039-0.012-0.078-0.015-0.117c-0.003-0.036-0.007-0.074-0.007-0.11l-0.061-0.909
		l-0.11-1.826l-0.252-3.63l-0.478-7.273l-0.974-14.52l-0.479-7.25l-0.065-0.906c0.004-0.074-0.003-0.15-0.014-0.226
		c-0.013-0.073-0.031-0.146-0.048-0.215c-0.023-0.07-0.053-0.132-0.096-0.19c-0.036-0.058-0.09-0.108-0.144-0.152
		c-0.028-0.025-0.052-0.039-0.082-0.057c-0.036-0.017-0.063-0.028-0.098-0.037c-0.035-0.009-0.067-0.016-0.105-0.022
		C35.506,55.052,35.473,55.046,35.437,55.041"/>
	<path fill="#FFFFFF" d="M17.358,55.869c-0.254,0.278-0.499,0.557-0.744,0.84c-0.25,0.284-0.494,0.566-0.739,0.848
		c-0.249,0.287-0.489,0.571-0.732,0.859c-0.247,0.287-0.483,0.572-0.728,0.86c-0.235,0.282-0.467,0.562-0.703,0.847
		c-0.229,0.282-0.462,0.562-0.695,0.849c-0.229,0.285-0.457,0.57-0.685,0.86c-0.229,0.287-0.452,0.58-0.673,0.874
		c0.081,0,0.183-0.002,0.295-0.005c0.113,0,0.246-0.001,0.39-0.003c0.146,0,0.302-0.002,0.474-0.004
		c0.174-0.001,0.352-0.003,0.548-0.008c0.146-0.004,0.302-0.007,0.463-0.011c0.161-0.003,0.328-0.009,0.497-0.014
		c0.17-0.004,0.342-0.011,0.521-0.016c0.179-0.004,0.359-0.009,0.546-0.016c0.092-0.002,0.184-0.004,0.28-0.006
		c0.095-0.002,0.186-0.005,0.281-0.007s0.187-0.007,0.289-0.01c0.092-0.002,0.188-0.004,0.287-0.005
		c0.026-0.002,0.049-0.002,0.073-0.004c0.026-0.002,0.05-0.002,0.076-0.002c0.028,0,0.051,0,0.079,0c0.027,0,0.048,0,0.078,0.002
		c0.015,0,0.034,0,0.045,0s0.033,0,0.047,0s0.035,0,0.051,0s0.033,0,0.045-0.002c0.055-0.002,0.11-0.006,0.166-0.013
		c0.057-0.008,0.111-0.019,0.16-0.036s0.098-0.037,0.144-0.067c0.042-0.028,0.083-0.064,0.118-0.11
		c0.064-0.076,0.108-0.166,0.13-0.259c0.021-0.091,0.028-0.193,0.028-0.298c-0.002-0.107-0.012-0.213-0.021-0.32
		c-0.008-0.11-0.017-0.213-0.017-0.317c-0.008-0.105-0.016-0.209-0.021-0.31c-0.011-0.105-0.019-0.207-0.025-0.307
		c-0.005-0.102-0.012-0.205-0.019-0.305c-0.007-0.103-0.016-0.202-0.021-0.3c-0.017-0.199-0.027-0.395-0.04-0.583
		c-0.014-0.192-0.024-0.38-0.036-0.561c-0.015-0.182-0.025-0.361-0.036-0.533c-0.015-0.173-0.024-0.337-0.035-0.5
		c-0.021-0.225-0.038-0.437-0.045-0.63c-0.013-0.196-0.029-0.375-0.037-0.539c-0.014-0.164-0.024-0.307-0.033-0.434
		C17.373,56.054,17.366,55.95,17.358,55.869"/>
	<path fill="#5D5C5F" d="M17.427,55.795c-0.007,0.005-0.011,0.012-0.019,0.019c-0.007,0.005-0.011,0.013-0.019,0.02
		s-0.011,0.012-0.016,0.019c-0.007,0.006-0.015,0.013-0.019,0.022c0.004,0.08,0.015,0.181,0.023,0.309
		c0.011,0.123,0.02,0.266,0.036,0.432c0.012,0.163,0.024,0.342,0.037,0.539c0.014,0.196,0.029,0.405,0.043,0.63
		c0.01,0.163,0.021,0.329,0.035,0.5c0.013,0.172,0.023,0.351,0.035,0.533c0.014,0.182,0.029,0.369,0.037,0.56
		c0.017,0.189,0.027,0.387,0.039,0.584c0.006,0.1,0.015,0.2,0.021,0.3c0.006,0.102,0.014,0.203,0.019,0.305
		c0.009,0.105,0.018,0.202,0.024,0.307s0.014,0.206,0.021,0.311c0,0.103,0.008,0.208,0.017,0.314c0.01,0.109,0.02,0.215,0.021,0.32
		c0.002,0.105-0.006,0.205-0.028,0.299c-0.022,0.096-0.063,0.184-0.131,0.258c-0.037,0.044-0.075,0.078-0.118,0.111
		c-0.045,0.03-0.095,0.049-0.142,0.066c-0.047,0.017-0.106,0.026-0.161,0.037c-0.051,0.007-0.107,0.011-0.167,0.013
		c-0.016,0-0.035,0-0.045,0.001c-0.016,0.002-0.034,0-0.051,0s-0.032,0-0.045,0c-0.019,0-0.036,0-0.047,0
		c-0.027,0-0.054-0.001-0.075-0.001c-0.03,0-0.055,0-0.082,0s-0.047,0-0.073,0.001c-0.027,0-0.049,0.002-0.079,0.002
		c-0.094,0.002-0.188,0.004-0.285,0.007c-0.098,0.002-0.189,0.005-0.286,0.009c-0.099,0.003-0.188,0.007-0.282,0.008
		c-0.095,0.003-0.187,0.005-0.281,0.006c-0.183,0.006-0.365,0.011-0.545,0.016c-0.179,0.007-0.353,0.012-0.523,0.016
		c-0.17,0.006-0.333,0.009-0.497,0.015c-0.159,0.003-0.313,0.007-0.461,0.01c-0.191,0.002-0.375,0.005-0.548,0.009
		c-0.169,0.001-0.329,0.004-0.472,0.006c-0.145,0-0.273,0.002-0.388,0.002c-0.116,0.001-0.219,0.001-0.3,0.003
		c-0.017,0.016-0.027,0.036-0.035,0.049c-0.015,0.018-0.026,0.032-0.038,0.048c-0.017,0.017-0.027,0.032-0.036,0.046
		c-0.016,0.016-0.024,0.035-0.037,0.049c0,0.008,0.002,0.02,0.002,0.028c0,0.009,0.002,0.018,0.002,0.027s0,0.018,0,0.026
		c0,0.008,0.006,0.018,0.006,0.026c0.066-0.003,0.157-0.009,0.271-0.016c0.111-0.009,0.255-0.018,0.408-0.027
		c0.158-0.012,0.334-0.023,0.533-0.037c0.192-0.014,0.406-0.028,0.634-0.041c0.151-0.007,0.307-0.018,0.468-0.024
		c0.161-0.008,0.323-0.017,0.495-0.029c0.169-0.009,0.34-0.019,0.52-0.029c0.179-0.01,0.36-0.021,0.544-0.033
		c0.091-0.003,0.186-0.007,0.281-0.014c0.094-0.003,0.182-0.008,0.28-0.014c0.096-0.005,0.187-0.011,0.288-0.016
		c0.095-0.007,0.188-0.014,0.285-0.019c0.017-0.002,0.029-0.002,0.042-0.004c0.011-0.001,0.025-0.001,0.036-0.003
		c0.013,0,0.026-0.002,0.036-0.002c0.014-0.003,0.03-0.003,0.041-0.003s0.025-0.001,0.036-0.001s0.03,0,0.039,0
		c0.014,0,0.027,0,0.038,0s0.028,0,0.037,0.001c0.014,0,0.025,0,0.037,0c0.014,0,0.029,0,0.037,0c0.011,0,0.025,0,0.037-0.001
		c0.013,0,0.026,0,0.038,0c0.062-0.002,0.116-0.006,0.18-0.018c0.056-0.008,0.116-0.021,0.175-0.038
		c0.054-0.02,0.11-0.042,0.166-0.077c0.049-0.035,0.104-0.074,0.15-0.128c0.015-0.026,0.023-0.05,0.038-0.073
		c0.017-0.025,0.031-0.049,0.038-0.074c0.009-0.025,0.026-0.05,0.038-0.074c0.01-0.025,0.021-0.052,0.028-0.074
		c0.001-0.031,0.002-0.058,0.006-0.087c0.006-0.026,0.01-0.056,0.012-0.083c0.003-0.029,0.006-0.054,0.006-0.081
		c0-0.028-0.003-0.054-0.01-0.076l-0.047-0.631c-0.01-0.107-0.016-0.21-0.021-0.313c-0.005-0.103-0.014-0.204-0.021-0.305
		c-0.006-0.102-0.013-0.205-0.023-0.305c-0.006-0.102-0.012-0.202-0.02-0.302c-0.012-0.197-0.027-0.394-0.036-0.582
		c-0.017-0.191-0.028-0.38-0.038-0.56c-0.012-0.184-0.025-0.36-0.038-0.534c-0.014-0.173-0.022-0.337-0.036-0.5
		c-0.017-0.245-0.029-0.469-0.036-0.679c-0.012-0.21-0.027-0.4-0.037-0.567c-0.011-0.167-0.021-0.317-0.027-0.441
		C17.434,55.961,17.427,55.865,17.427,55.795"/>
	<path fill="#FFFFFF" d="M17.427,55.795L17.427,55.795c0-0.002,0.003-0.002,0.003-0.005c0,0,0,0,0.002-0.002
		c0,0,0.002,0,0.002-0.002l13.414-0.557l3.348-0.136l0.837-0.03l0.402-0.018c0.037,0.003,0.072,0.013,0.109,0.018
		c0.035,0.005,0.068,0.014,0.105,0.022c0.034,0.01,0.06,0.022,0.088,0.036c0.037,0.018,0.06,0.036,0.092,0.058
		c0.05,0.043,0.106,0.094,0.144,0.152c0.036,0.06,0.071,0.12,0.092,0.19c0.028,0.07,0.036,0.142,0.052,0.217
		c0.011,0.075,0.014,0.148,0.014,0.225l0.064,0.908l0.474,7.25l0.968,14.52l0.485,7.275l0.246,3.632l0.115,1.826l0.063,0.909
		c0,0.038,0.004,0.075,0.007,0.11c0.003,0.037,0.007,0.075,0.01,0.113c0.003,0.04,0.007,0.074,0.007,0.111
		c0,0.037-0.004,0.065-0.007,0.092c-0.003,0.045-0.007,0.084-0.017,0.118c-0.007,0.035-0.019,0.068-0.034,0.096
		c-0.011,0.029-0.028,0.054-0.041,0.081c-0.014,0.025-0.027,0.046-0.041,0.073c-0.034,0.037-0.069,0.071-0.105,0.096
		c-0.037,0.024-0.079,0.042-0.124,0.056c-0.036,0.017-0.089,0.029-0.134,0.036c-0.046,0.007-0.099,0.01-0.149,0.014
		c-0.019,0-0.031,0-0.04,0.003c-0.025,0-0.035,0-0.049,0c-0.022,0-0.036,0-0.053,0s-0.037,0-0.048,0l-0.839,0.037l-1.666,0.083
		l-3.355,0.138l-6.735,0.261l-6.773,0.285l-3.405,0.164l-0.427,0.014l-0.209,0.015l-0.109,0.005h-0.019l-0.026-0.005l-0.199-0.039
		l-0.037-0.048l-0.106-0.187c-0.008-0.007-0.014-0.028-0.018-0.056c-0.006-0.027-0.012-0.067-0.016-0.105
		c-0.001-0.037-0.004-0.081-0.006-0.121c-0.003-0.04-0.005-0.082-0.007-0.11l-0.03-0.459l-0.07-0.92l-1.023-14.703
		c-0.089-1.21-0.183-2.419-0.269-3.632c-0.095-1.211-0.186-2.419-0.279-3.63c-0.095-1.209-0.188-2.42-0.289-3.631
		c-0.101-1.208-0.192-2.417-0.296-3.628c0-0.009,0-0.019,0-0.028c0-0.009,0-0.017-0.004-0.026c0-0.01,0-0.019,0-0.03
		c0-0.007-0.004-0.02-0.004-0.027c0.014-0.017,0.03-0.035,0.038-0.05c0.01-0.017,0.022-0.034,0.037-0.047
		c0.012-0.015,0.022-0.032,0.037-0.048c0.012-0.017,0.023-0.036,0.036-0.047c0.222-0.294,0.444-0.585,0.673-0.873
		c0.228-0.291,0.455-0.575,0.688-0.859c0.229-0.287,0.463-0.568,0.695-0.851c0.237-0.284,0.469-0.563,0.701-0.848
		c0.244-0.289,0.484-0.577,0.728-0.859c0.246-0.289,0.487-0.573,0.732-0.859c0.245-0.284,0.488-0.566,0.74-0.849
		c0.246-0.28,0.493-0.561,0.742-0.837c0.006-0.007,0.012-0.015,0.02-0.022c0.004-0.005,0.012-0.012,0.016-0.019
		c0.008-0.008,0.012-0.015,0.021-0.02C17.416,55.805,17.42,55.8,17.427,55.795 M17.373,55.54l-0.079,0.037
		c-0.24,0.311-0.479,0.622-0.718,0.926c-0.244,0.308-0.481,0.615-0.729,0.917c-0.247,0.304-0.49,0.608-0.736,0.911
		c-0.249,0.302-0.494,0.603-0.745,0.905c-0.25,0.303-0.497,0.602-0.747,0.902c-0.254,0.297-0.506,0.596-0.761,0.894
		c-0.257,0.298-0.512,0.59-0.772,0.882c-0.26,0.292-0.522,0.582-0.784,0.869l-0.028,0.083v0.006c0.065,1.226,0.126,2.448,0.19,3.672
		s0.129,2.446,0.198,3.672c0.066,1.225,0.133,2.448,0.204,3.672c0.072,1.221,0.145,2.446,0.221,3.669l0.929,14.714l0.063,0.918
		l0.03,0.459c0.007,0.044,0.009,0.084,0.011,0.12c0.001,0.036,0.002,0.074,0.004,0.11c0.002,0.038,0.008,0.079,0.017,0.125
		c0.007,0.048,0.02,0.101,0.036,0.168c0.011,0.059,0.023,0.114,0.043,0.166c0.021,0.056,0.043,0.106,0.075,0.152
		c0.026,0.049,0.061,0.096,0.1,0.137c0.035,0.042,0.073,0.085,0.111,0.125c0.026,0.021,0.05,0.04,0.081,0.061
		c0.031,0.02,0.054,0.037,0.083,0.055c0.031,0.015,0.06,0.033,0.088,0.045c0.029,0.014,0.053,0.031,0.083,0.039
		c0.021,0.003,0.042,0.009,0.063,0.011c0.021,0.004,0.036,0.006,0.054,0.009c0.02,0.002,0.035,0.003,0.047,0.007
		c0.02,0.003,0.038,0.007,0.049,0.007l0.053,0.007L14.206,95h0.021l0.11-0.008l0.208-0.017l0.427-0.024l3.402-0.197l6.763-0.436
		l6.727-0.463l3.348-0.211l1.669-0.104l0.836-0.053c0.007,0,0.014,0,0.023,0c0.008,0,0.014,0,0.021,0c0.006,0,0.013,0,0.021,0
		c0.012,0,0.02,0,0.028,0c0.059-0.004,0.123-0.009,0.188-0.016c0.063-0.008,0.132-0.021,0.196-0.039
		c0.067-0.02,0.133-0.046,0.191-0.083c0.055-0.037,0.109-0.082,0.164-0.142c0.021-0.036,0.041-0.074,0.062-0.115
		c0.021-0.042,0.037-0.081,0.058-0.119c0.014-0.037,0.024-0.077,0.036-0.114c0.01-0.037,0.013-0.075,0.013-0.11
		c0.003-0.045,0.007-0.089,0.007-0.128s-0.004-0.08-0.007-0.114c-0.003-0.038-0.01-0.075-0.013-0.11
		c-0.004-0.037-0.009-0.075-0.009-0.116l-0.061-0.907l-0.122-1.826l-0.255-3.632l-0.5-7.271l-1.009-14.512l-0.513-7.249
		l-0.061-0.908c0.004-0.074-0.004-0.15-0.014-0.228c-0.017-0.078-0.033-0.155-0.056-0.229c-0.026-0.074-0.055-0.145-0.098-0.208
		c-0.045-0.064-0.098-0.119-0.163-0.164c-0.045-0.036-0.095-0.069-0.146-0.09c-0.042-0.022-0.101-0.039-0.149-0.044
		c-0.05-0.007-0.108-0.013-0.157-0.014c-0.055,0-0.111,0-0.166,0.001c-0.003,0-0.011,0-0.017,0c-0.004,0-0.008,0-0.015,0.002
		c-0.004,0-0.011,0-0.018,0c-0.003,0-0.006,0-0.014,0c-0.011,0.002-0.015,0.002-0.021,0.002c-0.008,0.002-0.02,0.002-0.021,0.002
		c-0.007,0.001-0.018,0.001-0.024,0.001c-0.003,0.002-0.015,0.002-0.021,0.002c-0.007,0-0.015,0-0.019,0c-0.006,0-0.014,0-0.02,0
		c-0.012,0-0.019,0-0.023-0.002c-0.008,0-0.014,0-0.021-0.001l-0.822,0.026l-3.328,0.088L17.373,55.54"/>
	<path fill="#FFFFFF" d="M33.264,63.119l-18.372,1.514c-0.026,0-0.049,0.02-0.075,0.038c-0.021,0.027-0.036,0.065-0.054,0.104
		c-0.019,0.041-0.033,0.09-0.037,0.143c-0.009,0.057-0.016,0.112-0.012,0.165c0.001,0.063,0.012,0.123,0.021,0.176
		c0.013,0.052,0.03,0.097,0.044,0.131c0.021,0.035,0.038,0.064,0.065,0.088c0.026,0.017,0.046,0.027,0.077,0.023l18.373-1.526
		c0.029,0,0.051-0.013,0.072-0.036c0.024-0.024,0.035-0.057,0.054-0.092c0.021-0.041,0.037-0.093,0.037-0.144
		c0.007-0.05,0.011-0.11,0.011-0.173c-0.004-0.061-0.011-0.114-0.023-0.161c-0.014-0.053-0.031-0.096-0.045-0.136
		c-0.018-0.037-0.034-0.074-0.061-0.089C33.314,63.122,33.291,63.115,33.264,63.119"/>
	<path fill="#FFFFFF" d="M34.232,73.798l-18.378,1.517c-0.025,0-0.047,0.018-0.072,0.038c-0.021,0.027-0.039,0.064-0.055,0.105
		c-0.02,0.038-0.033,0.088-0.036,0.143c-0.009,0.055-0.015,0.11-0.011,0.164c0.002,0.062,0.011,0.123,0.021,0.174
		c0.01,0.052,0.028,0.098,0.043,0.132c0.021,0.036,0.039,0.063,0.066,0.086c0.024,0.019,0.045,0.029,0.073,0.026l18.375-1.526
		c0.027,0,0.05-0.015,0.075-0.038c0.021-0.025,0.037-0.058,0.053-0.096c0.02-0.036,0.032-0.088,0.036-0.143
		c0.01-0.048,0.014-0.108,0.014-0.171c-0.004-0.062-0.014-0.114-0.023-0.161c-0.016-0.054-0.028-0.096-0.044-0.137
		c-0.019-0.037-0.038-0.074-0.062-0.089C34.282,73.802,34.254,73.795,34.232,73.798"/>
	<path fill="#FFFFFF" d="M33.875,68.209l-18.38,1.517c-0.026,0-0.047,0.02-0.074,0.036c-0.021,0.028-0.038,0.067-0.055,0.105
		c-0.021,0.041-0.032,0.089-0.038,0.144c-0.011,0.056-0.015,0.112-0.012,0.165c0.001,0.062,0.012,0.122,0.021,0.175
		c0.011,0.052,0.033,0.097,0.046,0.132c0.02,0.036,0.038,0.063,0.064,0.087c0.022,0.018,0.045,0.027,0.073,0.024l18.377-1.525
		c0.03,0,0.05-0.014,0.072-0.038c0.024-0.023,0.039-0.057,0.053-0.092c0.02-0.04,0.037-0.093,0.037-0.143
		c0.01-0.051,0.016-0.11,0.016-0.174c-0.006-0.061-0.016-0.113-0.025-0.16c-0.014-0.053-0.031-0.096-0.042-0.136
		c-0.022-0.037-0.036-0.074-0.062-0.09C33.919,68.213,33.895,68.207,33.875,68.209"/>
	<path fill="#FFFFFF" d="M34.666,79.559l-18.375,1.517c-0.027,0-0.047,0.019-0.076,0.038c-0.021,0.028-0.038,0.066-0.054,0.104
		c-0.022,0.038-0.034,0.088-0.038,0.143c-0.009,0.054-0.015,0.112-0.011,0.164c0.002,0.062,0.011,0.121,0.021,0.172
		c0.011,0.055,0.033,0.1,0.044,0.134c0.021,0.036,0.037,0.064,0.066,0.088c0.021,0.019,0.045,0.028,0.072,0.025l18.375-1.526
		c0.031,0,0.051-0.014,0.071-0.039c0.025-0.026,0.041-0.058,0.055-0.095c0.017-0.036,0.036-0.09,0.036-0.143
		c0.011-0.048,0.015-0.109,0.011-0.171c0-0.061-0.011-0.115-0.021-0.161c-0.014-0.052-0.031-0.095-0.043-0.136
		c-0.021-0.037-0.037-0.073-0.061-0.09C34.714,79.565,34.69,79.556,34.666,79.559"/>
	<path fill="#FFFFFF" d="M35.186,85.621L16.81,87.14c-0.024,0-0.047,0.017-0.075,0.035c-0.021,0.029-0.039,0.065-0.054,0.107
		c-0.021,0.038-0.034,0.089-0.037,0.142c-0.01,0.057-0.016,0.111-0.012,0.165c0.002,0.062,0.012,0.122,0.021,0.174
		c0.011,0.052,0.032,0.098,0.043,0.131c0.021,0.037,0.039,0.065,0.066,0.088c0.024,0.019,0.045,0.029,0.074,0.025l18.375-1.525
		c0.03,0,0.05-0.015,0.072-0.041c0.026-0.024,0.039-0.056,0.053-0.092c0.019-0.039,0.036-0.092,0.036-0.144
		c0.012-0.048,0.016-0.11,0.016-0.173c-0.004-0.062-0.016-0.114-0.025-0.161c-0.014-0.054-0.03-0.098-0.043-0.137
		c-0.021-0.036-0.034-0.072-0.061-0.088C35.232,85.623,35.21,85.617,35.186,85.621"/>
</g>
<g>
	<g>
		<path fill="#5F6671" d="M5,108.75v32.5h40v-32.5H5z M42.5,138.75h-35v-25h35V138.75z"/>
		<rect x="27.5" y="118.75" fill="#5F6671" width="12.5" height="2.5"/>
		<rect x="27.5" y="123.75" fill="#5F6671" width="12.5" height="2.5"/>
		<rect x="27.5" y="128.75" fill="#5F6671" width="7.5" height="2.5"/>
		<rect x="10" y="118.75" fill="#5F6671" width="12.5" height="12.5"/>
	</g>
</g>
<g>
	<g>
		<path fill="#FFFFFF" d="M55,108.75v32.5h40v-32.5H55z M92.5,138.75h-35v-25h35V138.75z"/>
		<rect x="77.5" y="118.75" fill="#FFFFFF" width="12.5" height="2.5"/>
		<rect x="77.5" y="123.75" fill="#FFFFFF" width="12.5" height="2.5"/>
		<rect x="77.5" y="128.75" fill="#FFFFFF" width="7.5" height="2.5"/>
		<rect x="60" y="118.75" fill="#FFFFFF" width="12.5" height="12.5"/>
	</g>
</g>
</svg>
