<?xml version="1.0" encoding="utf-8"?>
<!-- Generator: Adobe Illustrator 16.0.0, SVG Export Plug-In . SVG Version: 6.00 Build 0)  -->
<!DOCTYPE svg PUBLIC "-//W3C//DTD SVG 1.1//EN" "http://www.w3.org/Graphics/SVG/1.1/DTD/svg11.dtd">
<svg version="1.1" id="Layer_1" xmlns="http://www.w3.org/2000/svg" xmlns:xlink="http://www.w3.org/1999/xlink" x="0px" y="0px"
	 width="150px" height="150px" viewBox="0 0 150 150" enable-background="new 0 0 150 150" xml:space="preserve">
<linearGradient id="SVGID_1_" gradientUnits="userSpaceOnUse" x1="74.9995" y1="0" x2="74.9995" y2="150.0005">
	<stop  offset="0" style="stop-color:#2484C6"/>
	<stop  offset="1" style="stop-color:#2484C6;stop-opacity:0"/>
</linearGradient>
<rect opacity="0" fill="url(#SVGID_1_)" width="150" height="150"/>
<g>
	<g id="_x31_5_38_">
		<g>
			<linearGradient id="SVGID_2_" gradientUnits="userSpaceOnUse" x1="42.6978" y1="11.2764" x2="42.6978" y2="40.917">
				<stop  offset="0" style="stop-color:#2484C6"/>
				<stop  offset="1" style="stop-color:#2484C6;stop-opacity:0"/>
			</linearGradient>
			<path fill="url(#SVGID_2_)" d="M41.767,40.917h1.86c2.827,0,5.118-2.292,5.118-5.118V21.677v-5.283
				c0-2.826-2.291-5.118-5.118-5.118h-1.86c-2.826,0-5.117,2.292-5.117,5.118v5.283v14.123
				C36.65,38.625,38.941,40.917,41.767,40.917z"/>
			<linearGradient id="SVGID_3_" gradientUnits="userSpaceOnUse" x1="108.3379" y1="11.1494" x2="108.3379" y2="40.79">
				<stop  offset="0" style="stop-color:#2484C6"/>
				<stop  offset="1" style="stop-color:#2484C6;stop-opacity:0"/>
			</linearGradient>
			<path fill="url(#SVGID_3_)" d="M107.409,40.79h1.859c2.826,0,5.118-2.292,5.118-5.118V20.336v-4.069
				c0-2.826-2.292-5.118-5.118-5.118h-1.859c-2.827,0-5.119,2.292-5.119,5.118v4.069v15.336
				C102.291,38.499,104.582,40.79,107.409,40.79z"/>
			<path fill="#565559" d="M131.68,21.677h-13.134v15.336c0,5.116-4.161,7.938-9.276,7.938h-1.86c-5.115,0-9.277-4.162-9.277-9.278
				V21.677H52.905v14.123c0,5.116-4.162,9.278-9.277,9.278h-1.86c-5.116,0-9.277-4.162-9.277-9.278V21.677H18.32
				c-4.587,0-8.32,3.732-8.32,8.32V130.53c0,4.588,3.732,8.32,8.32,8.32h113.36c4.588,0,8.32-3.732,8.32-8.32V29.997
				C140,25.409,136.268,21.677,131.68,21.677z M131.68,130.53H18.32V54.609h113.363l0.003,75.921
				C131.686,130.53,131.685,130.53,131.68,130.53z"/>
			<path fill="#5853A3" d="M79.296,80.076h14.938c0.592,0,1.072-0.48,1.072-1.072V66.068c0-0.592-0.48-1.072-1.072-1.072H79.296
				c-0.594,0-1.073,0.48-1.073,1.072v12.936C78.223,79.596,78.702,80.076,79.296,80.076z"/>
			<path fill="#565559" d="M103.674,80.076h14.939c0.592,0,1.072-0.48,1.072-1.072V66.068c0-0.592-0.48-1.072-1.072-1.072h-14.939
				c-0.592,0-1.072,0.48-1.072,1.072v12.936C102.602,79.596,103.082,80.076,103.674,80.076z"/>
			<path fill="#565559" d="M30.537,101.253h14.938c0.592,0,1.072-0.48,1.072-1.072V87.245c0-0.592-0.48-1.072-1.072-1.072H30.537
				c-0.592,0-1.072,0.48-1.072,1.072v12.936C29.465,100.772,29.945,101.253,30.537,101.253z"/>
			<path fill="#5AB247" d="M54.916,101.253h14.938c0.592,0,1.072-0.48,1.072-1.072V87.245c0-0.592-0.48-1.072-1.072-1.072H54.916
				c-0.592,0-1.072,0.48-1.072,1.072v12.936C53.844,100.772,54.324,101.253,54.916,101.253z"/>
			<path fill="#565559" d="M79.296,100.387h14.938c0.592,0,1.072-0.48,1.072-1.072V86.379c0-0.592-0.48-1.072-1.072-1.072H79.296
				c-0.593,0-1.072,0.48-1.072,1.072v12.936C78.224,99.906,78.703,100.387,79.296,100.387z"/>
			<path fill="#9E4F39" d="M103.674,100.301h14.939c0.592,0,1.072-0.48,1.072-1.072V86.293c0-0.592-0.48-1.072-1.072-1.072h-14.939
				c-0.592,0-1.072,0.48-1.072,1.072v12.936C102.602,99.82,103.082,100.301,103.674,100.301z"/>
			<path fill="#C84F9D" d="M45.475,107.35H30.537c-0.592,0-1.072,0.48-1.072,1.072v12.937c0,0.593,0.48,1.072,1.072,1.072h14.938
				c0.593,0,1.073-0.479,1.073-1.072v-12.937C46.547,107.83,46.067,107.35,45.475,107.35z"/>
			<path fill="#565559" d="M69.855,107.35H54.917c-0.592,0-1.072,0.48-1.072,1.072v12.937c0,0.593,0.48,1.072,1.072,1.072h14.938
				c0.592,0,1.072-0.479,1.072-1.072v-12.937C70.927,107.83,70.447,107.35,69.855,107.35z"/>
			<path fill="#565559" d="M94.234,107.35H79.296c-0.593,0-1.072,0.48-1.072,1.072v12.937c0,0.593,0.479,1.072,1.072,1.072h14.938
				c0.592,0,1.072-0.479,1.072-1.072v-12.937C95.307,107.83,94.826,107.35,94.234,107.35z"/>
			<path fill="#565559" d="M118.613,107.35h-14.939c-0.592,0-1.072,0.48-1.072,1.072v12.937c0,0.593,0.48,1.072,1.072,1.072h14.939
				c0.592,0,1.072-0.479,1.072-1.072v-12.937C119.686,107.83,119.205,107.35,118.613,107.35z"/>
		</g>
	</g>
</g>
</svg>
