<?xml version="1.0" encoding="utf-8"?>
<!-- Generator: Adobe Illustrator 16.0.0, SVG Export Plug-In . SVG Version: 6.00 Build 0)  -->
<!DOCTYPE svg PUBLIC "-//W3C//DTD SVG 1.1//EN" "http://www.w3.org/Graphics/SVG/1.1/DTD/svg11.dtd">
<svg version="1.1" id="Layer_1" xmlns="http://www.w3.org/2000/svg" xmlns:xlink="http://www.w3.org/1999/xlink" x="0px" y="0px"
	 width="150px" height="150px" viewBox="0 0 150 150" enable-background="new 0 0 150 150" xml:space="preserve">
<g>
	<path fill="#52ACE0" d="M130.873,52.261h-3.559v39.136c0,6.096-3.543,11.604-10.654,11.604H46.973v1.857
		c0,5.389,6.124,10.828,12.417,10.828h53.28l20.384,11.984l-2.956-11.984h0.775c6.294,0,9.127-5.427,9.127-10.828V61.552
		C140,56.163,137.167,52.261,130.873,52.261z"/>
	<path fill="#52ACE0" d="M106.253,25.071H25.317C18.193,25.071,10,31.396,10,37.495v49.054c0,5.616,6.942,9.671,13.603,10.296
		l-4.336,16.456L47.043,96.96h59.21c7.12,0,13.693-4.32,13.693-10.411V46.861v-9.366C119.946,31.396,113.373,25.071,106.253,25.071z
		 M37.664,66.479c-4.039,0-7.313-3.275-7.313-7.312c0-4.04,3.275-7.312,7.313-7.312c4.035,0,7.31,3.272,7.31,7.312
		C44.974,63.205,41.699,66.479,37.664,66.479z M64.973,66.479c-4.039,0-7.313-3.275-7.313-7.312c0-4.04,3.275-7.312,7.313-7.312
		c4.039,0,7.31,3.272,7.31,7.312C72.283,63.205,69.012,66.479,64.973,66.479z M92.287,66.479c-4.039,0-7.318-3.275-7.318-7.312
		c0-4.04,3.279-7.312,7.318-7.312c4.03,0,7.309,3.272,7.309,7.312C99.596,63.205,96.317,66.479,92.287,66.479z"/>
</g>
</svg>
