<?xml version="1.0" encoding="utf-8"?>
<!-- Generator: Adobe Illustrator 16.0.0, SVG Export Plug-In . SVG Version: 6.00 Build 0)  -->
<!DOCTYPE svg PUBLIC "-//W3C//DTD SVG 1.1//EN" "http://www.w3.org/Graphics/SVG/1.1/DTD/svg11.dtd">
<svg version="1.1" id="Layer_1" xmlns="http://www.w3.org/2000/svg" xmlns:xlink="http://www.w3.org/1999/xlink" x="0px" y="0px"
	 width="150px" height="150px" viewBox="0 0 150 150" enable-background="new 0 0 150 150" xml:space="preserve">
<g>
	<path fill="#4C5FAB" d="M88.452,39.076c6.01,3.769,10.225,10.146,10.991,17.55c2.453,1.144,5.172,1.803,8.059,1.803
		c10.529,0,19.065-8.535,19.065-19.064c0-10.531-8.536-19.066-19.065-19.066C97.069,20.302,88.609,28.684,88.452,39.076z
		 M75.96,78.114c10.529,0,19.067-8.537,19.067-19.067c0-10.528-8.538-19.065-19.067-19.065c-10.53,0-19.071,8.538-19.071,19.066
		C56.889,69.579,65.43,78.114,75.96,78.114z M84.047,79.414H67.869c-13.461,0-24.412,10.951-24.412,24.412v19.785l0.049,0.31
		l1.364,0.429c12.846,4.012,24.006,5.353,33.19,5.353c17.941,0,28.342-5.118,28.984-5.444l1.274-0.644h0.136v-19.788
		C108.459,90.365,97.508,79.414,84.047,79.414z M115.591,59.73H99.539c-0.175,6.423-2.916,12.207-7.253,16.366
		c11.964,3.56,20.72,14.656,20.72,27.762v6.097c15.85-0.583,24.985-5.073,25.587-5.377l1.271-0.644H140V84.142
		C140,70.681,129.049,59.73,115.591,59.73z M42.505,58.432c3.729,0,7.199-1.088,10.14-2.942c0.933-6.095,4.202-11.421,8.869-15.05
		c0.019-0.356,0.054-0.709,0.054-1.07c0-10.531-8.538-19.066-19.063-19.066c-10.533,0-19.066,8.535-19.066,19.066
		C23.438,49.896,31.972,58.432,42.505,58.432z M59.627,76.096c-4.316-4.138-7.047-9.891-7.247-16.274
		c-0.596-0.044-1.185-0.092-1.792-0.092H34.412C20.951,59.73,10,70.681,10,84.142v19.789l0.051,0.304l1.363,0.432
		c10.304,3.216,19.501,4.699,27.49,5.165v-5.974C38.907,90.752,47.659,79.658,59.627,76.096z"/>
</g>
</svg>
