<?xml version="1.0" encoding="utf-8"?>
<!-- Generator: Adobe Illustrator 16.0.0, SVG Export Plug-In . SVG Version: 6.00 Build 0)  -->
<!DOCTYPE svg PUBLIC "-//W3C//DTD SVG 1.1//EN" "http://www.w3.org/Graphics/SVG/1.1/DTD/svg11.dtd">
<svg version="1.1" id="Layer_1" xmlns="http://www.w3.org/2000/svg" xmlns:xlink="http://www.w3.org/1999/xlink" x="0px" y="0px"
	 width="150px" height="150px" viewBox="0 0 150 150" enable-background="new 0 0 150 150" xml:space="preserve">
<g>
	<path fill="#4158A7" d="M18.535,57.63c0.684,2.343,1.632,4.602,2.831,6.722l-3.417,4.309c-1.116,1.409-0.99,3.417,0.265,4.687
		l5.885,5.885c1.269,1.269,3.278,1.381,4.687,0.265l4.281-3.389c2.204,1.269,4.546,2.259,6.987,2.956l0.642,5.509
		c0.209,1.785,1.715,3.124,3.5,3.124h8.326c1.785,0,3.291-1.339,3.5-3.124l0.614-5.313c2.622-0.684,5.132-1.701,7.489-3.027
		l4.142,3.277c1.409,1.116,3.417,0.99,4.686-0.265l5.885-5.885c1.269-1.269,1.381-3.277,0.265-4.686l-3.221-4.086
		c1.338-2.315,2.384-4.784,3.082-7.363l4.965-0.572c1.786-0.209,3.124-1.715,3.124-3.5v-8.325c0-1.785-1.339-3.292-3.124-3.5
		l-4.895-0.573c-0.67-2.552-1.674-4.992-2.957-7.279l3.013-3.807c1.116-1.409,0.99-3.417-0.265-4.686l-5.872-5.872
		c-1.269-1.269-3.277-1.381-4.686-0.265l-3.695,2.928c-2.399-1.408-4.965-2.482-7.656-3.208l-0.558-4.783
		c-0.209-1.785-1.715-3.124-3.5-3.124H44.53c-1.785,0-3.291,1.338-3.5,3.124l-0.558,4.783c-2.761,0.74-5.397,1.855-7.852,3.319
		l-3.835-3.04c-1.409-1.116-3.417-0.99-4.687,0.265l-5.885,5.885c-1.269,1.269-1.38,3.277-0.265,4.686l3.208,4.058
		c-1.283,2.315-2.259,4.784-2.901,7.35l-5.132,0.586C11.339,41.885,10,43.392,10,45.177v8.325c0,1.786,1.339,3.292,3.125,3.501
		L18.535,57.63z M48.7,35.108c7.587,0,13.765,6.178,13.765,13.765c0,7.586-6.178,13.764-13.765,13.764
		c-7.586,0-13.764-6.178-13.764-13.764C34.936,41.286,41.113,35.108,48.7,35.108z"/>
	<path fill="#A0893F" d="M131.007,59.681l-4.393-3.71c-1.352-1.144-3.347-1.088-4.629,0.125l-2.427,2.273
		c-2.05-0.99-4.226-1.687-6.471-2.091l-0.684-3.348c-0.348-1.729-1.952-2.928-3.71-2.789l-5.732,0.488
		c-1.756,0.154-3.138,1.59-3.192,3.361l-0.111,3.403c-2.203,0.795-4.281,1.883-6.178,3.25l-2.901-1.924
		c-1.479-0.977-3.444-0.698-4.588,0.655l-3.709,4.421c-1.145,1.353-1.089,3.347,0.124,4.63l2.538,2.705
		c-0.878,1.98-1.505,4.059-1.868,6.193l-3.625,0.738c-1.73,0.35-2.93,1.953-2.79,3.71l0.488,5.732
		c0.152,1.756,1.589,3.138,3.36,3.192l3.92,0.126c0.711,1.868,1.645,3.64,2.774,5.3l-2.188,3.305
		c-0.977,1.478-0.698,3.444,0.654,4.588l4.393,3.711c1.354,1.143,3.348,1.087,4.631-0.126l2.872-2.691
		c1.884,0.878,3.863,1.533,5.899,1.924l0.795,3.933c0.349,1.729,1.952,2.929,3.71,2.789l5.731-0.488
		c1.758-0.153,3.139-1.589,3.194-3.361l0.125-3.849c2.091-0.739,4.071-1.743,5.898-2.984l3.166,2.092
		c1.479,0.977,3.444,0.697,4.588-0.655l3.71-4.393c1.144-1.353,1.088-3.347-0.126-4.63l-2.552-2.705
		c0.935-1.98,1.618-4.072,2.009-6.221l3.485-0.711c1.729-0.349,2.93-1.952,2.79-3.71l-0.489-5.731
		c-0.153-1.757-1.589-3.138-3.359-3.194L132.64,72.9c-0.726-2.036-1.701-3.96-2.915-5.746l1.911-2.873
		C132.64,62.804,132.36,60.824,131.007,59.681z M109.406,92.815c-6.192,0.53-11.659-4.087-12.175-10.277
		c-0.53-6.192,4.086-11.659,10.278-12.176c6.191-0.529,11.658,4.086,12.175,10.278C120.214,86.833,115.598,92.3,109.406,92.815z"/>
	<path fill="#565559" d="M38.589,108.239c-1.757,0.182-3.11,1.66-3.124,3.431l-0.042,3.528c-0.028,1.771,1.283,3.277,3.04,3.501
		l2.594,0.334c0.432,1.576,1.046,3.083,1.841,4.505l-1.674,2.064c-1.115,1.38-1.032,3.36,0.209,4.629l2.468,2.525
		c1.242,1.269,3.222,1.408,4.63,0.321l2.078-1.604c1.464,0.864,3.012,1.548,4.63,2.021l0.279,2.678
		c0.182,1.758,1.66,3.11,3.431,3.124l3.528,0.042c1.771,0.028,3.278-1.282,3.501-3.04l0.32-2.538
		c1.757-0.433,3.431-1.088,5.021-1.952l1.953,1.576c1.38,1.115,3.361,1.031,4.631-0.21l2.523-2.468
		c1.269-1.241,1.408-3.222,0.321-4.631l-1.493-1.938c0.921-1.533,1.632-3.166,2.12-4.881l2.314-0.237
		c1.758-0.181,3.11-1.659,3.125-3.431l0.041-3.528c0.028-1.771-1.282-3.277-3.04-3.501l-2.26-0.293
		c-0.433-1.701-1.073-3.346-1.91-4.88l1.409-1.729c1.115-1.381,1.031-3.361-0.21-4.63l-2.468-2.524
		c-1.241-1.27-3.222-1.409-4.63-0.32l-1.688,1.297c-1.59-0.963-3.292-1.702-5.076-2.203l-0.223-2.19
		c-0.182-1.757-1.66-3.109-3.431-3.124l-3.528-0.041c-1.771-0.027-3.277,1.283-3.5,3.04l-0.279,2.176
		c-1.84,0.474-3.612,1.199-5.257,2.147l-1.743-1.422c-1.38-1.116-3.361-1.033-4.63,0.208l-2.539,2.483
		c-1.269,1.24-1.408,3.221-0.32,4.629l1.492,1.925c-0.865,1.534-1.548,3.166-1.994,4.881L38.589,108.239z M61.363,104.251
		c5.062,0.056,9.12,4.226,9.065,9.289c-0.056,5.062-4.226,9.119-9.289,9.064c-5.062-0.057-9.12-4.226-9.065-9.289
		C52.13,108.254,56.3,104.196,61.363,104.251z"/>
</g>
</svg>
