<?xml version="1.0" encoding="utf-8"?>
<!-- Generator: Adobe Illustrator 16.0.0, SVG Export Plug-In . SVG Version: 6.00 Build 0)  -->
<!DOCTYPE svg PUBLIC "-//W3C//DTD SVG 1.1//EN" "http://www.w3.org/Graphics/SVG/1.1/DTD/svg11.dtd">
<svg version="1.1" id="Layer_1" xmlns="http://www.w3.org/2000/svg" xmlns:xlink="http://www.w3.org/1999/xlink" x="0px" y="0px"
	 width="150px" height="150px" viewBox="0 0 150 150" enable-background="new 0 0 150 150" xml:space="preserve">
<rect opacity="0" fill="#314089" width="150" height="150"/>
<g>
	<path fill="#314089" stroke="#565559" stroke-miterlimit="10" d="M137.416,12.574H12.583c-1.425,0-2.583,1.157-2.583,2.583v119.685
		c0,1.43,1.157,2.584,2.583,2.584h124.833c1.43,0,2.584-1.154,2.584-2.584V15.157C140,13.731,138.843,12.574,137.416,12.574z
		 M38.879,122.68c-0.279,1.326-0.72,2.542-1.308,3.613c-0.591,1.077-1.358,2.054-2.28,2.902c-0.003,0.003-0.005,0.005-0.006,0.008
		c-0.735,0.66-1.551,1.195-2.423,1.595c-0.867,0.396-1.81,0.677-2.801,0.838c-0.966,0.157-2.066,0.235-3.268,0.235h-6.722
		c-1.082,0-1.897-0.173-2.492-0.528c-0.637-0.381-1.06-0.928-1.255-1.625c-0.165-0.585-0.245-1.305-0.245-2.202v-18.672
		c0-1.306,0.322-2.289,0.96-2.927c0.637-0.637,1.622-0.96,2.927-0.96h6.722c1.799,0,3.375,0.172,4.681,0.51
		c1.354,0.352,2.598,1.016,3.697,1.977c2.806,2.403,4.228,6.07,4.228,10.901C39.293,119.916,39.154,121.375,38.879,122.68z
		 M109.188,43.46v15.873c0,18.851-15.336,34.188-34.188,34.188c-18.851,0-34.187-15.337-34.187-34.188V43.018
		c-2.054-0.974-3.487-3.051-3.487-5.471c0-3.345,2.722-6.069,6.069-6.069c3.348,0,6.07,2.723,6.07,6.069
		c0,2.42-1.433,4.497-3.487,5.471v16.315c0,16.003,13.02,29.022,29.022,29.022c16.001,0,29.022-13.017,29.022-29.02V43.462
		c-2.279-0.999-3.874-3.27-3.874-5.909c0-3.559,2.896-6.456,6.456-6.456c3.563,0,6.458,2.897,6.458,6.456
		C113.063,40.192,111.468,42.46,109.188,43.46z"/>
	<path fill="#314089" stroke="#565559" stroke-miterlimit="10" d="M29.154,125.946c0.432-0.153,0.808-0.37,1.119-0.643
		c0.004-0.004,0.007-0.007,0.011-0.01c1.546-1.308,2.331-3.657,2.331-6.983c0-2.367-0.347-4.139-1.032-5.269
		c-0.671-1.104-1.454-1.781-2.398-2.071c-1.039-0.319-2.322-0.48-3.816-0.48h-2.679v15.83h3.183c0.829,0,1.484-0.021,1.946-0.065
		C28.242,126.215,28.692,126.11,29.154,125.946z"/>
</g>
</svg>
