<?xml version="1.0" encoding="utf-8"?>
<!-- Generator: Adobe Illustrator 16.0.0, SVG Export Plug-In . SVG Version: 6.00 Build 0)  -->
<!DOCTYPE svg PUBLIC "-//W3C//DTD SVG 1.1//EN" "http://www.w3.org/Graphics/SVG/1.1/DTD/svg11.dtd">
<svg version="1.1" id="Layer_1" xmlns="http://www.w3.org/2000/svg" xmlns:xlink="http://www.w3.org/1999/xlink" x="0px" y="0px"
	 width="60px" height="150px" viewBox="0 0 60 150" enable-background="new 0 0 60 150" xml:space="preserve">
<path fill="#606772" d="M15,3.5C8.096,3.5,2.5,9.096,2.5,16S8.096,28.5,15,28.5c6.904,0,12.5-5.596,12.5-12.5S21.904,3.5,15,3.5z
	 M20.98,17.004l-7.456,5.129c-0.208,0.143-0.449,0.215-0.691,0.215c-0.194,0-0.388-0.046-0.566-0.14
	c-0.4-0.212-0.651-0.626-0.651-1.078V10.871c0-0.452,0.251-0.867,0.651-1.079c0.4-0.21,0.885-0.182,1.258,0.075l7.457,5.129
	c0.33,0.228,0.526,0.604,0.526,1.004S21.313,16.776,20.98,17.004z"/>
<g>
	<path fill="#606772" d="M15,32.5C8.097,32.5,2.5,38.097,2.5,45S8.097,57.5,15,57.5c6.902,0,12.5-5.597,12.5-12.5
		S21.902,32.5,15,32.5z M16.911,51.825c0,1.048-0.858,1.898-1.906,1.898s-1.905-0.85-1.905-1.898v-8.302
		c0-1.048,0.857-1.897,1.905-1.897c1.047,0,1.906,0.849,1.906,1.897V51.825z M15,40.058c-1.156,0-2.094-0.938-2.094-2.093
		c0-1.157,0.938-2.093,2.094-2.093c1.154,0,2.094,0.936,2.094,2.093C17.094,39.12,16.154,40.058,15,40.058z"/>
</g>
<g>
	<g>
		<path fill="#606772" d="M26.495,62.574c-0.424,0-0.781,0.279-0.932,0.675c-1.744,0.907-5.795,2.961-8.779,4.1
			c-5.588,2.136-10.464,2.695-10.464,2.695v8.044c0,0,1.668,0.193,4.163,0.777l0.038,7.496c0.003,0.588,0.49,1.066,1.079,1.064
			l1.743-0.008c0.59-0.004,1.068-0.488,1.066-1.08l-0.035-6.396c0.781,0.25,1.586,0.527,2.411,0.844
			c2.983,1.141,7.034,3.191,8.78,4.1c0.148,0.395,0.509,0.674,0.93,0.674c0.553,0,1.005-0.48,1.005-1.072v-20.84
			C27.5,63.057,27.046,62.574,26.495,62.574z"/>
		<rect x="2.5" y="70.135" fill="#606772" width="2.927" height="7.865"/>
	</g>
</g>
<g>
	<path fill="#606772" d="M16.895,94.395c5.857,0,10.605,4.748,10.605,10.605s-4.748,10.605-10.605,10.605v-2.273
		c2.227,0,4.318-0.865,5.894-2.439s2.44-3.668,2.44-5.893c0-2.227-0.867-4.318-2.44-5.893c-1.574-1.575-3.667-2.441-5.894-2.441
		s-4.318,0.867-5.893,2.441c-1.211,1.211-2.003,2.729-2.304,4.377h4.408l-5.303,6.061L2.5,103.484h3.896
		C7.132,98.346,11.551,94.395,16.895,94.395z M21.439,103.484v3.031h-6.062v-7.576h3.031v4.545H21.439z"/>
</g>
<g id="_x37_7_Essential_Icons_38_">
	<path id="More_Details__x28_3_x29_" fill="#606772" d="M15,122.5c-6.908,0-12.5,5.592-12.5,12.5s5.592,12.5,12.5,12.5
		c6.908,0,12.5-5.592,12.5-12.5S21.908,122.5,15,122.5z M15,146.184c-6.184,0-11.184-5-11.184-11.184s5-11.184,11.184-11.184
		c6.184,0,11.184,5,11.184,11.184S21.184,146.184,15,146.184z M15,132.697c-1.283,0-2.303,1.02-2.303,2.303s1.02,2.303,2.303,2.303
		c1.283,0,2.303-1.02,2.303-2.303S16.283,132.697,15,132.697z M15,135.986c-0.559,0-0.987-0.46-0.987-0.986
		c0-0.559,0.428-0.986,0.987-0.986c0.559,0,0.987,0.428,0.987,0.986C15.987,135.526,15.559,135.986,15,135.986z M21.578,132.697
		c-1.281,0-2.302,1.02-2.302,2.303s1.021,2.303,2.302,2.303c1.284,0,2.304-1.02,2.304-2.303S22.862,132.697,21.578,132.697z
		 M21.578,135.986c-0.559,0-0.986-0.46-0.986-0.986c0-0.559,0.428-0.986,0.986-0.986c0.56,0,0.988,0.428,0.988,0.986
		C22.566,135.526,22.138,135.986,21.578,135.986z M8.421,132.697c-1.283,0-2.303,1.02-2.303,2.303s1.02,2.303,2.303,2.303
		c1.283,0,2.303-1.02,2.303-2.303S9.704,132.697,8.421,132.697z M8.421,135.986c-0.559,0-0.987-0.46-0.987-0.986
		c0-0.559,0.428-0.986,0.987-0.986c0.56,0,0.987,0.428,0.987,0.986C9.408,135.526,8.98,135.986,8.421,135.986z"/>
</g>
<path fill="#FFFFFF" d="M45,2.5c-6.903,0-12.5,5.596-12.5,12.5S38.097,27.5,45,27.5c6.904,0,12.5-5.596,12.5-12.5S51.904,2.5,45,2.5
	z M50.98,16.004l-7.456,5.129c-0.207,0.143-0.448,0.215-0.69,0.215c-0.194,0-0.388-0.046-0.565-0.14
	c-0.4-0.212-0.651-0.626-0.651-1.078V9.871c0-0.452,0.251-0.867,0.651-1.079c0.399-0.21,0.885-0.182,1.258,0.075l7.456,5.129
	c0.33,0.228,0.526,0.604,0.526,1.004S51.313,15.776,50.98,16.004z"/>
<g>
	<path fill="#FFFFFF" d="M45,32.5c-6.903,0-12.5,5.597-12.5,12.5c0,6.902,5.597,12.5,12.5,12.5c6.902,0,12.5-5.598,12.5-12.5
		C57.5,38.097,51.902,32.5,45,32.5z M46.911,51.825c0,1.048-0.858,1.897-1.906,1.897s-1.904-0.85-1.904-1.897v-8.303
		c0-1.048,0.856-1.896,1.904-1.896c1.047,0,1.906,0.849,1.906,1.896V51.825z M45,40.058c-1.156,0-2.094-0.938-2.094-2.093
		c0-1.157,0.938-2.093,2.094-2.093c1.154,0,2.094,0.936,2.094,2.093C47.094,39.12,46.154,40.058,45,40.058z"/>
</g>
<g>
	<g>
		<path fill="#FFFFFF" d="M56.494,62.574c-0.424,0-0.781,0.279-0.932,0.675c-1.744,0.907-5.795,2.961-8.779,4.101
			c-5.588,2.136-10.464,2.694-10.464,2.694v8.044c0,0,1.668,0.193,4.163,0.777l0.038,7.496c0.003,0.588,0.49,1.066,1.079,1.064
			l1.743-0.008c0.59-0.004,1.068-0.488,1.066-1.08l-0.035-6.396c0.781,0.25,1.586,0.527,2.411,0.844
			c2.982,1.141,7.033,3.191,8.779,4.1c0.148,0.395,0.51,0.674,0.93,0.674c0.553,0,1.006-0.48,1.006-1.072V63.647
			C57.5,63.057,57.047,62.574,56.494,62.574z"/>
		<rect x="32.501" y="70.135" fill="#FFFFFF" width="2.926" height="7.865"/>
	</g>
</g>
<g>
	<path fill="#FFFFFF" d="M46.895,94.395c5.857,0,10.605,4.748,10.605,10.605s-4.748,10.605-10.605,10.605v-2.273
		c2.227,0,4.318-0.865,5.894-2.439s2.44-3.668,2.44-5.893c0-2.227-0.867-4.318-2.44-5.893c-1.574-1.576-3.667-2.441-5.894-2.441
		s-4.318,0.867-5.893,2.441c-1.211,1.211-2.003,2.729-2.304,4.377h4.408l-5.303,6.061l-5.304-6.061h3.896
		C37.132,98.346,41.551,94.395,46.895,94.395z M51.439,103.484v3.031h-6.062v-7.576h3.031v4.545H51.439z"/>
</g>
<g id="_x37_7_Essential_Icons_1_">
	<path id="More_Details__x28_3_x29__1_" fill="#FFFFFF" d="M45,122.5c-6.907,0-12.5,5.592-12.5,12.5s5.593,12.5,12.5,12.5
		c6.908,0,12.5-5.592,12.5-12.5S51.908,122.5,45,122.5z M45,146.184c-6.185,0-11.185-5-11.185-11.184s5-11.184,11.185-11.184
		c6.184,0,11.184,5,11.184,11.184S51.184,146.184,45,146.184z M45,132.697c-1.282,0-2.303,1.02-2.303,2.303s1.021,2.303,2.303,2.303
		c1.283,0,2.303-1.02,2.303-2.303S46.283,132.697,45,132.697z M45,135.986c-0.56,0-0.987-0.461-0.987-0.986
		c0-0.559,0.428-0.986,0.987-0.986c0.559,0,0.987,0.428,0.987,0.986C45.987,135.525,45.559,135.986,45,135.986z M51.578,132.697
		c-1.281,0-2.302,1.02-2.302,2.303s1.021,2.303,2.302,2.303c1.284,0,2.304-1.02,2.304-2.303S52.862,132.697,51.578,132.697z
		 M51.578,135.986c-0.559,0-0.986-0.461-0.986-0.986c0-0.559,0.428-0.986,0.986-0.986c0.56,0,0.988,0.428,0.988,0.986
		C52.566,135.525,52.138,135.986,51.578,135.986z M38.421,132.697c-1.283,0-2.303,1.02-2.303,2.303s1.02,2.303,2.303,2.303
		s2.303-1.02,2.303-2.303S39.704,132.697,38.421,132.697z M38.421,135.986c-0.559,0-0.986-0.461-0.986-0.986
		c0-0.559,0.428-0.986,0.986-0.986c0.56,0,0.987,0.428,0.987,0.986C39.408,135.525,38.98,135.986,38.421,135.986z"/>
</g>
</svg>
